<svg xmlns="http://www.w3.org/2000/svg" width="20" height="20" viewBox="0 0 20 20">
  <g id="Group_2900" data-name="Group 2900" transform="translate(0)">
    <path id="badge-check-solid" d="M9.224,0a3.459,3.459,0,0,1,3.059,1.841,3.46,3.46,0,0,1,4.324,4.324,3.462,3.462,0,0,1,0,6.118,3.46,3.46,0,0,1-4.324,4.324,3.462,3.462,0,0,1-6.118,0,3.46,3.46,0,0,1-4.324-4.324,3.462,3.462,0,0,1,0-6.118A3.46,3.46,0,0,1,6.165,1.841,3.459,3.459,0,0,1,9.224,0Zm3.495,8.107A.864.864,0,0,0,11.5,6.885L8.074,10.308,6.669,8.9a.864.864,0,1,0-1.221,1.221l2.018,2.018a.861.861,0,0,0,1.221,0Z" transform="translate(0.751 0.802)" fill="#4fb096"/>
    <rect id="Rectangle_1729" data-name="Rectangle 1729" width="20" height="20" transform="translate(0)" fill="none"/>
  </g>
</svg>
