<svg xmlns="http://www.w3.org/2000/svg" xmlns:xlink="http://www.w3.org/1999/xlink" width="1280" height="813.742" viewBox="0 0 1280 813.742">
  <defs>
    <linearGradient id="linear-gradient" x1="0.5" x2="0.5" y2="1" gradientUnits="objectBoundingBox">
      <stop offset="0" stop-color="#69c2f4"/>
      <stop offset="1" stop-color="#4878e4"/>
    </linearGradient>
  </defs>
  <g id="Group_2861" data-name="Group 2861" transform="translate(1234 3278.933) rotate(180)">
    <path id="Subtraction_1" data-name="Subtraction 1" d="M1042,477.855H-238V-335.887A384.066,384.066,0,0,0-149.3-283.8,393.206,393.206,0,0,0,4.349-252.811c1.3,0,2.62-.006,3.918-.019,88.49-.851,142-13.542,193.757-25.815,22.431-5.32,45.626-10.82,71.03-15.127,13.66-2.316,26.9-4.122,40.49-5.523,15.227-1.569,30.509-2.6,46.722-3.135,5.047-.168,10.144-.254,15.15-.254,11.3,0,22.336.415,33.725,1.268,10.156.761,20.349,1.854,31.159,3.342,20.55,2.829,40.321,6.714,57.764,10.141l1.346.264c18.174,3.572,36.967,7.265,56.3,9.976,10.4,1.458,20.144,2.529,29.8,3.272,10.823.834,21.258,1.239,31.9,1.239,9.587,0,19.383-.346,29.116-1.028,10.312-.723,20.948-1.85,31.611-3.35,11.2-1.576,22.827-3.619,34.563-6.073,12.245-2.561,25.02-5.655,37.971-9.2,19.848-5.428,39.922-10.166,59.665-14.082,18.171-3.6,36.493-6.6,54.457-8.9a723.252,723.252,0,0,1,91.4-5.989c38.906,0,68.138,3.458,85.81,6.358V477.854Z" transform="translate(192 2801.078)" fill="url(#linear-gradient)"/>
  </g>
</svg>
