<svg xmlns="http://www.w3.org/2000/svg" width="202.887" height="131.322" viewBox="0 0 202.887 131.322">
  <g id="Group_2962" data-name="Group 2962" transform="translate(-91)">
    <g id="Group_2965" data-name="Group 2965" transform="translate(91)">
      <path id="Path_6714" data-name="Path 6714" d="M.25,189.18c-.787,1,.414,4.151,1.782,4.154l149.189,1.192a26.975,26.975,0,0,0,5.674-.888c10.684-2.07,20.786-3.682,24.77-4.662a2.629,2.629,0,0,0,1.909-1.86c5.018-18.257,16.044-69.468,18.774-81.107q.184-.783.367-1.566a5.247,5.247,0,0,0-2.234-5.767,4.222,4.222,0,0,0-2.466-.889L63.628,183.307Z" transform="translate(0 -63.204)" fill="#560c1b"/>
      <path id="Path_6715" data-name="Path 6715" d="M269.324,100.329q-2.285,10.516-4.574,21.033c-4.166,19.142-8.976,38.272-13.611,57.378-.1.4-.2.808-.3,1.212-.287,1.173-.564,2.345-.842,3.523a.743.743,0,0,1-.73.578l-141.819-.313,1.346-5.8,18.115-77.927a3.352,3.352,0,0,1,3.185-2.4l137.166.3a1.939,1.939,0,0,1,2.061,2.416" transform="translate(-69.45 -63.09)" fill="#fff"/>
      <path id="Path_6716" data-name="Path 6716" d="M251.45,325.66c-.082.371-.164.743-.24,1.114-.232,1.077-.455,2.154-.677,3.236a.688.688,0,0,1-.7.53l-141.483-.311,1.075-5.326Z" transform="translate(-70.03 -210)" fill="#d6b9b0"/>
      <path id="Path_6717" data-name="Path 6717" d="M248.843,183.9l-142.055-.313,1.4-6.026L126.3,99.633a3.552,3.552,0,0,1,3.36-2.548l137.173.3a2.362,2.362,0,0,1,1.88.833,2.088,2.088,0,0,1,.363,1.809q-1.151,5.3-2.305,10.6L264.5,121.062c-3.3,15.183-7.074,30.606-10.72,45.52q-1.45,5.933-2.892,11.863c-.1.4-.2.808-.3,1.211-.287,1.173-.564,2.346-.841,3.522a.934.934,0,0,1-.91.721m-141.587-.684,141.586.312a.561.561,0,0,0,.548-.432c.278-1.181.555-2.354.842-3.527.1-.4.2-.808.3-1.213q1.439-5.929,2.893-11.862c3.645-14.912,7.414-30.331,10.717-45.51l2.269-10.434q1.153-5.3,2.305-10.6a1.725,1.725,0,0,0-.291-1.5,1.967,1.967,0,0,0-1.589-.691l-137.166-.3a3.165,3.165,0,0,0-3,2.26Z" transform="translate(-69.022 -62.75)" fill="#560c1b"/>
      <path id="Path_6718" data-name="Path 6718" d="M298.808,109.591l2.375-10.138-1.007-1.186-1.288-.358-137.164-.3-1.234.252-1.4,1.05-.891,2.567-1.813,7.8Z" transform="translate(-101.077 -63.087)" fill="#560c1b"/>
      <path id="Path_6719" data-name="Path 6719" d="M248.659,183.775l-141.821-.313a.336.336,0,0,1-.326-.411l1.346-5.8,18.115-77.927a3.709,3.709,0,0,1,3.505-2.663l137.173.3a2.511,2.511,0,0,1,2,.89,2.235,2.235,0,0,1,.391,1.936q-1.151,5.3-2.3,10.6l-2.269,10.434c-3.3,15.185-7.075,30.608-10.721,45.523q-1.45,5.932-2.893,11.862c-.1.4-.2.808-.3,1.211-.288,1.174-.564,2.346-.841,3.522a1.084,1.084,0,0,1-1.055.836m-141.4-.982,141.4.312a.411.411,0,0,0,.4-.315c.279-1.183.556-2.357.843-3.53.1-.4.2-.808.3-1.214q1.438-5.927,2.892-11.862c3.645-14.911,7.414-30.33,10.716-45.507l2.27-10.434q1.153-5.3,2.3-10.6a1.583,1.583,0,0,0-.262-1.374,1.821,1.821,0,0,0-1.472-.635l-137.166-.3a3.009,3.009,0,0,0-2.859,2.145Z" transform="translate(-68.838 -62.478)" fill="#560c1b"/>
      <path id="Path_6720" data-name="Path 6720" d="M495.3,330.355a.906.906,0,0,0,0,1.812.906.906,0,0,0,0-1.812" transform="translate(-319.55 -213.524)" fill="#fff"/>
      <path id="Path_6721" data-name="Path 6721" d="M486.8,330.336a.906.906,0,0,0,0,1.812.906.906,0,0,0,0-1.812" transform="translate(-314.055 -213.511)" fill="#fff"/>
      <path id="Path_6722" data-name="Path 6722" d="M283.244,147.9c-.652,5.451-10.743,52.489-10.769,52.664,0,0-.434,2.837-.435,2.842-.489,1.708-.9,1.728-1.821,1.705l-112.835-.63a1.189,1.189,0,0,1-1.063-1.4l.151-1.1,11.11-54.866a1.2,1.2,0,0,1,1.135-1.034l113.676.756a.9.9,0,0,1,.851,1.058" transform="translate(-101.029 -94.419)" fill="#f0e3df"/>
      <path id="Path_6723" data-name="Path 6723" d="M478.4,330.318a.906.906,0,0,0,0,1.812.906.906,0,0,0,0-1.812" transform="translate(-308.628 -213.5)" fill="#fff"/>
      <path id="Path_6726" data-name="Path 6726" d="M38.221,340.477l-37.168,5.13c-.313.087-.613.569-.613.569l150.006.909a5.073,5.073,0,0,0,2.354-.573l27.9-5.559Z" transform="translate(-0.284 -220.066)" fill="#560c1b"/>
      <path id="Path_6728" data-name="Path 6728" d="M183.6,344.457c-5.75,1.432-11.553,2.632-17.363,3.792-2.85.569-5.7,1.13-8.55,1.707-2.734.554-5.7.243-8.492.234q-17.266-.059-34.531-.2c-23.291-.175-46.582-.412-69.873-.582q-19.338-.141-38.677-.2a.335.335,0,0,0,0,.67c23.211.052,46.422.248,69.632.451,23.307.2,46.613.42,69.921.513q4.752.019,9.5.031a20.307,20.307,0,0,0,4.118-.563q2.494-.5,4.988-.994c6.523-1.3,13.045-2.609,19.5-4.217a.335.335,0,0,0-.178-.646" transform="translate(-3.745 -222.631)" fill="#931f33"/>
      <rect id="Rectangle_1791" data-name="Rectangle 1791" width="202.887" height="131.322" fill="none"/>
    </g>
    <path id="Path_6724" data-name="Path 6724" d="M544.23,93.185a1.7,1.7,0,0,0-.007,3.4,1.7,1.7,0,0,0,.007-3.4" transform="translate(-291.846 -60.23)" fill="#fff"/>
    <path id="Path_6725" data-name="Path 6725" d="M528.474,93.15a1.7,1.7,0,0,0-.007,3.4,1.7,1.7,0,0,0,.007-3.4" transform="translate(-281.662 -60.207)" fill="#fff"/>
    <path id="Path_6727" data-name="Path 6727" d="M559.71,101.378c.994,1.283.064,3.421-.285,4.794l-1.121,4.412a.335.335,0,0,0,.646.178l1.442-5.673c.359-1.413.764-2.932-.208-4.185-.263-.341-.734.137-.474.474" transform="translate(-302.032 -65.144)" fill="#931f33"/>
    <path id="Path_6735" data-name="Path 6735" d="M372.233,127.288,298,125.389a3.743,3.743,0,0,1-3.649-4.563l16.971-74.117a3.65,3.65,0,0,1,3.568-2.832h72.25a3.743,3.743,0,0,1,3.649,4.563L375.8,124.456a3.651,3.651,0,0,1-3.568,2.832" transform="translate(-131.376 -28.359)" fill="#fff"/>
    <path id="Path_6736" data-name="Path 6736" d="M371.553,126.98l-74.238-1.9a4.115,4.115,0,0,1-4-5.019l16.971-74.117a4.011,4.011,0,0,1,3.931-3.121h72.25a4.116,4.116,0,0,1,4.012,5.019l-14.99,76.006a4.014,4.014,0,0,1-3.933,3.132M314.214,43.568a3.27,3.27,0,0,0-3.206,2.543l-16.971,74.117a3.372,3.372,0,0,0,3.286,4.108l74.234,1.9a3.269,3.269,0,0,0,3.2-2.543l14.99-76.006a3.371,3.371,0,0,0-3.284-4.119Z" transform="translate(-130.696 -27.679)" fill="#edd0ca"/>
    <path id="Path_6737" data-name="Path 6737" d="M347.258,161.551H407.94a.335.335,0,0,0,0-.67H347.258a.335.335,0,0,0,0,.67" transform="translate(-165.422 -103.985)" fill="#3d0a09"/>
    <path id="Path_6738" data-name="Path 6738" d="M343.6,175.269h60.683a.335.335,0,0,0,0-.67H343.6a.335.335,0,0,0,0,.67" transform="translate(-163.055 -112.851)" fill="#3d0a09"/>
    <path id="Path_6739" data-name="Path 6739" d="M339.79,188.986h60.683a.335.335,0,0,0,0-.67H339.79a.335.335,0,0,0,0,.67" transform="translate(-160.595 -121.717)" fill="#3d0a09"/>
    <path id="Path_6740" data-name="Path 6740" d="M337.179,201.171h60.683a.335.335,0,0,0,0-.67H337.179a.335.335,0,0,0,0,.67" transform="translate(-158.907 -129.593)" fill="#3d0a09"/>
    <path id="Path_6741" data-name="Path 6741" d="M334.567,213.356H395.25a.335.335,0,0,0,0-.67H334.567a.335.335,0,0,0,0,.67" transform="translate(-157.219 -137.469)" fill="#3d0a09"/>
    <path id="Path_6742" data-name="Path 6742" d="M429.216,75.051c13,0,26,.05,39,.051a.335.335,0,0,0,0-.67c-13,0-26-.05-39-.051a.335.335,0,0,0,0,.67" transform="translate(-218.395 -48.076)" fill="#3d0a09"/>
    <path id="Path_6743" data-name="Path 6743" d="M425.436,88.753c13,0,26,.05,39,.051a.335.335,0,0,0,0-.67c-13,0-26-.05-39-.051a.335.335,0,0,0,0,.67" transform="translate(-215.952 -56.932)" fill="#3d0a09"/>
    <path id="Path_6744" data-name="Path 6744" d="M431.116,244.367c7.775,0,15.551.051,23.326.051a.335.335,0,0,0,0-.67c-7.775,0-15.551-.05-23.326-.051a.335.335,0,0,0,0,.67" transform="translate(-219.623 -157.512)" fill="#3d0a09"/>
    <path id="Path_6745" data-name="Path 6745" d="M422.973,102.742c13,0,26,.051,39,.051a.335.335,0,0,0,0-.669c-13,0-26-.05-39-.051a.335.335,0,0,0,0,.669" transform="translate(-214.36 -65.974)" fill="#3d0a09"/>
    <path id="Path_6746" data-name="Path 6746" d="M420.53,117.863h38.116a.335.335,0,0,0,0-.67H420.53a.335.335,0,0,0,0,.67" transform="translate(-212.781 -75.747)" fill="#3d0a09"/>
    <path id="Path_6747" data-name="Path 6747" d="M353.384,132.263h60.683a.335.335,0,0,0,0-.67H353.384a.335.335,0,0,0,0,.67" transform="translate(-169.381 -85.055)" fill="#3d0a09"/>
    <path id="Path_6748" data-name="Path 6748" d="M349.451,147.1h60.683a.335.335,0,0,0,0-.67H349.451a.335.335,0,0,0,0,.67" transform="translate(-166.839 -94.644)" fill="#3d0a09"/>
    <path id="Path_6749" data-name="Path 6749" d="M379.458,70.369H363.909a1.017,1.017,0,0,0-.985.79l-3.537,15.517a.953.953,0,0,0,.93,1.174h15.548a1.017,1.017,0,0,0,.985-.79l3.537-15.517a.953.953,0,0,0-.93-1.174" transform="translate(-173.455 -45.483)" fill="#f0e3df"/>
    <path id="Path_6750" data-name="Path 6750" d="M434.251,232.29a36.847,36.847,0,0,1,6.422-6.584,3.733,3.733,0,0,1,2.05-1,1.059,1.059,0,0,1,1.185.62,1.564,1.564,0,0,1-.144,1.545c-.6,1.273-1.927,2.779-3.463,2.748-.647-.013-.744-.4-.4-.833a3.371,3.371,0,0,1,1.008-.671,5.114,5.114,0,0,1,2.269-.655q.84-.173,1.018,1.01l-.314.411a2.626,2.626,0,0,0-.5.785.642.642,0,0,0,.073.661c.456.52,1.914.044,2.45-.1a8.108,8.108,0,0,0,3.2-1.734l-.466-.272c-.278,1.3,1.332,1.38,2.223,1.3A9.214,9.214,0,0,0,455.2,228c.3-.2.018-.682-.282-.482a8.613,8.613,0,0,1-2.582,1.181c-.382.1-3.4.752-3.166-.334a.282.282,0,0,0-.466-.272,7.361,7.361,0,0,1-2.237,1.355c-.385.147-2.345.794-2.469.379-.108-.361.794-1.133.891-1.589a1.069,1.069,0,0,0-.259-1.015c-.8-.8-2.691-.177-3.548.191-.671.288-2.283,1.046-2.185,1.974.11,1.046,1.845.828,2.49.587a5.532,5.532,0,0,0,2.726-2.572c.443-.818.9-2.02.1-2.778a2.464,2.464,0,0,0-2.678-.169,17.091,17.091,0,0,0-4.151,3.418,38.2,38.2,0,0,0-3.625,4.134c-.217.286.267.564.482.282" transform="translate(-221.512 -144.875)" fill="#3d0a09"/>
    <path id="Path_6751" data-name="Path 6751" d="M285.073,83.893l-6.36-10.68a1.536,1.536,0,0,0-.237-.35L219.157,6.836c1.878-.286,3.822,1.876,4.921,3.173,1.572,1.855,11.679,12.93,15.366,16.41,1.372,1.294,3.448-.775,2.073-2.073-4.823-4.55-8.95-9.048-13.691-14.408-2.676-3.026-6.6-7.733-10.771-5.442L213.432.464c-.245-.476-1.244-.5-1.567-.437a6.979,6.979,0,0,0-3.672,2.4c-.773.912-1.773,2.325-.769,3.439l64.958,72.3a1.527,1.527,0,0,0,.534.382l11.4,6.133a.584.584,0,0,0,.754-.794" transform="translate(-74.977 0)" fill="#b7c5c8"/>
    <path id="Path_6790" data-name="Path 6790" d="M235.776,14.058l1.134,1.17c.3.31.774-.164.474-.474l-1.134-1.17c-.3-.31-.774.164-.474.474" transform="translate(-93.513 -8.715)" fill="#3d0a09"/>
    <path id="Path_6791" data-name="Path 6791" d="M213.934,1.414c.149.988-1.076,2.088-1.782,2.588a5.829,5.829,0,0,1-2.407.976c-.424.074-.244.72.178.646a6.377,6.377,0,0,0,3.238-1.581,3.431,3.431,0,0,0,1.419-2.808c-.064-.425-.71-.244-.646.178" transform="translate(-76.593 -0.642)" fill="#3d0a09"/>
    <path id="Path_6792" data-name="Path 6792" d="M398.412,204.689c.454,1.885-1.664,3.966-3.468,4.132-.425.04-.43.71,0,.67,2.257-.209,4.683-2.619,4.114-4.981-.1-.419-.747-.242-.646.178" transform="translate(-196.246 -132.03)" fill="#3d0a09"/>
  </g>
</svg>
