<svg xmlns="http://www.w3.org/2000/svg" xmlns:xlink="http://www.w3.org/1999/xlink" width="145.862" height="155.804" viewBox="0 0 145.862 155.804">
  <defs>
    <clipPath id="clip-path">
      <rect id="Rectangle_1793" data-name="Rectangle 1793" width="145.862" height="155.804" fill="none"/>
    </clipPath>
  </defs>
  <g id="Group_5131" data-name="Group 5131" transform="translate(-231.069 -1961.197)">
    <g id="Ellipse_115" data-name="Ellipse 115" transform="translate(242 1970)" fill="#4878e4" stroke="#4878e4" stroke-width="1" opacity="0.5">
      <circle cx="62" cy="62" r="62" stroke="none"/>
      <circle cx="62" cy="62" r="61.5" fill="none"/>
    </g>
    <g id="Group_2968" data-name="Group 2968" transform="translate(231.069 1961.197)">
      <g id="Group_2967" data-name="Group 2967" clip-path="url(#clip-path)">
        <path id="Path_6861" data-name="Path 6861" d="M13.311,421.9a.5.5,0,0,0-.249-.486c-3.631-2.063-4.515-3.707-5.392-5.645,0,0-.006.006-.009.009q-.061.114-.124.228c-.172.351-.2,1.187-.408,1.52a1.186,1.186,0,0,1-.1.139l-.1.172c-.164.442-.292.894-.457,1.333-.024.155-.049.309-.077.464a18.271,18.271,0,0,0-.368,2.651c.245,1.572,1.329,2.678,2.468,3.835a9.424,9.424,0,0,0,3.627,2.708c.312.11.672-.4.692-.728.128-2.165.267-4.044.5-6.2" transform="translate(-5.469 -377.619)" fill="#d3e7f0"/>
        <path id="Path_6862" data-name="Path 6862" d="M934.545,1569.542c0-.142,0-.285,0-.427-.1-.405-.153-.821-.247-1.229l-.07-.158a.861.861,0,0,1-.08-.128,8.332,8.332,0,0,1-.383-.956q-.045-.1-.088-.21s-.005-.012-.008-.008c-1.073,1.62-.969,2.689-4.112,4.216a9.9,9.9,0,0,1-4.676,1.322.408.408,0,0,0-.4.381c-.117,1.834-.365,3.323-.639,5.053a2.512,2.512,0,0,1,.564.728c3.268-.334,6.057-1.255,7.47-2.4a7.914,7.914,0,0,0,2.734-3.645,17.717,17.717,0,0,0-.065-2.542" transform="translate(-839.073 -1422.694)" fill="#d3e7f0"/>
        <path id="Path_6863" data-name="Path 6863" d="M1024.141,256.677c-.206,2.216-.452,4.936-.714,7.858-.111,1.233-.224,2.5-.338,3.783q-.036.406-.072.815-.07.782-.14,1.566c-.117,1.341-.236,2.68-.352,3.994-.184,2.1-.363,4.13-.524,5.991-.339,3.879-.61,7.02-.735,8.481-.024.289-.043.512-.056.663a8.086,8.086,0,0,1-1.425,3.99,12.387,12.387,0,0,1-5.279,3.151,29.458,29.458,0,0,1-9.325,1.375,40.342,40.342,0,0,1-4.775-.289,38.874,38.874,0,0,1-7.189-1.538c.053-.4.113-.851.179-1.342.283-2.132.651-4.941.868-6.72q.54-4.4,1.021-8.8.074-.674.145-1.35.58-5.423,1.067-10.857.654-7.28,1.142-14.572h0a.076.076,0,0,1,0-.043c0-.029.005-.06.007-.089l.132.017q3.676.48,7.387.616a36.774,36.774,0,0,0,8.13-.451c1.075-.2,6.3-1.622,9.568-4.957,1.69,2.6,1.732,3.817,1.275,8.713" transform="translate(-902.082 -225.211)" fill="#d3e7f0"/>
        <path id="Path_6864" data-name="Path 6864" d="M391.347,200.861v.013a24.7,24.7,0,0,1-7.021-.275c-2.638-.4-5.57-.858-7.95-2.218-.446,1.674-1.059,3.319-1.517,4.974-1.485,5.358-2.426,10.839-3.576,16.272-.28,1.321-.6,2.635-.843,3.963q-.1.555-.192,1.113c-.009.055-.026.382-.06.62,0,.088-.023.217-.07.251-.015.124-.031.247-.045.371q-.058.5-.105,1a25.924,25.924,0,0,0-.1,3.55,7.977,7.977,0,0,1-.539,3.561c-.072,1.192-.211,2.379-.376,3.563a7.584,7.584,0,0,0,1.747,2.588c2.563,2.605,6.514,3.228,9.963,3.75a28.561,28.561,0,0,0,5.621.4,1.6,1.6,0,0,0,1.513-1.463l1.654-19.517.005-.069.005-.069,1.9-22.38h-.007" transform="translate(-335.093 -180.178)" fill="#d3e7f0"/>
        <path id="Path_6865" data-name="Path 6865" d="M516.028,800.069a.2.2,0,0,0-.189-.221c-1.058-.074-2.113-.208-3.162-.363a27.156,27.156,0,0,1-7.2-1.77.2.2,0,0,0-.288.159c-.1.781-.226,1.883-.319,2.624a.2.2,0,0,0,.112.209,25.256,25.256,0,0,0,7.34,1.894c1.076.162,2.159.3,3.245.372a.2.2,0,0,0,.217-.186c.047-.536.179-1.994.249-2.719" transform="translate(-458.538 -724.502)" fill="#d3e7f0"/>
        <path id="Path_6866" data-name="Path 6866" d="M1134.021,188.329c-.152-.091-.295-.172-.423-.243a29.221,29.221,0,0,0-10.135-3.323c-.173-.023-.415-.049-.669-.074a1.283,1.283,0,0,0-1.406,1.163c-.094,1.068-.225,2.555-.3,3.448,0,.025,0,.049-.007.075s0,.039-.005.059q-.23,2.579-.464,5.159c0,.044-.009.089-.013.133q-.112,1.239-.225,2.472-.048.528-.1,1.058c-.519,5.635-1.065,11.4-1.626,17.164-.145,1.484-.394,4-.554,5.62a1.691,1.691,0,0,0,1.339,1.822,42.227,42.227,0,0,1,4.971,1.277,28.98,28.98,0,0,1,6.706,3.529,27.656,27.656,0,0,1,2.219,1.746,16.5,16.5,0,0,1,1.343,2.31s.961-10.86,1.411-15.589c0-.037.007-.076.011-.113q.078-.828.157-1.665.21-2.215.42-4.488.08-.856.16-1.72c.313-3.385.628-6.846.943-10.356l.156-1.754a8.187,8.187,0,0,0-3.906-7.71" transform="translate(-1015.49 -167.737)" fill="#f7efec"/>
        <path id="Path_6867" data-name="Path 6867" d="M1157.093,238.907l-.036-.023-.04-.025a27.353,27.353,0,0,0-11.073-3.849c0,.025,0,.049-.007.075s0,.039-.005.059a27.2,27.2,0,0,1,11.01,3.826l.045.029.037.023c1.2.73,1.2.73,1.109,1.725-.008.092-.017.192-.027.3-.005.063-.013.131-.025.228-.039.328-.109.938-.241,2.647-.028.353-.133.586-.307.672s-.436.029-.748-.169a32.9,32.9,0,0,0-11.317-4.124c0,.044-.009.089-.013.133a32.738,32.738,0,0,1,11.258,4.1,1.24,1.24,0,0,0,.636.231.53.53,0,0,0,.244-.056c.22-.109.347-.372.379-.78.132-1.706.2-2.315.241-2.641.012-.1.02-.169.025-.232.009-.109.019-.209.028-.3.1-1.078.077-1.091-1.174-1.852" transform="translate(-1040.351 -213.446)" fill="#ecb04f"/>
        <path id="Path_6868" data-name="Path 6868" d="M1199.344,443.841l-.094-.071a33.614,33.614,0,0,0-6.385-4.035c-.951-.421-2.7-1.011-3.66-1.325a1.165,1.165,0,0,1-.793-1.18l.818-8.95a.833.833,0,0,1,.342-.617.947.947,0,0,1,.774-.127,32.512,32.512,0,0,1,9.986,4.606l.035.023-.143,1.6c-.09,1.03-.181,2.06-.27,3.078l-.176,2.007c-.148,1.7-.292,3.344-.424,4.871Z" transform="translate(-1079.362 -388.28)" fill="#ecb04f"/>
        <path id="Path_6869" data-name="Path 6869" d="M1237.488,468.137c-.064.5-.091.983-.153,1.583a.3.3,0,0,0,.185.3c.121.05.236.1.34.144a33.6,33.6,0,0,1,6.444,3.945c.16-1.856.163-1.913.21-2.433a42.552,42.552,0,0,0-5.991-3.477c-.185-.084-.423-.188-.648-.284a.276.276,0,0,0-.387.217" transform="translate(-1123.799 -424.964)" fill="#b55d2d"/>
        <path id="Path_6870" data-name="Path 6870" d="M1240.316,512.376a.294.294,0,0,0-.132-.267,42.706,42.706,0,0,0-4.147-2.441.274.274,0,0,0-.4.214c-.054.525-.127,1.241-.163,1.591a.3.3,0,0,0,.158.29q.481.25.953.521c1.062.608,2.094,1.287,3.1,2.007.184.132.353.117.405-.1.039-.16.188-1.3.226-1.816" transform="translate(-1122.106 -462.874)" fill="#b55d2d"/>
        <path id="Path_6871" data-name="Path 6871" d="M1218.388,273.389a.283.283,0,0,0-.133-.253,12.467,12.467,0,0,0-4.336-1.948c-.191-.033-.243.092-.263.289-.054.531-.078.915-.115,1.268a.262.262,0,0,0,.16.274c.323.134.885.324,1.377.532a18.667,18.667,0,0,1,2.723,1.478c.186.113.356.081.408-.141.039-.164.14-.975.179-1.5" transform="translate(-1102.189 -246.3)" fill="#b55d2d"/>
        <path id="Path_6872" data-name="Path 6872" d="M19.758,258.545c-.136,2.488-.167,3.586-.333,6.073,0,.009,0,.02,0,.029a.566.566,0,0,1-.5.523,34.315,34.315,0,0,0-3.662.62c-6.4.3-11.565,4.192-12.213,9.106a13.857,13.857,0,0,0-.7,2.028h0a12.406,12.406,0,0,0-.272,1.366c-.009.109-.019.219-.029.327a.075.075,0,0,0-.075.049c-.019-.041-.039-.083-.059-.125.007-.06.015-.123.023-.189.211-2.311-.436-2.2-.235-4.267.108-1.123.836-4.832.956-5.759a11.234,11.234,0,0,1,5.092-7.871,16.367,16.367,0,0,1,11.354-2.5c.356.051.672.229.652.588" transform="translate(-1.512 -234.134)" fill="#d3e7f0"/>
        <path id="Path_6873" data-name="Path 6873" d="M1017.25,595.726a5.7,5.7,0,0,1-1.518,3.179,12.387,12.387,0,0,1-5.279,3.151l-.132.044a29.62,29.62,0,0,1-9.193,1.331,40.344,40.344,0,0,1-4.775-.289,38.863,38.863,0,0,1-7.189-1.538c-.137-.044-.275-.088-.41-.133a8.306,8.306,0,0,0,.736-1.162,37.662,37.662,0,0,0,7.018,1.509,32.467,32.467,0,0,0,12.866-.816q.332-.1.655-.209c3.553-1.2,5.648-3.059,5.9-5.223s-1.353-4.461-4.525-6.468a28.916,28.916,0,0,0-9.193-3.562,2.236,2.236,0,0,1-1.129-.542,1.94,1.94,0,0,1-.467-1.125,31.7,31.7,0,0,1,11.494,4.1c2.971,1.88,4.732,4.066,5.1,6.281a5.2,5.2,0,0,1,.037,1.474" transform="translate(-898.029 -530.298)" fill="#cdb6b6"/>
        <path id="Path_6874" data-name="Path 6874" d="M1462.887,681.488a.656.656,0,0,1,.587-.591,12.585,12.585,0,0,0,4.745-1.313c2.406-1.17,3.061-2.867,4.134-4.487,0,0,.005.005.008.008q.043.105.088.21a8.328,8.328,0,0,0,.383.957.872.872,0,0,0,.08.128l.07.157c.094.408.151.824.247,1.229,0,.143,0,.285,0,.427a17.709,17.709,0,0,1,.065,2.542,7.913,7.913,0,0,1-2.734,3.645c-1.4,1.128-4.169,2.054-7.387,2.4a.657.657,0,0,1-.72-.723c.175-1.67.269-2.885.43-4.588" transform="translate(-1328.262 -613.151)" fill="#d3e7f0"/>
        <path id="Path_6875" data-name="Path 6875" d="M1502.85,534.6a12.722,12.722,0,0,0-2.657-1.589.683.683,0,0,0-.965.587q-.166,3.168-.429,6.33a.682.682,0,0,0,.4.679q.506.225.977.476a14.1,14.1,0,0,1,1.626,1.01,10.445,10.445,0,0,1,4.448,7.46s0,0,0,0a10.017,10.017,0,0,1,.057,1.259c-.018.254-.036.51-.056.764l-.019.264.145-.247s0-.011.006-.028h0c0-.012,0-.025,0-.036a20.7,20.7,0,0,0,.618-2.009,74.561,74.561,0,0,0,.038-7.674.131.131,0,0,0,.013-.043c.311-3.411-2.122-5.791-4.209-7.206" transform="translate(-1361.271 -484.047)" fill="#d3e7f0"/>
        <path id="Path_6876" data-name="Path 6876" d="M1009.375,763.685a32.468,32.468,0,0,1-12.866.816,37.651,37.651,0,0,1-7.018-1.509,8.3,8.3,0,0,1-.736,1.162c.135.045.272.089.409.133a38.873,38.873,0,0,0,7.189,1.538,40.357,40.357,0,0,0,4.775.289,29.62,29.62,0,0,0,9.193-1.331,6.155,6.155,0,0,0-.946-1.1" transform="translate(-898.029 -692.983)" fill="#402525"/>
        <path id="Path_6877" data-name="Path 6877" d="M995.447,1445.381c-.146,1.515-.536,5.326-.716,7.027-.012.116.064.132.156.2a10.4,10.4,0,0,1,4.052,7.161s0,0,0,0a9.957,9.957,0,0,1,.057,1.258c-.018.254-.036.51-.056.764l-.018.264.145-.247s0-.011.006-.028h0l0-.036a8.781,8.781,0,0,0,.667-1.461c.237-3.283.339-6.876.252-8.286a8.817,8.817,0,0,0-3.308-6.319c-.184-.155-.463-.365-.7-.543a.338.338,0,0,0-.537.239" transform="translate(-903.456 -1312.479)" fill="#d3e7f0"/>
        <path id="Path_6878" data-name="Path 6878" d="M784.22,440.619a49.623,49.623,0,0,0-1.35-6.3q-3.552,1-7.026,2.259a11.543,11.543,0,0,0-1.53.588,1.567,1.567,0,0,0-.95,1.365,12.97,12.97,0,0,0,.378,3.18,8.986,8.986,0,0,0,1.171,2.908,2.776,2.776,0,0,0,.555.7.738.738,0,0,0,.289.137,1.139,1.139,0,0,0,.658-.087c.592-.229,1.159-.562,1.729-.843l3.346-1.654,1.672-.827a4.971,4.971,0,0,0,.815-.432c.339-.254.3-.619.244-1" transform="translate(-702.399 -394.465)" fill="#b55d2d"/>
        <path id="Path_6879" data-name="Path 6879" d="M1008.393,460.788a3.746,3.746,0,0,1-.753.481q-.407.241-.824.464a21.521,21.521,0,0,1-3.459,1.477q-.871.285-1.764.495c-.285.067-.577.145-.867.185-.329.045-.557.04-.666-.3a2.217,2.217,0,0,1-.071-.365,20.318,20.318,0,0,1,.008-6.99,10.651,10.651,0,0,1,1.4-3.58c.572-.9,1.421-1.818,1.338-2.944,2.57.154,3.767,3.109,4.472,5.2a36.016,36.016,0,0,1,.994,3.7q.1.453.2.907c.085.4.31.946-.009,1.269" transform="translate(-907.961 -408.451)" fill="#b55d2d"/>
        <path id="Path_6880" data-name="Path 6880" d="M833.4,452.4a.373.373,0,0,0-.1-.089.924.924,0,0,0-.3-.109c-.292-.068-.591-.12-.886-.176l-.268-.049a45.78,45.78,0,0,0-6.609-.722c-2.388-.087-4.779.125-7.163-.092-.368-.033-.735-.076-1.1-.125-.2-.027-.4-.056-.6-.088.045-.338.084-.676.109-1.017.007-.085-.127-.084-.133,0-.025.336-.063.668-.108,1-.071,0-.1.115-.019.128h0c-.075.526-.172,1.046-.284,1.564-.195.9-.438,1.785-.7,2.669a49.6,49.6,0,0,0-1.9,7.373,5.564,5.564,0,0,0-.033,1.6,2.541,2.541,0,0,0,.486,1.169,9.065,9.065,0,0,0,2.169,1.813,6.542,6.542,0,0,0,.735.428q.162.082.328.152a11.8,11.8,0,0,0,4.764.732c1.071,0,2.14-.021,3.208.065a11.282,11.282,0,0,0,1.469.063c.088-.005.176-.012.264-.021a3.389,3.389,0,0,0,.807-.245,1.809,1.809,0,0,1,.68-.145c2.367.059,2.995-1.014,3.349-1.889.085-.209.153-.407.227-.575a5.215,5.215,0,0,0,.336-1.517q.336-2.257.616-4.522.156-1.237.294-2.475.2-1.8.367-3.6c.027-.284.062-.568.077-.852a.643.643,0,0,0-.08-.45" transform="translate(-738.633 -408.586)" fill="#402525"/>
        <path id="Path_6881" data-name="Path 6881" d="M964.883,661.8a1.524,1.524,0,0,1-.528-.233c-.03.073-.057.144-.084.212a2.906,2.906,0,0,0,.611.021" transform="translate(-875.792 -600.868)" fill="#694438"/>
        <path id="Path_6882" data-name="Path 6882" d="M850.982,640.174c.011.18.019.347.027.5s.011.265.013.378c0,.06.207,1.419-.324-.424a.445.445,0,0,1-.017-.105c-.011-.177.108-.286.3-.347" transform="translate(-772.624 -581.433)" fill="#694438"/>
        <path id="Path_6883" data-name="Path 6883" d="M859.653,434.224c-.057.211-.124.436-.2.678-.3.982-.7,2.132-1.147,3.326-1.066,2.866-2.375,5.989-3.083,7.684-.277.664-.464,1.11-.507,1.235a22.485,22.485,0,0,1-.831,3.19c-.095.256-.205.546-.335.871a6.663,6.663,0,0,1-.736-.6,3.375,3.375,0,0,0-1.047-.74c-1.261-.061-2.5-.253-3.749-.406a23.705,23.705,0,0,0-2.487-.2,8.814,8.814,0,0,0-2.185-.011c-.065-1.159-.2-2.868-.347-4.649-.249-3-.548-6.2-.666-7.331-.012-.119-.023-.249-.031-.39-.037-.647-.036-1.5-.017-2.337.032-1.561.124-3.064.124-3.064s.036-.024.112-.065a14.5,14.5,0,0,1,5.324-1.426,1.1,1.1,0,0,0,.113-.027.961.961,0,0,0,1.039,1.1,3.529,3.529,0,0,0,1.359-.371,8.2,8.2,0,0,1,1.553-.488,7.934,7.934,0,0,1,2.143-.141,4.422,4.422,0,0,0,1.245,0,1.883,1.883,0,0,0,.255-.075c.14.032.278.065.41.1,1.214.313,4.085,1.251,4.085,1.251a.224.224,0,0,1,.028.068c.057.188.131.84-.424,2.827" transform="translate(-764.99 -390.504)" fill="#f79567"/>
        <path id="Path_6884" data-name="Path 6884" d="M925.88,337.474c0-.156,0-.313.005-.469q.011-1.194.045-2.388-.3.111-.593.228c-1.184.463-2.352.989-3.506,1.57q-.046,2.479.038,4.953.057,1.742.179,3.479,1.976-.307,3.945-.688-.138-3.337-.114-6.685" transform="translate(-837.232 -303.913)" fill="#f79567"/>
        <path id="Path_6885" data-name="Path 6885" d="M882.344,275.561a.566.566,0,0,1,.235-.346,8.3,8.3,0,0,1,.933-3.05l.01-.016c-.087-.874-.372-1.71-.473-2.6-.03-.263-.06-.5-.1-.724-.825-.023-1.65-.055-2.474-.09-1.056-.044-2.112-.082-3.168-.125-.507-.021-1.014-.044-1.525-.018a8.947,8.947,0,0,0-.917.121,6.865,6.865,0,0,0-.7,1.692,33.722,33.722,0,0,0-.833,5.165c-.143,1.352.007,3.149,1.567,4.015a3.416,3.416,0,0,0,1.919.365,7.239,7.239,0,0,0,5.39-3.605,6.385,6.385,0,0,1,.145-.782" transform="translate(-793.151 -243.935)" fill="#f79567"/>
        <path id="Path_6886" data-name="Path 6886" d="M923.306,315.409c-.081.358.043.676.276.709s.488-.23.569-.588-.043-.676-.276-.709-.488.23-.569.588" transform="translate(-838.564 -285.931)" fill="#402525"/>
        <path id="Path_6887" data-name="Path 6887" d="M889.029,311.6c-.081.358.043.676.276.709s.488-.23.569-.588-.043-.676-.276-.709-.488.23-.569.588" transform="translate(-807.431 -282.475)" fill="#402525"/>
        <path id="Path_6888" data-name="Path 6888" d="M893.139,251.216a6.907,6.907,0,0,0-4.563.391,3.142,3.142,0,0,0-1.732,1.514c-.019.048-.1.318.217.258a7.827,7.827,0,0,1,3.6.111,3.956,3.956,0,0,1,1.89.816c.769.684.482,2.315.654,2.914.075.26.439.479.635.651.362.319.307,1.075.214,1.531a7.8,7.8,0,0,0,.069,2.1c.8-2.255,2.781-4.032,2.545-6.647a4.091,4.091,0,0,0-3.525-3.641" transform="translate(-805.447 -227.972)" fill="#804326"/>
        <path id="Path_6889" data-name="Path 6889" d="M952.957,325.145a.912.912,0,0,0-1.059-.1,1.2,1.2,0,0,0-.578,1.118.332.332,0,0,0,.318.338.964.964,0,0,0,.007.577.591.591,0,0,0,.918.226,1.474,1.474,0,0,0,.4-2.16" transform="translate(-864.029 -295.108)" fill="#f79567"/>
        <path id="Path_6890" data-name="Path 6890" d="M957.231,331.364c-.073-.043-.138.078-.066.121a.678.678,0,0,1-.035,1.175.065.065,0,1,0,.072.108.811.811,0,0,0,.03-1.4" transform="translate(-869.278 -300.95)" fill="#8c441c"/>
        <path id="Path_6891" data-name="Path 6891" d="M899.8,315.567c.068-.056-.019-.154-.086-.1a7.7,7.7,0,0,0-.715.667,1.461,1.461,0,0,0-.44.634c-.093.473.449.837.734,1.109.06.058.163-.032.1-.09-.153-.146-.313-.287-.458-.441a.607.607,0,0,1-.107-.824,4.391,4.391,0,0,1,.97-.957" transform="translate(-816.099 -286.507)" fill="#8c441c"/>
        <path id="Path_6892" data-name="Path 6892" d="M899.73,351.5a.765.765,0,0,1-.9-.433,1.328,1.328,0,0,1-.051-.634q1.012.083,2.031.076a1.546,1.546,0,0,1-1.079.99" transform="translate(-816.295 -318.279)" fill="#fff"/>
        <path id="Path_6893" data-name="Path 6893" d="M890.4,293.177a.509.509,0,0,0-.248-.231.951.951,0,0,0-1.005.023c-.285.186-.5.682-.1.84a1.262,1.262,0,0,0,.387.035c.164.01.321.056.484.073a.438.438,0,0,0,.446-.142.65.65,0,0,0,.038-.6" transform="translate(-807.268 -265.945)" fill="#804326"/>
        <path id="Path_6894" data-name="Path 6894" d="M923.16,295.293a.509.509,0,0,0-.248-.232.951.951,0,0,0-1.005.023c-.285.186-.5.682-.1.84a1.268,1.268,0,0,0,.387.035c.164.01.321.056.484.073a.438.438,0,0,0,.446-.142.65.65,0,0,0,.038-.6" transform="translate(-837.023 -267.867)" fill="#804326"/>
        <path id="Path_6895" data-name="Path 6895" d="M771.26,640.279a.369.369,0,0,0,0,.039,47.279,47.279,0,0,1-6.491.187c-2.153-.059-4.3-.156-6.426-.357a2.756,2.756,0,0,0,.108-2.744,1.146,1.146,0,0,0-2,.3.986.986,0,0,0-1.139.75,6.908,6.908,0,0,0-.18,1.3,40.923,40.923,0,0,1-4.53-.947,30.6,30.6,0,0,1-3.73-1.25q.5-2.279,1.066-4.549,1.623-6.479,3.782-12.855c1.178-3.483,2.712-7.171,4.18-10.639l.06-.14q.264-.628.527-1.243a37.3,37.3,0,0,1,9.39-.22c.743.057,1.476.108,2.209.145a.583.583,0,0,1,.31.307,6.838,6.838,0,0,1,.351,1.391c.009.047.02.093.031.139,0,0,0,0,0,.005q.2.864.4,1.734a88.581,88.581,0,0,1,2.133,14.1c.286,4.819.133,9.688-.043,14.549" transform="translate(-678.335 -551.956)" fill="#cdb6b6"/>
        <path id="Path_6896" data-name="Path 6896" d="M638.544,644.767a13.049,13.049,0,0,0-5.556-7.56q-.269.58-.543,1.157c-1.846,3.851-9.423,13.779-11.514,17.483-6.1,10.808-8.833,22.415-9.182,26.046,1.526,2.584,4.81,5.953,7.855,6.772a30.389,30.389,0,0,0,6,.8c.2.012.4.023.607.031a1.132,1.132,0,0,1,.274-.476,1.169,1.169,0,0,1,.751-.311,1.507,1.507,0,0,1,.66.062l1.5-5.541,3.518-13,3.518-13c.586-2.164,1.193-4.324,1.753-6.494a12.468,12.468,0,0,0,.358-5.966" transform="translate(-555.616 -578.739)" fill="#cdb6b6"/>
        <path id="Path_6897" data-name="Path 6897" d="M860.484,792.926a1.07,1.07,0,0,1,1.454-.381c.034.022.065.046.1.07,0-.061.009-.122.013-.183q.168-2.528.2-5.057a96.563,96.563,0,0,0-.375-10.013c-.3-3.293-.776-6.545-.786-9.87-.018-6.31.316-12.727-1.693-18.727a21.6,21.6,0,0,1-7.976,4.325,20.806,20.806,0,0,1-2.937.637l-.138.022q-.133.739-.261,1.479a169.009,169.009,0,0,0-2.206,19.941q-.255,5.032-.207,10.062.024,2.48.122,4.956.026.651.057,1.3a5.6,5.6,0,0,0,.095,1.165c.209.778,1.232.8,1.9.891a47.046,47.046,0,0,0,10.06.351q1.233-.089,2.463-.241h.006a1.1,1.1,0,0,1,.117-.728" transform="translate(-768.067 -680.06)" fill="#cdb6b6"/>
        <path id="Path_6898" data-name="Path 6898" d="M628.282,1098.956a3.7,3.7,0,0,0-1.49-2.248l-.04-.029a6.983,6.983,0,0,0-.919-.586c-.863-.468-1.761-.876-2.656-1.285-.37-.168-.738-.336-1.1-.51l-.212-.1c-.132-.064-.264-.128-.4-.193-1.053-.523-2.081-1.081-3.1-1.664q-.694-.4-1.383-.811c-1.233-.738-3.036-1.4-4.122-.047a3.665,3.665,0,0,0-.719,1.733.064.064,0,0,0-.04.056c-.242,3.107,2.276,5.4,4.857,6.609.312.147.63.284.95.412a19.678,19.678,0,0,0,3.606,1.059l.124.024c.6.112,1.218.211,1.842.275l.208.019a10.792,10.792,0,0,0,2.77-.065q.192-.03.392-.076c.013,0,.028-.005.041-.008a2.107,2.107,0,0,0,1.182-.632,2.461,2.461,0,0,0,.206-1.933" transform="translate(-555.924 -990.62)" fill="#402525"/>
        <path id="Path_6899" data-name="Path 6899" d="M862.726,1196.746a13.423,13.423,0,0,0-3.267.1c-.105.009-.209.017-.315.024-.124.009-.248.016-.371.02-1.369.048-2.726-.092-4.093-.088-.087,0-.172,0-.259,0l-.112,0a9.967,9.967,0,0,0-3.286.7,4.776,4.776,0,0,0-1.726.959,1.6,1.6,0,0,0-.223,1.443,3.758,3.758,0,0,0,1.848,1.725,11.465,11.465,0,0,0,4.064.91h0c.064.005.128.008.192.012a19.956,19.956,0,0,0,3.691-.172l.02,0c.077-.008.153-.02.231-.031a14.894,14.894,0,0,0,3.642-.943c1.007-.419,2.319-1.109,2.348-2.371.031-1.318-1.243-2.108-2.387-2.292" transform="translate(-771.103 -1086.87)" fill="#402525"/>
        <path id="Path_6900" data-name="Path 6900" d="M914.537,1340.385c-.3-.911-.432-1.506-.554-1.943-.558.294-1.134.557-1.71.82-.247.225-.145-.666-.42-.484-.044,1.672-1.441,6.783-1.965,8.782-.165.638-.283,1.078-.3,1.186-.011.05-.02.1-.027.151a2.171,2.171,0,0,0-.021.392c0,.048-.391,1.805,1.243,1.984,1.247.136,2.422-1.267,2.808-2.17a7.058,7.058,0,0,0,.328-2.892,17.692,17.692,0,0,1,.563-3.956,4.54,4.54,0,0,0,.065-1.838c0-.012,0-.022-.006-.034" transform="translate(-826.042 -1215.63)" fill="#402525"/>
        <path id="Path_6901" data-name="Path 6901" d="M911.651,1198.131c-.006,1.273,0,3.361.015,5.514.022,3.787.052,7.782.026,7.926a11.789,11.789,0,0,0-.048,1.661,4.9,4.9,0,0,1-.324,1.458,7.647,7.647,0,0,0-.441,1.662c-.067.564-.069,1.143-.1,1.716-.042.9-.115,2.073-1.064,2.2a2.55,2.55,0,0,1-1.091-.035,1.2,1.2,0,0,1-.52-.415,2.422,2.422,0,0,1-.066-1.093,13.035,13.035,0,0,1,.5-2.469,31.339,31.339,0,0,0,.753-5.592c0-.217-2.271-11.289-2.485-12.587l.112,0c.087,0,.172,0,.259,0,1.367,0,2.731.136,4.1.088.122,0,.246-.011.37-.02" transform="translate(-823.606 -1088.132)" fill="#f79567"/>
        <path id="Path_6902" data-name="Path 6902" d="M856.277,725.94q-.59,2.171-1.09,4.365-.268,1.189-.508,2.385c-.029.135-.056.271-.081.407a102.844,102.844,0,0,0-1.7,12.818c-.007.085-.14.085-.133,0q.154-2.243.407-4.48.452-4.012,1.221-7.978.038-.2.08-.408.71-3.6,1.677-7.144a.066.066,0,0,1,.128.035" transform="translate(-774.517 -659.256)" fill="#a15430"/>
        <path id="Path_6903" data-name="Path 6903" d="M754.6,800.679a101.672,101.672,0,0,0-11.3,29.708q-.266,1.271-.5,2.549a.524.524,0,0,1,.126.054q.889-4.869,2.249-9.637a101.874,101.874,0,0,1,5.828-15.5q1.629-3.446,3.514-6.761c.068-.12.136-.24.205-.36.025-.136.052-.272.081-.407-.071.12-.14.239-.207.359" transform="translate(-674.642 -726.885)" fill="#a15430"/>
        <path id="Path_6904" data-name="Path 6904" d="M725.732,1139.537c-.005-.486-.02-1.337-.04-2.388-.008-.379-.017-.784-.025-1.209-.009-.488-.02-1-.032-1.525-.013-.694-.028-1.409-.044-2.117a6.982,6.982,0,0,0-.919-.586c-.863-.468-1.761-.876-2.656-1.285-.37-.168-.738-.336-1.1-.51.3,1.411.638,2.958.965,4.438.128.586.256,1.162.379,1.714.093.422.185.83.275,1.219.252,1.115.479,2.077.651,2.755.023.092.045.177.068.259a2.789,2.789,0,0,0,.263.8,4.594,4.594,0,0,0,.938-.228c.582-.141,1.1-.121,1.275-.871,0-.008,0-.016.005-.024s0-.176,0-.444" transform="translate(-654.763 -1026.241)" fill="#f79567"/>
        <path id="Path_6905" data-name="Path 6905" d="M724.836,1249.524c0-.011,0-.021-.007-.032-.02-.1-.043-.2-.068-.3-.008-.032-.016-.063-.025-.093-.017-.064-.036-.127-.055-.189-.025-.083-.051-.164-.077-.245-.18-.547-.391-1.035-.5-1.4-.1.038-.2.077-.293.114-.558.244-1.109.5-1.635.791-.236.129-.471.282-.707.438,0,.24-.008.474-.022.707-.007.081-.013.164-.02.249a19.421,19.421,0,0,1-.415,2.529c-.136.638-1.442,4.792-1.854,6.01a.039.039,0,0,0,0,.013q-.028.088-.052.152-.034.1-.052.144c-.243.59.065.363.24.816a1.161,1.161,0,0,1,.049.161c0,.017-.4-.228-.392-.211a1.133,1.133,0,0,0,.048.148l0,.007c.013.035.029.069.045.1.371.731,1.239.72,1.97.647a2.7,2.7,0,0,0,2.065-1.762c.131-.339-.05.42.057.109a6.391,6.391,0,0,0,.449-3.029,5.4,5.4,0,0,1,.472-2.747c.007-.013.012-.028.019-.041a5.718,5.718,0,0,0,.79-2.868,2.135,2.135,0,0,0-.032-.223" transform="translate(-652.981 -1132.821)" fill="#402525"/>
        <path id="Path_6906" data-name="Path 6906" d="M718.461,1274.063a.058.058,0,0,0-.055-.061c-.031-.211-.061-.422-.089-.634-.031-.233-.06-.467-.08-.7-.019-.2-.032-.394-.037-.591a5.212,5.212,0,0,1,.111-1.254c.084-.386.195-.912.594-1.086l.008.036c.027.109.051.22.071.33.035.172.061.346.081.519a7.6,7.6,0,0,1,.055,1.046h.734a11.637,11.637,0,0,1-.04-1.819,9.75,9.75,0,0,0,.113-1.772,7.659,7.659,0,0,0-.167-.854c-.016-.059.054.413.027.357a.96.96,0,0,0-.108-.187.735.735,0,0,0-.24-.223.586.586,0,0,0-.183-.068c-.414-.079-.731.343-.932.642a9.823,9.823,0,0,0-.784,1.654q-.4.933-.839,1.849a16.424,16.424,0,0,1-.862,1.728,20.259,20.259,0,0,0-1.69,3.138.038.038,0,0,0,0,.013c-.021.051-.043.1-.063.152-.1.256-.195.516-.275.778a9,9,0,0,0-.362,1.541.844.844,0,0,0,.239.831,1.69,1.69,0,0,0,1.1.156,3.037,3.037,0,0,0,1.185-.423,5.669,5.669,0,0,0,1.8-1.948,4.615,4.615,0,0,0,.61-1.869c.032-.249.052-.5.064-.755a.05.05,0,0,0,.037-.06c-.008-.067-.017-.135-.027-.2,0-.087.005-.175.008-.263" transform="translate(-647.967 -1150.826)" fill="#402525"/>
        <path id="Path_6907" data-name="Path 6907" d="M724.7,1239.115a11.615,11.615,0,0,0,.749-2.518,6.951,6.951,0,0,1,.224-1.473c-.067-.181-.124-.346-.162-.488a5.054,5.054,0,0,1-.21-1.2,20.428,20.428,0,0,1-2.446.378,20.583,20.583,0,0,1,.018,2.942c-.007.081-.013.164-.02.249a19.434,19.434,0,0,1-.415,2.529c-.136.638-1.442,4.792-1.854,6.01a.038.038,0,0,0,0,.013c-.021.051-.043.1-.063.152h.011c1.927.433,2.48-.145,2.828-.39a2,2,0,0,0,.662-1.109,6.105,6.105,0,0,0,.252-1.611c.029-1.2-.171-2.379.431-3.481" transform="translate(-654.407 -1120.256)" fill="#f79567"/>
        <path id="Path_6908" data-name="Path 6908" d="M858.128,623.053c-.38-.072-.762-.137-1.145-.2a41.759,41.759,0,0,0-11.733-.18l.06-.14q1.185-.15,2.376-.231a41.83,41.83,0,0,1,10.411.611c.009.047.02.093.031.139" transform="translate(-767.692 -565.118)" fill="#a15430"/>
        <path id="Path_6909" data-name="Path 6909" d="M957.323,629.956c-1.864-.555-3.532-1.957-3.489-4.048a.067.067,0,0,0-.133,0c-.044,2.15,1.665,3.6,3.586,4.176a.067.067,0,0,0,.035-.129" transform="translate(-866.191 -568.418)" fill="#a15430"/>
        <path id="Path_6910" data-name="Path 6910" d="M957.907,1049.38a96.5,96.5,0,0,1-6.8-13.662c-.032-.079-.161-.044-.129.036a96.717,96.717,0,0,0,6.812,13.694.067.067,0,0,0,.115-.067" transform="translate(-863.716 -940.643)" fill="#a15430"/>
        <path id="Path_6911" data-name="Path 6911" d="M822.563,442.5a3.378,3.378,0,0,1,1-.828c.28-.187.546-.391.808-.6.178-.755.39-1.5.608-2.247.279-.954.571-1.91.816-2.876-.068-.759.983-.518.864-1.031a5.136,5.136,0,0,0-3.785-3.719c-1.007-.356-2.4-.81-3.613-1.124-.132-.035-.27-.068-.41-.1a1.873,1.873,0,0,1-.255.075,4.419,4.419,0,0,1-1.245,0,7.93,7.93,0,0,0-2.143.141,8.2,8.2,0,0,0-1.553.488,3.53,3.53,0,0,1-1.359.371.961.961,0,0,1-1.039-1.1,1.1,1.1,0,0,1-.113.027,14.5,14.5,0,0,0-5.324,1.426c-.811.374-1.754.819-2.7,1.273-.159.6-.307,1.2-.455,1.8-.323,1.309-.606,2.632-.8,3.967.9-.351,1.99-.78,3.023-1.243a49.609,49.609,0,0,0-1.9,7.373,5.568,5.568,0,0,0-.033,1.6,5.57,5.57,0,0,1,1.585-.994,12.806,12.806,0,0,1,1.76-.592,15.494,15.494,0,0,1,2.832-.458,19.818,19.818,0,0,1,9.174,1.677c.072.031.144.063.217.1a4.863,4.863,0,0,1,2.691,2.391c.085-.209.154-.407.227-.575a5.212,5.212,0,0,0,.336-1.517c.224-1.5.278-1.409.464-2.919.057.271.266-1.06.322-.789" transform="translate(-728.288 -390.504)" fill="#b55d2d"/>
        <path id="Path_6912" data-name="Path 6912" d="M905.73,424.554a15.4,15.4,0,0,0-3.745.519,4.83,4.83,0,0,0,.063,2.27,2.513,2.513,0,0,0,1.821,1.681c2.12.567,4.018-1.118,5.289-2.668.322-.39.631-.791.943-1.187a20.219,20.219,0,0,0-4.371-.615" transform="translate(-819.126 -385.595)" fill="#f79567"/>
        <path id="Path_6913" data-name="Path 6913" d="M776.1,470.54a9.207,9.207,0,0,0-.834-3.793,5.845,5.845,0,0,0-.455-.775c-.064-.095-.132-.187-.2-.278a3.19,3.19,0,0,0-.3-.352,1.572,1.572,0,0,0-.946,1.311.35.35,0,0,0,0,.053,12.979,12.979,0,0,0,.378,3.18,10.455,10.455,0,0,0,.432,1.441,7.96,7.96,0,0,0,.739,1.468,2.78,2.78,0,0,0,.555.7.739.739,0,0,0,.289.137c.031-.069.057-.136.08-.2a5.872,5.872,0,0,0,.275-1.949c.005-.316,0-.635-.007-.953" transform="translate(-702.398 -422.644)" fill="#402525"/>
        <path id="Path_6914" data-name="Path 6914" d="M716.833,373.533a2.858,2.858,0,0,0,.623.678c1.554-1.187,2.755-3.415,4.013-4.91,1.25-3.649,1.424-7.345,2.477-11.2a2.477,2.477,0,0,0-1.127-.391l-.128-.023a1.455,1.455,0,0,1-.687-.3c-.085.153-2.818,6.325-4.8,10.054-.8,1.5-1.459,4.272-.368,6.094" transform="translate(-650.539 -324.592)" fill="#f79567"/>
        <path id="Path_6915" data-name="Path 6915" d="M735.323,472.98a5.843,5.843,0,0,0-.455-.775c-.528.251-1.021.483-1.449.682-.682.317-1.2.547-1.456.636a27.422,27.422,0,0,1-2.587,4.979c1.586.479,3.581-.375,4.849-.94l.279-.125c.346-.153.884-.363,1.524-.612l.129-.051a9.207,9.207,0,0,0-.834-3.793" transform="translate(-662.45 -428.877)" fill="#f79567"/>
        <path id="Path_6916" data-name="Path 6916" d="M772.369,322.335a4.893,4.893,0,0,1-.336-1.34c-.007-.093.006-.211-.071-.281-.117-.108-.4-.081-.552-.1l-2.782-.315a2.6,2.6,0,0,1-.29.408c-.049.06.042.067-.019.106-.055.39-.209.969-.252,1.359a2.214,2.214,0,0,0,.052,1.193,2.634,2.634,0,0,0,.34.544,1.292,1.292,0,0,1,.242.756,5.612,5.612,0,0,1-.052.7c-.016.154-.087.371.037.487a.054.054,0,0,0,.063.007c.047-.031.054-.042.052-.1a.053.053,0,0,0,0-.015l.01,0c.322-.157.369.311.357.51,0,.053.071.063.1.023a12.769,12.769,0,0,1,1.888-2.056,11.5,11.5,0,0,0,.906-.961c.23-.28.445-.564.313-.923" transform="translate(-697.54 -290.912)" fill="#f79567"/>
        <path id="Path_6917" data-name="Path 6917" d="M772.587,276.1c-.052-.264-.307-1.046-.537-1.768a12.693,12.693,0,0,0-.568-1.915,2.351,2.351,0,0,0-1-1.4c-.453-.191-.564.313-.463.628.254.8.54,1.567.728,2.385a.079.079,0,0,0,.006.014c0,.036,0,.071,0,.106a1.117,1.117,0,0,0-.705-.1.732.732,0,0,0-.338.29.261.261,0,0,0-.022.022.543.543,0,0,0-.505-.061.951.951,0,0,0-.429.34.607.607,0,0,0-.563.007,2.059,2.059,0,0,0-.76,1.11c-.139.348-.276.822.045,1.108l.012.01.012.01a.54.54,0,0,0,.461.1s0,0,0,0a.933.933,0,0,0,.286-.116l.034.031a.437.437,0,0,0,.228.1.56.56,0,0,0,.514-.215.435.435,0,0,0,.095.066h0a.331.331,0,0,0,.182.032,1.129,1.129,0,0,0,.584-.4l.1.053c.046.023.093.046.141.066a1.588,1.588,0,0,0,.48.14.974.974,0,0,0,.2,0,.884.884,0,0,0,.141-.026,6.254,6.254,0,0,1-.618,1.343.6.6,0,0,0-.137.493,2.034,2.034,0,0,0,.391.573.039.039,0,0,0,.026.018c-.05.051-.1.1-.153.151s.021.135.074.083a10.731,10.731,0,0,0,.776-.815l.027-.026c.676-.644,1.45-1.47,1.26-2.434" transform="translate(-696.873 -246.118)" fill="#f79567"/>
        <path id="Path_6918" data-name="Path 6918" d="M772.832,307.891a2.031,2.031,0,0,1,.528-.045,6.326,6.326,0,0,1,.783-.005c.086.005.1-.126.016-.131a7.785,7.785,0,0,0-1.126.03,1.116,1.116,0,0,0-.406.083c.1-.23.209-.456.318-.681.038-.077-.087-.123-.125-.046a7.2,7.2,0,0,0-.595,1.5,2.864,2.864,0,0,0-.079.7.943.943,0,0,1-.029.468c-.24.425-.634-.048-.717-.227a.067.067,0,0,0-.007-.009c0-.064-.011-.124-.018-.175a4.441,4.441,0,0,1,.469-2.064.067.067,0,0,0-.125-.046,4.562,4.562,0,0,0-.478,2.133c.006.04.021.1.033.169a.057.057,0,0,0,0,.047l.008.015a.233.233,0,0,1-.009.136c-.107.294-.277.28-.468.148a.72.72,0,0,1-.155-.16,1.19,1.19,0,0,1-.212-.78,2.9,2.9,0,0,1,.487-1.414c.046-.072-.06-.15-.107-.077a2.95,2.95,0,0,0-.516,1.606,1.47,1.47,0,0,0,.033.265h0c-.078.224-.33.432-.565.276-.071-.047-.154.059-.083.106a.5.5,0,0,0,.7-.192.787.787,0,0,0,.606.6c.267.026.364-.153.391-.36.258.3.762.477.888-.052a2.2,2.2,0,0,0,.007-.481,2.919,2.919,0,0,1,.116-.771q.025-.088.054-.174c.094.375.671.548,1.02.686a6.1,6.1,0,0,0-1.424,1.3,3.281,3.281,0,0,0-.858,1.7c0,.082.125.1.134.012l.006-.056a.059.059,0,0,0,0-.016,3.49,3.49,0,0,1,.9-1.65,6.017,6.017,0,0,1,1.424-1.25.065.065,0,0,0-.015-.112c-.183-.085-.378-.14-.562-.22a1.014,1.014,0,0,1-.31-.191c-.146-.141-.36-.427.069-.587" transform="translate(-699.04 -278.881)" fill="#8c441c"/>
        <path id="Path_6919" data-name="Path 6919" d="M762.8,489.844c.027-.081-.1-.132-.123-.051l-1.015,3.091c-.027.081.1.132.123.051l1.015-3.091" transform="translate(-691.773 -444.813)" fill="#8c441c"/>
        <path id="Path_6920" data-name="Path 6920" d="M1022.707,556.565a1.578,1.578,0,0,0-1.489-.383,6.728,6.728,0,0,0-.936.2,14.154,14.154,0,0,0-1.564.568,8.243,8.243,0,0,0-1.86,1.035c-.049.037-.1.079-.152.123a3.328,3.328,0,0,0-1.207,1.61.756.756,0,0,0,.024.8c.364.409,1.182.195,1.692.037l.183-.057a12.374,12.374,0,0,0,2.393-1.149c.351-.2.711-.4,1.07-.6a15.406,15.406,0,0,0,1.354-.835c.419-.3.874-.836.492-1.347" transform="translate(-922.229 -505.12)" fill="#402525"/>
        <path id="Path_6921" data-name="Path 6921" d="M1036.951,576.749c-.239-.564-1.7-12.413-2.625-14.4a12.247,12.247,0,0,1-.524-1.329,16.552,16.552,0,0,1-.579-2.367,14.131,14.131,0,0,0-1.564.568,8.242,8.242,0,0,0-1.86,1.035c-.049.037-.1.079-.152.123.185.9.359,1.748.508,2.445.072.331.139.627.2.879a7.622,7.622,0,0,0,.217.786c.379.986,4.314,11.7,5.164,13.7a10.64,10.64,0,0,0,1.461-.853c-.081-.2-.161-.391-.244-.587" transform="translate(-935.169 -507.393)" fill="#f79567"/>
        <path id="Path_6922" data-name="Path 6922" d="M1076.081,724.463c-.595-2.1-1.331-4.192-2-6.285a.1.1,0,0,0-.1-.061l-.939.14c0-.068-.135-.111-.164-.039a24.926,24.926,0,0,0-1.445,4.859.065.065,0,0,0,.034.063,7.057,7.057,0,0,1,1.358,1.1,1.289,1.289,0,0,0,.973.464c.634.051,1.3.124,1.936.125.341,0,.417-.1.342-.363" transform="translate(-973.125 -652.224)" fill="#f79567"/>
        <path id="Path_6923" data-name="Path 6923" d="M1074.321,749.38a.059.059,0,0,0-.047-.044,2.8,2.8,0,0,0-.625-1.161,2.865,2.865,0,0,1-.368-.646,1.062,1.062,0,0,0-.235-.423,3.445,3.445,0,0,0-1.163-.514,6.473,6.473,0,0,0-1.289-.381c.009-.069-.1-.095-.129-.021a11.084,11.084,0,0,0-.774,2.853,6.6,6.6,0,0,0,.069,1.459,5.269,5.269,0,0,0,.313,1.48.647.647,0,0,0,.571.435c.3-.019.416-.3.395-.57-.039-.5-.191-.988-.24-1.487a5.777,5.777,0,0,1-.041-.759.667.667,0,0,1,.186-.564.818.818,0,0,1,.216-.149,16.833,16.833,0,0,1,.316,2.452,5.962,5.962,0,0,1-.024,1.642,8.171,8.171,0,0,0-.294,1.389c0,.19.055.473.291.487a.291.291,0,0,0,.223-.09.5.5,0,0,0,.141.393.319.319,0,0,0,.457-.086,1.235,1.235,0,0,0,.175-.292c.09.137.324.123.482-.019a2.484,2.484,0,0,0,.575-.906.407.407,0,0,0,.524-.021,2.474,2.474,0,0,0,.51-1.192,6.368,6.368,0,0,0-.217-3.265" transform="translate(-971.525 -677.681)" fill="#f79567"/>
        <path id="Path_6924" data-name="Path 6924" d="M1092.3,789.669c-.007-.085-.141-.086-.134,0a12.591,12.591,0,0,1,.095,2.2,6.4,6.4,0,0,1-.7,2.1c-.036.077.079.145.115.067a6.89,6.89,0,0,0,.7-2.027,11.222,11.222,0,0,0-.079-2.35" transform="translate(-991.399 -717.153)" fill="#8c441c"/>
        <path id="Path_6925" data-name="Path 6925" d="M1101.1,790.04c-.009-.084-.142-.085-.133,0a9,9,0,0,1,.052,2.169,16.159,16.159,0,0,1-.534,2.076.067.067,0,0,0,.129.036,16.176,16.176,0,0,0,.538-2.094,9.121,9.121,0,0,0-.051-2.187" transform="translate(-999.508 -717.49)" fill="#8c441c"/>
        <path id="Path_6926" data-name="Path 6926" d="M1110.931,789.651c-.015-.084-.144-.049-.129.035a6.383,6.383,0,0,1-.279,3.278c-.029.081.1.116.129.036a6.514,6.514,0,0,0,.279-3.349" transform="translate(-1008.621 -717.151)" fill="#8c441c"/>
        <path id="Path_6927" data-name="Path 6927" d="M833.18,459.769a23.583,23.583,0,0,0-2.828,6.29.067.067,0,0,0,.129.036,23.457,23.457,0,0,1,2.814-6.258c.046-.073-.069-.14-.115-.067" transform="translate(-754.159 -417.554)" fill="#694438"/>
        <path id="Path_6928" data-name="Path 6928" d="M1008.9,482.34a.067.067,0,0,0-.133,0,71.433,71.433,0,0,0,.6,8.77c.011.084.144.085.133,0a71.457,71.457,0,0,1-.6-8.77" transform="translate(-916.202 -438.024)" fill="#694438"/>
        <path id="Path_6929" data-name="Path 6929" d="M921.217,506.7c-2.3-.414-3.23-2.8-3.413-4.868-.007-.085-.141-.086-.133,0,.188,2.124,1.155,4.572,3.511,5,.084.015.12-.113.036-.129" transform="translate(-833.468 -455.725)" fill="#694438"/>
        <path id="Path_6930" data-name="Path 6930" d="M976.156,199.447a9.524,9.524,0,0,0-.668-2.626,8.432,8.432,0,0,0-10.667-4.586,4.472,4.472,0,0,0-2,1.223c-1.348,1.7,1.371,3.21.936,4.931a1.131,1.131,0,0,1-.827.885,1.947,1.947,0,0,0-.264-.33.067.067,0,0,0-.094.094,1.78,1.78,0,0,1,.4,1.915c-.023.06.051.1.1.075.983-.47,1.966-.938,2.948-1.411.308-.148.517-.286.484-.658-.019-.211-.1-.411-.118-.623a1.54,1.54,0,0,1,.1-.645,1.519,1.519,0,0,1,2.267-.756c1,.641.723,1.9.483,2.877-.122.492-.268,1-.391,1.505-.067.172-.135.344-.207.515-.2.484-.436.955-.631,1.442a1.671,1.671,0,0,0-.131,1.182,1.255,1.255,0,0,0,.76.661,4.019,4.019,0,0,1,.568.266,3.228,3.228,0,0,1,.568.573,1.59,1.59,0,0,0,1.59.31,6.849,6.849,0,0,0,1.806-.153,3.545,3.545,0,0,0,2.146-1.22,4.579,4.579,0,0,0,.89-2.234,12.643,12.643,0,0,0-.044-3.211" transform="translate(-874.132 -174.122)" fill="#804326"/>
        <path id="Path_6931" data-name="Path 6931" d="M919.915,256.648a4.77,4.77,0,0,0-2.259.963c-.065.056.029.15.094.094a4.649,4.649,0,0,1,2.2-.929c.084-.016.049-.145-.036-.129" transform="translate(-833.434 -233.097)" fill="#4f2917"/>
        <path id="Path_6932" data-name="Path 6932" d="M960.624,275.256a3.81,3.81,0,0,1-1.037.687c-.078.035-.01.15.067.115a3.915,3.915,0,0,0,1.064-.707c.063-.059-.031-.153-.094-.094" transform="translate(-871.506 -249.982)" fill="#4f2917"/>
        <path id="Path_6933" data-name="Path 6933" d="M969.212,295.607a3.866,3.866,0,0,1-.826.934c-.066.054.028.148.094.094a3.978,3.978,0,0,0,.846-.961c.046-.073-.069-.14-.115-.067" transform="translate(-879.509 -268.454)" fill="#4f2917"/>
        <path id="Path_6934" data-name="Path 6934" d="M1051.4,294.478a2.46,2.46,0,0,1-1.834-1.317,4.081,4.081,0,0,1-.141-2.734.067.067,0,0,0-.129-.035,4.2,4.2,0,0,0,.155,2.836,2.581,2.581,0,0,0,1.913,1.378c.084.013.12-.116.035-.129" transform="translate(-952.855 -263.704)" fill="#4f2917"/>
        <path id="Path_6935" data-name="Path 6935" d="M1080.271,304.71a1.49,1.49,0,0,1-1.872-1.081.067.067,0,0,0-.129.035,1.622,1.622,0,0,0,2.036,1.175.067.067,0,0,0-.036-.129" transform="translate(-979.33 -275.726)" fill="#4f2917"/>
        <path id="Path_6936" data-name="Path 6936" d="M980.8,266.026a2.8,2.8,0,0,0-.964-1.413c-.067-.052-.162.042-.094.094a2.679,2.679,0,0,1,.929,1.354.067.067,0,0,0,.129-.035" transform="translate(-889.82 -240.318)" fill="#4f2917"/>
        <path id="Path_6937" data-name="Path 6937" d="M918.372,276a4.339,4.339,0,0,0-1-2.9,2.464,2.464,0,0,0-1.441-.629c-.706-.1-1.422-.141-2.131-.208a.06.06,0,0,0-.019,0c0-.02,0-.039,0-.059,0-.086-.129-.086-.133,0-.06,1.076,1.214,1.259,1.894,1.733.524.366.536.925.755,1.468a2.72,2.72,0,0,0,.81,1.087c.233.188.72.555,1.045.469.342-.09.237-.725.218-.968" transform="translate(-829.813 -247.177)" fill="#804326"/>
        <path id="Path_6938" data-name="Path 6938" d="M406.512,3.436a78.469,78.469,0,0,0-16.536,1.593c-4.125.923-11.826,2.279-16.422,9.752-.824,1.341-1.261,4.089-1.5,5.564-.02.127-.039.243-.056.345-.059.354-.1.71-.129,1.058l-1.011,12.459c-.013.149-.024.3-.036.443l-.021.262q-.188,2.307-.375,4.614l-.064.788q-.41,5.035-.819,10.067l-.109,1.343q-.082.992-.161,1.985t-.161,1.976l-.125,1.549c-.007.077-.013.159-.019.237l-.029.43.267-.336c.047-.06.1-.117.148-.179l.009-.011c.021-.028.041-.053.065-.08a26.725,26.725,0,0,1,7.22-6.146,38.418,38.418,0,0,1,9.967-4.116c.923-.242,1.877-.459,2.835-.648l.019-.005a64.712,64.712,0,0,1,10.154-1.13c1.74-.067,3.224-.083,4.334-.081a2.279,2.279,0,0,0,2.281-2.145l2.225-37.507a1.965,1.965,0,0,0-1.953-2.081" transform="translate(-335.088 -3.12)" fill="#f7efec"/>
        <path id="Path_6939" data-name="Path 6939" d="M403.258,447.061l-.283.672a1.839,1.839,0,0,1-1.665,1.123h-.137c-1.353,0-2.758.028-4.172.081a64.379,64.379,0,0,0-9.991,1.106l-.052.012-.071.015-.043.008c-.942.191-1.846.4-2.695.62a39.928,39.928,0,0,0-10.123,3.9,19.976,19.976,0,0,0-5.4,4.457,6.871,6.871,0,0,0-.639,1.023,5.1,5.1,0,0,0,.568,5.512c2.38,2.5,6.374,3.058,9.549,3.538a28.1,28.1,0,0,0,5.476.395.957.957,0,0,0,.144-.02l1.313-.22-.056.439a1.427,1.427,0,0,1-1.262,1.234,8.988,8.988,0,0,1-1,.055,32.051,32.051,0,0,1-4.837-.431,28.631,28.631,0,0,1-6.67-1.677,11.823,11.823,0,0,1-3.334-2.016c-.1-.088-.2-.179-.295-.272a6.558,6.558,0,0,1-.934-6.9,7.745,7.745,0,0,1,.612-1.1,19.9,19.9,0,0,1,6.007-5.279,41.279,41.279,0,0,1,10.5-4.056c.9-.236,1.84-.452,2.8-.643l.049-.009.1-.021a65.319,65.319,0,0,1,10.218-1.134c1.413-.055,2.88-.083,4.364-.083h0a4.989,4.989,0,0,0,1.946-.329" transform="translate(-332.479 -406.04)" fill="#cdb6b6"/>
        <path id="Path_6940" data-name="Path 6940" d="M443.46,101.813a.763.763,0,0,0-.879-.777c-1.1.176-2.139.394-3.1.616l-.042.01c-3.085.71-8.249,1.9-12.415,5.729a2.118,2.118,0,0,0-.677,1.342c-.38,3.682-.708,7.37-1.007,11.061a.641.641,0,0,0,1.045.55,26.47,26.47,0,0,1,10.782-5.629l.087-.021c.892-.217,1.814-.441,2.743-.625l.019,0q1.033-.2,2.1-.371a.738.738,0,0,0,.62-.692c.212-3.731.619-7.453.728-11.187" transform="translate(-386.31 -91.756)" fill="#cdb6b6"/>
        <path id="Path_6941" data-name="Path 6941" d="M470.847,141.232a.213.213,0,0,0-.255-.228c-.154.033-.3.066-.452.1a28.8,28.8,0,0,0-9.627,4.183.209.209,0,0,0-.089.154c-.052.606-.09.944-.161,1.551q-.037.316-.075.64a.211.211,0,0,0,.333.2,24.557,24.557,0,0,1,8.387-4.076c.573-.151,1.112-.286,1.624-.408a.2.2,0,0,0,.157-.188c.042-.643.1-1.285.158-1.926" transform="translate(-417.96 -128.062)" fill="#402525"/>
        <path id="Path_6942" data-name="Path 6942" d="M511.227,188.689c-.154.033-.3.066-.452.1a29.707,29.707,0,0,0-4.976,1.635.28.28,0,0,0-.167.225c-.052.455-.16,1.42-.218,1.951a.209.209,0,0,0,.295.213,23.684,23.684,0,0,1,3.835-1.373c.573-.151,1.113-.286,1.624-.408a.2.2,0,0,0,.157-.187c.042-.643.1-1.285.158-1.927a.213.213,0,0,0-.255-.228" transform="translate(-459.037 -171.371)" fill="#402525"/>
        <path id="Path_6943" data-name="Path 6943" d="M429.8,304.61a.478.478,0,0,1-.222-.056.556.556,0,0,1-.291-.538c.105-1.4.225-2.865.331-4.157.091-1.109.177-2.157.241-3.017a1.239,1.239,0,0,1,.454-.885,24.485,24.485,0,0,1,4.182-2.547c.251-.127.467-.236.628-.324a36.937,36.937,0,0,1,10.189-3.4,45.857,45.857,0,0,1,7.722-.818,1.488,1.488,0,0,1,1.124.481,1.76,1.76,0,0,1,.474,1.359c-.206,2.456-.249,3.362-.335,5.167a1.467,1.467,0,0,1-1.4,1.463,51.336,51.336,0,0,0-7.574.632l-.028-.063.011.066c-.884.143-1.762.315-2.61.511a31.979,31.979,0,0,0-9.175,3.63,28.651,28.651,0,0,0-3.432,2.393.455.455,0,0,1-.29.106" transform="translate(-389.899 -262.36)" fill="#ecb04f"/>
        <path id="Path_6944" data-name="Path 6944" d="M452.2,371.409a.34.34,0,0,0-.455-.328,15.091,15.091,0,0,0-2.963,1.39,17.9,17.9,0,0,0-1.875,1.273.339.339,0,0,0-.123.249c-.016.379-.046,1.128-.08,1.634a.174.174,0,0,0,.288.143c.176-.153.384-.332.523-.443q.33-.264.683-.51a14.385,14.385,0,0,1,3.72-1.844.34.34,0,0,0,.234-.306c.014-.3.039-.828.048-1.257" transform="translate(-405.711 -337.014)" fill="#b55d2d"/>
        <path id="Path_6945" data-name="Path 6945" d="M533.3,318.223a.312.312,0,0,0-.337-.327,25.612,25.612,0,0,0-3.243.466,24.628,24.628,0,0,0-5.653,1.853.32.32,0,0,0-.176.281c-.011.556-.025.7-.049,1.254a.311.311,0,0,0,.447.3,20.513,20.513,0,0,1,3.987-1.413c.521-.127,1.061-.239,1.606-.334l.011,0a29.636,29.636,0,0,1,3.013-.364.321.321,0,0,0,.3-.3c.031-.607.068-.8.1-1.407" transform="translate(-475.777 -288.726)" fill="#b55d2d"/>
        <path id="Path_6946" data-name="Path 6946" d="M720.453,83.683a.641.641,0,0,1-.463-.192.629.629,0,0,1-.165-.481c.019-.4.011-.317.035-.657a.632.632,0,0,1,.554-.594,50.885,50.885,0,0,1,10.45-.245c.174.01.678.15.656.472-.073,1.05.016.113-.044,1.151-.019.333-.3.376-.645.376-.613,0-1.255-.007-1.934-.015a78.313,78.313,0,0,0-8.4.182h-.044" transform="translate(-653.775 -73.896)" fill="#ecb04f"/>
        <path id="Path_6947" data-name="Path 6947" d="M1169.2,975.03c-.214,4.707-1.035,12.759-1.409,16.494-.085.851-.147,1.478-.173,1.79a8.068,8.068,0,0,1-1.4,3.948c-1.746,1.945-4.753,3.569-8.846,4.733-.336.1-.676.187-1.023.276a38.816,38.816,0,0,1-5.734-.013.351.351,0,0,1-.342-.4c.088-.63,2.051-16.772,2.315-19.556a.629.629,0,0,1,.607-.566c.758-.016,1.5-.044,2.239-.1.81-.057,1.618-.145,2.447-.277a19.673,19.673,0,0,0,8.7-3.39,9.6,9.6,0,0,0,2.62-2.94" transform="translate(-1044.727 -885.564)" fill="#d3e7f0"/>
        <path id="Path_6948" data-name="Path 6948" d="M947.529,826.747l-.244-.289-.04,0-.011-.06c-.093-.112-2.23-2.71-2.878-3.377-5.639-5.8-15.346-8.262-22.5-9.31a90.126,90.126,0,0,0-11.49-.909c-.931-.014-1.859-.512-2.431-.5a.446.446,0,0,1-.45-.486l1.632-18.23a.446.446,0,0,1,.438-.406c1.135-.016,4.523-.032,8.207.252,2,.154,3.961.372,5.838.647,6.424.942,15.309,3.095,21.158,8.005.158.133.619.614,1.408,1.471a10.326,10.326,0,0,1,2.683,7.913l-1.362,15.013-.057-.007Z" transform="translate(-824.219 -720.389)" fill="#f7efec"/>
        <path id="Path_6949" data-name="Path 6949" d="M1141.405,882.485l-.1-.38c-.005-.019-.529-1.916-3.325-4.358-2.583-2.256-7.292-5.422-16.938-7.828a.763.763,0,0,1-.589-.828c.331-2.85.53-6.659.7-7.825a.751.751,0,0,1,.322-.513.763.763,0,0,1,.6-.114,42.616,42.616,0,0,1,15.965,7.053c3.792,2.854,4.279,3.66,4.01,6.631Z" transform="translate(-1017.639 -781.652)" fill="#cdb6b6"/>
        <path id="Path_6950" data-name="Path 6950" d="M1170.9,893.319a47.915,47.915,0,0,0-9.868-4.185.629.629,0,0,0-.813.525c-.082.618.1-.78-.126.756a.719.719,0,0,0,.486.784,54.873,54.873,0,0,1,9.991,4.241.28.28,0,0,0,.419-.205q.094-.672.192-1.342a.568.568,0,0,0-.281-.572" transform="translate(-1053.64 -807.524)" fill="#402525"/>
        <path id="Path_6951" data-name="Path 6951" d="M1227.055,953.889c-1.243-.706-2.523-1.35-3.818-1.932a.338.338,0,0,0-.471.252c-.085.493-.2,1.1-.259,1.439a.339.339,0,0,0,.2.371c1.491.655,2.818,1.319,4.011,1.987.2.112.374.02.417-.225.07-.406.142-.8.189-1.252a.624.624,0,0,0-.266-.639" transform="translate(-1110.328 -864.581)" fill="#402525"/>
        <path id="Path_6952" data-name="Path 6952" d="M390.156,1173.651c-.308,3.792-.654,10.947-.895,14.692a1.285,1.285,0,0,1-1.656,1.073,9.775,9.775,0,0,1-1.958-.6c-2.806-1.665-3.448-1.765-5.308-3.8-1.633-1.788-2.112-4.609-1.86-7.021.176-1.68.762-9.431,1.584-15.158a12.262,12.262,0,0,0,6.465,8.5,14.839,14.839,0,0,0,2.716,1.019,1.242,1.242,0,0,1,.911,1.3" transform="translate(-343.695 -1056.135)" fill="#d3e7f0"/>
        <path id="Path_6953" data-name="Path 6953" d="M404.149,1019.727q-.63,6.111-1.305,12.216c-.027.246-.114.516-.361.525-6.264.234-13.414,1.353-18.486,4.908-.752.527-3.188,2.555-3.465,2.784l-.02.016h-.017l1.453-14.87a10.188,10.188,0,0,1,4.061-7.177c.918-.683,1.47-1.077,1.644-1.174,4.878-2.731,11.089-3.7,16.607-3.912a.5.5,0,0,1,.512.547q-.307,3.069-.622,6.137" transform="translate(-345.582 -920.088)" fill="#f7efec"/>
        <path id="Path_6954" data-name="Path 6954" d="M448.244,1077.89a.452.452,0,0,1-.211-.053.443.443,0,0,1-.239-.44c.158-1.7.468-5.024.468-5.024.053-.553.148-.834.876-1.4a10,10,0,0,1,1.789-.934l.206-.091a23.363,23.363,0,0,1,6.477-1.865c.4-.051.793-.079,1.182-.114,1-.09,1.367.258,1.333.6-.119,1.187-.254,2.532-.334,3.116-.07.508-.142,1.034-.246,2.023a.7.7,0,0,1-.684.662c-3.857.151-7.049,1.04-9.23,2.571-.385.27-.756.554-1.1.843a.445.445,0,0,1-.286.106" transform="translate(-406.704 -969.964)" fill="#ecb04f"/>
        <path id="Path_6955" data-name="Path 6955" d="M479.732,1094.91a20.487,20.487,0,0,0-4.583,1.632.358.358,0,0,0-.189.27c-.052.4-.1.961-.131,1.315a.16.16,0,0,0,.233.157,22.042,22.042,0,0,1,4.692-1.75.16.16,0,0,0,.122-.149c.01-.258.033-.869.047-1.312a.161.161,0,0,0-.191-.163" transform="translate(-431.26 -994.442)" fill="#402525"/>
        <path id="Path_6956" data-name="Path 6956" d="M958.7,902.16a.742.742,0,0,1-.165-.018,42.747,42.747,0,0,0-9.508-.952l-.245,0a.747.747,0,0,1-.538-.227.726.726,0,0,1-.194-.555l.337-3.63a.806.806,0,0,1,.772-.742l.227-.007a56.936,56.936,0,0,1,6.1.294h0c.939.086,2.763.415,3.767.6a.717.717,0,0,1,.586.768l-.343,3.72a.8.8,0,0,1-.324.585.786.786,0,0,1-.469.158m-9.29-1.106a42.55,42.55,0,0,1,9.154.957.643.643,0,0,0,.525-.116.669.669,0,0,0,.271-.489l.343-3.72a.586.586,0,0,0-.477-.627c-1-.188-2.82-.516-3.754-.6h0a56.663,56.663,0,0,0-6.083-.293l-.227.007a.672.672,0,0,0-.643.62l-.337,3.63a.593.593,0,0,0,.158.453.569.569,0,0,0,.439.185l.245,0,.385,0" transform="translate(-861.058 -813.805)" fill="#ecb04f"/>
        <path id="Path_6957" data-name="Path 6957" d="M1056.274,3.063A26.1,26.1,0,0,0,1046.091,0q-.171,1.669-.286,3.338a25.5,25.5,0,0,1,10,3c.432.238.857.49,1.271.753q.093-.638.192-1.276c.1-.666.188-1.334.264-2-.411-.261-.831-.512-1.26-.747" transform="translate(-949.845)" fill="#d3e7f0"/>
        <path id="Path_6958" data-name="Path 6958" d="M1057.651,1315.421a27.608,27.608,0,0,0-10.106-3.835q-.17,1.656-.284,3.317a26.954,26.954,0,0,1,9.927,3.757q.644.405,1.261.849.092-.632.19-1.261c.1-.658.187-1.319.262-1.984-.408-.292-.824-.575-1.25-.843" transform="translate(-951.167 -1191.239)" fill="#d3e7f0"/>
        <path id="Path_6959" data-name="Path 6959" d="M201.988,535.084h0a23.119,23.119,0,0,0-7.8,2.882q-.094.581-.186,1.158c-.019.339-.041.677-.063,1.016a1,1,0,0,0,.209.024.992.992,0,0,0,.529-.153A21.176,21.176,0,0,1,202.1,537.1c.082-.671.159-1.342.225-2.013a.992.992,0,0,0-.341,0" transform="translate(-176.142 -485.973)" fill="#ecb04f"/>
        <path id="Path_6960" data-name="Path 6960" d="M649.233,1498.267a14.4,14.4,0,0,1-6.8-1.761.208.208,0,0,0-.309.172q-.038.867-.084,1.735a.209.209,0,0,0,.117.2,16.4,16.4,0,0,0,5.83,1.6q.595.049,1.193.053a.209.209,0,0,0,.21-.2c.014-.38.038-1.136.054-1.586a.207.207,0,0,0-.207-.214" transform="translate(-583.125 -1359.167)" fill="#ecb04f"/>
        <path id="Path_6961" data-name="Path 6961" d="M1410.865,334.383c-1.566-1.233-4.565-3.347-5.5-4a.194.194,0,0,0-.305.152c-.022.571-.05,1.592-.083,2.024a.192.192,0,0,0,.09.177,53.613,53.613,0,0,1,5.521,4,.194.194,0,0,0,.318-.145q.02-1.023.036-2.046a.193.193,0,0,0-.073-.155" transform="translate(-1276.056 -300.033)" fill="#ecb04f"/>
        <path id="Path_6962" data-name="Path 6962" d="M947.711,1014.4a6.425,6.425,0,0,1-1.741,3.713,15.175,15.175,0,0,1-5.591,3.618,30.567,30.567,0,0,1-3.255,1.115c-.336.1-.676.187-1.023.276a47.711,47.711,0,0,1-4.711.933,1.8,1.8,0,0,1-1.326-1.13,1.268,1.268,0,0,1-.029-.163,45.453,45.453,0,0,0,6.688-1.327,28.233,28.233,0,0,0,3.358-1.171c3.751-1.594,5.954-3.7,6.17-6,.275-2.915-2.648-6.131-8.019-8.828a44.889,44.889,0,0,0-5.866-2.407,66.279,66.279,0,0,0-9.781-2.416c-1.966-.339-3.993-.608-6.058-.8-2.293-.216-4.557-.332-6.76-.352a4.721,4.721,0,0,1-.471-.108,2.287,2.287,0,0,1-1.525-1.351,80.5,80.5,0,0,1,8.893.351c2.151.2,4.262.486,6.31.842a64.693,64.693,0,0,1,12.212,3.3c1.309.508,2.548,1.055,3.7,1.636,4.9,2.457,7.884,5.328,8.65,8.251a5.8,5.8,0,0,1,.171,2.025" transform="translate(-824.476 -906.41)" fill="#cdb6b6"/>
        <path id="Path_6963" data-name="Path 6963" d="M398.121,1218.164a2.33,2.33,0,0,1-.654.8l-.008.007a1.681,1.681,0,0,1-1.277.311,22.807,22.807,0,0,0-3.463-.261c-.165,0-.33,0-.495.005-8.413.175-15.258,4.748-15.258,10.193a6.407,6.407,0,0,0,.314,1.976,8.131,8.131,0,0,0,2.118,3.292,15.268,15.268,0,0,0,7.193,3.686l0,.019a1.362,1.362,0,0,1-1.741,1.021,16.019,16.019,0,0,1-6.477-3.677,9.9,9.9,0,0,1-2.228-3.188h0a7.934,7.934,0,0,1-.644-3.127c0-3.079,1.776-5.99,5-8.194a21.7,21.7,0,0,1,11.7-3.467,23.825,23.825,0,0,1,5.927.607" transform="translate(-341.044 -1105.832)" fill="#cdb6b6"/>
        <path id="Path_6964" data-name="Path 6964" d="M1473.66,618.092a7.414,7.414,0,0,1-1.674,4.609,11.246,11.246,0,0,1-2.706,2.441,16.686,16.686,0,0,1-5.418,2.256,1.509,1.509,0,0,1-1.641-.666,1.431,1.431,0,0,1-.18-.483c3.959-.583,7.237-2.317,8.923-4.62a5.954,5.954,0,0,0,1.227-3.538c0-2.962-2.419-5.57-6.058-7.057a2.058,2.058,0,0,1-.445-.519,2.574,2.574,0,0,1-.28-1.3,15.89,15.89,0,0,1,3.871,1.826c2.824,1.86,4.38,4.364,4.38,7.051" transform="translate(-1327.889 -553.315)" fill="#cdb6b6"/>
        <path id="Path_6965" data-name="Path 6965" d="M935.36,1532.037a7.587,7.587,0,0,1-3.35,5.969,12.35,12.35,0,0,1-1.046.723,16.993,16.993,0,0,1-5.008,2.029,2.293,2.293,0,0,1-1.241-.027,1.259,1.259,0,0,1-.936-1.053,16.586,16.586,0,0,0,6.411-2.2,11.15,11.15,0,0,0,.943-.654,6.172,6.172,0,0,0,2.759-4.791,5.9,5.9,0,0,0-2.261-4.384,4.646,4.646,0,0,1-.73-.8l-.009-.012a3.252,3.252,0,0,1-.5-.943,3.435,3.435,0,0,1-.1-.942c.231.127.459.256.679.392,2.835,1.761,4.4,4.137,4.4,6.693" transform="translate(-839.016 -1385.027)" fill="#cdb6b6"/>
        <path id="Path_6966" data-name="Path 6966" d="M17.91,329.091a1.46,1.46,0,0,1-.56,1.026,1.811,1.811,0,0,1-.8.253,16.83,16.83,0,0,0-1.99-.117c-.271,0-.54.007-.807.02-6.189.293-11.229,3.943-12.137,8.633-.029.156-.055.315-.076.474a7.765,7.765,0,0,0-.069,1.046c0,3.578,2.292,6.664,5.9,8.477a5.267,5.267,0,0,1-.081.734.611.611,0,0,1-.89.42C2.537,347.96,0,344.425,0,340.426a9.479,9.479,0,0,1,.067-1.121,9.719,9.719,0,0,1,1-3.243c2.161-4.262,7.4-7.276,13.494-7.276a16.919,16.919,0,0,1,3.262.291l.091.015" transform="translate(0 -298.618)" fill="#cdb6b6"/>
        <path id="Path_6967" data-name="Path 6967" d="M378.21,584.994c.159-.47.316-.942.464-1.416l-.566-.083c-3.175-.48-7.169-1.038-9.549-3.538a5.1,5.1,0,0,1-.568-5.512,6.865,6.865,0,0,1,.639-1.023c-.455-.14-.91-.287-1.361-.439a7.727,7.727,0,0,0-.612,1.1,6.558,6.558,0,0,0,.934,6.9c.1.093.195.184.295.272l1.067-.1.479-.047a.981.981,0,0,0-.016.217c.031.7.684,1.167,1.386,1.471a.809.809,0,0,0,.4.43c.005.015.011.029.017.044a28.637,28.637,0,0,0,6.67,1.677l.321.047" transform="translate(-332.479 -520.408)" fill="#402525"/>
        <path id="Path_6968" data-name="Path 6968" d="M201.065,861.532,199.62,876.3a1.449,1.449,0,0,1-.751,1.151l-.015.008a1.456,1.456,0,0,1-.611.171c-1.918.107-3.71-.608-5.612-.9a33.2,33.2,0,0,1-5.661-1.207c-.236-.133-.466-.272-.688-.414h0a11.6,11.6,0,0,1-4.795-5.3,7.739,7.739,0,0,1-.556-2.625c0-.076,0-.153,0-.228.032-.342.067-.642.1-.82.028-.155.087-.176.111-.331.165-.44.292-.891.456-1.334l.1-.172a1.275,1.275,0,0,0,.1-.139,11.312,11.312,0,0,0,.546-1.038l.124-.228.008-.008a11.923,11.923,0,0,0,.979-1.326c.091-.125.177-.25.263-.372a18.874,18.874,0,0,0,1.665-1.682,19.423,19.423,0,0,1,4.759-2.807c.427.208.863.4,1.306.572l.143.056c2.537.971,5.314,2.611,8.048,2.631a1.451,1.451,0,0,1,1.434,1.576" transform="translate(-164.322 -778.089)" fill="#d3e7f0"/>
        <path id="Path_6969" data-name="Path 6969" d="M206.436,634.96a57.579,57.579,0,0,0-11.612,1.313,23.139,23.139,0,0,0-7.5,3.357c-2.309,1.525-4.827,4.016-5.093,7.658l.009.019,0,.016c-.031.294-.064.614-.1.953,0,0,0,0,0,0-.012.116-.024.235-.036.355-.143,1.4-.314,3.07-.462,4.544-.115,1.135-.217,2.155-.286,2.851q-.088.891-.175,1.78c-.019.188-.036.376-.055.563-.008.079-.015.157-.023.236l-.056.582c-.02.212-.041.426-.061.638-.184,1.921-.366,3.834-.539,5.726.052-.207.111-.426.179-.654a14.328,14.328,0,0,1,5.624-7.66,17.273,17.273,0,0,1,1.7-1.045,26.85,26.85,0,0,1,10.556-2.908c1.824-.161,5.387-.174,7.017-.192.559-.007.713-.479.757-1.037.244-3.09,1-12.578,1.261-15.93a1.08,1.08,0,0,0-1.1-1.165" transform="translate(-163.886 -576.697)" fill="#f7efec"/>
        <path id="Path_6970" data-name="Path 6970" d="M206.219,681.179a1,1,0,0,0-.774-.259h0c-.3.029-7.455.763-11.506,2.972a15.16,15.16,0,0,0-6.469,6.119s0,0,0,0c-.012.116-.024.235-.036.355A14.905,14.905,0,0,1,194,684.011c4.028-2.2,11.153-2.927,11.456-2.958a.868.868,0,0,1,.953.87l-.707,8.136a.863.863,0,0,1-.783.851c-2.529.244-8.914,1.114-13.577,3.906a11.016,11.016,0,0,0-1.375,1.009,11.507,11.507,0,0,0-3.59,5.1c-.02.212-.041.426-.061.638a11.311,11.311,0,0,1,3.737-5.635,10.877,10.877,0,0,1,1.358-1c4.64-2.779,11-3.645,13.521-3.888a1,1,0,0,0,.9-.979l.708-8.135a1,1,0,0,0-.325-.751" transform="translate(-169.221 -618.436)" fill="#ecb04f"/>
        <path id="Path_6971" data-name="Path 6971" d="M257.359,702.664c-1.083.106-6.77.53-11.206,3.619q-.147.1-.3.211a.743.743,0,0,0-.3.524c-.063.63-.129,1.061-.194,1.649a.238.238,0,0,0,.374.221,23.422,23.422,0,0,1,11.621-4c.623-.06.806-.151.8-.626l.086-1.054c-.009-.557-.205-.609-.884-.543" transform="translate(-222.849 -638.169)" fill="#b55d2d"/>
        <path id="Path_6972" data-name="Path 6972" d="M242.588,764.519a17.625,17.625,0,0,1,5.273-2.441.219.219,0,0,0,.16-.2c.032-.845.072-1.057.083-1.8a.223.223,0,0,0-.286-.217,16.629,16.629,0,0,0-5.246,2.459.222.222,0,0,0-.1.161c-.059.546-.171,1.24-.232,1.838a.22.22,0,0,0,.347.2" transform="translate(-220.012 -690.13)" fill="#b55d2d"/>
        <path id="Path_6973" data-name="Path 6973" d="M206.471,828.5a2.294,2.294,0,0,1-.3.52l-.007.009a1.671,1.671,0,0,1-1.433.655c-1.071-.067-2.166-.084-3.284-.045a31.392,31.392,0,0,0-9.721,1.832c-.049.019-.1.036-.148.056-5.639,2.118-9.349,5.78-9.217,9.809.087,2.624,1.793,4.983,4.568,6.785a25.173,25.173,0,0,0,11.936,3.53l.132.008h.016c-.04.043-.079.087-.12.128l-.016.015a3.329,3.329,0,0,1-2.822.894,26.306,26.306,0,0,1-8.6-2.7c-.167-.089-.331-.18-.492-.273-.083-.047-.164-.093-.245-.143-.151-.088-.3-.179-.443-.271h0a11.6,11.6,0,0,1-4.795-5.3,7.741,7.741,0,0,1-.556-2.625c0-.076,0-.154,0-.228-.009-3.276,2.1-6.4,5.957-8.814a29.718,29.718,0,0,1,14.528-4.029,35.259,35.259,0,0,1,5.064.187" transform="translate(-164.322 -752.289)" fill="#cdb6b6"/>
        <path id="Path_6974" data-name="Path 6974" d="M916.664,998.344a80.5,80.5,0,0,0-8.893-.351,2.287,2.287,0,0,0,1.525,1.351,4.726,4.726,0,0,0,.471.108c2.2.02,4.466.136,6.76.352,2.065.195,4.092.464,6.058.8a8.807,8.807,0,0,0,.39-1.422c-2.048-.356-4.16-.639-6.31-.842" transform="translate(-824.476 -906.41)" fill="#402525"/>
        <path id="Path_6975" data-name="Path 6975" d="M385.776,1369.523a8.134,8.134,0,0,1-2.118-3.292,13.826,13.826,0,0,0-1.137,1.151h0a9.9,9.9,0,0,0,2.228,3.188,16.019,16.019,0,0,0,6.477,3.677,1.362,1.362,0,0,0,1.741-1.021l0-.019a15.269,15.269,0,0,1-7.193-3.686" transform="translate(-347.422 -1240.869)" fill="#402525"/>
        <path id="Path_6976" data-name="Path 6976" d="M1160.457,1240.759a28.215,28.215,0,0,1-3.358,1.171,45.447,45.447,0,0,1-6.688,1.328,1.268,1.268,0,0,0,.029.163,1.8,1.8,0,0,0,1.326,1.13,47.7,47.7,0,0,0,4.711-.932c.347-.089.687-.18,1.023-.276a30.579,30.579,0,0,0,3.255-1.115,7.978,7.978,0,0,0-.3-1.468" transform="translate(-1044.853 -1126.91)" fill="#402525"/>
        <path id="Path_6977" data-name="Path 6977" d="M931.134,1654.379a11.15,11.15,0,0,1-.943.654,16.591,16.591,0,0,1-6.411,2.2,1.259,1.259,0,0,0,.936,1.053,2.291,2.291,0,0,0,1.241.027,16.99,16.99,0,0,0,5.008-2.029,12.347,12.347,0,0,0,1.046-.723,4.251,4.251,0,0,0-.876-1.178" transform="translate(-839.016 -1502.578)" fill="#402525"/>
        <path id="Path_6978" data-name="Path 6978" d="M256.43,1047.934l-.132-.008a25.175,25.175,0,0,1-11.936-3.53,13.539,13.539,0,0,0-.208,1.462c.081.049.163.1.245.143.161.094.325.184.492.273a26.3,26.3,0,0,0,8.6,2.7,3.329,3.329,0,0,0,2.822-.894l.016-.015c.041-.041.08-.085.12-.128h-.016" transform="translate(-221.751 -948.565)" fill="#402525"/>
        <path id="Path_6979" data-name="Path 6979" d="M1471.159,744.675c-.064-.055-.128-.109-.193-.161-1.686,2.3-4.964,4.037-8.923,4.62a1.431,1.431,0,0,0,.18.483,1.509,1.509,0,0,0,1.641.666,16.686,16.686,0,0,0,5.418-2.256,11.245,11.245,0,0,0,2.706-2.441,5.024,5.024,0,0,0-.827-.91" transform="translate(-1327.889 -676.199)" fill="#402525"/>
        <path id="Path_6980" data-name="Path 6980" d="M1.471,440.6a7.766,7.766,0,0,1,.069-1.046c.021-.159.047-.317.076-.474-.073,0-.147.005-.219.009a3.137,3.137,0,0,0-1.327.39A9.48,9.48,0,0,0,0,440.6c0,4,2.537,7.535,6.392,9.631a.611.611,0,0,0,.89-.42,5.266,5.266,0,0,0,.081-.734c-3.6-1.813-5.9-4.9-5.9-8.477" transform="translate(-0.004 -398.789)" fill="#402525"/>
      </g>
    </g>
  </g>
</svg>
