<svg id="Group_2966" data-name="Group 2966" xmlns="http://www.w3.org/2000/svg" xmlns:xlink="http://www.w3.org/1999/xlink" width="141.904" height="129.606" viewBox="0 0 141.904 129.606">
  <defs>
    <clipPath id="clip-path">
      <rect id="Rectangle_1792" data-name="Rectangle 1792" width="141.904" height="129.606" fill="none"/>
    </clipPath>
  </defs>
  <g id="Group_2966-2" data-name="Group 2966" clip-path="url(#clip-path)">
    <path id="Path_6793" data-name="Path 6793" d="M38.991,61.591a3.077,3.077,0,0,1-1.769-.025c-.477-.164-.743-.4-.686-.937a15.2,15.2,0,0,1,.653-3.382,8.842,8.842,0,0,1,1.62-3.138c.449-.656,1.58-1.714.863-2.587-.989-1.2-2.542.611-3.641,2.254,0-.058,0-.117,0-.176a24.923,24.923,0,0,0,1.679-2.426c.372-.734.35-1.716-.372-1.879a.809.809,0,0,0-.915-.888A2.626,2.626,0,0,0,35.208,49c-.332.014-.541-.268-.886-.081a1.291,1.291,0,0,0-.337.292,5.244,5.244,0,0,0-.789,1.176,1.061,1.061,0,0,0-.136-1.009.658.658,0,0,0-.839.018.57.57,0,0,0-.259.161c-3.429,3.618-3.295,10.728-2.18,15.154.083.329,5.238.046,6.692-.093a3.476,3.476,0,0,0,3.268-2.385.61.61,0,0,0-.751-.643" transform="translate(-18.737 -31.188)" fill="#f7946d"/>
    <path id="Path_6794" data-name="Path 6794" d="M156.874,6.445c-1.058,6.516-20.23,121.478-20.27,121.687a2.469,2.469,0,0,1-2.384,2.1l-72.346-.159a5.874,5.874,0,0,1-4.215-1.8c-.606-.628-1.247-1.325-1.728-1.925-.527-.656-.665-1.955-.235-4.419L78.554,6.272a1.552,1.552,0,0,1,1.481-1.233L152.508,1c2.436-.469,4.477,4.761,4.366,5.446" transform="translate(-35.725 -0.624)" fill="#560c1b"/>
    <path id="Path_6795" data-name="Path 6795" d="M154.634,3.38c-.207,5.129-12.117,72.806-17.446,104.77-.511,3.057-.967,5.781-1.351,8.083-.843,5.063-1.346,8.083-1.355,8.115a2.465,2.465,0,0,1-2.385,2.1l-74.737-.164c-.823,0-1.051-2.977-1.051-2.977L75.864,5.225c.639-4.242,3.6-3.973,4.3-3.969l71.732-.2c.7,0,2.829.116,2.74,2.327" transform="translate(-36.285 -0.679)" fill="#fff"/>
    <path id="Path_6796" data-name="Path 6796" d="M131.428,126.142l-74.746-.164c-1.017,0-1.328-2.083-1.423-3.322a.36.36,0,0,1,0-.09L74.817,4.486C75.252,1.593,76.786.167,79.38.2l.106,0L151.215,0a3.305,3.305,0,0,1,2.5.857,2.438,2.438,0,0,1,.62,1.859c-.142,3.52-5.635,35.577-10.947,66.58-2.472,14.428-4.807,28.056-6.5,38.236-.511,3.057-.967,5.782-1.35,8.083-1.347,8.092-1.352,8.111-1.361,8.145a2.816,2.816,0,0,1-2.74,2.381m-75.419-3.5a5.046,5.046,0,0,0,.686,2.588l74.725.162a2.088,2.088,0,0,0,2.017-1.792c.025-.133.654-3.91,1.353-8.107.383-2.3.839-5.027,1.35-8.083,1.7-10.182,4.033-23.811,6.505-38.24,5.061-29.536,10.8-63.013,10.937-66.484l.374.015-.374-.015a1.7,1.7,0,0,0-.413-1.312,2.686,2.686,0,0,0-1.955-.626l-71.729.2-.12,0C78.474.931,76.116.884,75.556,4.6Z" transform="translate(-35.607 -0.001)" fill="#560c1b"/>
    <path id="Path_6797" data-name="Path 6797" d="M56.981,325.417q-.124.844-.249,1.689c-.076.594-.153,1.187-.244,1.777a25.423,25.423,0,0,1-.672,3.731.976.976,0,0,1-.071.188c-.147.871-.165,2.265,1.209,2.291l74.739.164a2.465,2.465,0,0,0,2.382-2.081c.009-.05.488-2.921,1.3-7.759Z" transform="translate(-35.877 -209.69)" fill="#f0e3df"/>
    <path id="Path_6798" data-name="Path 6798" d="M163.438,330.974a1.945,1.945,0,0,0-.009,3.889,1.945,1.945,0,0,0,.009-3.889" transform="translate(-104.064 -213.271)" fill="#fff"/>
    <path id="Path_6799" data-name="Path 6799" d="M131.324,125.942,56.6,125.778a1.115,1.115,0,0,1-.932-.33c-.784-.8-.538-2.839-.507-3.069L74.716,4.287C75.154,1.414,76.687-.032,79.3,0h.087l71.948.167a2.667,2.667,0,0,1,2.1.718c.555.643.71,1.755.489,3.5-.856,6.723-19.71,118.4-19.853,119.154a2.828,2.828,0,0,1-2.746,2.4m-74.744-.913,74.739.164a2.091,2.091,0,0,0,2.016-1.793c.164-.925,19.017-112.606,19.845-119.109.191-1.5.089-2.451-.312-2.915a1.977,1.977,0,0,0-1.546-.458L79.287.751C78.479.736,76.019.712,75.455,4.4L55.9,122.489a3.868,3.868,0,0,0,.3,2.435.367.367,0,0,0,.337.107l.042,0" transform="translate(-35.504 -0.001)" fill="#560c1b"/>
    <path id="Path_6800" data-name="Path 6800" d="M88.2,148.489q-.278-1.918-.557-3.836c-.382-2.631-.666-5.3-1.241-7.9-.429-1.938-1.069-4.36-2.668-5.685-.85-.7-2.707-1.408-3.476-.318a.178.178,0,0,0-.138.054c-1.553,1.5-1.014,4.271-.748,6.168a61.78,61.78,0,0,0,2.077,8.618c.642,2.2,1.355,5.007,3.118,6.612a2.322,2.322,0,0,0,3.881-.642.144.144,0,0,0-.014-.133,7.278,7.278,0,0,0-.234-2.937" transform="translate(-50.948 -83.889)" fill="#ffc070"/>
    <path id="Path_6801" data-name="Path 6801" d="M42.891,103.286,23.564,110.5a.925.925,0,0,1-1.228-1.03c.874-4.891,3.474-19.476,3.414-19.575a.569.569,0,0,0-.387-.766c-3.022-.828-6.679.666-6.787,1.018-1.97,6.436-6.614,23.577-7.04,26.764-.245,1.83-.257,3.858,1.045,5.323s3.21,1.217,5.018,1.142c5.1-.213,26.448-7.628,31.469-10.6.442-.262-4.512-6.065-6.177-9.49" transform="translate(-7.351 -57.273)" fill="#f7946d"/>
    <path id="Path_6802" data-name="Path 6802" d="M113.891,67.393c-.24-.068-6.695-1.132-9.581-1.437a11.8,11.8,0,0,1-4.891-1.367,11.478,11.478,0,0,1-2.834-2.981,7.524,7.524,0,0,0-5.124-2.776c-1.982-.264-4.488-.344-6.071,1.05a.515.515,0,0,0-.193.414.614.614,0,0,0-.234.427c-.337,3.037-.907,9.844,2.6,11.755,2.151,1.171,2.788,2.815,3.589,5.117.927,2.664,2.488,4.617,5.818,4.8,3.659.2,7.265-1.285,10.714-2.272A26.288,26.288,0,0,1,114.607,79c2.206-.028,5.037-.09,6.885,1.245a.6.6,0,0,0,.9-.517c-.022-5.835-2.445-10.628-8.5-12.331" transform="translate(-54.585 -37.809)" fill="#912f2e"/>
    <path id="Path_6803" data-name="Path 6803" d="M108.718,105.759c-6.317-1.321-19.287,3.877-26.814,8.978-.78.528-.033,1.5.352,2.024a24.114,24.114,0,0,1,1.557,2.566,38.714,38.714,0,0,1,2.71,5.853,26.336,26.336,0,0,1,1.347,10.887,1.246,1.246,0,0,0,1.371.788c4.308-1.186,22.137-9.081,24.572-15.812,1.367-3.779-5.051-15.294-5.095-15.285" transform="translate(-52.557 -68.014)" fill="#ffc070"/>
    <path id="Path_6804" data-name="Path 6804" d="M50.473,252.636H63.214c-.387-2.288-1.225-5.372-1.319-5.914q-.411-2.4-.915-4.78a54.078,54.078,0,0,0-2.813-9.461c-2.081-5.02-5.369-9.707-10.049-12.609-1.959-1.215-4.558-2.537-6.938-2.2-2.332.326-3.183,2.447-2.908,4.574a17.4,17.4,0,0,0,1.353,4.3q.257.625.528,1.244c-7.491-6.886-16.4-13.229-26.164-14.906-2.986-.513-6.854-.961-9.423,1.069-2.478,1.957-2.08,5.536-.878,8.116,1.718,3.685,5.491,5.514,8.977,7.19,3.763,1.808,7.653,3.335,11.55,4.827,8.763,3.354,17.794,7.669,24.719,13.8a46.944,46.944,0,0,1,1.537,4.76" transform="translate(-1.767 -136.894)" fill="#7a6b38"/>
    <path id="Path_6805" data-name="Path 6805" d="M283.979,117.631a13.694,13.694,0,0,0-5.489-1.689c-5.755-.635-10.564,1.06-15.691,3.368a13.492,13.492,0,0,0-.66-2.284c-1.044-1.942-3.655-2.489-5.658-2.6-5.942-.337-11.732,3.435-15.968,7.244-9.647,8.677-13.926,21.388-15.482,33.943-.062.5.437.67.812.51,1.224,3.608,2.356,7.3,3.873,10.777.062.142.13.278.2.415-.01.162-.022.323-.03.485a.543.543,0,0,0,.642.572,16.247,16.247,0,0,0,6.017,4.857c-.308.7.724,1.31,1.035.6,5.081-11.541,13.728-19.991,24-27.016,9.3-6.363,13.7-10.674,21.832-18.592,2.143-2.087,4.57-4.958,2.993-8.082a6.3,6.3,0,0,0-2.42-2.51" transform="translate(-145 -73.718)" fill="#7a6b38"/>
    <path id="Path_6806" data-name="Path 6806" d="M48.19,294.416a16.213,16.213,0,0,0,4.638-.954c-.759-.64-3.058-2.089-3.121-3.227a.693.693,0,0,0-.255-.491c-5-4.374-11.32-6.591-17.477-8.814-6.684-2.413-13.732-4.493-20.9-3.395-4.634.71-12.882,3.988-10.718,10.216.748,2.152,2.792,3.359,4.843,4.057a53.8,53.8,0,0,0,10.139,2.144c5.664.738,11.363.592,17.067.726,3.184.075,6.415.2,9.593-.017,2-.136,4.122-.082,6.193-.245" transform="translate(0 -178.641)" fill="#7a6b38"/>
    <path id="Path_6807" data-name="Path 6807" d="M277.652,133.823a96.474,96.474,0,0,0-26.706,38.833c-.151.406.5.582.65.179A95.849,95.849,0,0,1,278.128,134.3c.326-.287-.152-.762-.476-.476" transform="translate(-161.688 -86.175)" fill="#3d0a09"/>
    <path id="Path_6808" data-name="Path 6808" d="M140.811,285.662A47.974,47.974,0,0,1,151.393,296.6c.246.353.83.016.581-.34a48.966,48.966,0,0,0-10.823-11.183c-.347-.26-.683.324-.34.581" transform="translate(-90.642 -183.657)" fill="#3d0a09"/>
    <path id="Path_6809" data-name="Path 6809" d="M120.081,262.3a13.972,13.972,0,0,0-3.526-3.422,16.061,16.061,0,0,0-2.153-1.249c-1.165-.56-4.119-1.13-4.279.937a1.738,1.738,0,0,0,.25.984,1.96,1.96,0,0,0-1.836,1.469,2.237,2.237,0,0,0,.223,1.324,2.243,2.243,0,0,0-1.546,1.22c-.422.977.367,2.207,1.051,2.863.815.783,5.495,2.782,6.839,3.306,2.167.844,5.1,1.451,6.405-1.043,1.05-2-.272-4.748-1.427-6.39" transform="translate(-69.009 -165.672)" fill="#fff"/>
    <path id="Path_6810" data-name="Path 6810" d="M120.3,263.926a5.548,5.548,0,0,0-2.255-.641c-.463-.029-.591.688-.124.718a5.034,5.034,0,0,1,2.074.585c.415.22.717-.443.3-.662" transform="translate(-75.794 -169.654)" fill="#560c1b"/>
    <path id="Path_6811" data-name="Path 6811" d="M115.709,272.826a9.665,9.665,0,0,0-2.214-.934c-.451-.129-.57.59-.124.718a8.929,8.929,0,0,1,2.033.878c.406.236.706-.428.3-.662" transform="translate(-72.872 -175.19)" fill="#560c1b"/>
    <path id="Path_6812" data-name="Path 6812" d="M247.382,206.656a48.773,48.773,0,0,0-6.765,13.923.337.337,0,0,0,.649.179,48.206,48.206,0,0,1,6.7-13.762c.249-.356-.334-.693-.582-.34" transform="translate(-155.037 -133.068)" fill="#3d0a09"/>
    <path id="Path_6813" data-name="Path 6813" d="M253.773,187.22c2.02,1.963,4.614.475,6.412-1,1.115-.916,4.94-4.271,5.472-5.269.446-.836.813-2.251.108-3.048a2.244,2.244,0,0,0-1.849-.679,2.238,2.238,0,0,0-.2-1.328,1.96,1.96,0,0,0-2.2-.825,1.739,1.739,0,0,0-.069-1.013c-.8-1.915-3.425-.455-4.359.44a16.132,16.132,0,0,0-1.658,1.856,13.976,13.976,0,0,0-2.286,4.349c-.587,1.92-.99,4.941.631,6.517" transform="translate(-162.787 -111.553)" fill="#fff"/>
    <path id="Path_6814" data-name="Path 6814" d="M269.382,179.985a5.543,5.543,0,0,1,1.943-1.31c.431-.172.776.47.341.644a5.029,5.029,0,0,0-1.789,1.2c-.326.339-.819-.2-.5-.534" transform="translate(-173.515 -115.115)" fill="#560c1b"/>
    <path id="Path_6815" data-name="Path 6815" d="M276.79,186.974A9.654,9.654,0,0,1,278.6,185.4c.388-.263.725.383.341.644a8.923,8.923,0,0,0-1.659,1.467c-.312.351-.8-.187-.5-.535" transform="translate(-178.293 -119.426)" fill="#560c1b"/>
    <path id="Path_6816" data-name="Path 6816" d="M291.227,241.834c-.39-3.529-3.377-6.153-6.643-7.1-6.244-1.811-13.174.638-18.861,3.149a46.676,46.676,0,0,0-17.471,13.467.647.647,0,0,0-1.023.611c.025.18.055.377.091.585-.053.07-.107.138-.16.208a.528.528,0,0,0,.371.842c.531,2.277,1.685,5.086,4.06,4.792,1.861-.23,3.773-1.21,5.54-1.813,2.19-.747,4.391-1.47,6.625-2.077,4.388-1.191,8.782-1.445,13.269-1.978a21.064,21.064,0,0,0,10.5-3.87c2.217-1.678,4.023-3.885,3.7-6.817" transform="translate(-159.189 -150.853)" fill="#7a6b38"/>
    <path id="Path_6817" data-name="Path 6817" d="M197.158,238.484c-.511,3.057-1.446,9.514-1.626,9.622l-45.845.016c.1-9.206,1.678-23.626,2.741-32.064-2.665-6.049,23.039-9.294,28-10.085a.735.735,0,0,1,1.259-.267,65.442,65.442,0,0,1,15.467,32.778" transform="translate(-96.454 -132.381)" fill="#ffc070"/>
    <path id="Path_6818" data-name="Path 6818" d="M148.426,140.225c-4.528-24.356-11.041-31.833-14.6-34.879-6.133-5.241-14.669-3.329-21.114.143-4.846,2.61-9.1,6.17-13.345,9.662-2.6,2.138-2.637,2.69-2.578,2.871a13.291,13.291,0,0,0-.021,3.748c.52,3.638,4.313,6.992,4.549,7,3.46,9.935,9.45,18.4,19.331,22.705.05.035,27.794-11.182,27.782-11.246" transform="translate(-62.269 -65.794)" fill="#ffc070"/>
    <path id="Path_6819" data-name="Path 6819" d="M112.893,146.964q-.346-1.908-.691-3.814c-.474-2.616-.851-5.276-1.517-7.852-.5-1.921-1.221-4.32-2.865-5.588-.874-.674-2.754-1.312-3.485-.2a.181.181,0,0,0-.136.059c-1.5,1.548-.864,4.3-.531,6.191a61.779,61.779,0,0,0,2.377,8.539c.718,2.179,1.529,4.956,3.348,6.5a2.322,2.322,0,0,0,3.856-.777.145.145,0,0,0-.019-.133,7.281,7.281,0,0,0-.337-2.928" transform="translate(-66.528 -83.064)" fill="#ffc070"/>
    <path id="Path_6820" data-name="Path 6820" d="M196.182,66.385H153.088a.791.791,0,0,1-.789-.851l.837-4.885a.791.791,0,0,1,.789-.731H197.02a.791.791,0,0,1,.789.851l-.837,4.885a.791.791,0,0,1-.789.731" transform="translate(-98.136 -38.61)" fill="#fff"/>
    <path id="Path_6821" data-name="Path 6821" d="M195.5,66.082H152.41a1.166,1.166,0,0,1-1.162-1.254l.841-4.919a1.161,1.161,0,0,1,1.158-1.042h43.095A1.165,1.165,0,0,1,197.5,60.12l-.842,4.92a1.161,1.161,0,0,1-1.158,1.042m-42.257-6.467a.419.419,0,0,0-.416.386l-.842,4.92a.422.422,0,0,0,.42.413H195.5a.42.42,0,0,0,.416-.386l.841-4.919a.409.409,0,0,0-.114-.28.415.415,0,0,0-.306-.133Z" transform="translate(-97.458 -48.6)" fill="#e5d3cf"/>
    <path id="Path_6822" data-name="Path 6822" d="M160.66,165.625c-2.066,0-3.922-1.29-5.524-3.845-.655-.888-1.346-1.937-1.072-2.867a2.372,2.372,0,0,1,1.623-1.4c5.859-2.234,6.778-1.687,7.079-1.507.962.573,1.61,2.211,1.984,3.485a5.286,5.286,0,0,1-.484,4.28,3.946,3.946,0,0,1-2.832,1.8,5.181,5.181,0,0,1-.775.059m1.212-9.144c-.752,0-2.388.3-5.945,1.656-.7.266-1.107.591-1.217.965-.178.6.367,1.462.982,2.3,1.682,2.68,3.523,3.817,5.642,3.5a3.292,3.292,0,0,0,2.365-1.5,4.609,4.609,0,0,0,.406-3.728c-.482-1.637-1.079-2.737-1.683-3.1a1.1,1.1,0,0,0-.549-.1" transform="translate(-99.235 -100.4)" fill="#3d0a09"/>
    <path id="Path_6823" data-name="Path 6823" d="M88.039,131.283a9.241,9.241,0,0,0-5.233-5.29c-1.13.814-2.266,1.626-3.449,2.38-4.081,2.6-10.391,6.831-14.434,9.49-.226.007-4.456,7.164-3.555,11.712.879,4.437,21.5-5.5,26.653-7.784q1.016-.451,2.03-.905a22,22,0,0,0-2.012-9.6" transform="translate(-39.463 -81.187)" fill="#f7946d"/>
    <path id="Path_6824" data-name="Path 6824" d="M108.3,57.176c-.664-1.519-3.321-2.414-4.59-3.414a40.086,40.086,0,0,0-4.285-3.372,21.147,21.147,0,0,0-10.521-2.471c-2.706,0-6.32-.27-8.3,1.872-.2-.009-.869-.193-1.019,0-3.4,4.386,4.637,7.831,7.175,8.828,4.672,1.835,9.957,3.866,15,4.282,1.155.1,1.017-.641,2.171-.752.334-.032,2.9.59,2.95.329a4.611,4.611,0,0,0,1.424-5.3" transform="translate(-50.752 -30.87)" fill="#ffc070"/>
    <path id="Path_6825" data-name="Path 6825" d="M45.682,58.131a.5.5,0,0,0-.257-.267c-1.565-.727-12.974-5.955-19.2-6.98-2.694-.444-3.618.735-4.549,3.192a12.214,12.214,0,0,0-.612,6.326,7.437,7.437,0,0,0,.981,2.993,3.334,3.334,0,0,0,2.571.992,184.278,184.278,0,0,0,20.063-.22c.112-.013.616-.183.726-.394a8.19,8.19,0,0,0,.277-5.641" transform="translate(-13.464 -32.729)" fill="#560c1b"/>
    <path id="Path_6826" data-name="Path 6826" d="M59.563,126.885c-.225-2.058-1.675-3.65-1.679-5.766-.007-4.9,1.084-9.88,1.443-14.77.216-2.932.633-6.512.633-6.512-2.337-1.884-6.058-4.94-6.269-2.96-.9,8.457-5.091,18.232-5.84,26.614-.246,2.754.1,5.861,2.382,7.734,2.381,1.953,7.534.383,11.932-1.388.253-.1-2.435-1.423-2.6-2.953" transform="translate(-30.79 -62.011)" fill="#f7946d"/>
    <path id="Path_6827" data-name="Path 6827" d="M140.326,83.128c-3.569-1.142-5.348-4.615-6.957-7.715q-2.861-5.511-5.23-11.251a.436.436,0,0,0-.176-.208c-.079-.406-.727-.537-.8-.064-.74,4.487-3.8,8.04-5.463,12.182-.123.3.132.5.393.5.774,1.368,1.519,2.75,2.217,4.158a15.763,15.763,0,0,1,1.089,2.636,3.547,3.547,0,0,1-.888,3.44c-.323.432.406.85.725.422,5.288.71,11.416,1.229,15.21-3.282a.6.6,0,0,0-.116-.817" transform="translate(-78.397 -40.974)" fill="#f7946d"/>
    <path id="Path_6828" data-name="Path 6828" d="M108.376,47.2a7.022,7.022,0,0,0-5.127-4.928c-5.295-1.275-12.717,3.128-13.171,8.723a43.046,43.046,0,0,0,.7,8.968c.262,1.96.331,5.152,2.23,6.321,1.625,1,3.776.541,5.494.085a12.4,12.4,0,0,0,7.914-7.193c1.592-3.449,3.008-8.22,1.959-11.976" transform="translate(-58.006 -27.094)" fill="#f7946d"/>
    <path id="Path_6829" data-name="Path 6829" d="M92.555,47.283a7.014,7.014,0,0,0-7.536,7.453c.006.118.11.913.157,1.237.111.76,1.157.439,1.156-.324-.005-3.629,2.833-5.116,5.632-5.44a.656.656,0,0,0,.565-.744.64.64,0,0,0,.314-.523,1.878,1.878,0,0,1,.194-.687.637.637,0,0,0-.483-.972" transform="translate(-54.777 -30.457)" fill="#912f2e"/>
    <path id="Path_6830" data-name="Path 6830" d="M62.048,58.166c-.093-.088-.141-.213-.257-.267-1.565-.727-12.584-5.318-18.81-6.343-2.694-.443-3.618.735-4.549,3.192a12.206,12.206,0,0,0-.612,6.326,7.427,7.427,0,0,0,.98,2.993,3.334,3.334,0,0,0,2.572.993c2.218.234,15.234-.689,19.874-1.2a.77.77,0,0,0,.467-.288c1.135-1.236,1.326-4.455.335-5.4" transform="translate(-24.26 -33.162)" fill="#560c1b"/>
    <path id="Path_6831" data-name="Path 6831" d="M132.289,102.1c-6.36-1.1-19.14,4.551-26.482,9.911-.761.555.02,1.5.422,2.011a24.176,24.176,0,0,1,1.647,2.51,38.768,38.768,0,0,1,2.913,5.755,26.339,26.339,0,0,1,1.727,10.833.741.741,0,0,0,.952.749.749.749,0,0,0,.446-.009c4.263-1.337,21.472-10.164,23.67-16.977,1.234-3.824-5.251-14.794-5.294-14.783" transform="translate(-67.973 -65.7)" fill="#ffc070"/>
    <path id="Path_6832" data-name="Path 6832" d="M189.22,206.293a42.937,42.937,0,0,1-26.089,10.577c-.431.021-.434.7,0,.674A43.679,43.679,0,0,0,189.7,206.769c.326-.287-.152-.761-.476-.476" transform="translate(-104.908 -132.873)" fill="#3d0a09"/>
    <path id="Path_6833" data-name="Path 6833" d="M190.273,282.584l2.233.283a3.521,3.521,0,0,1,1.124.256c.865.414,1.293,1.406,1.76,2.2.95,1.615,1.665,3.385,2.46,5.08l2.629,5.607c.184.392.765.051.582-.34a119.243,119.243,0,0,0-5.751-11.777,3.164,3.164,0,0,0-2.484-1.658c-.85-.114-1.7-.215-2.552-.323-.429-.054-.425.62,0,.674" transform="translate(-122.4 -181.654)" fill="#3d0a09"/>
    <path id="Path_6834" data-name="Path 6834" d="M225.3,229.425a51.067,51.067,0,0,0,7.615,5.924c.367.233.705-.35.34-.582a50.133,50.133,0,0,1-7.479-5.818c-.315-.3-.792.178-.476.476" transform="translate(-145.114 -147.468)" fill="#3d0a09"/>
    <path id="Path_6835" data-name="Path 6835" d="M142.576,147.724a58.443,58.443,0,0,1-9.844,8.573,53.49,53.49,0,0,1-8.116,4.9,25.184,25.184,0,0,1-5.094,2.025,1.873,1.873,0,0,1-1.886-.338,10.4,10.4,0,0,1-.864-.862,13.893,13.893,0,0,1-1.585-2.132c-.226-.369-.809-.031-.581.34a13.889,13.889,0,0,0,2.554,3.131c.947.844,1.87.716,3.031.379a36.346,36.346,0,0,0,7.733-3.524,68.007,68.007,0,0,0,11.884-8.8,41,41,0,0,0,3.245-3.209c.285-.325-.19-.8-.476-.476" transform="translate(-73.815 -95.119)" fill="#3d0a09"/>
    <path id="Path_6836" data-name="Path 6836" d="M123.725,178.409a7.989,7.989,0,0,1,.146,2.445c-.039.431.635.429.674,0a8.586,8.586,0,0,0-.17-2.625c-.092-.423-.742-.244-.65.179" transform="translate(-79.719 -114.691)" fill="#3d0a09"/>
    <path id="Path_6837" data-name="Path 6837" d="M139.913,96.781c-.066-.159-2.65-4.271-3.313-5.075-.046-.056-.928-1.008-1.073-.219a6.137,6.137,0,0,1-3.181,4.222,13.179,13.179,0,0,1-5.509,1.356c-.272.009-.49.276-.475.368a30.137,30.137,0,0,0,.975,3.287,2.139,2.139,0,0,0,.878,1.413c1.161.677,3.311.03,4.508-.231,3.013-.656,7.3-4.871,7.191-5.122" transform="translate(-81.424 -58.751)" fill="#ffc070"/>
    <path id="Path_6838" data-name="Path 6838" d="M125.09,104.586a89.828,89.828,0,0,0-18.356,9.557c-.357.242-.02.826.34.582a89.06,89.06,0,0,1,18.2-9.489c.4-.153.227-.8-.179-.65" transform="translate(-68.678 -67.377)" fill="#3d0a09"/>
    <path id="Path_6839" data-name="Path 6839" d="M126.627,111.439l1.091,1.8a.337.337,0,0,0,.581-.34l-1.091-1.8a.337.337,0,0,0-.581.34" transform="translate(-81.562 -71.486)" fill="#3d0a09"/>
    <path id="Path_6840" data-name="Path 6840" d="M142.5,188.785a57.094,57.094,0,0,0,6.625,11.456,38.069,38.069,0,0,0,4.672,4.7,8.19,8.19,0,0,1,1.943,3.65l1.379,3.81c.146.4.8.23.649-.179l-1.379-3.81a11.419,11.419,0,0,0-1.4-3.2,19.614,19.614,0,0,0-2.378-2.175,27.44,27.44,0,0,1-2.43-2.559,53.629,53.629,0,0,1-7.1-12.035c-.183-.393-.764-.051-.582.34" transform="translate(-91.803 -121.317)" fill="#3d0a09"/>
    <path id="Path_6841" data-name="Path 6841" d="M30.294,52.355c2.241.743,2.033,4.6,1.869,6.437-.147,1.647-.374,4.436-2.123,5.186-.4.171-.054.751.34.582,2.091-.9,2.352-4.163,2.483-6.115.144-2.151.143-5.9-2.391-6.74-.412-.137-.589.514-.179.65" transform="translate(-19.243 -33.305)" fill="#931f33"/>
    <path id="Path_6842" data-name="Path 6842" d="M38.963,54.8a12.215,12.215,0,0,0-.972,10.252c.144.406.8.231.65-.179a11.545,11.545,0,0,1,.9-9.733.337.337,0,0,0-.582-.34" transform="translate(-24.028 -35.21)" fill="#931f33"/>
    <path id="Path_6843" data-name="Path 6843" d="M48.128,53.965c1.974,1.275,2.112,4.2,1.7,6.28C49.5,61.934,48.757,64.631,46.78,65c-.426.079-.245.728.179.65,2.336-.432,3.24-3.53,3.579-5.532.393-2.32.087-5.337-2.071-6.73-.365-.236-.7.347-.34.581" transform="translate(-29.987 -34.364)" fill="#931f33"/>
    <path id="Path_6844" data-name="Path 6844" d="M76.412,138.7a64.056,64.056,0,0,1-.748,8.6c-.066.424.583.607.65.179a65.376,65.376,0,0,0,.772-8.777.337.337,0,0,0-.674,0" transform="translate(-48.753 -89.162)" fill="#cb5b45"/>
    <path id="Path_6845" data-name="Path 6845" d="M123.824,57.952c-2.521-.409-2.852-2.781-3.932-4.692a20.79,20.79,0,0,0-3.518-4.532.561.561,0,0,0-.369-.171c-1.874-1.251-4.019-1.611-6.2-2.247-2.456-.717-4.565-2.184-7.175-1.881a.611.611,0,0,0-.911.506c-.053,2.422.186,5.719,1.876,7.651,2,2.285,5.08,1.107,7.559,2.166,2.716,1.16,3.2,4.642,5.9,5.787,1.094.464,2.208.139,3.366.246a7.71,7.71,0,0,1,5.313,3.037.527.527,0,0,0,.22.212.654.654,0,0,0,.531.068,17.206,17.206,0,0,1,2.746.229c.347.058.8-.154.759-.578-.309-3.489-2.912-5.274-6.165-5.8" transform="translate(-65.543 -28.583)" fill="#912f2e"/>
    <path id="Path_6846" data-name="Path 6846" d="M48.608,148.859c-.984,3.551-1.923,7.169-1.594,10.885.038.429.712.432.674,0-.324-3.66.6-7.209,1.57-10.706a.337.337,0,0,0-.65-.179" transform="translate(-30.252 -95.767)" fill="#cb5b45"/>
    <path id="Path_6847" data-name="Path 6847" d="M80.459,148.3a20.133,20.133,0,0,0-3.9,2.743c-.324.29.154.765.477.476a19.377,19.377,0,0,1,3.768-2.638c.382-.206.042-.787-.34-.582" transform="translate(-49.26 -95.534)" fill="#cb5b45"/>
    <path id="Path_6848" data-name="Path 6848" d="M106.321,45.806a4.026,4.026,0,0,1,.367.581,6.72,6.72,0,0,1,2.176,1.4,5.415,5.415,0,0,0-1.228-2.941,12.581,12.581,0,0,0-1.188-1.174.778.778,0,0,1-.268-.51c-.127-1.259-.64-6.009-1.271-7.043A10.241,10.241,0,0,0,101.6,33.4a12.6,12.6,0,0,0-7.02-2.118c-1.667-.067-4.095-.191-5.523.86a29.17,29.17,0,0,0-4.908,4.641.907.907,0,0,1-.528.352c-1.859.315-3.55,1.085-4.349,2.827,0,.011-.007.022-.011.033s-.018.033-.026.052a1.194,1.194,0,0,0-.086.559c.472.144.95.265,1.432.367a.669.669,0,0,0-.066-.224c1.053-2.883,5.2-2.488,7.686-2.337A35.938,35.938,0,0,1,95.666,39.7c.189.061.378.119.567.182a31.277,31.277,0,0,1,7,3.206,12.3,12.3,0,0,1,3.088,2.717" transform="translate(-50.999 -20.132)" fill="#ffc070"/>
    <path id="Path_6849" data-name="Path 6849" d="M83.878,52.669a3.1,3.1,0,0,1,2.094-1.062c.429-.034.433-.708,0-.674a3.782,3.782,0,0,0-2.57,1.26c-.287.323.188.8.476.476" transform="translate(-53.685 -32.819)" fill="#3d0a09"/>
    <path id="Path_6850" data-name="Path 6850" d="M104.7,48.27c5.8.219,11.921,1.138,16.375,5.191.32.291.8-.184.476-.477-4.594-4.18-10.862-5.162-16.851-5.388-.434-.016-.433.657,0,.674" transform="translate(-67.259 -30.67)" fill="#3d0a09"/>
    <path id="Path_6851" data-name="Path 6851" d="M100.943,70.328a3.541,3.541,0,0,1-.339,4.228c-.281.328.194.807.476.476a4.234,4.234,0,0,0,.444-5.044.337.337,0,0,0-.581.34" transform="translate(-64.771 -44.994)" fill="#931f33"/>
    <path id="Path_6852" data-name="Path 6852" d="M64.951,49.388a.648.648,0,0,0-.893-.025,2.248,2.248,0,0,0-.612-.581,2.741,2.741,0,0,0-.577-.146c-.277-.444-.405-.752-.878-.87-.516-.129-1.123.566-.494,1.82a12.622,12.622,0,0,1,.739,2.132,9.179,9.179,0,0,1,.348,3.1.11.11,0,0,1-.217.018A4.773,4.773,0,0,0,59.7,51.3a.6.6,0,0,0-.807.661c.113.832.812,1.336,1.113,2.1.889,2.27.173,4.608-.3,6.874q-.035.166-.06.335a5.972,5.972,0,0,0,1.2,5c.025.026-.195,2.04-.169,2.065a.611.611,0,0,0,.354.178c.539.46,1.147.841,1.661,1.336a10.877,10.877,0,0,1,1.857,2.386.632.632,0,0,0,.814.256,2.266,2.266,0,0,0,1.144-.951c1.546-7.881,4.055-16.087-1.564-22.156" transform="translate(-37.948 -30.769)" fill="#f7946d"/>
    <path id="Path_6853" data-name="Path 6853" d="M69.885,52.337a10.808,10.808,0,0,1,.987,5.415.337.337,0,0,0,.674,0A11.482,11.482,0,0,0,70.467,52c-.207-.381-.789-.041-.582.34" transform="translate(-45.004 -33.398)" fill="#cb5b45"/>
    <path id="Path_6854" data-name="Path 6854" d="M74.915,54.626A10.2,10.2,0,0,1,76,59.416a.337.337,0,0,0,.674,0,10.954,10.954,0,0,0-1.18-5.13c-.211-.379-.793-.039-.582.34" transform="translate(-48.244 -34.874)" fill="#cb5b45"/>
    <path id="Path_6855" data-name="Path 6855" d="M132.936,62.456a7.358,7.358,0,0,1,3.765,3.133,28.265,28.265,0,0,0,1.789,3.177,4.749,4.749,0,0,0,3.2,1.666,5.449,5.449,0,0,1,3.914,2.5c.227.369.809.031.582-.34a5.865,5.865,0,0,0-3.014-2.5c-.765-.276-1.583-.3-2.359-.531a3.626,3.626,0,0,1-2.08-1.614c-.732-1.117-1.156-2.4-1.969-3.473a8.114,8.114,0,0,0-3.651-2.673c-.406-.153-.582.5-.179.65" transform="translate(-85.514 -39.811)" fill="#3d0a09"/>
    <path id="Path_6856" data-name="Path 6856" d="M160.954,94.1a2.593,2.593,0,0,1,1.655,1.589c.146.4.8.23.65-.179a3.307,3.307,0,0,0-2.125-2.059c-.414-.133-.591.518-.179.649" transform="translate(-103.563 -60.207)" fill="#3d0a09"/>
    <path id="Path_6857" data-name="Path 6857" d="M128.568,67.151c-1.189.088-1.746,1.26-1.941,2.267-.183.945-.485,2.735.736,3.144,1.592.533,2.3-1.594,2.552-2.675.264-1.115.36-2.863-1.346-2.737" transform="translate(-81.484 -43.266)" fill="#f7946d"/>
    <path id="Path_6858" data-name="Path 6858" d="M130.565,69.141c-.889.263-1.273,1.342-1.358,2.176-.044.431.629.428.674,0,.053-.511.3-1.361.864-1.526a.337.337,0,0,0-.179-.65" transform="translate(-83.256 -44.542)" fill="#cb5b45"/>
    <path id="Path_6859" data-name="Path 6859" d="M128,89.868a7,7,0,0,1-1.374,3.787c-.256.35.328.687.581.34a7.635,7.635,0,0,0,1.467-4.127c.025-.433-.649-.432-.674,0" transform="translate(-81.553 -57.7)" fill="#cb5b45"/>
    <path id="Path_6860" data-name="Path 6860" d="M101.135,89.516a1.9,1.9,0,0,0-1.724-.941.611.611,0,0,0-.489.569.826.826,0,0,0,.211.567,1.583,1.583,0,0,0,1.4,1.067c.722.013.95-.713.6-1.262" transform="translate(-63.742 -57.06)" fill="#fff"/>
  </g>
</svg>
