<svg id="Group_2970" data-name="Group 2970" xmlns="http://www.w3.org/2000/svg" xmlns:xlink="http://www.w3.org/1999/xlink" width="188.269" height="130.621" viewBox="0 0 188.269 130.621">
  <defs>
    <clipPath id="clip-path">
      <rect id="Rectangle_1794" data-name="Rectangle 1794" width="188.269" height="130.621" fill="none"/>
    </clipPath>
  </defs>
  <g id="Group_2969" data-name="Group 2969" clip-path="url(#clip-path)">
    <path id="Path_6981" data-name="Path 6981" d="M515.165,162.81c-1.658-4-3.75-8.35-5.61-12.258q-2.98-6.262-6.3-12.355a39.451,39.451,0,0,0-3.4-5.128,13.117,13.117,0,0,0-2.376-2.413,17.142,17.142,0,0,0-8.542-3.356,42.775,42.775,0,0,0-10.522.313q-5.711.7-11.348,1.886-5.531,1.163-10.955,2.781a69.683,69.683,0,0,0-9.135,3.369,38.715,38.715,0,0,0-8.088,4.891,30.825,30.825,0,0,0-6.541,7.387c-2.022,3.123-3.819,6.4-5.693,9.613l-3.3,5.667q.218,2,.459,3.988a102.164,102.164,0,0,0,8.729,9.82q1.963,1.939,4.029,3.77a.205.205,0,0,0,.32-.053q3.3,2.7,6.553,5.458c.639.4,1.282.794,1.926,1.188l1.457.552h0l.523.2-.041-.164.368.027c4.382.306,8.77.533,13.161.612s8.813.007,13.208-.3a105.95,105.95,0,0,0,12.915-1.653c2.8-.543,5.565-1.219,8.293-2.039a56.814,56.814,0,0,1,5.455-3.129c-.433-2.845-2.7-10.522-2.7-10.522,3.459-1.462,16.586-7.89,17.151-8.157" transform="translate(-332.971 -99.957)" fill="#c1caef"/>
    <path id="Path_6982" data-name="Path 6982" d="M612.436,175.582c.376,1.768.595,3.573.849,5.36.413,2.908.822,5.816,1.267,8.719.561,3.664,1.173,7.32,1.867,10.961.755,3.962,1.6,7.907,2.6,11.815a118.693,118.693,0,0,0,3.537,11.6q.247.671.5,1.337c.1.27.543.152.438-.121a111,111,0,0,1-3.661-11.475c-1.04-3.915-1.923-7.871-2.7-11.845-.729-3.7-1.368-7.418-1.951-11.143-.471-3.013-.9-6.032-1.331-9.051-.276-1.951-.523-3.912-.893-5.847q-.041-.215-.086-.43c-.061-.285-.5-.165-.437.121" transform="translate(-481.678 -137.873)" fill="#2a2d3d"/>
    <path id="Path_6983" data-name="Path 6983" d="M714.384,269.38l5.315,12,1.512,3.415c.118.266.509.036.392-.229l-5.315-12-1.512-3.415c-.118-.266-.509-.036-.392.229" transform="translate(-561.848 -211.595)" fill="#2a2d3d"/>
    <path id="Path_6984" data-name="Path 6984" d="M587.913,171.312l5.16-5.717c.2-.216-.125-.538-.321-.321l-5.16,5.717c-.2.216.125.538.321.321" transform="translate(-462.095 -129.932)" fill="#2a2d3d"/>
    <path id="Path_6985" data-name="Path 6985" d="M603.615,169.04s1.57,2.878,2.528,2.853,2.283-3.06,2.283-3.06a15.688,15.688,0,0,0-2.7-1.789c-.4,0-2.108,2-2.108,2" transform="translate(-474.745 -131.38)" fill="#2a2d3d"/>
    <path id="Path_6986" data-name="Path 6986" d="M620.583,170.647l-5.525-3.783c-.241-.165-.469.228-.229.392l5.525,3.783c.242.165.469-.228.229-.392" transform="translate(-483.485 -131.207)" fill="#2a2d3d"/>
    <path id="Path_6987" data-name="Path 6987" d="M593.664,101.17l1.614,7.491s-3.826,4.666-11.112,2.662l-.494-4.157Z" transform="translate(-459.06 -79.57)" fill="#a25744"/>
    <path id="Path_6988" data-name="Path 6988" d="M571.04,17.324a7.488,7.488,0,0,0-.207-1.4c-1.352-5.382-7.874-6.953-12.624-5.888a10,10,0,0,0-6.917,5.834c-.968,2.111-.959,4.246-1.306,5.8-.677,3.027-1.206,4.258-1.6,7.043-.449,3.189-.581,6.2,3.445,6.948a15.52,15.52,0,0,0,12.083-3.31A20.432,20.432,0,0,0,570.9,19.783a12.289,12.289,0,0,0,.138-2.458" transform="translate(-431.136 -7.65)" fill="#a25744"/>
    <path id="Path_6989" data-name="Path 6989" d="M544.8,66.842a7.53,7.53,0,0,1-2.3-.536c-.63-.323-.8-.8-.655-1.226.228-.659,2.657-2.948,3.9-4.3,0,0,1.562,5.459-.95,6.065" transform="translate(-426.124 -47.801)" fill="#a25744"/>
    <path id="Path_6990" data-name="Path 6990" d="M559.4,51.6c.123,1.191,1.334.575,2.6,1.2,1.164.571,2.029.627,2.188-.015.192-.776-.78-1.929-2.554-2.288-1.661-.336-2.323.238-2.233,1.107" transform="translate(-439.961 -39.636)" fill="#2a2d3d"/>
    <path id="Path_6991" data-name="Path 6991" d="M577.585,8.968q-.017-.141-.038-.282a6.977,6.977,0,0,0-2.963-4.693c-.571-.79-3.211-4.259-5.365-3.976a2.645,2.645,0,0,0-2.294,1.53c-2.144-.77-6.232-2.031-7.87-1.139-1.373.748-.819,2.352-.637,2.788-2.311.817-4.279,2.044-3.486,4.237.7,1.945,3.636,1.66,6.276,1.439a2.338,2.338,0,0,0-.483.789,1.267,1.267,0,0,0,.56,1.595,2.468,2.468,0,0,0,2.16-.214,5.016,5.016,0,0,1,.156.87,32.623,32.623,0,0,1-.288,4.617,5.668,5.668,0,0,0,1.017,3.872c1.627,3.694,7.488,5.381,7.488,5.381l.713-4.075c2.58-3.786,5.641-7.893,5.052-12.736" transform="translate(-436.314 0)" fill="#2a2d3d"/>
    <path id="Path_6992" data-name="Path 6992" d="M575.715,14.107a2.337,2.337,0,0,0,3.842,1.079l-.357-.046a2.8,2.8,0,0,0,2.155,1.415,4.057,4.057,0,0,0,1.459-.371c.555-.224,1.107-.455,1.661-.683.266-.11.15-.548-.121-.437L583,15.622a6.609,6.609,0,0,1-1.3.445c-.962.177-1.568-.458-2.107-1.157a.232.232,0,0,0-.356-.046,1.907,1.907,0,0,1-3.084-.879c-.085-.279-.523-.16-.437.12" transform="translate(-452.792 -10.876)" fill="#8588ab"/>
    <path id="Path_6993" data-name="Path 6993" d="M596.763,50.663a3.721,3.721,0,0,0,5.768.813c.158-.151.383-.49.608-.267a5.358,5.358,0,0,1,.449.636,2.427,2.427,0,0,0,2.355,1.025,3.955,3.955,0,0,0,2.515-1.685c.177-.232-.217-.458-.392-.229a3.5,3.5,0,0,1-2.154,1.463,2.063,2.063,0,0,1-1.287-.2,2.92,2.92,0,0,1-.919-.988c-.2-.292-.43-.655-.843-.553s-.663.527-.986.757a3.3,3.3,0,0,1-2.482.574,3.338,3.338,0,0,1-2.241-1.572.227.227,0,0,0-.392.229" transform="translate(-469.329 -39.581)" fill="#8588ab"/>
    <path id="Path_6994" data-name="Path 6994" d="M625.581,31.413a2.626,2.626,0,0,0,2.464-1.235c.152-.25-.24-.478-.392-.229a2.18,2.18,0,0,1-2.072,1.01.228.228,0,0,0-.227.227.232.232,0,0,0,.227.227" transform="translate(-491.843 -23.47)" fill="#8588ab"/>
    <path id="Path_6995" data-name="Path 6995" d="M581.97,70.7a3.044,3.044,0,1,0,2.813-3.259A3.044,3.044,0,0,0,581.97,70.7" transform="translate(-457.715 -53.034)" fill="#a25744"/>
    <path id="Path_6996" data-name="Path 6996" d="M597.085,75.831a1.912,1.912,0,0,0-.683-3.407c-.284-.07-.4.367-.121.437a1.461,1.461,0,0,1,.574,2.578.235.235,0,0,0-.081.31.228.228,0,0,0,.31.081" transform="translate(-468.85 -56.956)" fill="#2a2d3d"/>
    <path id="Path_6997" data-name="Path 6997" d="M584.052,123.109a7.465,7.465,0,0,0,4.807-2.433c.194-.217-.126-.539-.321-.321a7,7,0,0,1-4.486,2.3c-.288.029-.291.483,0,.454" transform="translate(-459.188 -94.602)" fill="#2a2d3d"/>
    <path id="Path_6998" data-name="Path 6998" d="M562.965,63.909c-.923-.211-1.116,1.141-1.076,1.713.026.372.154.833.572.922.611.13.845-.686.927-1.133.091-.5.181-1.364-.423-1.5" transform="translate(-441.923 -50.247)" fill="#2a2d3d"/>
    <path id="Path_6999" data-name="Path 6999" d="M548.41,92.913c-.054.186-.1.386-.154.59-.114.463-.231.948-.331,1.438a4.2,4.2,0,0,0,3.512-.98c-.862-.277-1.951-.653-3.027-1.048" transform="translate(-430.945 -73.076)" fill="#fff"/>
    <path id="Path_7000" data-name="Path 7000" d="M737.327,286.383l17.956-7.269,5.028-2.036c.267-.108.15-.547-.121-.437l-17.956,7.269-5.028,2.035c-.267.108-.151.547.121.438" transform="translate(-579.696 -217.565)" fill="#2a2d3d"/>
    <path id="Path_7001" data-name="Path 7001" d="M585.984,138.917s4.73,4.425,5.789,4.425,5.324-7.087,5.324-7.087Z" transform="translate(-460.878 -107.165)" fill="#a25744"/>
    <path id="Path_7002" data-name="Path 7002" d="M642.577,133.462l-2,10.952c-.052.285.385.408.438.121q1-5.476,2-10.952c.052-.285-.385-.408-.438-.121" transform="translate(-503.813 -104.84)" fill="#2a2d3d"/>
    <path id="Path_7003" data-name="Path 7003" d="M579.557,150.352c.456,3.008,1.033,5.989,1.7,8.956.064.285.5.164.438-.121-.669-2.968-1.246-5.948-1.7-8.956-.044-.288-.481-.165-.437.121" transform="translate(-455.821 -118.029)" fill="#2a2d3d"/>
    <path id="Path_7004" data-name="Path 7004" d="M601.042,182.862l-1.779-.054s-3.529,21.134-3,22.782a21.773,21.773,0,0,0,2.235,4.033.813.813,0,0,0,1.322.047,21.8,21.8,0,0,0,2.526-3.874c.647-1.606-1.306-22.935-1.306-22.935" transform="translate(-468.922 -143.779)" fill="#2a2d3d"/>
    <path id="Path_7005" data-name="Path 7005" d="M123.817,343.715H3.03a1.967,1.967,0,0,1-1.967-1.967V273.194a1.967,1.967,0,0,1,1.967-1.967H123.817a1.967,1.967,0,0,1,1.967,1.967v68.554a1.967,1.967,0,0,1-1.967,1.967" transform="translate(-0.836 -213.321)" fill="#fcefe1"/>
    <path id="Path_7006" data-name="Path 7006" d="M122.678,343.107H2.5a2.5,2.5,0,0,1-2.5-2.5v-67.95a2.5,2.5,0,0,1,2.5-2.5H122.678a2.5,2.5,0,0,1,2.5,2.5v67.95a2.5,2.5,0,0,1-2.5,2.5M2.5,270.619a2.044,2.044,0,0,0-2.042,2.042v67.95A2.044,2.044,0,0,0,2.5,342.653H122.678a2.044,2.044,0,0,0,2.042-2.042v-67.95a2.044,2.044,0,0,0-2.042-2.042Z" transform="translate(0 -212.486)" fill="#fcefe1"/>
    <path id="Path_7007" data-name="Path 7007" d="M503.392,308.261c-.591-1.454-2.837-5.915-3.474-7.349-7.282,3.057-13.5,5.737-20.118,8.649,1.3,2.949,3.142,7.3,4.287,9.727a5.932,5.932,0,0,1-1.421,1.363,8.356,8.356,0,0,1-4.248,1.359,26.43,26.43,0,0,1-5.167-.349q-2.633-.35-5.258-.759-8.5-1.322-16.9-3.25c-2.518-.578-5.046-1.865-7.5-2.712a46.49,46.49,0,0,0-7.3-2.257,26.178,26.178,0,0,0-2.728-.281,84.247,84.247,0,0,0-15.223.65q-2.04.24-4.069.572c-1.318.215-2.653.423-3.95.747a3.466,3.466,0,0,0-2.555,1.82,1.854,1.854,0,0,0,.785,2.388,7.528,7.528,0,0,0,3.144.626q2.13.186,4.264.31,2.737.159,5.478.209A6.785,6.785,0,0,0,420.2,321.1a4.18,4.18,0,0,0-.065,4.112,6.291,6.291,0,0,0,2.053,1.966,4.776,4.776,0,0,0-.032,1.817,5.312,5.312,0,0,0,2.188,2.7,10.147,10.147,0,0,0,3.42,1.548,5.983,5.983,0,0,0,3.688.038,3.314,3.314,0,0,0,1.193-.872q5.721,2.24,11.51,4.3,7.647,2.724,15.4,5.133,4.331,1.345,8.692,2.591a.209.209,0,0,0,.128.1,70.664,70.664,0,0,0,18.71,2.8c4.895.05,10.138-.879,14.343-3.651,11.757-7.753,7.3-22.286,1.962-35.421" transform="translate(-320.584 -236.668)" fill="#a25744"/>
    <path id="Path_7008" data-name="Path 7008" d="M342.865,238.739a2.069,2.069,0,0,0-1.673-1.968c-1.255-.344-11.44-1.99-11.44-1.99l-.512-.4c-1.554-1.2-3.517-2.442-5.531-1.79a4.068,4.068,0,0,0-1.249.708,8.063,8.063,0,0,0-.755-.543,5.723,5.723,0,0,0-3.421-.945,4.48,4.48,0,0,0-2.8,1.231c-.977.844-2.41,3.116-3,7.174h7.245a35.641,35.641,0,0,0,4.168,3.264,4.264,4.264,0,0,0,3.049.693,4.843,4.843,0,0,0,2.746-1.392,1.057,1.057,0,0,0,.141-.217,6.212,6.212,0,0,0,3.02.779,3.1,3.1,0,0,0,2.094-1.368,2.317,2.317,0,0,0,.25-1.759h6.479c.983,0,1.213-1.141,1.189-1.481" transform="translate(-245.77 -182.314)" fill="#a25744"/>
    <path id="Path_7009" data-name="Path 7009" d="M329.51,256.012l3.138,3.1a.227.227,0,0,0,.321-.321l-3.138-3.1a.227.227,0,0,0-.321.321" transform="translate(-259.107 -201.05)" fill="#2a2d3d"/>
    <path id="Path_7010" data-name="Path 7010" d="M358.562,238.539l7.362,9.178c.183.228.5-.1.321-.321l-7.362-9.178c-.183-.228-.5.1-.321.321" transform="translate(-281.968 -187.298)" fill="#2a2d3d"/>
    <path id="Path_7011" data-name="Path 7011" d="M393.83,246.021l5.041,5.149c.2.209.525-.112.321-.321l-5.041-5.149c-.2-.209-.525.112-.321.321" transform="translate(-309.697 -193.19)" fill="#2a2d3d"/>
    <path id="Path_7012" data-name="Path 7012" d="M502.965,436.354a34.691,34.691,0,0,0,4.265,2.363c.263.123.494-.269.229-.392a34.679,34.679,0,0,1-4.265-2.363c-.246-.16-.473.233-.229.392" transform="translate(-395.501 -342.856)" fill="#2a2d3d"/>
    <path id="Path_7013" data-name="Path 7013" d="M475.913,400.5a4.573,4.573,0,0,1,1.457-1.823c.661-.533,1.371-1.015,2.078-1.484a47.175,47.175,0,0,1,4.473-2.583c.26-.134.031-.526-.229-.392a46.552,46.552,0,0,0-4.711,2.743c-1.347.909-2.876,1.847-3.506,3.419-.109.271.33.389.438.121" transform="translate(-373.95 -310.035)" fill="#2a2d3d"/>
    <path id="Path_7014" data-name="Path 7014" d="M472.17,373.312q3.536-2.083,7.2-3.939c.26-.132.031-.523-.229-.392q-3.661,1.854-7.2,3.939a.227.227,0,0,0,.229.392" transform="translate(-371.097 -290.184)" fill="#2a2d3d"/>
  </g>
</svg>
