<svg id="Group_4589" data-name="Group 4589" xmlns="http://www.w3.org/2000/svg" xmlns:xlink="http://www.w3.org/1999/xlink" width="176.497" height="103.937" viewBox="0 0 176.497 103.937">
  <defs>
    <clipPath id="clip-path">
      <rect id="Rectangle_1783" data-name="Rectangle 1783" width="176.497" height="103.937" fill="none"/>
    </clipPath>
  </defs>
  <g id="Group_2934" data-name="Group 2934" clip-path="url(#clip-path)">
    <path id="Path_5904" data-name="Path 5904" d="M261.8,33.7c-.074-3.639-6.969-11.8-8.054-12.8a77.283,77.283,0,0,0-14.676-10.33A79.718,79.718,0,0,0,206.437.187a59.962,59.962,0,0,0-16.8,1.027c-6.086,1.26-11.945,3.992-18.222,4.2-6.085.2-12.034-1.5-18.137-.855a39.322,39.322,0,0,0-14.147,4.329,40.376,40.376,0,0,0-19.229,21.762q-.166.462-.316.93a1.351,1.351,0,0,0-.893,2.27c.064.064.129.126.193.19-.01.038-.02.076-.029.114a1.376,1.376,0,0,0,1.828,1.581c6.494,5.812,14.372,9.807,22.5,12.886A149.462,149.462,0,0,0,157.7,53.3c5.215,1.387,10.666,2.327,16.071,1.736,10.02-1.1,18.644-6.61,27.963-9.961,10.035-3.608,20.828-4.121,31.359-3,5.961.634,12.248,2.588,18.222,1.148,3.97-.957,7.694-3.889,8.73-7.868a1.358,1.358,0,0,0,.6-.011A1.483,1.483,0,0,0,261.8,33.7" transform="translate(-96.993 0)" fill="#6b7be8"/>
    <path id="Path_5905" data-name="Path 5905" d="M13.615,233.449c3.129,14.3,13.613,22.249,27.49,25.132,25.652,5.329,52.528,5.828,78.629,4.591,15.972-.757,33.638-.779,48.018-9.071,14.717-8.485,20.9-25.445,15.236-41.606a26.471,26.471,0,0,0-7.864-11.752c-2.015-1.668-6.687-5.02-9.517-5.381-20.471-2.611-30.916,6.887-51.471,7.864s-41.178,2.2-61.722.495c-5.635-.469-11.208-1.244-16.789-2.136-4.228-.676-8.916-1.2-12.843.743.827-.743,1.36-1.246-.22.11l-.015.007c-.076.068-.154.133-.229.2-8.541,7.352-11.135,19.684-8.7,30.8" transform="translate(-10.449 -159.798)" fill="#6b7be8"/>
    <path id="Path_5906" data-name="Path 5906" d="M175.828,115.684c-1.306-2.394-4.018-3.767-6.346-4.875a35.851,35.851,0,0,0-4.872-1.9,1.3,1.3,0,0,1-.575-2.093,9.52,9.52,0,0,0,1.558-2.5,7.221,7.221,0,0,0-1.259-7.814c-3.483-3.918-9.185-5.479-14.332-4.991a1.281,1.281,0,0,1-1.4-1.276,5.053,5.053,0,0,0-.622-2.4,5.878,5.878,0,0,0-5.2-2.9,16.668,16.668,0,0,0-7.093,1.737,25.821,25.821,0,0,0-4.7,2.711,1.247,1.247,0,0,1-1.556-.071c-3.014-2.6-7.536-3.464-11.48-3.211a26.819,26.819,0,0,0-15.231,6.077,1.248,1.248,0,0,1-1.614-.017,20.947,20.947,0,0,0-8.808-4.482,20.271,20.271,0,0,0-14.279,2.021l-.142.078a1.057,1.057,0,0,1-1.479-.5,18.608,18.608,0,0,0-9.721-9.153,23.628,23.628,0,0,0-9.042-1.846,14.483,14.483,0,0,0-8.45,2.347,11.114,11.114,0,0,0-1.3,1.072,5.327,5.327,0,0,0-1.726,2.131l-.008.018a1.26,1.26,0,0,1-1.994.418A24.008,24.008,0,0,0,36.8,79.995c-4.133-1.673-8.679-2.82-13.127-1.966a12.711,12.711,0,0,0-9.082,6.408c-1.861,3.672-1.622,7.972-.9,11.919.15.823.306,1.659.489,2.492a1.288,1.288,0,0,1-1.106,1.565,15.612,15.612,0,0,0-9.407,4.109C.455,107.673-1.111,112.9.888,117.148c1.99,4.225,6.757,6.1,11.045,6.6,3.138.373,6.3.133,9.454.208a21.382,21.382,0,0,1,4.6.449c1.767.438,1.786,1.856,2.186,3.371a8.871,8.871,0,0,0,4.72,5.685,8.615,8.615,0,0,0,2.938.765,1.272,1.272,0,0,1,.448.124,13.345,13.345,0,0,0,3.981,1.136c.4.054.8.1,1.2.131a.308.308,0,0,1,.159.062,28.614,28.614,0,0,0,10.943,4.654,61.531,61.531,0,0,0,20.506,1.075A73.373,73.373,0,0,0,83.2,139.564c3.319-.85,6.688-2.4,10.142-2.489,3.39-.084,6.2,1.977,9.325,2.991a20.627,20.627,0,0,0,9.182.687A29.443,29.443,0,0,0,121.96,137.3a17.5,17.5,0,0,0,3.976-2.895.311.311,0,0,1,.317-.079,55.761,55.761,0,0,0,26.3,1.959,24.315,24.315,0,0,0,8.255-2.487l.032-.015a8.3,8.3,0,0,0,4.041-3.208,5.522,5.522,0,0,0,.742-3.424v-.063a7.161,7.161,0,0,0,.056-.72.31.31,0,0,1,.038-.148.9.9,0,0,1,.753-.457q.674-.022,1.344-.075a9.856,9.856,0,0,0,7.177-3.33,6.013,6.013,0,0,0,.833-6.68" transform="translate(0 -63.735)" fill="#ffe8db"/>
    <path id="Path_5907" data-name="Path 5907" d="M444.952,203.763a12.3,12.3,0,0,1,8.63-6.472,13.259,13.259,0,0,1,10.768,2.782,15.047,15.047,0,0,1,4.031,4.9c.106.206.417.024.311-.182a15.192,15.192,0,0,0-8.731-7.479,13.037,13.037,0,0,0-11.077,1.52,11.989,11.989,0,0,0-4.242,4.748c-.1.208.209.39.311.182" transform="translate(-364.526 -161.268)" fill="#261422"/>
    <path id="Path_5908" data-name="Path 5908" d="M682.529,147.346a6.5,6.5,0,0,0-9.967,2.794c-.143.359-.288.815-.772.567-.316-.162-.605-.4-.912-.587-4.342-2.58-10.033-2.843-14.129.383-1.819,1.432-3.857,4.215-2.379,6.554.123.2.435.015.311-.182-1.385-2.191.633-4.8,2.323-6.118a11.151,11.151,0,0,1,6.592-2.295,13.556,13.556,0,0,1,7.365,2.13c.348.216.717.6,1.16.55s.6-.4.741-.782a6.318,6.318,0,0,1,1.976-2.7,6.185,6.185,0,0,1,7.51-.005c.185.14.365-.173.182-.311" transform="translate(-536.072 -119.717)" fill="#261422"/>
    <path id="Path_5909" data-name="Path 5909" d="M85.572,167.16a8.19,8.19,0,0,1,3.982-5.042,8.705,8.705,0,0,1,6.582-.521,11.269,11.269,0,0,1,5.676,4.325,14.55,14.55,0,0,1,.917,1.464c.223.408.41.9.864,1.1a1.041,1.041,0,0,0,.557.067c.415-.039.82-.1,1.237-.108a11.84,11.84,0,0,1,2.3.18,29.142,29.142,0,0,1,9.309,3.793.18.18,0,0,0,.182-.311,32.293,32.293,0,0,0-8.43-3.63,12.44,12.44,0,0,0-4.4-.312.869.869,0,0,1-.962-.339c-.182-.265-.31-.576-.469-.854a14.431,14.431,0,0,0-.984-1.5,11.591,11.591,0,0,0-5.632-4.2,9.133,9.133,0,0,0-6.556.356,8.518,8.518,0,0,0-4.514,5.439.18.18,0,0,0,.347.1" transform="translate(-69.866 -131.854)" fill="#261422"/>
    <path id="Path_5910" data-name="Path 5910" d="M734.864,257.356a14.846,14.846,0,0,0-13.213,4.195,13.74,13.74,0,0,0-2.2,2.9c-.327.58-.56,1.543-1.3,1.677a6.927,6.927,0,0,1-2.445-.306c-1.567-.322-3.118-.736-4.706-.945a20.082,20.082,0,0,0-4.43-.087,20.64,20.64,0,0,0-9.271,3.174c-.194.125-.014.437.182.311a20.171,20.171,0,0,1,12.758-3.123,39.89,39.89,0,0,1,4.786.893c.759.165,1.522.322,2.293.423a1.824,1.824,0,0,0,1.584-.32,6.511,6.511,0,0,0,.86-1.515,13.047,13.047,0,0,1,1.033-1.56,14.574,14.574,0,0,1,5.754-4.426,13.964,13.964,0,0,1,8.215-.94c.226.045.323-.3.1-.348" transform="translate(-571.621 -210.785)" fill="#261422"/>
    <path id="Path_5911" data-name="Path 5911" d="M632.077,56.018c.009-.046.017-.093.023-.141a2.51,2.51,0,0,0-1.487-2.366,4.452,4.452,0,0,0-3.688-.212c-.843.344-1.289.883-2.3.666a9.9,9.9,0,0,0-2.218-.226,10.076,10.076,0,0,0-4.03.916c-.879.4-2.467,1.114-2.494,2.263-.028,1.2,1.307,1.839,2.3,2.018a19.577,19.577,0,0,0,4.955-.1c.829-.068,1.659-.153,2.484-.273l.479.056a20.337,20.337,0,0,0,4.621.337,2.5,2.5,0,0,0,2.2-1.32c.265-.7-.247-1.225-.842-1.621" transform="translate(-504.934 -43.449)" fill="#ffe8db"/>
    <path id="Path_5912" data-name="Path 5912" d="M678.471,431.25a7.2,7.2,0,0,0-5.641-4.605,7.279,7.279,0,0,0-4.667.959,7.637,7.637,0,0,0-.766.537,1.6,1.6,0,0,1-1.6.384c-.4-.111-.794-.327-1.187-.469a15.8,15.8,0,0,0-8.911-.806,7.3,7.3,0,0,0-3.59,1.719,2.093,2.093,0,0,0-.581,1.5,6.266,6.266,0,0,0-1.852.5,1.3,1.3,0,0,0-.691,1.951c.632.791,2.167,1.007,3.086,1.143a26.9,26.9,0,0,0,3.993.186c1.489,0,3.925-.028,5.413-.081a27.123,27.123,0,0,0,4.57-.266c1.288-.275,1.831-1.607,3.194-1.724a16.275,16.275,0,0,1,4.438.723c1.24.246,2.993.579,4.13-.179a1.445,1.445,0,0,0,.656-1.219.308.308,0,0,0,0-.258" transform="translate(-531.875 -349.734)" fill="#ffe8db"/>
    <path id="Path_5913" data-name="Path 5913" d="M102.05,414.945a2.661,2.661,0,0,0-1.369-.727.408.408,0,0,1-.32-.388c.02-2.283-4.239-3.91-6.3-2.629a.5.5,0,0,1-.668-.129c-1.174-1.792-3.742-2.647-6.019-2.887a5.093,5.093,0,0,0-3.733.824,2.591,2.591,0,0,0-1.018,1.846.45.45,0,0,1-.541.387,10.061,10.061,0,0,0-5.287.4,2.943,2.943,0,0,0-1.775,1.488,1.288,1.288,0,0,0-.066.315.411.411,0,0,1-.291.353,2.144,2.144,0,0,0-1.43,1.148c-.689,1.8,2.564,2.143,3.865,2.242a17.655,17.655,0,0,0,6.946-.776,9.132,9.132,0,0,1,3.376-.446c2.394.12,4.773.378,7.173.443,1.187.032,2.375.032,3.561-.016a16.863,16.863,0,0,0,3.215-.273c.569-.139,1.1-.668.684-1.175" transform="translate(-59.959 -334.617)" fill="#ffe8db"/>
    <path id="Path_5914" data-name="Path 5914" d="M81.425,278.964a9.609,9.609,0,0,0-5.147,2.021.7.7,0,0,1-.987.048c-.2-.161-.393-.327-.592-.486q-.558-.444-1.14-.859a21.431,21.431,0,0,0-2.546-1.561c-3.529-1.826-7.808-2.548-11.59-1.051a6.127,6.127,0,0,0-3.871,3.705.18.18,0,0,0,.347.1,5.867,5.867,0,0,1,3.842-3.538,12.346,12.346,0,0,1,5.947-.581A16.243,16.243,0,0,1,71.3,278.69a22.024,22.024,0,0,1,2.323,1.488q.6.439,1.175.913a1.761,1.761,0,0,0,.878.536c.421.035.75-.315,1.058-.545a8.961,8.961,0,0,1,4.688-1.758c.229-.018.231-.379,0-.36" transform="translate(-45.537 -226.5)" fill="#261422"/>
    <path id="Path_5915" data-name="Path 5915" d="M869.546,420.4a.266.266,0,0,0-.261.261v.087a.261.261,0,1,0,.522,0v-.087a.264.264,0,0,0-.261-.261" transform="translate(-712.69 -344.665)" fill="#ffe8db"/>
    <path id="Path_5916" data-name="Path 5916" d="M877.972,421.354h-.087a.087.087,0,0,0,0,.173h.087a.087.087,0,0,0,0-.173" transform="translate(-719.672 -345.45)" fill="#ffe8db"/>
    <path id="Path_5917" data-name="Path 5917" d="M798.019,494.565h-.087a.087.087,0,0,0,0,.173h.087a.087.087,0,0,0,0-.173" transform="translate(-654.122 -405.473)" fill="#ffe8db"/>
    <path id="Path_5918" data-name="Path 5918" d="M809.6,489.047a.266.266,0,0,0-.261.261v.087a.261.261,0,1,0,.522,0v-.087a.264.264,0,0,0-.261-.261" transform="translate(-663.542 -400.949)" fill="#ffe8db"/>
    <path id="Path_5919" data-name="Path 5919" d="M701.393,530.624h-.087a.261.261,0,1,0,0,.523h.087a.261.261,0,0,0,0-.523" transform="translate(-574.757 -435.036)" fill="#ffe8db"/>
    <path id="Path_5920" data-name="Path 5920" d="M591.39,520.093H591.3a.087.087,0,0,0,0,.173h.087a.087.087,0,0,0,0-.173" transform="translate(-484.716 -426.402)" fill="#ffe8db"/>
    <path id="Path_5921" data-name="Path 5921" d="M639.95,532.134a.087.087,0,0,0,0,.173.087.087,0,0,0,0-.173" transform="translate(-524.599 -436.274)" fill="#ffe8db"/>
    <path id="Path_5922" data-name="Path 5922" d="M613.941,504.2a.087.087,0,0,0,0,.173.087.087,0,0,0,0-.173" transform="translate(-503.276 -413.37)" fill="#ffe8db"/>
    <path id="Path_5923" data-name="Path 5923" d="M578.3,447.845a.087.087,0,0,0,0,.173.087.087,0,0,0,0-.173" transform="translate(-474.054 -367.169)" fill="#ffe8db"/>
    <path id="Path_5924" data-name="Path 5924" d="M640.084,442.177,640,442.09a.087.087,0,0,0-.123.123l.087.087a.087.087,0,0,0,.123-.123" transform="translate(-524.585 -362.43)" fill="#ffe8db"/>
    <path id="Path_5925" data-name="Path 5925" d="M435.817,539.84h-.087a.087.087,0,0,0,0,.173h.087a.087.087,0,0,0,0-.173" transform="translate(-357.168 -442.592)" fill="#ffe8db"/>
    <path id="Path_5926" data-name="Path 5926" d="M426.5,554.968l-.087-.087a.261.261,0,0,0-.369.37l.087.087a.261.261,0,0,0,.369-.369" transform="translate(-349.237 -454.862)" fill="#ffe8db"/>
    <path id="Path_5927" data-name="Path 5927" d="M444.005,547.065h-.087a.087.087,0,0,0,0,.174h.087a.087.087,0,0,0,0-.174" transform="translate(-363.881 -448.515)" fill="#ffe8db"/>
    <path id="Path_5928" data-name="Path 5928" d="M299.369,454.17l-.116-.116a.436.436,0,1,0-.616.616l.116.116a.436.436,0,0,0,.616-.616" transform="translate(-244.738 -372.157)" fill="#ffe8db"/>
    <path id="Path_5929" data-name="Path 5929" d="M285.658,472.933h-.116a.261.261,0,0,0,0,.523h.116a.261.261,0,0,0,0-.523" transform="translate(-233.89 -387.738)" fill="#ffe8db"/>
    <path id="Path_5930" data-name="Path 5930" d="M316.6,487.114h-.116a.261.261,0,0,0,0,.523h.116a.261.261,0,0,0,0-.523" transform="translate(-259.257 -399.364)" fill="#ffe8db"/>
    <path id="Path_5931" data-name="Path 5931" d="M102.2,373.826h-.116a.348.348,0,0,0,0,.7h.116a.348.348,0,0,0,0-.7" transform="translate(-83.406 -306.484)" fill="#ffe8db"/>
    <path id="Path_5932" data-name="Path 5932" d="M82.187,388.968a.359.359,0,0,0,.269.178.177.177,0,0,0,.174-.174c.019-.279-.442-.287-.443,0" transform="translate(-67.382 -318.727)" fill="#ffe8db"/>
    <path id="Path_5933" data-name="Path 5933" d="M137.826,502.423h-.116a.174.174,0,0,0,0,.348h.116a.174.174,0,0,0,0-.348" transform="translate(-112.764 -411.915)" fill="#ffe8db"/>
    <path id="Path_5934" data-name="Path 5934" d="M188.221,481.151h-.232a.174.174,0,0,0,0,.348h.232a.174.174,0,0,0,0-.348" transform="translate(-153.986 -394.475)" fill="#ffe8db"/>
    <path id="Path_5935" data-name="Path 5935" d="M65.959,371.127v.116a.174.174,0,0,0,.348,0v-.116a.174.174,0,0,0-.348,0" transform="translate(-54.077 -304.134)" fill="#ffe8db"/>
    <path id="Path_5936" data-name="Path 5936" d="M190.154,495.333h-.232a.174.174,0,0,0,0,.348h.232a.174.174,0,0,0,0-.348" transform="translate(-155.571 -406.102)" fill="#ffe8db"/>
    <path id="Path_5937" data-name="Path 5937" d="M478.957,73.084l-.174-.174a.348.348,0,0,0-.493.493l.174.174a.348.348,0,1,0,.493-.493" transform="translate(-392.048 -59.693)" fill="#ffe8db"/>
    <path id="Path_5938" data-name="Path 5938" d="M497.659,51.128a.265.265,0,0,0-.369,0l-.174.174a.261.261,0,1,0,.369.369l.174-.174a.265.265,0,0,0,0-.369" transform="translate(-407.502 -41.856)" fill="#ffe8db"/>
    <path id="Path_5939" data-name="Path 5939" d="M512.936,70.383h-.174a.261.261,0,0,0,0,.523h.174a.261.261,0,0,0,0-.523" transform="translate(-420.177 -57.704)" fill="#ffe8db"/>
    <path id="Path_5940" data-name="Path 5940" d="M302.021,46.211a.261.261,0,0,0,0,.523.261.261,0,0,0,0-.523" transform="translate(-247.407 -37.886)" fill="#ffe8db"/>
    <path id="Path_5941" data-name="Path 5941" d="M344.564,52.979a.261.261,0,0,0,0,.523.261.261,0,0,0,0-.523" transform="translate(-282.287 -43.435)" fill="#ffe8db"/>
    <path id="Path_5942" data-name="Path 5942" d="M361.928,39.442a.266.266,0,0,0-.261.261v.174a.261.261,0,1,0,.522,0V39.7a.264.264,0,0,0-.261-.261" transform="translate(-296.515 -32.337)" fill="#ffe8db"/>
    <path id="Path_5943" data-name="Path 5943" d="M742.567,65.414h-.347a.26.26,0,1,0,0,.521h.347a.26.26,0,1,0,0-.521" transform="translate(-608.301 -53.63)" fill="#ffe8db"/>
    <path id="Path_5944" data-name="Path 5944" d="M742.586,103.065a.264.264,0,0,0-.368,0l-.174.173a.26.26,0,1,0,.368.368l.173-.174a.264.264,0,0,0,0-.368" transform="translate(-608.309 -84.438)" fill="#ffe8db"/>
    <path id="Path_5945" data-name="Path 5945" d="M788.632,87.57h-.173a.26.26,0,1,0,0,.521h.173a.26.26,0,1,0,0-.521" transform="translate(-646.21 -71.795)" fill="#ffe8db"/>
    <path id="Path_5946" data-name="Path 5946" d="M434.485,112.927a.261.261,0,0,0,0,.523.261.261,0,0,0,0-.523" transform="translate(-356.009 -92.584)" fill="#ffe8db"/>
    <path id="Path_5947" data-name="Path 5947" d="M949.549,418.642q-.109.3-.212.6a5.775,5.775,0,0,0,.212-.6" transform="translate(-778.321 -343.227)" fill="#bbc8f0"/>
    <path id="Path_5948" data-name="Path 5948" d="M258.821,268.955c-.133.032-.267.061-.4.087a14.025,14.025,0,0,1-6.994-.408c-.133-.045-.263-.095-.39-.146-.193-.078-.379-.159-.557-.248A8.763,8.763,0,0,0,247,267.115a5.54,5.54,0,0,0-2.653.688c-.119.057-.237.116-.354.176-.373.191-.743.394-1.11.583a16.818,16.818,0,0,1-5.431,1.721c-.123.017-.248.032-.373.045a16.581,16.581,0,0,1-2.93.072,7.872,7.872,0,0,1-2.556-.512c-3.1-1.294-3.22-5.283-4.057-8.04a11.282,11.282,0,0,0-1.467-3.079c-.908-1.332-2.164-2.382-2.8-3.892-2.482-5.869.529-12.493-1.91-14.7-2.126-1.92-7.794-5.149-10.508-5.564-4.955-.754-19.044-3.113-16.78-11.6,1.144-4.286,8.738-7.659,11.125-8.474-.131.044-.07.962-.034,1.406.008.108.015.188.017.22a.825.825,0,0,0,.034.19.34.34,0,0,0,.057.11.559.559,0,0,0,.3.153,50.808,50.808,0,0,1,15.087,7.045c2.594,1.707,5.15,3.477,7.835,5.041a18.8,18.8,0,0,0,8.325,2.988.43.43,0,0,1,.388.578,24.013,24.013,0,0,1,9.446,4.207c1.973,1.37,3.61,2.852,4.254,5.223.635,2.336.62,4.809,1.444,7.1a3.541,3.541,0,0,0,.606.921c3.2,4.182,8.211,7.036,10.18,12.152,1.56,4.055-.949,6.274-4.317,7.074" transform="translate(-158.908 -175.899)" fill="#63323c"/>
    <path id="Path_5949" data-name="Path 5949" d="M392.548,350.453a11.565,11.565,0,0,1,4.23,3.929,15.075,15.075,0,0,1,1.931,5.789,13.094,13.094,0,0,0,2.005,5.71c1.185,1.64,2.722,3,3.628,4.837a10.358,10.358,0,0,1,.742,7.053.18.18,0,0,0,.347.1,10.735,10.735,0,0,0-.271-6.12,16.678,16.678,0,0,0-3.391-5.1,10.58,10.58,0,0,1-1.838-2.92,16.359,16.359,0,0,1-.783-3.116,17.613,17.613,0,0,0-1.773-5.937,11.938,11.938,0,0,0-4.645-4.53c-.2-.11-.386.2-.182.311" transform="translate(-321.761 -287.047)" fill="#261422"/>
    <path id="Path_5950" data-name="Path 5950" d="M234.964,235.9a50.368,50.368,0,0,0-5.47-2.31l-8.759-3.269c-2.535-.948-5.6-1.743-7.267-4.05a4.452,4.452,0,0,1-.69-4.049,7.549,7.549,0,0,1,2.393-3.3,41.9,41.9,0,0,1,5.08-3.195,12.849,12.849,0,0,0,2.136-1.634c.174-.17-.095-.438-.269-.269a12.274,12.274,0,0,1-1.918,1.493c-1.529.991-3.21,1.76-4.68,2.848-1.772,1.311-3.458,3.326-3.345,5.662.123,2.505,2.223,4.248,4.33,5.241,1.279.6,2.63,1.057,3.955,1.552l4.379,1.635c2.85,1.063,5.759,2.037,8.537,3.284q.678.3,1.343.644.115-.147.245-.284" transform="translate(-173.95 -175.257)" fill="#261422"/>
    <path id="Path_5951" data-name="Path 5951" d="M270.021,254.976c.057-.041.112-.084.172-.122s.1-.057.151-.085c-.057-.061-.112-.123-.171-.183a19.482,19.482,0,0,0-5.99-3.693c-4.707-2.117-9.727-3.426-14.453-5.493-2.473-1.084-5.491-2.357-6.79-4.893a4.224,4.224,0,0,1-.034-4.019,10.311,10.311,0,0,1,2.712-2.846c.19-.153-.08-.421-.269-.269-1.652,1.34-3.475,2.975-3.318,5.306.157,2.378,2,4.114,3.926,5.26,4.423,2.63,9.516,3.983,14.307,5.768a43.819,43.819,0,0,1,7.106,3.236,12.229,12.229,0,0,1,2.65,2.033" transform="translate(-198.424 -191.295)" fill="#261422"/>
    <path id="Path_5952" data-name="Path 5952" d="M428.5,349.3a13.623,13.623,0,0,1,6.7,9.845c.349,2.191.556,4.374,1.9,6.226a31.658,31.658,0,0,0,4.428,4.314c1.764,1.642,3.507,3.959,3.017,6.514-.043.227.3.324.347.1a6.91,6.91,0,0,0-1.979-5.695c-1.432-1.669-3.3-2.894-4.773-4.521a8.438,8.438,0,0,1-1.791-2.914,19.7,19.7,0,0,1-.715-3.565,14.962,14.962,0,0,0-2.062-5.952,13.811,13.811,0,0,0-4.89-4.66.18.18,0,0,0-.182.311" transform="translate(-351.238 -286.103)" fill="#261422"/>
    <path id="Path_5953" data-name="Path 5953" d="M472.456,347.274a11.856,11.856,0,0,1,4.144,5.836c.642,2.024.578,4.459,1.881,6.227a11.381,11.381,0,0,0,2.686,2.321,25.864,25.864,0,0,1,3.6,2.911,11.7,11.7,0,0,1,3.058,5.628c.051.226.4.13.348-.1a11.924,11.924,0,0,0-2.52-5.093,19.514,19.514,0,0,0-3.579-3.144,16.992,16.992,0,0,1-3.106-2.492c-1.436-1.673-1.366-4.207-1.977-6.222a12.26,12.26,0,0,0-4.352-6.188c-.185-.14-.365.173-.182.311" transform="translate(-387.284 -284.431)" fill="#261422"/>
    <path id="Path_5954" data-name="Path 5954" d="M267.984,246.943a3.881,3.881,0,0,0,.088,6.32,16.491,16.491,0,0,0,4.116,1.461,25.25,25.25,0,0,1,4.6,2.09.18.18,0,0,0,.182-.311,25.823,25.823,0,0,0-3.753-1.793c-1.253-.477-2.565-.75-3.823-1.2a3.78,3.78,0,0,1-2.591-2.728,3.526,3.526,0,0,1,1.366-3.528c.184-.137,0-.45-.182-.311" transform="translate(-218.409 -202.43)" fill="#261422"/>
    <path id="Path_5955" data-name="Path 5955" d="M420.022,252.122a9.558,9.558,0,0,0-2.929,1.069,28.211,28.211,0,0,0-2.53,1.9,28.577,28.577,0,0,0-4.569,4.889,27.822,27.822,0,0,0-3.238,5.688c-.945,2.238-1.631,4.668-.577,6.989.053.117.066.356.16.345,1.435.824,2.664-.425,3.507-1.177,1.235-1.1,2.359-2.386,3.7-3.383,2.934-2.184,5.218-7.384,6.273-9.178.807-1.371,3.1-5.915.2-7.145" transform="translate(-332.573 -206.692)" fill="#fff"/>
    <path id="Path_5956" data-name="Path 5956" d="M325.4,122.562a44.977,44.977,0,0,0-4.926-11.232,55.587,55.587,0,0,0-4.914-6.738c-1.327-1.573-2.775-2.435-4.766-2.009a4.77,4.77,0,0,0-3.079,2.748c-.276.591,1.41,4.377,2.053,4.863q1.171,3.094,2.444,6.148a37.244,37.244,0,0,0,3.2,6.774,5.812,5.812,0,0,0,4.778,2.821,4.833,4.833,0,0,0,2.726-1.111,4.4,4.4,0,0,0,1.722-1.9c.016-.047.05-.084.067-.065.166.4.826.156.7-.3" transform="translate(-252.257 -84.015)" fill="#fff"/>
    <path id="Path_5957" data-name="Path 5957" d="M341.272,130.392a15.126,15.126,0,0,1,.008,4.647c-.035.227.312.325.347.1a15.7,15.7,0,0,0-.007-4.839c-.036-.228-.383-.131-.348.1" transform="translate(-279.793 -106.717)" fill="#261422"/>
    <path id="Path_5958" data-name="Path 5958" d="M235.149,115.531a3.38,3.38,0,0,0-2.612-.964.457.457,0,0,0-.153.049c-5.1,2.615-11.621,7.388-12.61,8.621a6.39,6.39,0,0,0-1.7,4.231,14.5,14.5,0,0,0,4.394,2.374,7.222,7.222,0,0,0,3.013.233,4.384,4.384,0,0,0,2.151-1.591c3.1-3.341,6.175-6.7,8.956-10.315a7.549,7.549,0,0,0-1.435-2.637" transform="translate(-178.784 -93.915)" fill="#fff"/>
    <path id="Path_5959" data-name="Path 5959" d="M419.814,252.584a.273.273,0,0,0-.183-.188c-1.78-.6-3.721-.136-5.5-.683-1.836-.565-3.613-2.111-5.239-3.133-.28-.176-.537.2-.361.424a43.331,43.331,0,0,0-9.594,14.07l-.107-.064c-.312-.193-.6.3-.287.491.056.035.114.067.17.1l-.026.062c-.126.311.324.459.505.224a30.578,30.578,0,0,0,13.634,4.122.258.258,0,0,0,.268-.329c1.423-2.17,1.962-4.723,2.843-7.132a33.392,33.392,0,0,1,3.941-7.613.24.24,0,0,0-.068-.354" transform="translate(-326.641 -203.764)" fill="#ffab6e"/>
    <path id="Path_5960" data-name="Path 5960" d="M310.372,216.734a.3.3,0,0,0-.106-.333,22.624,22.624,0,0,0-4.886-2.816,15.686,15.686,0,0,0-10.189-5.14.312.312,0,0,0-.051-.03c-.837-.384-6.716-.157-7.915.245-2.358.79-2.982,2.934-5.179,4.1-1.174.624-2.237,1.413-3.634,1.339a15.239,15.239,0,0,1-3.441-.784c-.538.806-3.318,3.377-3.884,4.182a126.548,126.548,0,0,0,9.315,9.642c4.685,4.261,9.964,7.957,16.043,9.9a.249.249,0,0,0,.225-.027.319.319,0,0,0,.389-.262c1.1-8.294,7.236-14.488,13.387-19.586a.256.256,0,0,0-.076-.437" transform="translate(-222.254 -170.708)" fill="#fff"/>
    <path id="Path_5961" data-name="Path 5961" d="M748.835,230.749c-.339-1.018-4.833.52-7.428.455a1.008,1.008,0,0,1-.575-.109,21.653,21.653,0,0,1-3.711-2.745.352.352,0,0,0-.565.063c-.015,0-2.3,1.619-2.032,3.071a.306.306,0,0,0,.31.27c1.2,1.257,5.213,3.8,5.937,3.794a10.486,10.486,0,0,0,3.728-1c1.425-.547,2.744-.661,3.888-1.528a1.877,1.877,0,0,0,.7-2s-.251-.258-.253-.263" transform="translate(-602.187 -187.119)" fill="#ffab6e"/>
    <path id="Path_5962" data-name="Path 5962" d="M286.826,147.767a11.366,11.366,0,0,0-2.314-.668c-.779-.139-1.618-.077-2.381-.269-1.527-.383-1.413-2.531-2.045-3.7a6.55,6.55,0,0,0-6.181-3.354c-2.923.119-4.841,1.623-6.873,3.522-1.112,1.039-2.606.458-3.459,1.967-.958,1.695.346,3.94,1.417,5.235a29.97,29.97,0,0,0,5.4,4.86c.608.444,1.785,1.148,2.518.541a1.659,1.659,0,0,0,.4-1.3,13.868,13.868,0,0,1,1.563.725,10.031,10.031,0,0,0,2.1.749,5.409,5.409,0,0,0,3.286-.092,7.647,7.647,0,0,0,4.469-.805,7.866,7.866,0,0,0,3.3-2.147,3.277,3.277,0,0,0-1.2-5.255" transform="translate(-215.82 -114.588)" fill="#63323c"/>
    <path id="Path_5963" data-name="Path 5963" d="M738.43,334.474c-.462-.124-6.019-.422-7.533-1.568-.588-.446-3.171-3.862-4.211-5.11a.3.3,0,0,0-.514.3.267.267,0,0,0-.16.115,9.55,9.55,0,0,1-2.381,1.962.259.259,0,0,0-.082.346.263.263,0,0,0,.05.248q1.378,1.762,2.861,3.438c.783.674,1.19,2.175,1.6,2.8a2.217,2.217,0,0,0,.894.966c1.031.439,1.326.16,2.339-.125.668-.188,1.333-.419,2.016-.555,1.383-.275,3.98.049,5.389-.627a1.5,1.5,0,0,0,.673-.536c.575-.97-.128-1.43-.94-1.648" transform="translate(-593.18 -268.658)" fill="#ffab6e"/>
    <path id="Path_5964" data-name="Path 5964" d="M350.53,193.391a3.606,3.606,0,0,1,3.391,3.264,3.174,3.174,0,0,1-2.922,3.4c-.23.015-.232.376,0,.36a3.538,3.538,0,0,0,3.282-3.758,3.973,3.973,0,0,0-3.752-3.624c-.231-.018-.23.343,0,.36" transform="translate(-287.242 -158.257)" fill="#261422"/>
    <path id="Path_5965" data-name="Path 5965" d="M624.571,345.317a8.307,8.307,0,0,1,4.606,3.373.182.182,0,0,0,.283.036,9.986,9.986,0,0,1,11.05-2.214c.21.093.394-.217.182-.311a10.354,10.354,0,0,0-11.487,2.27l.283.036a8.693,8.693,0,0,0-4.822-3.538.18.18,0,0,0-.1.347" transform="translate(-511.955 -282.819)" fill="#261422"/>
    <path id="Path_5966" data-name="Path 5966" d="M635.1,174.757a.34.34,0,0,0-.165-.314.385.385,0,0,0-.077-.1c-2.8-2.6-5.611-5.206-8.643-7.543-3.473-2.677-7.575-5.531-12.169-5.371a14.039,14.039,0,0,0-7.342,2.68c-.2.152.523.653.718.793a49.352,49.352,0,0,1,4.346,3.393c1.2,1.094,2.255,2.336,3.419,3.47,2.326,2.268,13.277,10.337,14.063,10.164,2.061-.453,5.855-3.54,5.85-7.172" transform="translate(-497.382 -132.343)" fill="#b06b3c"/>
    <path id="Path_5967" data-name="Path 5967" d="M309.958,208.483a.948.948,0,0,1-.527-.365,21.069,21.069,0,0,0-1.4-1.99c-.032-.01-7.132-1.959-7.833-1.01a.325.325,0,0,0-.081.314.359.359,0,0,0,.122.211,27.789,27.789,0,0,1,2.14,2.691,11.5,11.5,0,0,1,2.127,2.808,3.957,3.957,0,0,0,.629,1.278c.611.6,2.05.143,2.783.053a.444.444,0,0,0,.148-.045,11,11,0,0,0,2.522-.507c.8-.233,1.846-.5,2.27-1.237.833-1.449-1.469-1.824-2.9-2.2" transform="translate(-246.043 -167.954)" fill="#ffab6e"/>
    <path id="Path_5968" data-name="Path 5968" d="M561.9,234.915q-.6-1.368-1.249-2.717-1.261-2.629-2.695-5.171a65.124,65.124,0,0,0-6.053-9.223c-2.109-2.58-4.77-4.127-8.182-3.69a19.4,19.4,0,0,0-9.607,4.5c-3.506,2.856-6.806,6-10.087,9.115a.315.315,0,0,1-.092.056.323.323,0,0,0-.2.33,53.083,53.083,0,0,0,1.394,9.969c.28,1.165-6.929,3.764-5.574,3.949,1.262.172,10.043-.185,12.7-1.844,4.548-2.842,8.673-5.481,12.612-9.466a.329.329,0,0,1,.516.06c2.218,3.638,4.733,7.216,8.2,9.766.433.318,1.337,1.188,1.893,1.059a16.774,16.774,0,0,0,4.051-1.386,10.924,10.924,0,0,0,1.811-1.191c.413-.335,1.336-.736,1.42-1.282.007-.045-.633-2.318-.863-2.839" transform="translate(-425.829 -175.483)" fill="#b06b3c"/>
    <path id="Path_5969" data-name="Path 5969" d="M339.649,227.618a1.944,1.944,0,0,0-.876-.85,25.358,25.358,0,0,1-2.519-.431c.443.417.827.928.478,1.515a2.53,2.53,0,0,1-1.611,1.061,11.3,11.3,0,0,1-4.136-.112c-.119-.016-.171.166-.05.183,0,.008-.006.015-.011.023-.091-.05-.2.07-.116.144a18.106,18.106,0,0,0,1.717,1.415,5.476,5.476,0,0,0,2.072.7,5.694,5.694,0,0,0,3.943-1.01c.912-.566,1.639-1.541,1.111-2.635" transform="translate(-271.188 -185.564)" fill="#fff"/>
    <path id="Path_5970" data-name="Path 5970" d="M297.576,156.713a30.487,30.487,0,0,0-1.35-4.073,15.708,15.708,0,0,0-1.714-3.59c-2.913-4.072-10.071-.533-10.218,3.9-.106,3.2,3.022,5.6,5.09,7.6a3.362,3.362,0,0,0,1.113.86,5.359,5.359,0,0,0,2.806-.091c2.21-.474,4.877-1.9,4.274-4.605" transform="translate(-233.078 -120.73)" fill="#ffab6e"/>
    <path id="Path_5971" data-name="Path 5971" d="M491.5,171.192c-.808-2.518-2.782-3.711-5.369-4a12.011,12.011,0,0,0-8.47,2.029c-5.486,3.971-17.475,15.792-17.492,15.828-.082.172-2.6-.547-2.943-.426-2.557.913-5.665,5.644-6.49,8.042a18.418,18.418,0,0,0-.167,8.855c1.356.453,11.35,2.9,15.11,1.7,3.824-1.229,5.766-4.059,8.387-7,3.084-3.462,17-19.768,17.422-20.459.706-1.159.32-3.6.011-4.563" transform="translate(-369.021 -136.999)" fill="#b06b3c"/>
    <path id="Path_5972" data-name="Path 5972" d="M286.47,161.036a4.591,4.591,0,0,0-2.906-1.828.618.618,0,0,1-.551-.582,2.947,2.947,0,0,1,.4-1.824c.461-.676,1.1-1.216,1.524-1.917a3.952,3.952,0,0,0,.108-3.844.452.452,0,0,0,.08-.612c-.23-.376-.683-.254-1.036-.154a5.086,5.086,0,0,0-3.325,2.365c-1.29,2.393-.353,5.038,1.374,6.894-.036.022-.072.043-.107.067-.1.068-.006.232.1.164.048-.032.1-.062.145-.09-.36,1.234,1.2,1.924,1.943,2.568a11.367,11.367,0,0,1,2.594,3.282.1.1,0,0,0,.152.024c1.192-1.234.418-3.36-.487-4.513" transform="translate(-229.69 -123.122)" fill="#63323c"/>
    <path id="Path_5973" data-name="Path 5973" d="M336.15,333.347a22.2,22.2,0,0,1,5.215,4.076,8.282,8.282,0,0,1,1.657,2.881,22.757,22.757,0,0,1,.592,3.766,11.04,11.04,0,0,0,3.132,6.292c1.723,1.739,3.722,3.112,4.949,5.288a25.032,25.032,0,0,1,2.358,7.708c.044.228.391.131.348-.1a29.071,29.071,0,0,0-1.928-6.885,11.8,11.8,0,0,0-1.864-2.873,37,37,0,0,0-2.823-2.65,11.239,11.239,0,0,1-3.747-6.384,36.677,36.677,0,0,0-.629-4.134,8.353,8.353,0,0,0-1.425-2.722,20.8,20.8,0,0,0-5.652-4.579c-.2-.123-.378.188-.182.311" transform="translate(-275.525 -273.019)" fill="#261422"/>
    <path id="Path_5974" data-name="Path 5974" d="M572.908,244.623a70.564,70.564,0,0,0,11-12.309c1.462-1.98,2.871-4,4.283-6.015.588-.84,1.177-1.679,1.778-2.509a2.494,2.494,0,0,1,.968-.99,3.336,3.336,0,0,1,2.021-.119c1.7.4,2.67,1.984,3.568,3.342l3.22,4.869c.127.193.44.012.311-.182l-2.976-4.5a11.263,11.263,0,0,0-2.709-3.284,3.857,3.857,0,0,0-3.6-.447,2.126,2.126,0,0,0-.893.822q-.438.6-.865,1.2c-3.086,4.344-6.074,8.756-9.5,12.845a56.654,56.654,0,0,1-6.858,7.019c-.178.15.078.4.255.255" transform="translate(-469.445 -182.186)" fill="#261422"/>
    <path id="Path_5975" data-name="Path 5975" d="M273.061,163.43a5.106,5.106,0,0,0-2.162,1.482,3.614,3.614,0,0,0-.211,2.6c.041.228.388.131.347-.1a2.946,2.946,0,0,1,.318-2.514,6.1,6.1,0,0,1,1.889-1.161c.207-.1.025-.416-.182-.311" transform="translate(-221.813 -133.972)" fill="#261422"/>
    <path id="Path_5976" data-name="Path 5976" d="M305.771,148.273A7.22,7.22,0,0,0,303,145.795a5.21,5.21,0,0,0-6.255,1.033,1.955,1.955,0,0,0-.563.061.1.1,0,0,0,.05.183,1.71,1.71,0,0,1,.351-.049c-.044.093.074.2.144.114.03-.038.062-.071.093-.107a1.561,1.561,0,0,1,.964.472c.2.2.369.45.668.5a3.669,3.669,0,0,0,.841-.069,6.573,6.573,0,0,1,.819-.005,7.35,7.35,0,0,1,1.672.3,11.19,11.19,0,0,1,5.186,3.692c.056.066.159.009.162-.067a6.741,6.741,0,0,0-1.363-3.579" transform="translate(-242.775 -119.042)" fill="#63323c"/>
    <path id="Path_5977" data-name="Path 5977" d="M286.747,156.524a5,5,0,0,0-2.534,3.611,8.454,8.454,0,0,0,1.081,5.306c.107.206.418.024.311-.182a8.069,8.069,0,0,1-1.044-5.028,4.657,4.657,0,0,1,2.368-3.4c.207-.106.025-.416-.182-.311" transform="translate(-232.938 -128.31)" fill="#261422"/>
    <path id="Path_5978" data-name="Path 5978" d="M350.519,235.32a4.8,4.8,0,0,0,3.816-.085c1.059-.36,2.186-1.231,1.831-2.493a.18.18,0,0,0-.347.1c.353,1.254-1.027,1.9-2,2.177a4.107,4.107,0,0,1-3.122-.006c-.2-.112-.385.2-.182.311" transform="translate(-287.303 -190.712)" fill="#261422"/>
    <path id="Path_5979" data-name="Path 5979" d="M416.094,348.356a5.985,5.985,0,0,0-.363,2.046.18.18,0,0,0,.36,0,5.7,5.7,0,0,1,.35-1.95c.08-.218-.268-.312-.347-.1" transform="translate(-340.84 -285.502)" fill="#261422"/>
    <path id="Path_5980" data-name="Path 5980" d="M307.844,149.7a5.178,5.178,0,0,1,4.706-.016,5.311,5.311,0,0,1,2.608,3.284,2.605,2.605,0,0,0,.934,1.469,6.293,6.293,0,0,0,1.745.8c1.5.519,3.2,1.154,3.983,2.65a3.275,3.275,0,0,1-1.634,4.495c-.211.093-.028.4.182.311a3.626,3.626,0,0,0,2.17-3.566,4.426,4.426,0,0,0-2.722-3.491c-.817-.4-1.691-.648-2.537-.979a2.6,2.6,0,0,1-1.773-1.781,5.7,5.7,0,0,0-2.6-3.4,5.55,5.55,0,0,0-5.244-.079c-.207.105-.025.416.182.311" transform="translate(-252.165 -121.969)" fill="#261422"/>
    <path id="Path_5981" data-name="Path 5981" d="M330.139,182.821c.289.12.674.248.766.585a1.023,1.023,0,0,1-.193.837c-.137.188.176.368.311.182a1.34,1.34,0,0,0,.2-1.193c-.156-.43-.6-.6-.993-.757-.214-.089-.307.26-.1.347" transform="translate(-270.569 -149.59)" fill="#cf694c"/>
    <path id="Path_5982" data-name="Path 5982" d="M327.7,189.955a.685.685,0,0,0-.544.485.18.18,0,0,0,.347.1.338.338,0,0,1,.293-.233.181.181,0,0,0,.126-.222.184.184,0,0,0-.222-.126" transform="translate(-268.213 -155.733)" fill="#cf694c"/>
    <path id="Path_5983" data-name="Path 5983" d="M466.493,287.013a16.858,16.858,0,0,1,5.59-13.632c.174-.154-.082-.408-.255-.255a17.2,17.2,0,0,0-5.7,13.887c.016.23.376.232.36,0" transform="translate(-382.132 -223.886)" fill="#261422"/>
    <path id="Path_5984" data-name="Path 5984" d="M643.456,275.241a19.714,19.714,0,0,0,2.739,4.494c.146.18.4-.076.255-.255a19.4,19.4,0,0,1-2.682-4.421c-.093-.212-.4-.029-.311.182" transform="translate(-527.528 -225.432)" fill="#261422"/>
    <path id="Path_5985" data-name="Path 5985" d="M637.83,287.929l1.678.947a.18.18,0,0,0,.182-.311l-1.678-.947a.18.18,0,0,0-.182.311" transform="translate(-522.857 -235.785)" fill="#261422"/>
    <path id="Path_5986" data-name="Path 5986" d="M205.488,295.362c-3.257-1.325-6.622-.547-9.787.578a1.889,1.889,0,0,1-1.866,0,4.321,4.321,0,0,1-.778-.9,7.351,7.351,0,0,0-1.547-1.436,8.317,8.317,0,0,0-3.881-1.416,7.9,7.9,0,0,0-7.761,4.171c-.2.393.434.737.631.342a6.834,6.834,0,0,1,1.4-1.885c-.4,1.155.825,2.53,1.743,3.35a15.862,15.862,0,0,0,6.654,3.806c2.58.691,5.257,1.005,7.847,1.661A19.215,19.215,0,0,1,202.02,305c.27.135.551.284.827.449l.068-.047c1.557-1.047,3.782-1.9,5.519-.738a2.718,2.718,0,0,1,.4.331,6.7,6.7,0,0,0,1.035-3.209,6.611,6.611,0,0,0-4.385-6.424" transform="translate(-147.435 -239.515)" fill="#ffe8db"/>
    <path id="Path_5987" data-name="Path 5987" d="M535.653,341.994c.112-1.078.121-2.788.914-3.711-.165-.057-.331-.112-.5-.16a8.657,8.657,0,0,0-8.429,1.8,3.952,3.952,0,0,0-1.142-2.12,4,4,0,0,0-4.185-.556c-3.064,1.173-4.8,4.622-4.675,7.779a.775.775,0,0,0,1.472.289c2.056,1.851,5.072,2.068,7.754,1.723,2.894-.373,5.793-.932,8.66-1.547a14.11,14.11,0,0,1,.127-3.492" transform="translate(-424.386 -276.214)" fill="#ffe8db"/>
    <path id="Path_5988" data-name="Path 5988" d="M318.439,219.256a8.189,8.189,0,0,1-2.9,1.127,3.752,3.752,0,0,1-3.272-.521c-.187-.137-.367.175-.182.311a3.958,3.958,0,0,0,3.226.632,8.612,8.612,0,0,0,3.307-1.237c.186-.135.006-.448-.182-.311" transform="translate(-255.804 -179.731)" fill="#cf694c"/>
    <path id="Path_5989" data-name="Path 5989" d="M240.818,172a25.5,25.5,0,0,0-5.5-4.6,68.469,68.469,0,0,1-8.827-7.846c-5.133-5.622-5.529-7.308-7.894-5.29a7.958,7.958,0,0,0-2.9,4.379c-.466,2.639,1.955,6.653,3.439,8.6,3.928,5.15,7.941,7.948,12.85,12.163.01.066,1.295-3.082,2.95-4.2,1.57-1.057,6.489-2.512,5.881-3.213" transform="translate(-176.793 -125.806)" fill="#fff"/>
    <path id="Path_5990" data-name="Path 5990" d="M311.122,221.764q2.995,3.545,5.636,7.368c.131.189.443.01.311-.182q-2.665-3.856-5.692-7.44c-.15-.177-.4.079-.255.255" transform="translate(-255.039 -181.557)" fill="#261422"/>
    <path id="Path_5991" data-name="Path 5991" d="M243.328,163.078a4.7,4.7,0,0,1,2.219,1.041c.176.149.432-.1.255-.255a5.063,5.063,0,0,0-2.378-1.133c-.227-.042-.324.306-.1.348" transform="translate(-199.387 -133.413)" fill="#261422"/>
    <path id="Path_5992" data-name="Path 5992" d="M291.78,119.542a22.91,22.91,0,0,0-3.217,5.6c-.086.215.262.309.348.1a22.307,22.307,0,0,1,3.124-5.437c.141-.181-.112-.437-.255-.255" transform="translate(-236.57 -97.956)" fill="#261422"/>
    <path id="Path_5993" data-name="Path 5993" d="M485.041,257.209l-.7.436c-.2.123-.016.435.182.311l.7-.436c.2-.123.016-.435-.182-.311" transform="translate(-397.023 -210.851)" fill="#261422"/>
    <path id="Path_5994" data-name="Path 5994" d="M336.971,176.924a2.339,2.339,0,0,1-1.435.751.161.161,0,0,0-.157.135c-.053.1-.043.279.088.311a1.529,1.529,0,0,0,1.368-.417,1.389,1.389,0,0,0,.387-.576c.038-.163-.043-.423-.25-.2" transform="translate(-274.938 -144.984)" fill="#1c0f10"/>
    <path id="Path_5995" data-name="Path 5995" d="M311.381,187.189a4.737,4.737,0,0,0,1.608-.587.161.161,0,0,1,.21-.016.193.193,0,0,1,.119.279,1.535,1.535,0,0,1-.926.633,1.467,1.467,0,0,1-1.119,0,.17.17,0,0,1-.046-.26.189.189,0,0,1,.154-.047" transform="translate(-255.126 -152.948)" fill="#1c0f10"/>
    <path id="Path_5996" data-name="Path 5996" d="M307.042,175.419a2.108,2.108,0,0,0-.866.524,2.747,2.747,0,0,0-.45.536.744.744,0,0,0-.135.545.367.367,0,0,0,.33.259,1.234,1.234,0,0,0,.759-.275c.253-.152.508-.3.773-.428s.642-.278.753-.6c.183-.523-.329-.654-.719-.638a1.863,1.863,0,0,0-.444.073" transform="translate(-250.528 -143.758)" fill="#63323c"/>
    <path id="Path_5997" data-name="Path 5997" d="M329.853,168.012c-.266.237-.53.664-.109.95.255.173.59.05.838-.023a7.013,7.013,0,0,1,.756-.165A.98.98,0,0,0,332,168.5a.4.4,0,0,0,.07-.409.683.683,0,0,0-.4-.332,2.162,2.162,0,0,0-.6-.124,1.619,1.619,0,0,0-.872.15,1.552,1.552,0,0,0-.335.228" transform="translate(-270.162 -137.43)" fill="#63323c"/>
    <path id="Path_5998" data-name="Path 5998" d="M330.069,192.985c-.042-.112-.119-.192-.219-.03a2.8,2.8,0,0,1-2.1,1.033.142.142,0,0,0-.015.006l-.023,0c-.49.027.006.368.218.408.756.143,2.381-.293,2.163-1.332a.59.59,0,0,0-.025-.088" transform="translate(-268.507 -158.12)" fill="#c75842"/>
    <path id="Path_5999" data-name="Path 5999" d="M594.067,536.426h-.087a.261.261,0,1,0,0,.523h.087a.261.261,0,0,0,0-.523" transform="translate(-486.765 -439.793)" fill="#ffe8db"/>
    <path id="Path_6000" data-name="Path 6000" d="M600.414,501.378a.265.265,0,0,0-.37,0l-.116.116a.261.261,0,0,0,.37.369l.116-.116a.265.265,0,0,0,0-.369" transform="translate(-491.794 -410.997)" fill="#ffe8db"/>
    <path id="Path_6001" data-name="Path 6001" d="M682.537,105.873a.26.26,0,0,0,0,.521.26.26,0,0,0,0-.521" transform="translate(-559.377 -86.801)" fill="#ffe8db"/>
    <path id="Path_6002" data-name="Path 6002" d="M588.474,103.083v.116a.087.087,0,0,0,.173,0v-.116a.087.087,0,0,0-.173,0" transform="translate(-482.465 -84.445)" fill="#ffe8db"/>
    <path id="Path_6003" data-name="Path 6003" d="M586.708,97.564v.116a.174.174,0,0,0,.347,0v-.116a.174.174,0,0,0-.347,0" transform="translate(-481.017 -79.851)" fill="#ffe8db"/>
    <path id="Path_6004" data-name="Path 6004" d="M595.257,29.29a.174.174,0,0,0,0,.347.174.174,0,0,0,0-.347" transform="translate(-487.888 -24.014)" fill="#ffe8db"/>
    <path id="Path_6005" data-name="Path 6005" d="M802.161,87.089h-.116a.174.174,0,0,0,0,.347h.116a.174.174,0,0,0,0-.347" transform="translate(-657.426 -71.401)" fill="#ffe8db"/>
    <path id="Path_6006" data-name="Path 6006" d="M804.731,93.511h-.116a.174.174,0,0,0,0,.347h.116a.174.174,0,0,0,0-.347" transform="translate(-659.532 -76.666)" fill="#ffe8db"/>
    <path id="Path_6007" data-name="Path 6007" d="M791.771,98.006a.174.174,0,0,0,0,.347.174.174,0,0,0,0-.347" transform="translate(-649.002 -80.351)" fill="#ffe8db"/>
    <path id="Path_6008" data-name="Path 6008" d="M259.71,67.783v.261a.174.174,0,0,0,.348,0v-.261a.174.174,0,0,0-.348,0" transform="translate(-212.925 -55.435)" fill="#ffe8db"/>
    <path id="Path_6009" data-name="Path 6009" d="M287.925,343.194c-.873-2.121-3.782-2.608-5.809-2.444a8.933,8.933,0,0,0-5.985,2.967c-.152.174.1.43.255.255a8.568,8.568,0,0,1,5.469-2.836c1.886-.215,4.889.129,5.723,2.154.087.211.436.119.347-.1" transform="translate(-226.35 -279.343)" fill="#261422"/>
  </g>
</svg>
