<svg xmlns="http://www.w3.org/2000/svg" xmlns:xlink="http://www.w3.org/1999/xlink" width="340" height="340" viewBox="0 0 340 340">
  <defs>
    <clipPath id="clip-path">
      <rect id="Rectangle_1788" data-name="Rectangle 1788" width="265.216" height="181.45" fill="none"/>
    </clipPath>
  </defs>
  <g id="Group_5133" data-name="Group 5133" transform="translate(-190 -214.4)">
    <g id="Ellipse_112" data-name="Ellipse 112" transform="translate(190 214.4)" fill="#4878e4" stroke="#4878e4" stroke-width="1" opacity="0.5">
      <circle cx="170" cy="170" r="170" stroke="none"/>
      <circle cx="170" cy="170" r="169.5" fill="none"/>
    </g>
    <g id="Group_2944" data-name="Group 2944" transform="translate(217.973 275.201)">
      <g id="Group_2943" data-name="Group 2943" clip-path="url(#clip-path)">
        <path id="Path_6448" data-name="Path 6448" d="M432.4,166.546a2.069,2.069,0,0,0-.009,4.137,2.069,2.069,0,0,0,.009-4.137" transform="translate(-208.321 -80.624)" fill="#fff"/>
        <path id="Path_6449" data-name="Path 6449" d="M449.128,159.135c1.227,1.624.173,4.027-.272,5.777l-1.384,5.445a.489.489,0,0,0,.942.26l1.727-6.8c.434-1.708.994-3.638-.17-5.178-.375-.5-1.223-.009-.844.493" transform="translate(-216.611 -76.697)" fill="#931f33"/>
        <path id="Path_6450" data-name="Path 6450" d="M.326,226.063c-1.028,1.3.542,5.426,2.33,5.43l195.021,1.559a35.277,35.277,0,0,0,7.418-1.161c13.966-2.705,27.172-4.813,32.38-6.094a3.436,3.436,0,0,0,2.495-2.431c6.559-23.866,20.973-90.809,24.542-106.024q.24-1.023.48-2.047c.921-4.047-1.183-6.175-2.92-7.538a5.52,5.52,0,0,0-3.224-1.162L83.175,218.386Z" transform="translate(0 -51.602)" fill="#560c1b"/>
        <path id="Path_6451" data-name="Path 6451" d="M307.889,109.989q-2.986,13.747-5.98,27.495c-5.446,25.022-11.734,50.029-17.793,75-.132.528-.264,1.057-.388,1.585-.376,1.533-.738,3.066-1.1,4.6a.972.972,0,0,1-.954.755l-185.387-.409,1.76-7.58,23.68-101.866a4.381,4.381,0,0,1,4.164-3.143l179.3.4a2.535,2.535,0,0,1,2.7,3.158" transform="translate(-46.612 -51.525)" fill="#fff"/>
        <path id="Path_6452" data-name="Path 6452" d="M281.354,219.45l-185.73-.41,1.836-7.911,23.68-101.867a4.673,4.673,0,0,1,4.42-3.352l179.314.4a3.115,3.115,0,0,1,2.48,1.1,2.758,2.758,0,0,1,.48,2.389Q306.267,117,304.7,124.2l-2.846,13.083c-4.317,19.838-9.242,39.986-14,59.472q-1.9,7.771-3.789,15.54-.2.792-.388,1.583c-.376,1.534-.737,3.067-1.1,4.6a1.249,1.249,0,0,1-1.217.965M96.308,218.5l185.045.408a.7.7,0,0,0,.689-.542c.364-1.543.726-3.077,1.1-4.611.124-.527.256-1.057.388-1.586q1.884-7.766,3.788-15.539c4.762-19.483,9.687-39.628,14-59.459l2.845-13.083q1.569-7.205,3.135-14.411a2.23,2.23,0,0,0-.375-1.935,2.545,2.545,0,0,0-2.055-.893l-179.3-.4a4.107,4.107,0,0,0-3.9,2.932Z" transform="translate(-46.291 -51.27)" fill="#560c1b"/>
        <path id="Path_6453" data-name="Path 6453" d="M326.313,122.1l3.1-13.253-1.317-1.551-1.684-.468-179.3-.4-1.613.33-1.834,1.372-1.164,3.355-2.371,10.2Z" transform="translate(-67.838 -51.523)" fill="#560c1b"/>
        <path id="Path_6454" data-name="Path 6454" d="M318.878,104.331a.748.748,0,0,0-.524-.527c-1.494-.441-3.549.479-4.8,1.23a.734.734,0,0,0-.151,1.14.8.8,0,0,0,.087.173c1.049,1.561,1.855,3.216,3.37,4.389a.76.76,0,0,0,1.029-.268,6.444,6.444,0,0,0,.879-2.8,11.884,11.884,0,0,0,.106-3.336" transform="translate(-151.619 -50.196)" fill="#7380d1"/>
        <path id="Path_6455" data-name="Path 6455" d="M349.144,103.706a10.533,10.533,0,0,0-4.492-2.113.761.761,0,0,0-.927.923c.326,1.588.6,3.185.8,4.793.122.969.287,2.052,1.485,2.123,2.114.124,3.565-5.351,3.13-5.727" transform="translate(-166.387 -49.168)" fill="#7380d1"/>
        <path id="Path_6456" data-name="Path 6456" d="M284.116,311.023c-.132.528-.264,1.057-.388,1.585-.376,1.533-.738,3.065-1.1,4.6a.973.973,0,0,1-.955.755l-185.387-.409,1.759-7.579Z" transform="translate(-46.612 -150.06)" fill="#f0e3df"/>
        <path id="Path_6457" data-name="Path 6457" d="M281.217,219.462l-185.39-.409a.489.489,0,0,1-.475-.6l1.759-7.58L120.79,109.008a4.836,4.836,0,0,1,4.631-3.521l179.315.4a3.333,3.333,0,0,1,2.65,1.182,2.971,2.971,0,0,1,.521,2.572q-1.565,7.2-3.133,14.408l-2.845,13.083c-4.318,19.841-9.243,39.991-14.006,59.478q-1.9,7.771-3.789,15.539c-.133.53-.264,1.056-.388,1.582-.376,1.535-.738,3.067-1.1,4.6a1.467,1.467,0,0,1-1.428,1.132M96.443,218.078l184.773.407a.486.486,0,0,0,.476-.372c.365-1.547.727-3.081,1.1-4.615.125-.526.257-1.057.39-1.587q1.883-7.763,3.788-15.536c4.762-19.481,9.686-39.626,14-59.453l2.846-13.083q1.569-7.205,3.134-14.411a2.018,2.018,0,0,0-.333-1.755,2.332,2.332,0,0,0-1.885-.81l-179.3-.4a3.88,3.88,0,0,0-3.687,2.764Z" transform="translate(-46.153 -51.066)" fill="#560c1b"/>
        <path id="Path_6458" data-name="Path 6458" d="M444.206,315a1.184,1.184,0,0,0-.005,2.368,1.184,1.184,0,0,0,.005-2.368" transform="translate(-214.466 -152.488)" fill="#fff"/>
        <path id="Path_6459" data-name="Path 6459" d="M316.078,67.887c-1.886-4.874-1.345-9.578-1.442-14.666-.061-3.17-.579-6.463-2.568-9.039-3.084-3.994-9.466-4.71-11.958.186a.933.933,0,0,0-.635.367c-2.629,3.216-2.778,7.344-2.556,11.352a28.2,28.2,0,0,0,1.441,7.4c.371,1.121,1.1,2.228.91,3.444-.085.55-1.056,1.612-1.305,2.165-3.413,7.574.565,16.273,7.131,20.521,3.69,3.351,9.289,2.089,12.194-1.86,4.823-6.559,1.322-13.312-1.212-19.866" transform="translate(-143.639 -19.818)" fill="#912f2e"/>
        <path id="Path_6460" data-name="Path 6460" d="M436.588,314.979a1.184,1.184,0,0,0-.005,2.369,1.184,1.184,0,0,0,.005-2.369" transform="translate(-210.778 -152.48)" fill="#fff"/>
        <path id="Path_6461" data-name="Path 6461" d="M323.828,179.7c-.721,5.683-11.89,54.719-11.917,54.9-.543,1.8-1,1.815-2.019,1.792l-124.951-.673a1.258,1.258,0,0,1-1.177-1.456l.167-1.145,11.816-54.249A1.3,1.3,0,0,1,197,177.795l125.882.805a.95.95,0,0,1,.943,1.1" transform="translate(-88.953 -86.07)" fill="#f0e3df"/>
        <path id="Path_6462" data-name="Path 6462" d="M338.944,155.256c-.721,5.683-1.558,6.692-1.586,6.874-.542,1.8-1,1.815-2.018,1.792l-124.951-.673a1.258,1.258,0,0,1-1.177-1.456l.167-1.145,1.484-6.222a1.3,1.3,0,0,1,1.256-1.078l125.883.8a.95.95,0,0,1,.943,1.1" transform="translate(-101.272 -74.235)" fill="#f0e3df"/>
        <path id="Path_6463" data-name="Path 6463" d="M176.428,181.083a1.1,1.1,0,0,0,1.077-.89c.293-1.506.491-2.622.569-3.23a.95.95,0,0,0-.943-1.1l-16.945-.153a1.3,1.3,0,0,0-1.256,1.078l-.652,2.971a1.1,1.1,0,0,0,1.071,1.328Z" transform="translate(-76.61 -85.058)" fill="#f0e3df"/>
        <path id="Path_6464" data-name="Path 6464" d="M175.017,192.651c.169-.807.33-1.579.481-2.31a1.35,1.35,0,0,0-1.323-1.624H157.559a1.35,1.35,0,0,0-1.32,1.065l-.5,2.307a1.351,1.351,0,0,0,1.32,1.637h16.635a1.354,1.354,0,0,0,1.323-1.076" transform="translate(-75.377 -91.357)" fill="#f0e3df"/>
        <path id="Path_6465" data-name="Path 6465" d="M172.387,204.864c.2-.921.392-1.821.578-2.7a.952.952,0,0,0-.931-1.151H154.566a.952.952,0,0,0-.931.751l-.584,2.7a.952.952,0,0,0,.931,1.154h17.474a.955.955,0,0,0,.932-.754" transform="translate(-74.081 -97.312)" fill="#f0e3df"/>
        <path id="Path_6466" data-name="Path 6466" d="M169.985,216.174q.258-1.183.51-2.343a1.077,1.077,0,0,0-1.053-1.3H152.223a1.077,1.077,0,0,0-1.053.849l-.508,2.343a1.078,1.078,0,0,0,1.053,1.306h17.216a1.08,1.08,0,0,0,1.053-.85" transform="translate(-72.923 -102.883)" fill="#f0e3df"/>
        <path id="Path_6467" data-name="Path 6467" d="M167.46,227.615q.282-1.279.561-2.555a1.01,1.01,0,0,0-.988-1.226H149.688a1.011,1.011,0,0,0-.988.8l-.553,2.553a1.011,1.011,0,0,0,.988,1.225h17.337a1.012,1.012,0,0,0,.988-.794" transform="translate(-71.706 -108.357)" fill="#f0e3df"/>
        <path id="Path_6468" data-name="Path 6468" d="M164.756,239.562q.312-1.408.628-2.839a1.176,1.176,0,0,0-1.148-1.431H147.251a1.176,1.176,0,0,0-1.15.927l-.614,2.836a1.177,1.177,0,0,0,1.15,1.425h16.972a1.173,1.173,0,0,0,1.148-.919" transform="translate(-70.416 -113.904)" fill="#f0e3df"/>
        <path id="Path_6469" data-name="Path 6469" d="M429.064,314.963a1.184,1.184,0,0,0-.005,2.368,1.184,1.184,0,0,0,.005-2.368" transform="translate(-207.135 -152.472)" fill="#fff"/>
        <path id="Path_6470" data-name="Path 6470" d="M469.819,116.656a2.222,2.222,0,0,0-.01,4.445,2.222,2.222,0,0,0,.01-4.445" transform="translate(-226.363 -56.473)" fill="#fff"/>
        <path id="Path_6471" data-name="Path 6471" d="M487.691,116.656a2.222,2.222,0,0,0-.01,4.445,2.222,2.222,0,0,0,.01-4.445" transform="translate(-235.014 -56.473)" fill="#fff"/>
        <path id="Path_6472" data-name="Path 6472" d="M357.477,70.348c-.774-.872-1.587-1.713-2.427-2.524a9.376,9.376,0,0,1-2.536-3.865c-1.45-4.592.044-9.549-1.541-14.184a1.159,1.159,0,0,0-1.672-.62c-3.138-1.017-7.738-1.059-8.707,2.761-.886,3.493-.538,7.741-.76,11.339-.225,3.637-.482,7.277-.475,10.923.01,4.909-.074,11.537,3.62,15.315,1.968,2.014,4.762,3.056,7.254,4.253l9.705,4.662a1.154,1.154,0,0,0,1.96.064,21.665,21.665,0,0,0,2.174-16.331,28.4,28.4,0,0,0-6.594-11.792" transform="translate(-164.282 -23.512)" fill="#912f2e"/>
        <path id="Path_6473" data-name="Path 6473" d="M351.518,77.972A17.584,17.584,0,0,0,354.3,84.6c1.713,2.155,4.2,3.468,5.839,5.733a15.992,15.992,0,0,1,1.2,16.652c-.286.559.557,1.054.844.493a17,17,0,0,0-.047-15.789,20.176,20.176,0,0,0-5.32-5.993c-2.569-2.116-3.531-4.854-4.36-7.98a.489.489,0,0,0-.943.26" transform="translate(-170.159 -37.452)" fill="#3d0a09"/>
        <path id="Path_6474" data-name="Path 6474" d="M49.782,324.067,1.2,330.773c-.41.114-.8.743-.8.743L196.483,332.7a6.63,6.63,0,0,0,3.077-.749l36.473-7.267Z" transform="translate(-0.191 -156.879)" fill="#560c1b"/>
        <path id="Path_6475" data-name="Path 6475" d="M316.936,104.7a8.694,8.694,0,0,0-3.03.638,1.165,1.165,0,0,0-.791,1.386,1.213,1.213,0,0,0,.487.646.908.908,0,0,0,.155.639,1.924,1.924,0,0,0,2.585.669,5.507,5.507,0,0,0,1.564-2.278,1.14,1.14,0,0,0-.97-1.7" transform="translate(-151.558 -50.683)" fill="#7380d1"/>
        <path id="Path_6476" data-name="Path 6476" d="M348.143,105.532a1.078,1.078,0,0,0-.219-1.752,7.861,7.861,0,0,0-4.58-1.254,1.137,1.137,0,0,0-.574,2.1,11.179,11.179,0,0,1,1.658.9c.2.161.253-.138.069.257-.11.237-.163.495-.283.734-.65,1.294,1.293,2.442,1.946,1.143.043-.086.085-.179.127-.269a3.155,3.155,0,0,0,1.856-1.859" transform="translate(-165.665 -49.627)" fill="#7380d1"/>
        <path id="Path_6477" data-name="Path 6477" d="M308.639,97.387c-.58.158-3.5.35-4.093.478a.932.932,0,0,0-.648,1.276c2.392,5.773,9.781,8.976,16.387,7.261,3.985-1.034,10.2-1.438,13.439-4.062.592-.479.635-.293.061-.793-1.609-1.4-4.831-3.935-5.373-6.081C327.2,90.679,326.887,83,326.487,78.092c-.044-.546-.815-1.031-.817-1.037-1.312-3.96-4.709-2.539-7.479-.52a26.384,26.384,0,0,0-8.467,10.016A1.2,1.2,0,0,0,310.091,88a38.465,38.465,0,0,1,.759,4.958c.169,2.1-.008,3.834-2.211,4.434" transform="translate(-147.08 -36.084)" fill="#f7946d"/>
        <path id="Path_6478" data-name="Path 6478" d="M237.565,327.541c-7.544,1.878-15.157,3.451-22.779,4.973-3.644.727-7.289,1.444-10.93,2.181s-7.582.35-11.3.337q-22.613-.078-45.225-.26c-30.329-.229-60.656-.537-90.985-.758q-25.389-.185-50.778-.258a.489.489,0,0,0,0,.977c30.418.068,60.834.324,91.25.591,30.367.266,60.733.547,91.1.669q6.168.025,12.336.04c4.072.01,8.2-1.266,12.188-2.058,8.49-1.687,16.978-3.4,25.381-5.49a.489.489,0,0,0-.26-.943" transform="translate(-2.467 -158.553)" fill="#931f33"/>
        <path id="Path_6479" data-name="Path 6479" d="M290.995,278.614l70.415.322c-4.178-12.222-9.429-23.284-14.494-31.156a1.026,1.026,0,0,0-.485-1.257c-8.508-4.924-19.022-1.608-27.956.233-5.551,1.143-11.129,1.051-16.675,1.948a12.681,12.681,0,0,0-7.949,4.109,1.247,1.247,0,0,0-2.048.757,134.928,134.928,0,0,0-1.053,24.992c.059.014.218.053.244.053" transform="translate(-140.662 -118.093)" fill="#d6b9b0"/>
        <path id="Path_6480" data-name="Path 6480" d="M329.727,164.514c-.1-2.905-.276-5.841-.485-8.647-.651-8.561-1.682-15.961-2.42-17.926-1.541-4.109-5.152-7.757-8.708-9.973-1.763-1.093-3.753-2.334-5.841-3.593-2.008-1.216-4.1-2.438-6.154-3.562s-4.078-2.137-5.92-2.923c-.258-.111-.9-.835-1.13-.3-2.291,5.4-5.484,5.614-9.845,5.619-2,0-10.44-6.479-10.649-6.54-.1-.049-1.837.159-1.959.153-2.1-.123-4.243-.257-6.393-.362-.995-.043-2-.086-2.991-.11-.946-.031-1.891-.055-2.831-.055-2.34-.025-4.661.043-6.939.239-5.5.479-10.9,2.72-15.98,4.772a.827.827,0,0,0-.405,1.148.6.6,0,0,0-.012.528c2.462,6.19,7.682,16,10.735,20.131a14.042,14.042,0,0,0,.915,1.13c.577.639,2.389-.4,2.07.4-8.622,21.114,10.655,52.366,10.931,52.668,3.728,4.065,10.225,4.6,15.286,4.974a78.388,78.388,0,0,0,25.615-2.211c6.927-1.842,18.8-6.829,21.58-14.229,1.554-4.121,1.842-12.6,1.529-21.329" transform="translate(-116.661 -56.294)" fill="#7380d1"/>
        <path id="Path_6481" data-name="Path 6481" d="M224.859,115.781c-.288-.055-.583-.11-.89-.154-.848-.141-1.762-.264-2.733-.368-8.487-.9-21.028-.4-30.412.841-10.735,1.425-24.418,2.709-35.067,4.716a1.178,1.178,0,0,0-.731.461,1.04,1.04,0,0,0-.307.289c-3.973,5.514-4.7,17.361,1.216,21.556.571.406,11.594,2.242,16.784,2.389,8.291.233,18.018.731,26.248-.387,3.034-.412,6.5-.921,9.188-2.493.128-.074.258-.154.381-.239,2.118-1.431,3.181-3.789,4.329-6.019,2.64-5.122,13.05-13.947,13.9-18.24.234-1.2-.27-2.039-1.9-2.352" transform="translate(-73.396 -55.573)" fill="#7380d1"/>
        <path id="Path_6482" data-name="Path 6482" d="M132.552,104.943c-5.183-5-24.81-8.77-30.741-10.952-4.568-1.68-9.585-3.885-14.389-2.482a47.316,47.316,0,0,0-7.89-5.4,1.165,1.165,0,0,0-.164-.07c-.634-.571-.445.019-.664,1.128-1.448,7.332-6.991,11.441-6.521,11.941a35.1,35.1,0,0,0,3.433,3.2,1.583,1.583,0,0,1,.728,1.216c-.691,9.92,10.7,16.462,19.845,20.25a109.344,109.344,0,0,0,42.487,7.841c1.069-.012-2.7-23.363-6.125-26.673" transform="translate(-34.93 -41.544)" fill="#7380d1"/>
        <path id="Path_6483" data-name="Path 6483" d="M325.03,58.979c2.609-5.237,4.75-11.07.71-16-4.389-5.359-12.522-5.788-18.289-2.522-7.118,4.03-9.085,12.587-10.227,20.07-.413,2.7-1.106,6.3.625,8.675,2.024,4.4,8.1,4.114,12.091,3.5,6.27-.971,9.809-3.282,12.745-9.156.719-1.437,1.553-2.971,2.345-4.56" transform="translate(-143.646 -18.582)" fill="#f7946d"/>
        <path id="Path_6484" data-name="Path 6484" d="M197.1,148.5a5.051,5.051,0,0,0-3.617-.175.282.282,0,0,0-.059-.026c-.489-.1-.743.077-.829.358a.277.277,0,0,0-.01.477,1.47,1.47,0,0,0,.459.8,4.421,4.421,0,0,0,4.275.75c1.151-.485.717-1.726-.219-2.182" transform="translate(-93.166 -71.684)" fill="#fff"/>
        <path id="Path_6485" data-name="Path 6485" d="M146.59,149.4c-1.457-1.291-4.69-2.515-6.333-.918-2.764,2.687,4.64,5.743,6.41,5.419,2.623-.481,1.335-3.25-.076-4.5" transform="translate(-67.601 -71.514)" fill="#fff"/>
        <path id="Path_6486" data-name="Path 6486" d="M158.814,149.594c3.355-.891,6.486-2.8,9.587-4.321.565-.277.07-1.12-.493-.843-3.021,1.479-6.089,3.354-9.354,4.222a.489.489,0,0,0,.26.943" transform="translate(-76.588 -69.891)" fill="#3d0a09"/>
        <path id="Path_6487" data-name="Path 6487" d="M174.8,25.421c-1.662,9.192-10.873,55.585-10.873,55.593-.652,3.323-1.955,4.971-5.474,4.971L56.5,85.754c-3.693.018-3.693-1.155-3.215-3.5l.478-2.216L64.669,26.725a3.5,3.5,0,0,1,3.845-3.287l104.86.235a1.41,1.41,0,0,1,1.426,1.747" transform="translate(-25.689 -11.346)" fill="#f5e9da"/>
        <path id="Path_6488" data-name="Path 6488" d="M90.182,57.332,64.842,74.786l-3.6,2.48c-.514.354-.026,1.2.493.844l25.34-17.454,3.6-2.48c.514-.354.026-1.2-.493-.844" transform="translate(-29.54 -27.712)" fill="#5e1a19"/>
        <path id="Path_6489" data-name="Path 6489" d="M229.28,63.039c6.5,5.9,12.982,11.831,19.648,17.541.715.612,2.006,2.182,3.027,2.273.626.056.622-.922,0-.977.321.028.1.01-.068-.118s-.368-.282-.549-.427c-.606-.488-1.2-.995-1.788-1.5-1.828-1.568-3.632-3.165-5.434-4.764q-5.776-5.128-11.5-10.319-1.325-1.2-2.648-2.4c-.464-.422-1.158.267-.691.691" transform="translate(-110.918 -30.119)" fill="#5e1a19"/>
        <path id="Path_6490" data-name="Path 6490" d="M186.271,24.729Q167.94,37.113,149.141,48.8c-4.5,2.794-9.029,5.549-13.608,8.215q-3.008,1.752-6.052,3.44c-1.826,1.008-4.875,1.43-6.606.042-7.465-5.987-14.5-12.566-21.58-19-6.508-5.912-12.944-11.9-19.438-17.829-.464-.424-1.157.266-.691.691,13.123,11.977,26,24.26,39.627,35.672a17.623,17.623,0,0,0,2.043,1.664,5.7,5.7,0,0,0,2.814.585c2.412.04,4.045-.818,6.091-1.968,4.435-2.494,8.805-5.1,13.148-7.749,9.079-5.54,18.038-11.278,26.941-17.1q7.5-4.9,14.933-9.9c.518-.35.03-1.2-.493-.844" transform="translate(-39.217 -11.397)" fill="#5e1a19"/>
        <path id="Path_6491" data-name="Path 6491" d="M58.591,86.777c1.79-1.276.5-4.083-.9-5.3-2.366-2.074-5.963-3.691-9.147-3.04-3.375.689-3.7,3.48-2.711,6.288a2.775,2.775,0,0,0-1.221,1.164c-.95,1.77-.048,3.682,1.287,5.088a3.467,3.467,0,0,0-.581.65c-1.387,2.02.239,4.147,2.141,4.961a.731.731,0,0,0,.22.046,2.69,2.69,0,0,0-.6,1.28c-.316,1.7,1.333,3.644,2.908,4.138a.672.672,0,0,0,.37.052.706.706,0,0,0,.474-.215c1.117-.69,2.267-1.349,3.347-2.093a3.044,3.044,0,0,0,1.483-2.059,1.956,1.956,0,0,0-1.347-2.158c.207-.055.414-.11.622-.172a2.41,2.41,0,0,0,1.754-1.286c.4-1.135-.237-2.037-1.206-2.713a11.389,11.389,0,0,0,1.568-.087,2.813,2.813,0,0,0,2.434-1.461,2.423,2.423,0,0,0-.9-3.077" transform="translate(-21.408 -37.898)" fill="#f7946d"/>
        <path id="Path_6492" data-name="Path 6492" d="M333.871,114.438c.018-2.347.054-4.726-.13-7.065a2.938,2.938,0,0,0-1.854-2.92,1.154,1.154,0,0,0-.982.229,13.305,13.305,0,0,1-6.732,4.5c-3.158.845-10.139,1.372-10.96-3.36a.635.635,0,0,0-.2-.368.593.593,0,0,0-.718-.175,3.148,3.148,0,0,0-2.048,2.923,25.673,25.673,0,0,0,.26,7.1c.7,3.788,18.262,6.846,23.351-.107a.6.6,0,0,0,.011-.759" transform="translate(-150.125 -50.542)" fill="#7380d1"/>
        <path id="Path_6493" data-name="Path 6493" d="M276.159,160.3a27.546,27.546,0,0,1,4.236,4.777c.328.535,1.174.045.844-.493a28.555,28.555,0,0,0-4.388-4.974.489.489,0,0,0-.691.691" transform="translate(-133.618 -77.196)" fill="#3d0a09"/>
        <path id="Path_6494" data-name="Path 6494" d="M309.656,119.743c-2.144,4.739,5.755,5.441,8.481,5.811,5.054.687,10.351.558,14.8-2.216.532-.332.042-1.178-.494-.844-3.477,2.167-7.554,2.661-11.577,2.375-2-.142-12.19-.6-10.367-4.632.257-.569-.585-1.066-.844-.493" transform="translate(-149.726 -57.844)" fill="#3d0a09"/>
        <path id="Path_6495" data-name="Path 6495" d="M312.522,53.111a2.881,2.881,0,0,0-2.837-.923c-.9.189-2.292.917-2.414,1.936-.09.743.516,1.67,1.334,1.511a6.113,6.113,0,0,1,1.794-.118,4.581,4.581,0,0,0,1.392.073,1.487,1.487,0,0,0,.732-2.478" transform="translate(-148.743 -25.23)" fill="#912f2e"/>
        <path id="Path_6496" data-name="Path 6496" d="M333.176,58.434a4.441,4.441,0,0,0-3.117-2.124c-1.121-.126-2.793.408-2.706,1.755.1,1.529,1.949,1.125,2.926,1.681a2.744,2.744,0,0,0,1.974.476c.712-.194,1.384-1.092.922-1.789" transform="translate(-158.468 -27.251)" fill="#912f2e"/>
        <path id="Path_6497" data-name="Path 6497" d="M260.524,120.413c.593-4.358-1.435-7.546-4.793-10.111a.571.571,0,0,0-.333-.127c-1.627-1.121-4.986-2.781-5.386-.3-.039.237.264.639.321.855-1.854-1.026-5.193-1.532-4.456.92a5.2,5.2,0,0,0,2.046,2.731c-1.981-.859-3.208-.821-3.364,1.143a2.3,2.3,0,0,0,.718,1.782c-1.636-.33-1.877,1.157-1.57,3.086.223,1.4,2.147,2.013,2.247,4.175.065,1.407-.4,2.357-1.529,6.875-.559,2.234.1,4.269,1.041,6.343a26.508,26.508,0,0,0,5.641,7.388c.018.019,10.888-3.479,10.908-3.556-1.18-1.536-4.918-7.374-4.889-8.911.338-4.971,2.744-7.5,3.4-12.294" transform="translate(-117.923 -52.565)" fill="#f7946d"/>
        <path id="Path_6498" data-name="Path 6498" d="M357.064,147.948c-.054-.281-5.6-9.619-22.262,9.456-6.6,7.556-11.19,14.158-18.5,20.833a38.23,38.23,0,0,0-6.627,8.528c-3.1,5.114,15.008,14.621,15.809,14.461,6.133-1.227,16.464-4.377,26.217-20.062,5.663-9.106,13.236-23.457,5.36-33.216" transform="translate(-149.741 -70.396)" fill="#7380d1"/>
        <path id="Path_6499" data-name="Path 6499" d="M303.047,190.453c-2.113-4.7,3.519-1.326-.27-4.735-16.182-14.567-29.023-18.061-34.618-19.388a2.878,2.878,0,0,1-1.062-.706c-1.333-1.585-2.782-3.4-4.115-4.981a.98.98,0,0,0-.946-.375,1.267,1.267,0,0,0-.632-.061,12.359,12.359,0,0,0-4.379,1.591,13.882,13.882,0,0,0-4.059,3.63,14.879,14.879,0,0,0-1.591,2.622c-.461.988.313,2.327.737,3.193A13.985,13.985,0,0,0,253.7,173.7c-.982,4.7-1.019,7.719.6,11.073a23.714,23.714,0,0,0,2.592,4.1c.73.964,1.394,1.793,2.033,2.53,2.794,3.292,4.852,4.71,9.169,8,9.489,7.216,28.589,16.06,38.291,5.785.739-.783-1.142-9.851-3.329-14.727" transform="translate(-121.62 -77.548)" fill="#7380d1"/>
        <path id="Path_6500" data-name="Path 6500" d="M284.608,169.839a92.378,92.378,0,0,1,15.722,9.649c4.924,3.769,9.738,7.638,14.892,11.1.524.351,1.013-.495.493-.844-5.153-3.461-9.967-7.332-14.892-11.1A92.517,92.517,0,0,0,285.1,169c-.563-.274-1.059.568-.493.844" transform="translate(-137.656 -81.783)" fill="#3d0a09"/>
        <path id="Path_6501" data-name="Path 6501" d="M345.073,199.338a12.65,12.65,0,0,1,6.6,3.135c.465.42,1.159-.268.69-.691a13.549,13.549,0,0,0-7.034-3.386c-.616-.1-.881.844-.26.943" transform="translate(-166.877 -96.039)" fill="#3d0a09"/>
        <path id="Path_6502" data-name="Path 6502" d="M352.394,153.567a124.02,124.02,0,0,0-11.149,11.523,95.439,95.439,0,0,0-9.649,12.436c-.331.537.514,1.028.844.493a95.078,95.078,0,0,1,9.755-12.534,122.962,122.962,0,0,1,10.89-11.228c.473-.416-.22-1.105-.691-.691" transform="translate(-160.487 -74.279)" fill="#3d0a09"/>
        <path id="Path_6503" data-name="Path 6503" d="M335.633,204.363a93.8,93.8,0,0,1-10.917,13.753c-3.587,3.843-7.338,7.706-11.818,10.516a18.1,18.1,0,0,1-7.387,2.892,23.267,23.267,0,0,1-8.166-.686c-4.906-1.234-9.431-3.99-13.765-6.513a81.1,81.1,0,0,1-14.631-10.8c-.459-.429-1.152.261-.691.691a80.18,80.18,0,0,0,13.349,10.076c4.5,2.714,9.264,5.647,14.331,7.172,4.931,1.483,10.24,1.664,14.945-.595,4.985-2.393,9.125-6.407,12.909-10.355a100.523,100.523,0,0,0,12.684-15.66c.337-.533-.509-1.024-.844-.493" transform="translate(-129.789 -98.82)" fill="#3d0a09"/>
        <path id="Path_6504" data-name="Path 6504" d="M268.642,169.617c-3.723,1.157-7.507,3.464-9.644,6.8-.341.531.505,1.021.844.493,1.995-3.113,5.589-5.271,9.06-6.349.6-.186.343-1.13-.26-.943" transform="translate(-125.341 -82.099)" fill="#3d0a09"/>
        <path id="Path_6505" data-name="Path 6505" d="M248.986,127.694a7.189,7.189,0,0,1,2.531,6.475c-.075.623.9.618.977,0A8.078,8.078,0,0,0,249.677,127c-.477-.4-1.171.283-.691.691" transform="translate(-120.454 -61.422)" fill="#cb5b45"/>
        <path id="Path_6506" data-name="Path 6506" d="M253.794,121.246a8.89,8.89,0,0,1,4.007,8.324c-.058.626.92.622.977,0a9.856,9.856,0,0,0-4.491-9.168c-.529-.343-1.02.5-.493.844" transform="translate(-122.751 -58.247)" fill="#cb5b45"/>
        <path id="Path_6507" data-name="Path 6507" d="M259.21,115.447a19.488,19.488,0,0,1,3.516,3.987,10.866,10.866,0,0,1,.969,5.843c-.039.628.938.626.977,0a12.232,12.232,0,0,0-.886-5.914c-.851-1.793-2.506-3.225-3.886-4.607a.489.489,0,0,0-.691.691" transform="translate(-125.413 -55.483)" fill="#cb5b45"/>
        <path id="Path_6508" data-name="Path 6508" d="M362.476,34.854c-.672-2.584-3.732-3.785-6.485-2.928-3.6,1.122-5.036,4.558-6.506,7.362a.915.915,0,0,0,.069,1,.77.77,0,0,0,.332.891c2.484,1.881,6.076,1.393,8.9.334,3.092-1.162,4.449-3.756,3.695-6.656" transform="translate(-169.127 -15.323)" fill="#912f2e"/>
        <path id="Path_6509" data-name="Path 6509" d="M60.043,90.263a8.785,8.785,0,0,0-10.351-1.6c-.556.294-.063,1.138.493.844a7.786,7.786,0,0,1,9.167,1.451c.44.451,1.131-.24.691-.691" transform="translate(-23.937 -42.43)" fill="#cb5b45"/>
        <path id="Path_6510" data-name="Path 6510" d="M57.26,100.383a7.986,7.986,0,0,0-7.26.728c-.529.337-.039,1.183.493.843A7.051,7.051,0,0,1,57,101.326c.587.228.841-.717.26-.943" transform="translate(-24.095 -48.327)" fill="#cb5b45"/>
        <path id="Path_6511" data-name="Path 6511" d="M56.75,110.687a5.324,5.324,0,0,0-4.8,1.241c-.471.419.222,1.109.691.691a4.286,4.286,0,0,1,3.845-.991c.613.139.874-.8.26-.942" transform="translate(-25.075 -53.516)" fill="#cb5b45"/>
        <path id="Path_6512" data-name="Path 6512" d="M330.413,39.6a12.3,12.3,0,0,0-.76-1.152c-3.2-4.294-9.169-5.817-14.266-5.942-11.523-.281-16.214,10.242-16.1,10.516-.443,1.073.431,3.21,1.129,2.1a15.137,15.137,0,0,1,12.675-6.758.636.636,0,0,1,.614.619,17.549,17.549,0,0,0,2.649,7.8,20.049,20.049,0,0,0,5.622,6.028,20.593,20.593,0,0,0,3.677,2.056c1.542.666,4.1,2.1,5.043-.252,1.894-4.72,2.344-10.514-.283-15.023" transform="translate(-144.825 -15.734)" fill="#912f2e"/>
        <path id="Path_6513" data-name="Path 6513" d="M332.373,87.928c-1.207,2.427-2.495,5.092-4.8,6.673-2.382,1.636-5.517,1.816-8.31,1.928-.627.025-.63,1,0,.977,2.965-.119,6.274-.336,8.8-2.062,2.461-1.68,3.857-4.428,5.148-7.024.279-.561-.564-1.057-.844-.493" transform="translate(-154.327 -42.445)" fill="#cb5b45"/>
        <path id="Path_6514" data-name="Path 6514" d="M330.367,63.9a1.422,1.422,0,0,0-1.429-.274c-1.978.66-1.749,5.052.48,4.141a2.746,2.746,0,0,0,1.325-2.35,1.909,1.909,0,0,0-.377-1.517" transform="translate(-158.584 -30.761)" fill="#2e060a"/>
        <path id="Path_6515" data-name="Path 6515" d="M311.074,60.246a1.3,1.3,0,0,0-1.409-.284c-1.96.737-1.745,5.159.466,4.148a2.5,2.5,0,0,0,1.3-2.22,2.206,2.206,0,0,0-.357-1.644" transform="translate(-149.257 -28.982)" fill="#2e060a"/>
        <path id="Path_6516" data-name="Path 6516" d="M316.3,65.053a2.568,2.568,0,0,0-1.752,1.978,3.133,3.133,0,0,0,1.354,2.621c.474.409,1.169-.28.691-.691a2.83,2.83,0,0,1-1.048-1.394A1.421,1.421,0,0,1,316.559,66c.572-.238.32-1.184-.26-.943" transform="translate(-152.264 -31.473)" fill="#cb5b45"/>
        <path id="Path_6517" data-name="Path 6517" d="M320.594,71.624a.648.648,0,0,1,.56.214c.441.45,1.132-.241.691-.691a1.669,1.669,0,0,0-1.512-.466.493.493,0,0,0-.341.6.5.5,0,0,0,.6.341" transform="translate(-154.899 -34.204)" fill="#cb5b45"/>
        <path id="Path_6518" data-name="Path 6518" d="M318.834,77.165c-2.023-.314-6.235-1.3-6.3-1.176a.313.313,0,0,0-.217.251,1.728,1.728,0,0,0,.781,1.989c1.772,1.173,5.343,1.381,6-.693a.308.308,0,0,0-.264-.371" transform="translate(-151.174 -36.781)" fill="#fff"/>
        <path id="Path_6519" data-name="Path 6519" d="M354.74,40.816a6.011,6.011,0,0,1,2.788,4.8c.033.626,1.01.629.977,0a7.045,7.045,0,0,0-3.272-5.641c-.531-.341-1.021.5-.493.844" transform="translate(-171.618 -19.312)" fill="#3d0a09"/>
        <path id="Path_6520" data-name="Path 6520" d="M345.359,43.463c3.561,4.17,3.048,9.888,2.262,14.931-.1.615.845.88.942.26.848-5.436,1.305-11.41-2.513-15.882-.409-.479-1.1.215-.691.691" transform="translate(-167.126 -20.628)" fill="#3d0a09"/>
        <path id="Path_6521" data-name="Path 6521" d="M356.076,57.186c.488,1.688-.1,3.3-.751,4.855-.24.58.7.834.943.26a8.02,8.02,0,0,0,.751-5.375.489.489,0,0,0-.943.26" transform="translate(-171.992 -27.391)" fill="#3d0a09"/>
        <path id="Path_6522" data-name="Path 6522" d="M348.722,70.735c-3.066-3.732-7.878,4.413-6.427,7.27,1.239,2.438,3.983.141,5.163-1.191,1.274-1.438,2.72-4.3,1.263-6.078" transform="translate(-165.574 -33.778)" fill="#f7946d"/>
        <path id="Path_6523" data-name="Path 6523" d="M349.546,72.981a4.9,4.9,0,0,0-2.727,3.294.489.489,0,0,0,.943.26,3.981,3.981,0,0,1,2.277-2.71c.572-.259.076-1.1-.493-.844" transform="translate(-167.886 -35.306)" fill="#cb5b45"/>
        <path id="Path_6524" data-name="Path 6524" d="M349.233,264.966c-4.9,5.522-11.822,8.763-18.864,10.6a66.344,66.344,0,0,1-23.412,1.646,57.936,57.936,0,0,1-12.5-2.647c-.6-.2-.854.743-.26.942a63.754,63.754,0,0,0,23.294,2.96,56.654,56.654,0,0,0,22.822-5.565,32.225,32.225,0,0,0,9.611-7.244c.416-.469-.272-1.162-.691-.691" transform="translate(-142.256 -128.193)" fill="#3d0a09"/>
        <path id="Path_6527" data-name="Path 6527" d="M381.948,165.835a2.389,2.389,0,0,0-3.724-.7,3.046,3.046,0,0,0-.416.477,3.358,3.358,0,0,0-.734,1.139,5.3,5.3,0,0,0-.272,3.191A2.786,2.786,0,0,0,379.638,172c3.115-.176,3.483-3.955,2.31-6.163" transform="translate(-182.341 -79.645)" fill="#fff"/>
        <path id="Path_6528" data-name="Path 6528" d="M321.586,152.021c-.1.166-.047.106,0,0" transform="translate(-155.651 -73.593)" fill="#fff"/>
        <path id="Path_6529" data-name="Path 6529" d="M322.889,149.043c-1.832-.052-2.884,1.991-2.7,3.617.224,2.008,2.329,3.855,4.224,2.392a3.163,3.163,0,0,0,1.106-2.434c.134-1.678-.724-3.52-2.627-3.574" transform="translate(-154.991 -72.151)" fill="#fff"/>
        <path id="Path_6530" data-name="Path 6530" d="M291.792,118.564c-.006.012-.012.031-.019.043-.823,1.886-3.046,2.819-4.729,1.37a3.656,3.656,0,0,1-.878-3.974c.031-.1.061-.209.1-.313.97.1,1.886.228,2.733.368.995.025,2,.068,2.991.11a3.844,3.844,0,0,1-.2,2.4" transform="translate(-138.425 -56.005)" fill="#fff"/>
        <path id="Path_6531" data-name="Path 6531" d="M216.182,159.316a3.618,3.618,0,0,0-2.409-.012,2.209,2.209,0,0,0-1.335,2.411c.242,1.3,1.62,2.308,2.834,2.834.094.042.189.079.286.113.055.021.113.048.168.067a1.941,1.941,0,0,0,.793.092,2.4,2.4,0,0,0,.4-.039,2.494,2.494,0,0,0,1.958-1.818c.4-1.695-1.182-3.2-2.7-3.648" transform="translate(-102.823 -77.02)" fill="#fff"/>
        <path id="Path_6532" data-name="Path 6532" d="M311.766,218.227a6.053,6.053,0,0,0-1.444-2.981,3.877,3.877,0,0,0-3.317-1.6c-1.833.329-2.2,2.212-1.578,3.714a5.415,5.415,0,0,0,2.362,2.654,1.864,1.864,0,0,0,.686.224,4.035,4.035,0,0,0,1.513.319,1.872,1.872,0,0,0,1.777-2.332" transform="translate(-147.719 -103.409)" fill="#fff"/>
        <path id="Path_6533" data-name="Path 6533" d="M283.134,176.755a2.191,2.191,0,0,0-2.779,1.992,1.873,1.873,0,0,0-.079,1.945,4.41,4.41,0,0,0,4.037,2.295,1.874,1.874,0,0,0,1.842-1.843c-.036-1.794-1.155-3.92-3.022-4.389" transform="translate(-135.567 -85.531)" fill="#fff"/>
        <path id="Path_6534" data-name="Path 6534" d="M263.671,212.047a2.243,2.243,0,0,1-1.886,2.075c-.638-.737-1.3-1.566-2.033-2.53a23.709,23.709,0,0,1-2.591-4.1,2.635,2.635,0,0,1,.614-.252c1.806-.5,3.82.78,4.876,2.155a4.284,4.284,0,0,1,1.019,2.647" transform="translate(-124.49 -100.272)" fill="#fff"/>
        <path id="Path_6535" data-name="Path 6535" d="M259.374,165.547a2.693,2.693,0,0,1-2.991,2.733,2.212,2.212,0,0,1-1.793-1.345,13.887,13.887,0,0,1,4.059-3.629,4.038,4.038,0,0,1,.725,2.242" transform="translate(-123.246 -79.055)" fill="#fff"/>
        <path id="Path_6536" data-name="Path 6536" d="M359.763,225.245a4.593,4.593,0,0,0-3.315.866,2.219,2.219,0,0,0-.3.244,5.231,5.231,0,0,0-1.586,2.326,1.863,1.863,0,0,0,1.777,2.332,5.387,5.387,0,0,0,4.961-2.59,2.179,2.179,0,0,0-1.541-3.178" transform="translate(-171.598 -109.01)" fill="#fff"/>
        <path id="Path_6537" data-name="Path 6537" d="M380.131,253.058a7.536,7.536,0,0,0-3.478,3.629,2.133,2.133,0,0,0-.027,1.785,1.866,1.866,0,0,0,2.751,1.339,8.074,8.074,0,0,0,3.461-4.672,1.865,1.865,0,0,0-2.706-2.081" transform="translate(-182.234 -122.402)" fill="#fff"/>
        <path id="Path_6538" data-name="Path 6538" d="M317.942,261.7a3.794,3.794,0,0,0-2.286-1.808,2.356,2.356,0,0,0-2.841,1.662c-.593,2.407,1.984,7.6,4.97,5.5,1.743-1.227,1.068-3.842.157-5.356" transform="translate(-151.391 -125.785)" fill="#fff"/>
        <path id="Path_6539" data-name="Path 6539" d="M409.742,193.005c-3.009,1.615-3.709,10.035.448,8.659.012-.006.025-.006.037-.012-.1-2.905-.276-5.841-.485-8.647" transform="translate(-197.161 -93.433)" fill="#fff"/>
        <path id="Path_6540" data-name="Path 6540" d="M372.652,128.62a5.237,5.237,0,0,1-.706.436c-1.762.909-4.772,1.474-5.712-.878-.018-.055-.03-.11-.049-.166a1.7,1.7,0,0,1-.184-.246,2.142,2.142,0,0,1,.5-2.708c2.051,1.124,4.145,2.346,6.154,3.562" transform="translate(-177.039 -60.54)" fill="#fff"/>
        <path id="Path_6541" data-name="Path 6541" d="M500.479,109.321c1.919,1.072.432,4.605.058,6.24l-1.369,5.994c-.14.612.8.874.942.26q.983-4.3,1.965-8.6c.387-1.709.692-3.735-1.1-4.738-.549-.306-1.043.537-.493.844" transform="translate(-241.638 -52.481)" fill="#931f33"/>
      </g>
    </g>
  </g>
</svg>
