<svg xmlns="http://www.w3.org/2000/svg" width="768" height="163.933" viewBox="0 0 768 163.933">
  <g id="Group_5132" data-name="Group 5132" transform="translate(-256 -222.359)">
    <rect id="Rectangle_2503" data-name="Rectangle 2503" width="768" height="135" rx="10" transform="translate(256 249)" fill="#a2baf1" opacity="0.2"/>
    <g id="Group_2974" data-name="Group 2974" transform="translate(405 222.359)">
      <g id="Group_2965" data-name="Group 2965" transform="translate(91)">
        <path id="Path_6714" data-name="Path 6714" d="M.312,211.876c-.982,1.245.517,5.182,2.225,5.186l186.238,1.488a33.677,33.677,0,0,0,7.084-1.108c13.338-2.584,25.948-4.6,30.922-5.82a3.282,3.282,0,0,0,2.383-2.322c6.264-22.791,20.029-86.719,23.436-101.249q.229-.977.458-1.955c.88-3.865-1.129-5.9-2.788-7.2a5.27,5.27,0,0,0-3.079-1.11L79.429,204.544Z" transform="translate(0 -54.616)" fill="#560c1b"/>
        <path id="Path_6715" data-name="Path 6715" d="M309.523,101q-2.852,13.128-5.71,26.256c-5.2,23.9-11.2,47.776-16.991,71.627-.126.5-.251,1.009-.371,1.513-.358,1.464-.7,2.928-1.051,4.4a.927.927,0,0,1-.911.721l-177.037-.39,1.68-7.238,22.613-97.278a4.184,4.184,0,0,1,3.976-3l171.229.377A2.42,2.42,0,0,1,309.523,101" transform="translate(-60.014 -54.518)" fill="#fff"/>
        <path id="Path_6716" data-name="Path 6716" d="M286.987,325.848c-.1.464-.2.927-.3,1.391-.29,1.344-.568,2.689-.845,4.04a.858.858,0,0,1-.876.662l-176.618-.389,1.342-6.649Z" transform="translate(-60.515 -181.465)" fill="#d6b9b0"/>
        <path id="Path_6717" data-name="Path 6717" d="M284.12,205.458l-177.332-.391,1.746-7.522,22.613-97.279a4.435,4.435,0,0,1,4.195-3.181l171.238.377a2.948,2.948,0,0,1,2.346,1.04,2.607,2.607,0,0,1,.453,2.259q-1.437,6.615-2.878,13.23l-2.833,13.025c-4.125,18.954-8.831,38.206-13.382,56.824q-1.811,7.406-3.61,14.809c-.126.505-.252,1.008-.371,1.512-.358,1.464-.7,2.928-1.05,4.4a1.166,1.166,0,0,1-1.135.9M107.373,204.6l176.746.39a.7.7,0,0,0,.684-.539c.347-1.474.693-2.938,1.052-4.4.119-.5.245-1.009.371-1.514q1.8-7.4,3.611-14.808c4.55-18.615,9.256-37.863,13.379-56.812l2.833-13.025q1.44-6.616,2.878-13.231a2.154,2.154,0,0,0-.364-1.871,2.456,2.456,0,0,0-1.983-.863L135.35,97.55a3.951,3.951,0,0,0-3.75,2.821Z" transform="translate(-59.643 -54.224)" fill="#560c1b"/>
        <path id="Path_6718" data-name="Path 6718" d="M334.177,112.568l2.965-12.656-1.257-1.481-1.608-.447-171.227-.377-1.54.315-1.751,1.31-1.112,3.2-2.263,9.739Z" transform="translate(-87.343 -54.515)" fill="#560c1b"/>
        <path id="Path_6719" data-name="Path 6719" d="M283.961,205.408l-177.04-.39a.419.419,0,0,1-.407-.513l1.68-7.238,22.613-97.279a4.631,4.631,0,0,1,4.376-3.325l171.238.377a3.135,3.135,0,0,1,2.492,1.111,2.789,2.789,0,0,1,.488,2.417q-1.437,6.614-2.877,13.227l-2.832,13.025c-4.126,18.956-8.832,38.21-13.383,56.828q-1.811,7.406-3.611,14.808c-.126.506-.251,1.008-.37,1.512-.359,1.465-.7,2.928-1.05,4.4a1.353,1.353,0,0,1-1.317,1.044m-176.513-1.226,176.512.389a.512.512,0,0,0,.5-.393c.348-1.476.694-2.942,1.052-4.406.12-.5.246-1.009.372-1.515q1.8-7.4,3.61-14.807c4.55-18.614,9.255-37.862,13.378-56.808l2.833-13.025q1.439-6.616,2.877-13.231a1.977,1.977,0,0,0-.328-1.716,2.274,2.274,0,0,0-1.838-.793L135.191,97.5a3.756,3.756,0,0,0-3.568,2.677Z" transform="translate(-59.484 -53.988)" fill="#560c1b"/>
        <path id="Path_6720" data-name="Path 6720" d="M495.523,330.355a1.131,1.131,0,0,0,0,2.262,1.131,1.131,0,0,0,0-2.262" transform="translate(-276.13 -184.51)" fill="#fff"/>
        <path id="Path_6721" data-name="Path 6721" d="M487.022,330.336a1.131,1.131,0,0,0,0,2.262,1.131,1.131,0,0,0,0-2.262" transform="translate(-271.382 -184.5)" fill="#fff"/>
        <path id="Path_6722" data-name="Path 6722" d="M314.766,148.346c-.814,6.8-13.411,65.524-13.443,65.742,0,.006-.541,3.542-.543,3.547-.61,2.132-1.129,2.157-2.274,2.129l-140.856-.787a1.485,1.485,0,0,1-1.327-1.744l.188-1.371,13.869-68.491a1.494,1.494,0,0,1,1.417-1.291l141.906.944a1.118,1.118,0,0,1,1.062,1.321" transform="translate(-87.302 -81.589)" fill="#f0e3df"/>
        <path id="Path_6723" data-name="Path 6723" d="M478.626,330.318a1.131,1.131,0,0,0-.005,2.262,1.131,1.131,0,0,0,.005-2.262" transform="translate(-266.692 -184.49)" fill="#fff"/>
        <path id="Path_6726" data-name="Path 6726" d="M47.6,340.477l-46.4,6.4c-.391.109-.766.71-.766.71L187.7,348.726a6.333,6.333,0,0,0,2.938-.716l34.831-6.94Z" transform="translate(-0.246 -190.164)" fill="#560c1b"/>
        <path id="Path_6728" data-name="Path 6728" d="M227.758,344.46c-7.178,1.788-14.422,3.285-21.674,4.733-3.558.71-7.118,1.41-10.674,2.131-3.413.691-7.121.3-10.6.292q-21.553-.074-43.106-.247c-29.075-.219-58.149-.515-87.225-.727q-24.14-.176-48.281-.245a.418.418,0,0,0,0,.836c28.976.065,57.95.309,86.925.563,29.094.255,58.189.524,87.284.641q5.932.024,11.864.038a25.353,25.353,0,0,0,5.141-.7q3.113-.625,6.227-1.241c8.143-1.618,16.284-3.257,24.343-5.264a.418.418,0,0,0-.223-.806" transform="translate(-3.236 -192.38)" fill="#931f33"/>
        <rect id="Rectangle_1791" data-name="Rectangle 1791" width="253.271" height="163.933" fill="none"/>
      </g>
      <path id="Path_6724" data-name="Path 6724" d="M544.652,93.185a2.122,2.122,0,0,0-.009,4.244,2.122,2.122,0,0,0,.009-4.244" transform="translate(-252.191 -52.046)" fill="#fff"/>
      <path id="Path_6725" data-name="Path 6725" d="M528.9,93.15a2.122,2.122,0,0,0-.009,4.244,2.122,2.122,0,0,0,.009-4.244" transform="translate(-243.39 -52.026)" fill="#fff"/>
      <path id="Path_6727" data-name="Path 6727" d="M560.062,101.525c1.241,1.6.08,4.27-.356,5.984l-1.4,5.508a.419.419,0,0,0,.807.222l1.8-7.082c.448-1.764.954-3.66-.259-5.224-.329-.425-.917.171-.591.591" transform="translate(-260.992 -56.292)" fill="#931f33"/>
      <path id="Path_6735" data-name="Path 6735" d="M391.6,148l-92.662-2.371a4.673,4.673,0,0,1-4.556-5.7l21.186-92.523a4.557,4.557,0,0,1,4.454-3.535H410.21a4.673,4.673,0,0,1,4.556,5.7l-18.715,94.895A4.557,4.557,0,0,1,391.6,148" transform="translate(-113.525 -24.506)" fill="#fff"/>
      <path id="Path_6736" data-name="Path 6736" d="M391.009,147.879l-92.674-2.371a5.137,5.137,0,0,1-5-6.265L314.524,46.72a5.007,5.007,0,0,1,4.907-3.9h90.192a5.138,5.138,0,0,1,5.009,6.265l-18.712,94.88a5.011,5.011,0,0,1-4.91,3.91M319.431,43.753a4.082,4.082,0,0,0-4,3.175l-21.186,92.522a4.209,4.209,0,0,0,4.1,5.128l92.669,2.371a4.08,4.08,0,0,0,3.995-3.174l18.712-94.881a4.208,4.208,0,0,0-4.1-5.141Z" transform="translate(-112.937 -23.918)" fill="#edd0ca"/>
      <path id="Path_6737" data-name="Path 6737" d="M347.338,161.717H423.09a.418.418,0,0,0,0-.836H347.338a.418.418,0,0,0,0,.836" transform="translate(-142.945 -89.855)" fill="#3d0a09"/>
      <path id="Path_6738" data-name="Path 6738" d="M343.676,175.435h75.752a.418.418,0,0,0,0-.836H343.676a.418.418,0,0,0,0,.836" transform="translate(-140.899 -97.517)" fill="#3d0a09"/>
      <path id="Path_6739" data-name="Path 6739" d="M339.87,189.152h75.752a.418.418,0,0,0,0-.836H339.87a.418.418,0,0,0,0,.836" transform="translate(-138.774 -105.178)" fill="#3d0a09"/>
      <path id="Path_6740" data-name="Path 6740" d="M337.259,201.337h75.752a.418.418,0,0,0,0-.836H337.259a.418.418,0,0,0,0,.836" transform="translate(-137.315 -111.984)" fill="#3d0a09"/>
      <path id="Path_6741" data-name="Path 6741" d="M334.648,213.522H410.4a.418.418,0,0,0,0-.836H334.648a.418.418,0,0,0,0,.836" transform="translate(-135.857 -118.79)" fill="#3d0a09"/>
      <path id="Path_6742" data-name="Path 6742" d="M429.3,75.217c16.23,0,32.46.063,48.689.063a.418.418,0,0,0,0-.836c-16.23,0-32.46-.063-48.689-.063a.418.418,0,0,0,0,.836" transform="translate(-188.72 -41.543)" fill="#3d0a09"/>
      <path id="Path_6743" data-name="Path 6743" d="M425.516,88.919c16.23,0,32.459.063,48.689.063a.418.418,0,0,0,0-.836c-16.23,0-32.46-.063-48.689-.063a.418.418,0,0,0,0,.836" transform="translate(-186.609 -49.196)" fill="#3d0a09"/>
      <path id="Path_6744" data-name="Path 6744" d="M431.2,244.533c9.706,0,19.413.063,29.119.063a.418.418,0,0,0,0-.836c-9.706,0-19.413-.063-29.119-.063a.418.418,0,0,0,0,.836" transform="translate(-189.781 -136.11)" fill="#3d0a09"/>
      <path id="Path_6745" data-name="Path 6745" d="M423.053,102.909c16.23,0,32.46.063,48.689.063a.418.418,0,0,0,0-.836c-16.23,0-32.46-.063-48.689-.063a.418.418,0,0,0,0,.836" transform="translate(-185.233 -57.01)" fill="#3d0a09"/>
      <path id="Path_6746" data-name="Path 6746" d="M420.61,118.029h47.582a.418.418,0,0,0,0-.836H420.61a.418.418,0,0,0,0,.836" transform="translate(-183.869 -65.455)" fill="#3d0a09"/>
      <path id="Path_6747" data-name="Path 6747" d="M353.464,132.429h75.752a.418.418,0,0,0,0-.836H353.464a.418.418,0,0,0,0,.836" transform="translate(-146.366 -73.498)" fill="#3d0a09"/>
      <path id="Path_6748" data-name="Path 6748" d="M349.531,147.266h75.752a.418.418,0,0,0,0-.836H349.531a.418.418,0,0,0,0,.836" transform="translate(-144.169 -81.784)" fill="#3d0a09"/>
      <path id="Path_6749" data-name="Path 6749" d="M384.448,70.369h-19.41a1.27,1.27,0,0,0-1.23.986l-4.415,19.37a1.189,1.189,0,0,0,1.161,1.466h19.41a1.27,1.27,0,0,0,1.23-.986l4.415-19.37a1.189,1.189,0,0,0-1.162-1.466" transform="translate(-149.886 -39.303)" fill="#f0e3df"/>
      <path id="Path_6750" data-name="Path 6750" d="M434.384,234.312a46,46,0,0,1,8.017-8.219,4.66,4.66,0,0,1,2.559-1.25,1.323,1.323,0,0,1,1.48.774,1.953,1.953,0,0,1-.179,1.929c-.754,1.59-2.405,3.469-4.323,3.43-.808-.016-.928-.5-.5-1.04a4.208,4.208,0,0,1,1.258-.837,6.384,6.384,0,0,1,2.832-.818q1.048-.217,1.271,1.26l-.392.513a3.278,3.278,0,0,0-.622.981.8.8,0,0,0,.09.825c.569.649,2.389.055,3.059-.13a10.121,10.121,0,0,0,3.993-2.165l-.582-.339c-.347,1.62,1.662,1.722,2.775,1.626a11.5,11.5,0,0,0,5.424-1.9c.371-.248.023-.852-.351-.6a10.751,10.751,0,0,1-3.223,1.475c-.476.127-4.243.939-3.952-.417a.351.351,0,0,0-.582-.339,9.19,9.19,0,0,1-2.793,1.692c-.481.184-2.927.991-3.082.473-.134-.451.992-1.414,1.112-1.984a1.334,1.334,0,0,0-.323-1.267c-1-.994-3.36-.221-4.429.239-.837.359-2.85,1.306-2.727,2.464.138,1.305,2.3,1.033,3.109.732a6.906,6.906,0,0,0,3.4-3.21c.553-1.022,1.125-2.522.13-3.467a3.076,3.076,0,0,0-3.343-.211c-1.946.926-3.667,2.779-5.182,4.267a47.678,47.678,0,0,0-4.525,5.16c-.271.357.333.7.6.352" transform="translate(-191.413 -125.189)" fill="#3d0a09"/>
      <path id="Path_6751" data-name="Path 6751" d="M304.461,104.726l-7.94-13.332a1.917,1.917,0,0,0-.3-.437L222.176,8.534c2.345-.357,4.772,2.342,6.143,3.961C230.281,14.81,242.9,28.636,247.5,32.979c1.712,1.615,4.3-.967,2.587-2.588C244.068,24.711,238.916,19.1,233,12.407c-3.34-3.777-8.233-9.653-13.445-6.793L215.029.579c-.306-.594-1.553-.627-1.956-.546a8.712,8.712,0,0,0-4.584,3c-.965,1.138-2.213,2.9-.96,4.292l81.089,90.259a1.906,1.906,0,0,0,.667.477l14.236,7.657a.729.729,0,0,0,.941-.991" transform="translate(-64.789 0)" fill="#b7c5c8"/>
      <path id="Path_6790" data-name="Path 6790" d="M235.8,14.2l1.416,1.46c.375.387.966-.2.591-.591l-1.416-1.46c-.375-.387-.966.2-.591.591" transform="translate(-80.807 -7.531)" fill="#3d0a09"/>
      <path id="Path_6791" data-name="Path 6791" d="M215.034,1.519c.186,1.233-1.343,2.606-2.225,3.231A7.277,7.277,0,0,1,209.8,5.968c-.529.092-.305.9.222.807A7.961,7.961,0,0,0,214.069,4.8c.965-.886,1.98-2.124,1.772-3.5-.08-.53-.886-.3-.806.223" transform="translate(-66.186 -0.555)" fill="#3d0a09"/>
      <path id="Path_6792" data-name="Path 6792" d="M399.353,204.793c.566,2.353-2.077,4.95-4.33,5.159-.531.049-.536.886,0,.837,2.818-.261,5.846-3.27,5.136-6.218-.126-.523-.933-.3-.807.223" transform="translate(-169.58 -114.09)" fill="#3d0a09"/>
    </g>
  </g>
</svg>
