<svg id="Group_2975" data-name="Group 2975" xmlns="http://www.w3.org/2000/svg" xmlns:xlink="http://www.w3.org/1999/xlink" width="165.363" height="139.571" viewBox="0 0 165.363 139.571">
  <defs>
    <clipPath id="clip-path">
      <rect id="Rectangle_1795" data-name="Rectangle 1795" width="165.363" height="139.571" fill="none"/>
    </clipPath>
  </defs>
  <g id="Group_2971" data-name="Group 2971" clip-path="url(#clip-path)">
    <path id="Path_7015" data-name="Path 7015" d="M96.005,113.574H3.3a2.239,2.239,0,0,1-2.239-2.239V3.3A2.239,2.239,0,0,1,3.3,1.062h92.7A2.239,2.239,0,0,1,98.244,3.3V111.336a2.239,2.239,0,0,1-2.239,2.239" transform="translate(-0.805 -0.804)" fill="#fcefe1"/>
    <path id="Path_7016" data-name="Path 7016" d="M94.857,113.029H2.84A2.844,2.844,0,0,1,0,110.188V2.84A2.844,2.844,0,0,1,2.84,0H94.857A2.844,2.844,0,0,1,97.7,2.84V110.188a2.844,2.844,0,0,1-2.84,2.84M2.84.516A2.327,2.327,0,0,0,.516,2.84V110.188a2.327,2.327,0,0,0,2.324,2.324H94.857a2.327,2.327,0,0,0,2.324-2.324V2.84A2.327,2.327,0,0,0,94.857.516Z" fill="#fcefe1"/>
    <path id="Path_7017" data-name="Path 7017" d="M400.011,111.021a114.852,114.852,0,0,1-7.542-15.289c-2.173-5.388-3.622-10.986-5.542-16.458-1.029-2.932-3.109-6.474-6.472-7.019l-8.408-7.777v8.693c-2.467.745-4.874,1.748-7.068,2.593-2.827,1.088-2.281,3.179-1.932,3.792a2.975,2.975,0,0,0,2.011,1.409,8.783,8.783,0,0,0,3.055-.077c.434-.061,3.5-.585,3.934-.646v11.8s1.918,6.25,3.078,9.958c1.4,4.469,2.959,8.89,4.748,13.219A116.951,116.951,0,0,0,385.6,127.2a94.285,94.285,0,0,0,6.91,10.753c1.5,2.006,3.093,3.937,4.767,5.8q2-3.9,3.922-7.839c1.916-3.95,3.708-7.959,5.649-11.9.324-.656.656-1.309.986-1.962a76.618,76.618,0,0,1-7.827-11.035" transform="translate(-274.607 -48.81)" fill="#a25744"/>
    <path id="Path_7018" data-name="Path 7018" d="M401.159,96.271a21.256,21.256,0,0,1,7.83-.634c.329.04.326-.477,0-.516a21.654,21.654,0,0,0-7.967.653.258.258,0,0,0,.137.5" transform="translate(-303.433 -71.909)" fill="#2a2d3d"/>
    <path id="Path_7019" data-name="Path 7019" d="M573.367,130.066s-8.7.74-6.97,8.223,10.708-4.051,10.61-4.281-3.64-3.943-3.64-3.943" transform="translate(-428.588 -98.459)" fill="#2a2d3d"/>
    <path id="Path_7020" data-name="Path 7020" d="M402.838,129.448a10.056,10.056,0,0,0,5.255,7.916,9.285,9.285,0,0,0,2.642.941c.325.062.464-.436.137-.5a9.535,9.535,0,0,1-6.9-5.762,8.811,8.811,0,0,1-.616-2.6c-.026-.329-.542-.332-.516,0" transform="translate(-304.946 -97.804)" fill="#2a2d3d"/>
    <path id="Path_7021" data-name="Path 7021" d="M592.123,217.69l1.582,12.733s-10.447,3.347-13.688-.993l-.622-6.788Z" transform="translate(-438.599 -164.79)" fill="#a25744"/>
    <path id="Path_7022" data-name="Path 7022" d="M576.4,253.058s9.1-2.72,14.449-2.5c.857.036,1.565,2.167,2.241,4.491.558,1.921-16.69-1.994-16.69-1.994" transform="translate(-436.333 -189.663)" fill="#fcb05d"/>
    <path id="Path_7023" data-name="Path 7023" d="M577.479,137.01a14.064,14.064,0,0,1-.444,2.768c-1.374,5.407-3.641,7.3-8.263,10.427-3.837,2.6-6.626,5.929-14.342,5.593-4.963-.222-4.974-3.718-4.323-6.946.114-.558.248-1.111.377-1.637.057-.233.113-.46.175-.672.7-2.618,1.327-3.8,2.371-6.889.579-1.715.919-4.354,2.267-6.631a11.384,11.384,0,0,1,8.521-5.779c5.505-.646,12.7,1.911,13.593,8.16a8.33,8.33,0,0,1,.067,1.606" transform="translate(-416.203 -96.25)" fill="#a25744"/>
    <path id="Path_7024" data-name="Path 7024" d="M551.589,206.969c-.062.212-.119.439-.175.671-.129.527-.263,1.079-.377,1.637a4.782,4.782,0,0,0,4-1.116c-.981-.315-2.221-.744-3.445-1.193" transform="translate(-417.132 -156.675)" fill="#fff"/>
    <path id="Path_7025" data-name="Path 7025" d="M567.252,163.632c-.448,1.287,1.1,1.237,2.1,2.488.923,1.15,1.788,1.626,2.262,1.04.573-.708.128-2.365-1.529-3.591-1.551-1.148-2.509-.876-2.836.063" transform="translate(-429.347 -123.248)" fill="#2a2d3d"/>
    <path id="Path_7026" data-name="Path 7026" d="M598.572,133.674c-1.4-7.218-11.012-9.136-16.9-6.71a9.967,9.967,0,0,0-4.532,3.513,12.97,12.97,0,0,0,6.1,9.439c-.175.807-.371,1.613-.5,2.429a5.966,5.966,0,0,0,1.065,4.982,7.506,7.506,0,0,0,4.135,1.8,6.236,6.236,0,0,0,1.515.187,2.1,2.1,0,0,0,1.4-.539l.018-.052c.725.238,1.386.45,1.693.578a26.174,26.174,0,0,0,5.841-11.241,14.37,14.37,0,0,0,.311-2.783,8.4,8.4,0,0,0-.147-1.6" transform="translate(-436.89 -95.357)" fill="#2a2d3d"/>
    <path id="Path_7027" data-name="Path 7027" d="M594.387,130.507A11.337,11.337,0,0,0,599.506,134a15.557,15.557,0,0,0,6.838.843,13.722,13.722,0,0,0,3.793-.928c.3-.124.171-.624-.137-.5a14.47,14.47,0,0,1-12.777-1.087,9.566,9.566,0,0,1-2.47-2.187c-.205-.261-.568.106-.365.365" transform="translate(-449.903 -98.449)" fill="#8588ab"/>
    <path id="Path_7028" data-name="Path 7028" d="M583.1,137.789a15.484,15.484,0,0,0,5.915,7.46,12.594,12.594,0,0,0,9.034,1.8,13.353,13.353,0,0,0,5.028-1.876c.28-.177.021-.625-.261-.446a13.262,13.262,0,0,1-8.889,1.861,11.058,11.058,0,0,1-4.182-1.485,14.867,14.867,0,0,1-3.527-3.048,14.192,14.192,0,0,1-2.622-4.4c-.111-.311-.61-.177-.5.137" transform="translate(-441.393 -104.068)" fill="#8588ab"/>
    <path id="Path_7029" data-name="Path 7029" d="M617.816,192.051a11.108,11.108,0,0,0-.69-1.872,24.327,24.327,0,0,0-1.6-2.985c-.182-.285-1.829-2.938-2.041-2.863L599.1,189.452a15.256,15.256,0,0,0,.366,7.791,3.5,3.5,0,0,0,3.653,2.024,5.252,5.252,0,0,0,3.192-2.461,7.754,7.754,0,0,0,1.648,2.718,3.236,3.236,0,0,0,2.917.949,3.962,3.962,0,0,0,2.08-1.575,9.818,9.818,0,0,0,1.657-3.343,2.616,2.616,0,0,0,2.583-.373,3.065,3.065,0,0,0,.614-3.132" transform="translate(-453.273 -139.537)" fill="#2a2d3d"/>
    <path id="Path_7030" data-name="Path 7030" d="M602.305,184.414a17.553,17.553,0,0,0,11.027,1.4,13.777,13.777,0,0,0,3.134-1.073c.3-.143.038-.588-.261-.446a16.186,16.186,0,0,1-13.639-.331c-.3-.143-.561.3-.261.446" transform="translate(-455.842 -139.242)" fill="#8588ab"/>
    <path id="Path_7031" data-name="Path 7031" d="M607.924,198.931a26.614,26.614,0,0,1,4.888,8.781c.1.314.6.18.5-.137a27.281,27.281,0,0,0-5.02-9.009c-.214-.255-.578.112-.365.365" transform="translate(-460.147 -150.248)" fill="#8588ab"/>
    <path id="Path_7032" data-name="Path 7032" d="M602.027,189.9a24.965,24.965,0,0,1,12.175,6.454,16.566,16.566,0,0,1,2.4,3.147.259.259,0,0,0,.446-.261c-2.442-4.165-6.6-6.966-11.038-8.655a31.9,31.9,0,0,0-3.843-1.183c-.323-.078-.461.42-.137.5" transform="translate(-455.592 -143.367)" fill="#8588ab"/>
    <path id="Path_7033" data-name="Path 7033" d="M584.18,186.2a3.465,3.465,0,1,0,3.571-3.355,3.465,3.465,0,0,0-3.571,3.355" transform="translate(-442.22 -138.409)" fill="#a25744"/>
    <path id="Path_7034" data-name="Path 7034" d="M549.776,181.317a8.571,8.571,0,0,1-2.613-.61c-.718-.367-.913-.912-.745-1.4.26-.75,3.024-3.355,4.439-4.9,0,0,1.778,6.214-1.081,6.9" transform="translate(-413.593 -132.03)" fill="#a25744"/>
    <path id="Path_7035" data-name="Path 7035" d="M599.951,191.886a2.179,2.179,0,0,0-.418-3.934c-.313-.113-.448.386-.137.5a1.66,1.66,0,0,1,.294,2.99c-.282.174-.023.621.261.446" transform="translate(-453.606 -142.266)" fill="#2a2d3d"/>
    <path id="Path_7036" data-name="Path 7036" d="M566.284,178.319c-1.019-.348-1.4,1.159-1.421,1.811-.015.424.075.961.538,1.112.676.22,1.038-.677,1.184-1.173.162-.554.367-1.522-.3-1.75" transform="translate(-427.597 -134.947)" fill="#2a2d3d"/>
    <path id="Path_7037" data-name="Path 7037" d="M449.612,496.275c-.378-.061.083.7,0,0" transform="translate(-340.24 -375.675)" fill="#ffc7a8"/>
    <path id="Path_7038" data-name="Path 7038" d="M495.482,260.348c-8.119-4.593-20.538-2.541-26.909,4.013a31.6,31.6,0,0,0-4.243,5.558l-.005,0-.062.108q-.608,1-1.166,2.039l-10.971,19.183,2.883,1.622c-2.089,5.807-7.274,20.278-6.986,21.131a10.251,10.251,0,0,1,.492,1.807c.21.034.678.321,1.643,1.252,1.976,1.906,4.044,3.715,6.01,5.63.974.949,2.516,5.86,2.744,5.966,4.221,1.974,15.993,2.258,19.7,1.885a26.765,26.765,0,0,0,9.985-3.024,13.673,13.673,0,0,0,5.068-5.807c4.958-10.417,9.422-25.013,10.622-35.948.9-8.16-.7-20.831-8.8-25.412" transform="translate(-339.142 -195.207)" fill="#fcb05d"/>
    <path id="Path_7039" data-name="Path 7039" d="M561.752,449.672c1.02.653,2.049,1.292,3.069,1.945.281.18.54-.267.261-.446-1.02-.653-2.049-1.292-3.069-1.945-.281-.18-.54.267-.261.446" transform="translate(-425.153 -340.03)" fill="#2a2d3d"/>
    <path id="Path_7040" data-name="Path 7040" d="M196.2,411.284c-1.338,2.469-4.669,7.675-5.252,8.568-13.242,20.24-21.536,24.645-51.217,18.809-13.144-2.588-36.823-10.861-36.823-10.861s-7.871-2.355-13.542-4.565c-3.532-1.374-9.709-3-11.48-6.74a4.46,4.46,0,0,1-.243-2.257l21.371.041a66.861,66.861,0,0,1-4.819-6.218,3.425,3.425,0,0,1-.284-2.453c.718-1.771,2.835-1.906,4.447-1.384a9.221,9.221,0,0,1,3.016,1.9c.243.2.733.656,1.353,1.24s1.363,1.3,2.117,2.024a27.913,27.913,0,0,1,9.565,3.863c10.277.553,29.84,1.978,40.908,1.808,9.074-.134,12.854-8.062,17.7-16.811Z" transform="translate(-58.741 -301.469)" fill="#a25744"/>
    <path id="Path_7041" data-name="Path 7041" d="M579.13,243.221a11.588,11.588,0,0,0,2.875-.5c.317-.1.182-.6-.137-.5a11.027,11.027,0,0,1-2.738.482c-.331.016-.333.532,0,.516" transform="translate(-438.21 -183.352)" fill="#2a2d3d"/>
    <path id="Path_7042" data-name="Path 7042" d="M574.7,409.884c2.41-4.2,4.887-8.358,7.369-12.514q.841-1.408,1.69-2.81c.173-.285-.273-.544-.446-.261-2.516,4.135-4.968,8.311-7.412,12.488q-.828,1.415-1.648,2.835a.258.258,0,0,0,.446.261" transform="translate(-434.684 -298.39)" fill="#2a2d3d"/>
    <path id="Path_7043" data-name="Path 7043" d="M481.309,366.657l9.965,6.44,10.282,6.645,5.549,3.586c.28.181.539-.266.261-.446l-9.965-6.44L487.118,369.8l-5.549-3.586c-.28-.181-.539.266-.261.446" transform="translate(-364.258 -277.188)" fill="#2a2d3d"/>
    <path id="Path_7044" data-name="Path 7044" d="M165.18,464.837l2.678,3.3a.26.26,0,0,0,.365,0,.264.264,0,0,0,0-.365l-2.678-3.3a.26.26,0,0,0-.365,0,.264.264,0,0,0,0,.365" transform="translate(-124.985 -351.547)" fill="#2a2d3d"/>
    <path id="Path_7045" data-name="Path 7045" d="M583.469,258.758a32.381,32.381,0,0,1,11.28.863,22.17,22.17,0,0,1,3.086,1.2c.3.142.561-.3.261-.446a22.428,22.428,0,0,0-5.468-1.8,29.673,29.673,0,0,0-5.632-.453c-1.176.006-2.351.056-3.526.123-.331.019-.333.535,0,.516" transform="translate(-441.495 -195.394)" fill="#2a2d3d"/>
  </g>
</svg>
