<svg id="Group_2976" data-name="Group 2976" xmlns="http://www.w3.org/2000/svg" xmlns:xlink="http://www.w3.org/1999/xlink" width="236.481" height="131.382" viewBox="0 0 236.481 131.382">
  <defs>
    <clipPath id="clip-path">
      <rect id="Rectangle_1780" data-name="Rectangle 1780" width="236.481" height="131.382" fill="none"/>
    </clipPath>
  </defs>
  <g id="Group_2928" data-name="Group 2928" clip-path="url(#clip-path)">
    <path id="Path_5559" data-name="Path 5559" d="M232.52,102.764a14.294,14.294,0,0,0-1.285-5.316c-2.5-5.384-8.118-8.463-13.174-11.579-19.243-11.857-14.391-40.835-32.982-52.66-10.024-6.377-22.584-7.231-34.061-8.691-23.3-2.963-49.756-4.294-70.334,8.954-6.889,4.435-11.636,8.606-20.379,7.071-6.258-1.1-11.49-1.523-17.773.893-9.487,3.647-11.084,11-13.479,19.884-2.17,8.05-12.151,11.252-17.537,16.8C1.8,88.133-3.1,102.585,2.129,115.989A33.97,33.97,0,0,0,9.3,127.224a50.968,50.968,0,0,0,11.023,8.337c.2.116.4.227.6.342-.635.124-.618,1.155.072,1.1l1.653-.127c.225.124.449.25.675.373l.012.006c-.416-.216,5.776-1.677,6.319-1.713q5.03-.334,10.073-.389a230.91,230.91,0,0,1,32.462,1.764c5.54.736,11.064,1.639,16.647,1.991,11.275.71,22.544-.55,33.743-1.727,5.622-.591,11.249-1.165,16.895-1.467,12.234-.656,24.427.132,36.59-1.714,6.36-.965,12.817.263,19.18-.766,12.746-2.062,28.845-8.968,35.137-21.039a18.629,18.629,0,0,0,2.15-9.429" transform="translate(0 -17.531)" fill="#6b7be8"/>
    <path id="Path_5560" data-name="Path 5560" d="M755.508,245.215a5.411,5.411,0,0,0-3.971-.661c-.687.139-1.447.684-2.132.615-.757-.077-1.289-.786-2-.995a7.168,7.168,0,0,0-2.683.019c-1.823.233-4.9,1.164-6,2.745-1.646,2.373,2.83,2.854,4.21,2.988a29.678,29.678,0,0,0,10.461-.454c2.219-.6,5.088-2.282,2.118-4.258" transform="translate(-573.865 -189.68)" fill="#fff"/>
    <path id="Path_5561" data-name="Path 5561" d="M461.543,165.446a.711.711,0,0,0-.056-.651,24.648,24.648,0,0,0-3.149-3.811c-1.164-1.324-1.089-3.3-1.564-4.918a17.042,17.042,0,0,0-11.881-11.474c-2.48-.631-5.359-.754-7.476.812a.669.669,0,0,0-.859.347c-1.4,2.736-.148,5.867.938,8.5a37.662,37.662,0,0,0,2.1,4.286,3.864,3.864,0,0,1,.437,2.711,76.214,76.214,0,0,1-2.229,8.5c-1.234,3.684-2.4,7.153-4.507,9.3-.36.367-3.832,2.963-3.618,3.3-.012.321,1.6-1.364,1.991-1.24a62.027,62.027,0,0,0,20.391,2.868s2.671-11.319,3.311-12.966c.492-1.266.9-2.515,2.152-3.209a9.917,9.917,0,0,1,3.506-.929.86.86,0,0,0,.513-1.426" transform="translate(-333.946 -112.039)" fill="#ffab6e"/>
    <path id="Path_5562" data-name="Path 5562" d="M643.586,288.016a1.07,1.07,0,0,0-1.036-.95,4.114,4.114,0,0,0,.7-1.854c.053-.562-.538-.814-.987-.752a4.318,4.318,0,0,0-2.522,1.421,1.626,1.626,0,0,0-.22-.213c-1.248-.984-1.934.244-2.353,1.817-.1.375-.992.764-1.287.947-.662.41-1.334.795-2.031,1.144a17.69,17.69,0,0,1-8.788,2.293c-3.762-.221,2.3-2.592,3.932-5.051.59-.888,1.1-2.2.014-2.367-.756-.119-2.853,1.113-3.533,1.37-1.365.516-2.7,1.118-4.012,1.756-2.78,1.351-5.642,2.9-7.652,5.309a8.393,8.393,0,0,0-2.085,4.014,13.243,13.243,0,0,0-.5,1.6c0,.008,0,.015,0,.023-2.965,4.828-14.314,21.19-19.092,29.787a.728.728,0,0,0-.375.645c-.107,4.189,5.9,3.364,8.469,3.025,1.456-.193,3.622-.219,4.6-1.461.58-.733,2.511-4.542,3.068-5.564,3.765-6.91,7.488-14.435,11.356-21.288,1.9-3.368,5.641-3.276,9.079-3.923,1.7-.319,7.055-1.4,8.5-2.579,1.9-1.106,3.553-5.466,3.633-5.7.374-.359.75-.716,1.133-1.066.637-.581,2.085-1.371,1.99-2.388" transform="translate(-459.92 -221.073)" fill="#ffab6e"/>
    <path id="Path_5563" data-name="Path 5563" d="M484.429,128.56c-1.945.8-4.349.786-6.405.94q-3.632.271-7.272.238c-2.087-.02-4.231.127-5.877-1.279-1.76-1.5-3.377-3.2-5.053-4.8a.849.849,0,0,1-.234-.942c-4.712-4.418-13.024-11.366-8.361-17.734,4.346-5.933,14.009-9.234,21.207-9.154a1.293,1.293,0,0,0,1.6-.606c4.58.909,6.9,5.162,8.31,9.159.5,1.417.945,2.858,1.366,4.306a.772.772,0,0,0,.434.5c1.241.553,2.992,1.312,2.834,2.716a2.809,2.809,0,0,1-1.608,2.014.309.309,0,0,0-.147.348l.267,1.016c.129.49.258.98.392,1.47q.17.645.348,1.285c.92,3.342,2.68,8.68-1.8,10.522" transform="translate(-349.633 -73.995)" fill="#ffab6e"/>
    <path id="Path_5564" data-name="Path 5564" d="M372.368,338.813a18.819,18.819,0,0,0-.955-3.745.753.753,0,0,0,0-.408c-2-7.144-6.165-21.364-8.165-28.507-1.546-5.521-3.748-12.168-10.083-13.631-2.715-.627-9.5-1.42-12.177-.708-6.839-.281-10.26,3.265-15.341,7.439a80.425,80.425,0,0,0-9.532,8.955,67.148,67.148,0,0,0-7.3,10.288c-2.48,4.215-8.288,15.708-8.962,17.076-.039.079-1.257,5.711.853.853Z" transform="translate(-232.745 -226.584)" fill="#ffab6e"/>
    <path id="Path_5565" data-name="Path 5565" d="M440.02,429.01c-.8-1.539-1.517-3.121-2.317-4.661a36.149,36.149,0,0,1-1.783-3.71,55.969,55.969,0,0,1-12.423.528c-1.591-.11-3.174-.294-4.749-.542-.043-.16-.085-.32-.132-.479a.557.557,0,0,0-1.074.3c.015.05.027.1.041.15a.515.515,0,0,0-.232.309.561.561,0,0,0,.389.685l.1.016a19.207,19.207,0,0,1-.2,9.276,1.965,1.965,0,0,0,.55,2.324,6.129,6.129,0,0,0,2.235.717c1.785.4,3.59.7,5.4.919a56.1,56.1,0,0,0,10.967.257c1.823-.136,3.64-.36,5.441-.67.334-.057.673-.113,1.013-.171a33.053,33.053,0,0,1-3.231-5.245" transform="translate(-324.358 -326.241)" fill="#fff"/>
    <path id="Path_5566" data-name="Path 5566" d="M186.773,88.3a6.248,6.248,0,0,0-3.672-3.315c-8.728-3.248-20.516-2.125-26.927,2.611-5.812,4.293-8.558,11.715-10.345,18.49-1.024,3.882-2.3,7.73-5.289,10.565-4.874,4.627-8.888,6.383-14.935,8.79-8.025,3.2-11.909,8.325-14.141,16.472-2.321,8.471-9.275,13.06-16.728,16.737-5.4,2.664-10.936,5.382-15.459,9.427a23.351,23.351,0,0,0-5.526,7.05,30.293,30.293,0,0,0-1.45,5.56H151.2a16.592,16.592,0,0,0,2.224-5.149c2.88-4.137,3.27-9.426,2.64-14.359-.417-3.266-1.652-6.646-1.042-9.956.584-3.169,2.7-5.806,4.7-8.207,2.1-2.526,4.345-4.922,6.669-7.242a14.667,14.667,0,0,0,4.539-7.751c1.08-5.6-.933-12.136,2.122-17.282.909-1.531,2.358-2.5,3.506-3.824a9.071,9.071,0,0,0,1.972-3.864,12.926,12.926,0,0,0,.333-2.606,1.508,1.508,0,0,1,.661-1.21l2.055-1.38c1.7-1.141,4.49-2.471,5.586-4.259.964-1.572.385-3.6-.317-5.148-.023-.05-.046-.1-.069-.149" transform="translate(-56.193 -64.614)" fill="#63323c"/>
    <path id="Path_5567" data-name="Path 5567" d="M297.714,124.336c-5.813,5.319-5.226,13.959-7.185,20.966a38.011,38.011,0,0,1-10.756,17.569,96.908,96.908,0,0,1-8.026,6.113,20.38,20.38,0,0,0-6.338,6.819c-1.68,3.331-1.667,7.117-1.582,10.758a55.689,55.689,0,0,1-.047,5.745,20.179,20.179,0,0,1-1.2,5.414c-2.691,7.259-8.877,12.367-14.959,16.77q-1.176.851-2.36,1.691c-.231.165-.009.552.225.385,6.1-4.348,12.452-8.913,16.115-15.641a22.379,22.379,0,0,0,2.706-10.308c.092-3.808-.436-7.7.39-11.457a15.266,15.266,0,0,1,5.425-8.328c2.527-2.146,5.381-3.862,7.968-5.93a38.4,38.4,0,0,0,11.892-16.494,60.222,60.222,0,0,0,2.563-11.163c.626-3.69,1.484-7.477,3.693-10.578a12.77,12.77,0,0,1,1.788-2.016c.212-.194-.1-.509-.315-.315" transform="translate(-190.548 -96.589)" fill="#261422"/>
    <path id="Path_5568" data-name="Path 5568" d="M239.674,105.448c-6.834,2.5-10.39,9.607-12.431,16.135-2.4,7.67-3.614,16.226-9.681,22.056-5.765,5.54-14.276,8.146-18.458,15.324a16.281,16.281,0,0,0-1.921,5.865,25.676,25.676,0,0,1-1.482,6.529c-1.6,3.688-4.573,6.6-7.693,9.039-3.456,2.707-7.241,5.005-10.43,8.045-2.851,2.717-5.278,6.216-5.894,10.181a12.317,12.317,0,0,0-.115,2.808c.021.284.467.287.446,0-.308-4.133,1.658-8.025,4.325-11.063,2.883-3.285,6.609-5.669,10.1-8.235a32.3,32.3,0,0,0,8.346-8.15,16.021,16.021,0,0,0,2.273-5.521,60.372,60.372,0,0,1,1.225-6.6c1.23-3.823,4.195-6.784,7.334-9.142,3.21-2.412,6.77-4.315,9.944-6.778A24.53,24.53,0,0,0,220,141.6a25.169,25.169,0,0,0,2.929-4.934,74.464,74.464,0,0,0,3.71-11.366c1.854-6.744,4.4-14.46,10.761-18.278a14,14,0,0,1,2.394-1.141c.267-.1.152-.529-.119-.43" transform="translate(-133.321 -81.944)" fill="#261422"/>
    <path id="Path_5569" data-name="Path 5569" d="M572.637,138.386c-.925-.857-2.486-.424-3.4.218a2.545,2.545,0,0,0-1.081,1.415c-.114.489.068,1.684.835,1.245a5.7,5.7,0,0,1,1.8-.678,5.361,5.361,0,0,0,1.484-.277,1.168,1.168,0,0,0,.363-1.923" transform="translate(-441.555 -107.184)" fill="#63323c"/>
    <path id="Path_5570" data-name="Path 5570" d="M483.975,101.478c-2.877-5.187-4.847-11.859-3.126-17.764l.006-.02a.438.438,0,0,0-.4-.551,7.963,7.963,0,0,0-3.922.989.662.662,0,0,0-.4.422c-1.393,6.579.547,12.944,3.79,18.791a2.285,2.285,0,0,0,2.957,1.09,2.248,2.248,0,0,0,1.09-2.957" transform="translate(-369.707 -64.614)" fill="#fff"/>
    <path id="Path_5571" data-name="Path 5571" d="M575.85,255.62c-.416-.353.553,1.929.195,2.154a3.6,3.6,0,0,0-.768-.376,2.262,2.262,0,0,0-2.21.372,33.881,33.881,0,0,0-5.134,4.549.8.8,0,0,0-.206.751c-.106.188-2.046-.535-1.243.068,2.043,1.535,2.614,3.456,2.3,8.565-.195,3.206-5.632,30.255-6.9,37.018-.944.7,15.452-1.4,15.637-3.035.506-4.46.47-16.179.837-20.653.364-4.429.925-8.847,1.086-13.288.3-8.276.443-12.692-3.6-16.125" transform="translate(-436.679 -198.643)" fill="#ffab6e"/>
    <path id="Path_5572" data-name="Path 5572" d="M399.688,206.737a23.546,23.546,0,0,1-2.614,14.251,24.115,24.115,0,0,1-4.538,5.9c-1.881,1.817-3.965,3.4-6.012,5.025-3.758,2.979-7.583,6.316-9.353,10.909a14.9,14.9,0,0,0-.669,7.537c.385,2.74,1.2,5.406,1.5,8.16.465,4.316-.242,9.163-3.217,12.512a11.293,11.293,0,0,1-1.163,1.131c-.219.185.1.5.315.315,3.426-2.894,4.693-7.513,4.638-11.858a40.122,40.122,0,0,0-1.148-7.641,19.143,19.143,0,0,1-.362-8.31c1.149-4.867,4.953-8.542,8.7-11.58,2.061-1.671,4.2-3.252,6.169-5.03a26.206,26.206,0,0,0,4.889-5.742,24.061,24.061,0,0,0,3.474-13.949c-.037-.587-.1-1.171-.179-1.754-.039-.283-.468-.163-.43.118" transform="translate(-290.327 -160.462)" fill="#261422"/>
    <path id="Path_5573" data-name="Path 5573" d="M492.09,157.819a9.212,9.212,0,0,1-9.136,8.8c-7.283,0-11.411-9.089-6.181-14.644a8.837,8.837,0,0,1,10.559-1.743,8.518,8.518,0,0,1,4.758,7.584" transform="translate(-368.728 -115.973)" fill="#fff"/>
    <path id="Path_5574" data-name="Path 5574" d="M492.058,172.093a4.322,4.322,0,0,0-1.432-.435,3.172,3.172,0,0,1-1.442,1.951,3.118,3.118,0,0,1-3.248.081c-2.112,2.914.192,7.016,3.821,7.016a4.842,4.842,0,0,0,4.8-4.627,4.478,4.478,0,0,0-2.5-3.986" transform="translate(-377.05 -133.415)" fill="#ffe8a3"/>
    <path id="Path_5575" data-name="Path 5575" d="M576.908,154.826c-.563-.843-1.438-.061-2.083.2a4.66,4.66,0,0,1-2.53.267c-.307-.052-.526.115-.357.523a1.127,1.127,0,0,0,1.03.558,4.658,4.658,0,0,0,3.885-1,.491.491,0,0,0,.055-.546" transform="translate(-444.473 -120.037)" fill="#261422"/>
    <path id="Path_5576" data-name="Path 5576" d="M143.833,306.328c-4.088,2.342-4.7,7.465-5.781,11.581a19.821,19.821,0,0,1-2.729,6.119,26,26,0,0,1-4.237,4.76c-3.4,3.044-7.368,5.317-11.269,7.64-3.961,2.359-7.956,4.829-11.133,8.216a19.865,19.865,0,0,0-5.611,11.088,14.587,14.587,0,0,0-.092,1.553.223.223,0,0,0,.446,0,18.084,18.084,0,0,1,4.756-11.416c2.991-3.5,6.86-6.045,10.767-8.4a92.321,92.321,0,0,0,11.339-7.408,23.9,23.9,0,0,0,7.534-9.9c1.539-4.175,1.487-9.386,5.022-12.572a7.021,7.021,0,0,1,1.213-.875.223.223,0,0,0-.225-.385" transform="translate(-80.038 -238.059)" fill="#261422"/>
    <path id="Path_5577" data-name="Path 5577" d="M603.983,171.967a2.834,2.834,0,0,0-1.354.765.223.223,0,0,0,.315.315c.041-.041.083-.082.127-.121l.07-.06c.01-.008.065-.052.035-.029a2.534,2.534,0,0,1,.3-.2c.051-.029.1-.055.155-.081l.075-.034c.016-.007.025-.01,0,0l.048-.019a2.63,2.63,0,0,1,.344-.106.225.225,0,0,0,.156-.274.227.227,0,0,0-.274-.156" transform="translate(-468.323 -133.651)" fill="#c95f51"/>
    <path id="Path_5578" data-name="Path 5578" d="M720.743,308.229a5.139,5.139,0,0,1,3.986-2.151c2.047-.195,4.065.371,6.1.487a7.19,7.19,0,0,0,5.041-1.3,15.273,15.273,0,0,0,2.748-3.747,7.4,7.4,0,0,1,1.492-1.75c.118-.1.328-.254.493-.2s.14.32.136.453a4.117,4.117,0,0,1-.616,2.034c-.15.246.236.47.385.225a4.634,4.634,0,0,0,.567-1.394,4.733,4.733,0,0,0,.1-.742,1.385,1.385,0,0,0-.083-.685c-.227-.48-.8-.373-1.156-.118a5.157,5.157,0,0,0-.89.849c-1.06,1.236-1.685,2.777-2.74,4.014a5.1,5.1,0,0,1-2.019,1.478,7.538,7.538,0,0,1-2.722.457c-2.126.006-4.206-.611-6.335-.539a6.076,6.076,0,0,0-4.512,1.9,4.346,4.346,0,0,0-.362.505c-.15.245.235.469.385.225" transform="translate(-559.848 -232.485)" fill="#c95f51"/>
    <path id="Path_5579" data-name="Path 5579" d="M807.247,292.914l.285,1.308a.224.224,0,0,0,.274.155.228.228,0,0,0,.155-.274l-.285-1.308a.225.225,0,0,0-.274-.155.228.228,0,0,0-.156.274" transform="translate(-627.4 -227.438)" fill="#c95f51"/>
    <path id="Path_5580" data-name="Path 5580" d="M765.253,300.029c-.122,1.351-.308,3.057-1.646,3.78a5.335,5.335,0,0,1-2.214.348,12.878,12.878,0,0,0-4.842,1.312c-.257.127-.032.511.225.385a12.449,12.449,0,0,1,4.693-1.257,5.712,5.712,0,0,0,2.326-.384,3.126,3.126,0,0,0,1.343-1.492,8.1,8.1,0,0,0,.56-2.692.224.224,0,0,0-.223-.223.227.227,0,0,0-.223.223" transform="translate(-587.916 -233.014)" fill="#c95f51"/>
    <path id="Path_5581" data-name="Path 5581" d="M813.069,296.683a1.537,1.537,0,0,0-1.444.737.223.223,0,1,0,.385.225c.016-.027.032-.053.05-.078l.021-.03c-.026.037,0,0,.005-.006a1.267,1.267,0,0,1,.121-.127c.021-.019.042-.036.063-.054s-.028.019.006,0l.038-.027a1.382,1.382,0,0,1,.151-.089l.033-.016s.053-.023.024-.011l.025-.009.035-.012a1.353,1.353,0,0,1,.17-.045l.045-.008c.043-.008-.023,0,0,0l.083-.006a1.245,1.245,0,0,1,.185.006.223.223,0,0,0,.223-.223.229.229,0,0,0-.223-.223" transform="translate(-630.785 -230.581)" fill="#c95f51"/>
    <path id="Path_5582" data-name="Path 5582" d="M782.154,308.756a7.368,7.368,0,0,1-3.249,2.293l.172.407c.067-.046.151-.063.218-.109.233-.163.011-.549-.225-.385-.067.046-.151.063-.218.109-.194.135-.083.493.172.407a7.8,7.8,0,0,0,3.445-2.408c.185-.217-.129-.534-.315-.315" transform="translate(-605.26 -239.912)" fill="#c95f51"/>
    <path id="Path_5583" data-name="Path 5583" d="M488.177,137.627c-1.208-1.623-2.432-3.236-3.56-4.918a.82.82,0,0,0-1.432.16c-.458.28-.911.569-1.36.863a.655.655,0,0,0-.968.495,33.066,33.066,0,0,0-.383,6.185.807.807,0,0,0,1.432.457c1.109-.367,2.21-.757,3.3-1.179a11.989,11.989,0,0,0,2.326-.944c.55-.029,1.056-.567.645-1.119" transform="translate(-373.418 -102.867)" fill="#fff"/>
    <path id="Path_5584" data-name="Path 5584" d="M500.7,161.876a6.549,6.549,0,0,1,4.5,1.385,6.907,6.907,0,0,1,2.425,3.813,6.5,6.5,0,0,1-.613,4.619,6.671,6.671,0,0,1-7.814,3.117c-.188-.059-.373-.126-.555-.2a.224.224,0,0,0-.274.156.228.228,0,0,0,.155.274,7.124,7.124,0,0,0,8.6-2.675,6.9,6.9,0,0,0,1.049-4.761,7.3,7.3,0,0,0-2.251-4.306,7.055,7.055,0,0,0-4.573-1.882c-.217-.006-.434,0-.65.016-.284.02-.286.466,0,.446" transform="translate(-387.33 -125.453)" fill="#261422"/>
    <path id="Path_5585" data-name="Path 5585" d="M492.143,86.406a16.714,16.714,0,0,0-.235,8.326,16.221,16.221,0,0,0,.686,2.245.229.229,0,0,0,.274.156.224.224,0,0,0,.156-.274,16.115,16.115,0,0,1-.451-10.334.223.223,0,0,0-.43-.119" transform="translate(-381.996 -67.034)" fill="#261422"/>
    <path id="Path_5586" data-name="Path 5586" d="M482.819,137.369l3.091-1.211a.23.23,0,0,0,.156-.274.224.224,0,0,0-.274-.156l-3.091,1.211a.23.23,0,0,0-.156.274.224.224,0,0,0,.274.156" transform="translate(-375.035 -105.482)" fill="#261422"/>
    <path id="Path_5587" data-name="Path 5587" d="M486.99,150.2a7.063,7.063,0,0,0-.474,1.684,1.632,1.632,0,0,0,.111.734c.061.207.11.418.152.629a8.016,8.016,0,0,1,.153,1.082,3.213,3.213,0,0,1-.244,1.243,2.763,2.763,0,0,1-.153.341q-.045.085-.1.166l-.031.048c.008-.013.037-.039.01-.016s-.059.055-.09.08.028-.021,0,0l-.033.024-.082.057a7.9,7.9,0,0,1-.859.491,4.706,4.706,0,0,1-.82.346l-.074.019c-.009,0-.08.013-.042.009s-.022,0-.03,0c-.037,0-.085-.014-.13-.023a3.733,3.733,0,0,1-.76-.252,3.932,3.932,0,0,1-1.446-.958,5.274,5.274,0,0,1-.752-1.4.23.23,0,0,0-.274-.156.224.224,0,0,0-.155.274,6.69,6.69,0,0,0,.7,1.389,3.466,3.466,0,0,0,1.226,1,6.363,6.363,0,0,0,.8.374,2.49,2.49,0,0,0,.778.2,2.031,2.031,0,0,0,.8-.246,9.267,9.267,0,0,0,.969-.5,2.006,2.006,0,0,0,.646-.486,3.693,3.693,0,0,0,.546-1.55,2.217,2.217,0,0,0,.037-.494c-.012-.188-.037-.375-.063-.561a8.263,8.263,0,0,0-.324-1.455,1.806,1.806,0,0,1,.1-.97,7.343,7.343,0,0,1,.336-1,.224.224,0,0,0-.156-.274.228.228,0,0,0-.274.156" transform="translate(-373.731 -116.611)" fill="#261422"/>
    <path id="Path_5588" data-name="Path 5588" d="M498.392,140.091a10.442,10.442,0,0,0,.547.9,2.661,2.661,0,0,1,.468.808,2.973,2.973,0,0,1-.064,1.007l-.136,1.1a.224.224,0,0,0,.223.223.228.228,0,0,0,.223-.223l.139-1.131a3.106,3.106,0,0,0,.045-1.1,2.666,2.666,0,0,0-.468-.849,10.444,10.444,0,0,1-.592-.97c-.136-.253-.521-.028-.385.225" transform="translate(-387.335 -108.62)" fill="#261422"/>
    <path id="Path_5589" data-name="Path 5589" d="M534.451,218.5a12.858,12.858,0,0,0-5.417-4.939,67.2,67.2,0,0,0-6.817-2.843,20.827,20.827,0,0,1-4.192-2.149c-.945-.651-2.688-2.932-3.961-2.507a1.06,1.06,0,0,0-.7.827,1.9,1.9,0,0,0,.141.8c-.756-.928-1.531-2.393-2.939-2.26a1.807,1.807,0,0,0-1.039.45c-.531-.684-1.182-1.178-1.989-.77-.923.467-.745,1.489-.393,2.414a.871.871,0,0,0-.184.023c-.5-.086-1.056.243-.889.859a15.347,15.347,0,0,0,4.758,7.031l.232.219a2.026,2.026,0,0,0,.318,2.355,14.635,14.635,0,0,0,4.9,3.247c2.115.927,2.789.729,4.957,1.507a6.8,6.8,0,0,1,4.539,6.089c.032.589.929.745,1.361.562a.711.711,0,0,0,.413-.2,9.692,9.692,0,0,1,4.969-2.575c1.534-.275,2.97.172,3-1.807.039-2.224-.033-4.517-1.082-6.323" transform="translate(-393.309 -159.293)" fill="#ffab6e"/>
    <path id="Path_5590" data-name="Path 5590" d="M511.4,233.5a20.55,20.55,0,0,0,7.988,7c.258.127.421-.287.165-.414a20.155,20.155,0,0,1-7.806-6.87c-.159-.238-.505.042-.347.28" transform="translate(-397.436 -181.191)" fill="#c95f51"/>
    <path id="Path_5591" data-name="Path 5591" d="M526.745,251.876a2.679,2.679,0,0,0,.493,2.6,7.124,7.124,0,0,0,2.334,1.716.224.224,0,0,0,.289-.125.228.228,0,0,0-.124-.289,6.839,6.839,0,0,1-2.1-1.513,2.254,2.254,0,0,1-.481-2.224.223.223,0,0,0-.414-.165" transform="translate(-409.272 -195.657)" fill="#c95f51"/>
    <path id="Path_5592" data-name="Path 5592" d="M513.678,220.377a22.932,22.932,0,0,0,6.112,6.77,22.438,22.438,0,0,0,2.147,1.4.23.23,0,0,0,.311-.047.225.225,0,0,0-.047-.312,22.51,22.51,0,0,1-6.718-5.914,21.945,21.945,0,0,1-1.4-2.079.23.23,0,0,0-.294-.113.224.224,0,0,0-.113.294" transform="translate(-399.221 -171.037)" fill="#c95f51"/>
    <path id="Path_5593" data-name="Path 5593" d="M523.624,214.383a22.441,22.441,0,0,0,6.1,6.784,22.193,22.193,0,0,0,2.165,1.4.23.23,0,0,0,.312-.047.225.225,0,0,0-.047-.312,22.128,22.128,0,0,1-6.709-5.892,21.631,21.631,0,0,1-1.412-2.118.229.229,0,0,0-.294-.113.224.224,0,0,0-.113.294" transform="translate(-406.952 -166.378)" fill="#c95f51"/>
    <path id="Path_5594" data-name="Path 5594" d="M545.789,216.54a14.7,14.7,0,0,1-3.726-2.512,14.554,14.554,0,0,1-1.527-1.649q-.348-.439-.662-.9a5.51,5.51,0,0,1-.61-1.058.941.941,0,0,1,.114-1.021.764.764,0,0,1,.354-.247.686.686,0,0,1,.47.138,4.066,4.066,0,0,1,.846.708c.265.27.532.537.814.79a17.3,17.3,0,0,0,3.841,2.528,44.87,44.87,0,0,0,4.29,1.807l.538.2a.223.223,0,0,0,.165-.414c-1.518-.568-3.037-1.141-4.5-1.847a17.4,17.4,0,0,1-4.02-2.589c-.294-.261-.567-.54-.844-.819a4.31,4.31,0,0,0-.9-.746,1.4,1.4,0,0,0-.553-.211.874.874,0,0,0-.548.16,1.339,1.339,0,0,0-.6.919,2.135,2.135,0,0,0,.363,1.285c.206.353.434.694.672,1.026a14.8,14.8,0,0,0,1.532,1.81,15.225,15.225,0,0,0,3.812,2.8q.259.134.523.257c.26.122.423-.293.165-.414" transform="translate(-418.697 -162.202)" fill="#c95f51"/>
    <path id="Path_5595" data-name="Path 5595" d="M534.969,212.036a7.7,7.7,0,0,1,1.329,1.574.229.229,0,0,0,.294.113.225.225,0,0,0,.113-.294,8.057,8.057,0,0,0-1.39-1.673.229.229,0,0,0-.313-.034.225.225,0,0,0-.034.313" transform="translate(-415.748 -164.517)" fill="#c95f51"/>
    <path id="Path_5596" data-name="Path 5596" d="M598.5,186.765a.09.09,0,0,1-.064.074,4.56,4.56,0,0,1-1.413.2,9.9,9.9,0,0,1-1.147-.111,1.818,1.818,0,0,1-1-.341.537.537,0,0,1,.374-.907,11.633,11.633,0,0,0,2.8-.319.081.081,0,0,1,.078.019,1.958,1.958,0,0,1,.367,1.383" transform="translate(-462.224 -144.065)" fill="#c9554f"/>
    <path id="Path_5597" data-name="Path 5597" d="M589.9,374.394q-.716-2.768-1.535-5.508-.773-2.584-1.638-5.141c-.018.084-.035.169-.057.254a2.21,2.21,0,0,1-.174.452q.25.749.492,1.5.872,2.708,1.642,5.448.437,1.552.84,3.113a.223.223,0,0,0,.43-.118" transform="translate(-455.833 -282.708)" fill="#c95f51"/>
    <path id="Path_5598" data-name="Path 5598" d="M492.219,403.151A10.977,10.977,0,0,0,494,407.116a.229.229,0,0,0,.3.08.225.225,0,0,0,.08-.3,10.648,10.648,0,0,1-1.738-3.859c-.064-.279-.493-.161-.43.119" transform="translate(-382.555 -313.119)" fill="#c95f51"/>
    <path id="Path_5599" data-name="Path 5599" d="M117.6,201.255a25.147,25.147,0,0,0-16.2-2.632,35.272,35.272,0,0,0-8.336,2.416c-2.391,1.011-4.88,2.726-7.457,2.418-3.322-.4-5.248-5.519-8.016-7.352-3.222-2.134-7.65-2.755-10.835.1a1.972,1.972,0,0,1-2.107.4,21.8,21.8,0,0,0-9.534-1.679c-3.055.167-7.023,1.118-8.476,4.636a2.429,2.429,0,0,1-2.008,1.626c-6.97.4-14.525,1.319-20.33,6.51-2.66,2.378-4.806,7.338-2.227,10.787a6.926,6.926,0,0,0,4.139,2.39c5.695,1.409,14.084.092,19.8,1.337,5.551,1.208,8.37,4.329,14.082,4.4,4.165.05,10.856-.1,13.824-4.627a2.07,2.07,0,0,1,2.763-.853A22.925,22.925,0,0,0,90.6,223.968c2.912-.338,7.541-1.461,10.011-4.375a2.086,2.086,0,0,1,1.949-.787,34.569,34.569,0,0,0,12.193-.013c3.811-.693,8.725-2.29,9.618-7.759.846-5.179-3.634-8.036-6.775-9.779" transform="translate(-16.252 -150.996)" fill="#ffe8db"/>
    <path id="Path_5600" data-name="Path 5600" d="M279.385,79.768c-.591-1.483-2.612-1.953-3.972-2.374a27.21,27.21,0,0,0-5.775-1.1,40.47,40.47,0,0,0-7.422.329c-1.551-1.671-6.451-1.865-7.286.265a10.394,10.394,0,0,0-6.433.564c-1.575.67-4.7,2.448-3.638,4.6.745,1.508,3.1,1.991,4.553,2.23,3.073.5,6.893.811,9.886-.224a9.511,9.511,0,0,1,1.387-.447c1.652-.3,3.68.67,5.337.91a24.164,24.164,0,0,0,5.914.167c2.172-.222,8.913-1.243,7.45-4.917" transform="translate(-190.14 -58.547)" fill="#ffe8db"/>
    <path id="Path_5601" data-name="Path 5601" d="M341.368,137.017c-.845-.121-1.658-.151-2.124-.179-1.157-.069-5.075-.3-4.278,1.956.4,1.137,1.719,1.059,2.757.967.533.819,2.083.964,2.955,1.031,1.117.087,3.3-.105,3.655-1.469.392-1.513-1.344-2.076-2.965-2.307" transform="translate(-260.258 -106.321)" fill="#fff"/>
    <path id="Path_5602" data-name="Path 5602" d="M577.5,4.173c-.108-.035-.212-.065-.312-.093l-.242-.069a.659.659,0,0,1-.468-.709,1.7,1.7,0,0,0-.215-1.071c-1.07-1.878-4.266-1.82-6.1-2a91.9,91.9,0,0,0-9.192-.219A45.151,45.151,0,0,0,548.215,1.67c-.907.27-2.445.6-2.313,1.84a1.158,1.158,0,0,0,.022.133.6.6,0,0,1-.412.724,4.143,4.143,0,0,0-2.372,1.476c-1.313,1.84.717,3.066,2.292,3.391,4.778.986,9.191.473,13.921-.367,2.178-.387,4.605.334,6.829.546,7.076.676,14.747,1.062,21.752-.127a4.395,4.395,0,0,0,1.435-.507c4.429-2.516-10-4.006-11.873-4.6" transform="translate(-421.809 0)" fill="#ffe8db"/>
    <path id="Path_5603" data-name="Path 5603" d="M247.07,390.329a6.523,6.523,0,0,0-3.779-2.8,37.046,37.046,0,0,0-5.21-1.5,39.495,39.495,0,0,0-7.519-.851.313.313,0,0,1-.272-.461,9.537,9.537,0,0,0,1.292-3.9,5.505,5.505,0,0,0-.99-3.223,10.183,10.183,0,0,0-5.5-3.82,13.462,13.462,0,0,0-6.462-.319q-.2.038-.4.083a1.323,1.323,0,0,1-1.595-1.379v-.02a12.055,12.055,0,0,0-.9-5.739,7.363,7.363,0,0,0-4.371-3.832,17.327,17.327,0,0,0-5.852-.8,26.145,26.145,0,0,0-5.53.635,27.818,27.818,0,0,0-10.134,4.558,27.379,27.379,0,0,0-5.48,5.211,1.635,1.635,0,0,1-1.672.579c-.547-.135-1.144-.286-1.348-.352a20.922,20.922,0,0,0-4.184-.674,50.743,50.743,0,0,0-8.911.033,58.915,58.915,0,0,0-8.995,1.333c-3.63.829-8.348,1.764-11.146,4.391a6.416,6.416,0,0,0-1.882,3.247,3.549,3.549,0,0,1-3.626,2.83c-3.176-.169-6.392-1.432-9.487-2.426a59.083,59.083,0,0,0-29.352-1.707c-1.9.375-4.182,1.351-4.587,3.077a.751.751,0,0,1-.865.582,26.387,26.387,0,0,0-24.267,8.464,1.033,1.033,0,0,1-1.18.276,36.387,36.387,0,0,0-18.328-2.61c-3.068.362-6.742,1.9-7.132,4.812a.437.437,0,0,1-.592.348c-3.361-1.3-7-2.49-10.41-1.4a6.137,6.137,0,0,0-4.156,4.333c-1.114,4.8,3.287,6.588,7.2,6.483a110.878,110.878,0,0,1,18.535.82c7.255,1.046,14.239,3.345,21.35,5.044,12.9,3.083,26.2,3.155,39.362,2.692,14.153-.5,28.252-.172,42.406-1.2,6.469-.468,12.807-1.76,19.271-2.348,6.4-.7,12.979-.174,19.418-.338,11.842-.3,23.582-1.357,35.351-2.644a13,13,0,0,0,6.308-2.028c1.454-1.062,1.946-2.369,2.779-3.86.714-1.278,1.957-2.23,2.593-3.553a6.723,6.723,0,0,0,.25-6.049" transform="translate(-24.923 -281.172)" fill="#ffe8db"/>
    <path id="Path_5604" data-name="Path 5604" d="M628.388,105.276c-.745-1.165-2.462-1.3-3.689-1.515q-1.21-.212-2.429-.369a1.281,1.281,0,0,1-1.112-1.4A6.77,6.77,0,0,0,619.33,96.9c-1.811-2-4.571-2.846-7.138-3.336a69.53,69.53,0,0,0-9.373-1.025,41.092,41.092,0,0,0-9.246.238,15.668,15.668,0,0,0-5.849,2.214,1.3,1.3,0,0,1-1.363.046,10.494,10.494,0,0,0-1.463-.663,24.257,24.257,0,0,0-5.169-1.389,23.42,23.42,0,0,0-5.325-.2,11.6,11.6,0,0,0-4.346,1.1c-.823.419-1.365,1.232-2.139,1.656-.633.346-1.832-.769-2.391-1.058a22.255,22.255,0,0,0-2.853-1.216,23.13,23.13,0,0,0-8.9-1.255,22.556,22.556,0,0,0-8.743,2.261q-.511.252-1.007.533l-.032.019a1.271,1.271,0,0,1-.559.194,35.114,35.114,0,0,0-5.619,1.052q-.988.271-1.96.6a6.875,6.875,0,0,0-1.514.672,2.561,2.561,0,0,0-1.2,2.937c.8,2.582,3.86,3.03,6.162,3.195,2.928.209,5.859.375,8.79.522q3.957.2,7.916.328a1.275,1.275,0,0,1,1.211,1.006,6.067,6.067,0,0,0,1.06,2.368c1.707,2.286,4.676,3.047,7.363,3.4a46.611,46.611,0,0,0,10.125.22c1.682-.144,3.34-.434,5.012-.65a13.236,13.236,0,0,1,4.849.184c1.538.367,3.015.941,4.518,1.425a21.625,21.625,0,0,0,4.769.974,48.213,48.213,0,0,0,5.091.087c1.562-.03,3.125-.061,4.686-.114,6.182-.209,12.485-.731,18.342-2.858q1.1-.4,2.164-.87a13.252,13.252,0,0,0,1.907-.951c1.072-.7,2.1-1.992,1.278-3.279" transform="translate(-414.281 -71.49)" fill="#ffe8db"/>
    <path id="Path_5605" data-name="Path 5605" d="M904.668,322.944c-.234-1.377-1.993-1.943-2.807-2.262-.223-.087-.446-.17-.676-.237a12.432,12.432,0,0,0-3.646-.493.66.66,0,0,1-.62-.921c.036-.085.068-.172.1-.261a2.5,2.5,0,0,0-1.171-3.105,4.664,4.664,0,0,0-1.81-.375c-.715-.032-1.433-.027-2.148,0a31.489,31.489,0,0,0-4.4.473,30.3,30.3,0,0,0-3.148.738,1.641,1.641,0,0,1-.864.021c-.087-.022-.174-.043-.261-.064a15.039,15.039,0,0,0-4.722-.324,15.326,15.326,0,0,0-4.681,1.185c-1.287.553-2.806,1.335-3.257,2.771a1.96,1.96,0,0,0-.072.32,1.119,1.119,0,0,1-1.115.932,26.882,26.882,0,0,0-6.119.778,18.12,18.12,0,0,0-2.231.66c-.6.234-1.248.663-1.247,1.386,0,.845.844,1.209,1.5,1.458.313.118.626.233.946.329,3.987,1.2,8.4,1.025,12.547,1.144,4.964.142,9.928.055,14.889.055,3.865-.044,7.727.042,11.515-.811,1.653-.366,3.858-1.283,3.5-3.393" transform="translate(-668.225 -245.031)" fill="#ffe8db"/>
    <path id="Path_5606" data-name="Path 5606" d="M914.018,338.14a6.866,6.866,0,0,1,5.848,1.412,6.42,6.42,0,0,1,1.189,1.289.227.227,0,0,0,.385,0,8.034,8.034,0,0,1,3.506-2.552,8.748,8.748,0,0,1,4.338-.5,7.79,7.79,0,0,1,2.36.733c.256.128.481-.256.225-.385a8.52,8.52,0,0,0-4.524-.845,9.2,9.2,0,0,0-4.364,1.515,8.287,8.287,0,0,0-1.927,1.808h.385a7.34,7.34,0,0,0-5.679-3.084,6.86,6.86,0,0,0-1.862.178c-.279.066-.161.5.118.43" transform="translate(-710.174 -262.125)" fill="#261422"/>
    <path id="Path_5607" data-name="Path 5607" d="M687.534,434.582a15.823,15.823,0,0,0-11-9.531A15.529,15.529,0,0,0,658.4,435.956l.327-.133a25.076,25.076,0,0,0-28.958-.646,23.509,23.509,0,0,0-5.818,5.709c-.167.233.219.456.385.225a23.3,23.3,0,0,1,11.386-8.414,24.849,24.849,0,0,1,14.941-.378,24.533,24.533,0,0,1,7.841,3.889.224.224,0,0,0,.327-.133,15.356,15.356,0,0,1,9.54-10.142,13.98,13.98,0,0,1,7.15-.639,15.559,15.559,0,0,1,6.626,2.9,14.8,14.8,0,0,1,4.959,6.5c.1.266.532.15.43-.118" transform="translate(-484.912 -330.052)" fill="#261422"/>
    <path id="Path_5608" data-name="Path 5608" d="M796.381,122.182a13.176,13.176,0,0,0-8.223-4.818,13.068,13.068,0,0,0-12.911,5.832l.35-.045a10.65,10.65,0,0,0-5.1-2.162,11.453,11.453,0,0,0-5.509.543,10.249,10.249,0,0,0-2.752,1.5.231.231,0,0,0-.08.3.224.224,0,0,0,.3.08,10.253,10.253,0,0,1,4.913-2.008,11.047,11.047,0,0,1,5.277.588,9.723,9.723,0,0,1,2.627,1.471.227.227,0,0,0,.35-.045,12.756,12.756,0,0,1,7.316-5.341,12.441,12.441,0,0,1,9.065,1.042,12.594,12.594,0,0,1,4.052,3.375c.176.226.489-.091.315-.315" transform="translate(-592.34 -91.096)" fill="#261422"/>
    <path id="Path_5609" data-name="Path 5609" d="M446.139,337.829a2.561,2.561,0,0,0-1.148-1.328,6.707,6.707,0,0,0-3.782-.761,10.88,10.88,0,0,1-4-.16,12.133,12.133,0,0,0-11.344,2.358,2.187,2.187,0,0,0-.89,1.56,1.752,1.752,0,0,0,1.009,1.335,10.325,10.325,0,0,0,6,.668,12.588,12.588,0,0,1,4.409-.112,13.685,13.685,0,0,0,1.943.144,13.536,13.536,0,0,0,3.781-.536,10.866,10.866,0,0,0,3.4-1.586,1.435,1.435,0,0,0,.623-1.581" transform="translate(-330.299 -260.422)" fill="#fff"/>
    <path id="Path_5610" data-name="Path 5610" d="M458.628,377.213a7.521,7.521,0,0,0-5-.174c-.69.2-1.732.424-2,1.233-.437,1.319,2.958,1.458,3.652,1.285a6.067,6.067,0,0,1,1.588-.34,3.018,3.018,0,0,1,.707.163,2.022,2.022,0,0,0,.9.068,1.161,1.161,0,0,0,1-1.117,1.343,1.343,0,0,0-.85-1.117" transform="translate(-350.983 -292.776)" fill="#ffe8db"/>
    <path id="Path_5611" data-name="Path 5611" d="M851.179,241.493h-.223a.334.334,0,0,0,0,.668h.223a.334.334,0,0,0,0-.668" transform="translate(-661.117 -187.692)" fill="#ffe8db"/>
    <path id="Path_5612" data-name="Path 5612" d="M859.4,227.493h-.223a.557.557,0,0,0,0,1.114h.223a.557.557,0,0,0,0-1.114" transform="translate(-667.334 -176.811)" fill="#ffe8db"/>
    <path id="Path_5613" data-name="Path 5613" d="M864.118,244.353l-.223-.223a.445.445,0,0,0-.63.63l.223.223a.445.445,0,1,0,.63-.63" transform="translate(-670.845 -189.642)" fill="#ffe8db"/>
    <path id="Path_5614" data-name="Path 5614" d="M444.791,65.993h-.223a.446.446,0,1,0,0,.891h.223a.446.446,0,1,0,0-.891" transform="translate(-345.179 -51.291)" fill="#ffe8db"/>
    <path id="Path_5615" data-name="Path 5615" d="M459.57,50.992a.453.453,0,0,0-.446.446v.223a.446.446,0,0,0,.891,0v-.223a.451.451,0,0,0-.446-.446" transform="translate(-356.839 -39.631)" fill="#ffe8db"/>
    <path id="Path_5616" data-name="Path 5616" d="M467.622,66.993a.446.446,0,0,0,0,.891.446.446,0,0,0,0-.891" transform="translate(-363.109 -52.068)" fill="#ffe8db"/>
    <path id="Path_5617" data-name="Path 5617" d="M298.622,178.993a.446.446,0,0,0,0,.891.446.446,0,0,0,0-.891" transform="translate(-231.759 -139.116)" fill="#ffe8db"/>
    <path id="Path_5618" data-name="Path 5618" d="M237.622,158.993a.446.446,0,0,0,0,.891.446.446,0,0,0,0-.891" transform="translate(-184.349 -123.572)" fill="#ffe8db"/>
    <path id="Path_5619" data-name="Path 5619" d="M237.791,135.993h-.223a.446.446,0,1,0,0,.891h.223a.446.446,0,1,0,0-.891" transform="translate(-184.295 -105.696)" fill="#ffe8db"/>
    <path id="Path_5620" data-name="Path 5620" d="M67.115,405.135a.453.453,0,0,0-.63,0l-.223.223a.446.446,0,0,0,.63.63l.223-.223a.451.451,0,0,0,0-.63" transform="translate(-51.4 -314.778)" fill="#ffe8db"/>
    <path id="Path_5621" data-name="Path 5621" d="M84.115,367.135a.453.453,0,0,0-.63,0l-.223.223a.446.446,0,0,0,.63.63l.223-.223a.451.451,0,0,0,0-.63" transform="translate(-64.613 -285.244)" fill="#ffe8db"/>
    <path id="Path_5622" data-name="Path 5622" d="M152.115,381.135a.453.453,0,0,0-.63,0l-.223.223a.445.445,0,0,0,.63.63l.223-.223a.451.451,0,0,0,0-.63" transform="translate(-117.463 -296.125)" fill="#ffe8db"/>
    <path id="Path_5623" data-name="Path 5623" d="M680.569,88.992a.453.453,0,0,0-.446.446v.223a.446.446,0,1,0,.891,0v-.223a.451.451,0,0,0-.446-.446" transform="translate(-528.602 -69.166)" fill="#ffe8db"/>
    <path id="Path_5624" data-name="Path 5624" d="M670.79,260.993h-.223a.446.446,0,0,0,0,.891h.223a.446.446,0,0,0,0-.891" transform="translate(-520.829 -202.848)" fill="#ffe8db"/>
    <path id="Path_5625" data-name="Path 5625" d="M685.621,240.993a.446.446,0,0,0,0,.891.446.446,0,0,0,0-.891" transform="translate(-532.541 -187.304)" fill="#ffe8db"/>
    <path id="Path_5626" data-name="Path 5626" d="M835.115,344.135a.453.453,0,0,0-.63,0l-.223.223a.446.446,0,0,0,.63.63l.223-.223a.451.451,0,0,0,0-.63" transform="translate(-648.302 -267.368)" fill="#ffe8db"/>
    <path id="Path_5627" data-name="Path 5627" d="M860.79,313.993h-.223a.446.446,0,0,0,0,.891h.223a.446.446,0,0,0,0-.891" transform="translate(-668.5 -244.04)" fill="#ffe8db"/>
    <path id="Path_5628" data-name="Path 5628" d="M940.595,391.993h-.223a.223.223,0,0,0,0,.446h.223a.223.223,0,0,0,0-.446" transform="translate(-730.705 -304.663)" fill="#ffe8db"/>
    <path id="Path_5629" data-name="Path 5629" d="M970.372,401.993a.223.223,0,0,0,0,.446.223.223,0,0,0,0-.446" transform="translate(-754.022 -312.435)" fill="#ffe8db"/>
    <path id="Path_5630" data-name="Path 5630" d="M1005.372,384.993a.223.223,0,0,0,0,.446.223.223,0,0,0,0-.446" transform="translate(-781.224 -299.223)" fill="#ffe8db"/>
    <path id="Path_5631" data-name="Path 5631" d="M980.4,438.493a.516.516,0,0,0-.53.459.334.334,0,0,0-.25.321.34.34,0,0,0,.334.334h.223a.321.321,0,0,0,.09-.015.611.611,0,0,0,.133.015.557.557,0,0,0,0-1.114" transform="translate(-761.378 -340.804)" fill="#ffe8db"/>
    <path id="Path_5632" data-name="Path 5632" d="M111.621,422.993a.446.446,0,0,0,0,.891.446.446,0,0,0,0-.891" transform="translate(-86.419 -328.757)" fill="#ffe8db"/>
    <path id="Path_5633" data-name="Path 5633" d="M168.791,370.993h-.223a.446.446,0,0,0,0,.891h.223a.446.446,0,1,0,0-.891" transform="translate(-130.667 -288.342)" fill="#ffe8db"/>
    <path id="Path_5634" data-name="Path 5634" d="M594.621,81.993a.446.446,0,0,0,0,.891.446.446,0,0,0,0-.891" transform="translate(-461.815 -63.726)" fill="#ffe8db"/>
    <path id="Path_5635" data-name="Path 5635" d="M575.569,302.992a.453.453,0,0,0-.446.446v.223a.446.446,0,0,0,.891,0v-.223a.451.451,0,0,0-.446-.446" transform="translate(-446.995 -235.49)" fill="#ffe8db"/>
    <path id="Path_5636" data-name="Path 5636" d="M566.621,293.993a.446.446,0,0,0,0,.891.446.446,0,0,0,0-.891" transform="translate(-440.053 -228.496)" fill="#ffe8db"/>
    <path id="Path_5637" data-name="Path 5637" d="M80.621,342.993a.446.446,0,0,0,0,.891.446.446,0,0,0,0-.891" transform="translate(-62.326 -266.58)" fill="#ffe8db"/>
    <path id="Path_5638" data-name="Path 5638" d="M104.372,360.993a.223.223,0,0,0,0,.446.223.223,0,0,0,0-.446" transform="translate(-80.952 -280.57)" fill="#ffe8db"/>
    <path id="Path_5639" data-name="Path 5639" d="M28.124,402.242v.223a.223.223,0,0,0,.446,0v-.223a.223.223,0,0,0-.446,0" transform="translate(-21.858 -312.462)" fill="#ffe8db"/>
    <path id="Path_5640" data-name="Path 5640" d="M62.595,464.993h-.223a.223.223,0,0,0,0,.446h.223a.223.223,0,0,0,0-.446" transform="translate(-48.309 -361.4)" fill="#ffe8db"/>
    <path id="Path_5641" data-name="Path 5641" d="M373.124,188.242v.223a.223.223,0,0,0,.446,0v-.223a.223.223,0,0,0-.446,0" transform="translate(-289.998 -146.138)" fill="#ffe8db"/>
    <path id="Path_5642" data-name="Path 5642" d="M174.124,171.242v.223a.223.223,0,0,0,.446,0v-.223a.223.223,0,0,0-.446,0" transform="translate(-135.332 -132.925)" fill="#ffe8db"/>
    <path id="Path_5643" data-name="Path 5643" d="M793.372,85.993a.223.223,0,0,0,0,.446.223.223,0,0,0,0-.446" transform="translate(-616.454 -66.835)" fill="#ffe8db"/>
    <path id="Path_5644" data-name="Path 5644" d="M657.726,343.28l-.223-.223a.223.223,0,0,0-.315.315l.223.223a.223.223,0,0,0,.315-.315" transform="translate(-510.726 -266.579)" fill="#ffe8db"/>
    <path id="Path_5645" data-name="Path 5645" d="M131.5,232.367a12.317,12.317,0,0,1,9.223,3.43,26.029,26.029,0,0,1,3.5,3.9c.484.646.916,1.337,1.413,1.971a1.433,1.433,0,0,0,1.272.572,1.961,1.961,0,0,0,1.257-.827c.458-.493.937-.967,1.424-1.432a29.942,29.942,0,0,1,2.523-2.242,13.76,13.76,0,0,1,8.911-2.291,27.979,27.979,0,0,1,11.3,3.618c.254.133.479-.252.225-.385-5.744-3.008-12.749-5.294-18.986-2.306A20.136,20.136,0,0,0,148,240.937c-.488.515-1.124,1.262-1.861.627a5.768,5.768,0,0,1-.776-1.058q-.372-.523-.756-1.037a27.206,27.206,0,0,0-3.351-3.79c-2.633-2.409-6.113-4.128-9.757-3.758-.282.029-.285.475,0,.446" transform="translate(-102.041 -180.214)" fill="#261422"/>
    <path id="Path_5646" data-name="Path 5646" d="M531.687,500.33c2.031-3.53,5.758-5.383,9.686-5.941,4.147-.589,8.819-.446,12.625,1.461a12.744,12.744,0,0,1,4.875,4.224c.16.236.546.013.385-.225a14.526,14.526,0,0,0-10.382-5.96,28.458,28.458,0,0,0-6.851-.029,16.521,16.521,0,0,0-6.092,1.778,11.838,11.838,0,0,0-4.63,4.467.223.223,0,0,0,.385.225" transform="translate(-412.912 -383.687)" fill="#261422"/>
    <path id="Path_5647" data-name="Path 5647" d="M218.8,496.4a21.487,21.487,0,0,1,11.253,7.945c.167.23.554.008.385-.225a21.981,21.981,0,0,0-11.519-8.15.223.223,0,0,0-.119.43" transform="translate(-169.935 -385.466)" fill="#261422"/>
  </g>
</svg>
