<svg id="Group_2984" data-name="Group 2984" xmlns="http://www.w3.org/2000/svg" xmlns:xlink="http://www.w3.org/1999/xlink" width="205.193" height="107.768" viewBox="0 0 205.193 107.768">
  <defs>
    <clipPath id="clip-path">
      <rect id="Rectangle_1786" data-name="Rectangle 1786" width="205.193" height="107.768" fill="none"/>
    </clipPath>
  </defs>
  <g id="Group_2939" data-name="Group 2939" clip-path="url(#clip-path)">
    <path id="Path_6260" data-name="Path 6260" d="M.234,139.126c-.735.932.387,3.879,1.666,3.882l139.42,1.114a25.18,25.18,0,0,0,5.3-.83c9.985-1.934,19.425-3.441,23.148-4.356a2.456,2.456,0,0,0,1.784-1.738c4.689-17.062,14.994-64.919,17.545-75.8q.172-.732.343-1.464a4.9,4.9,0,0,0-2.088-5.389,3.944,3.944,0,0,0-2.3-.831L59.462,133.638Z" transform="translate(0 -36.355)" fill="#560c1b"/>
    <path id="Path_6261" data-name="Path 6261" d="M261.142,56.078q-2.135,9.828-4.275,19.656c-3.893,17.888-8.388,35.766-12.72,53.621-.094.378-.188.755-.278,1.133-.269,1.1-.528,2.192-.786,3.292a.7.7,0,0,1-.682.539l-132.533-.292,1.257-5.419,16.928-72.824a3.133,3.133,0,0,1,2.977-2.247l128.185.283a1.812,1.812,0,0,1,1.926,2.258" transform="translate(-74.356 -36.233)" fill="#fff"/>
    <path id="Path_6262" data-name="Path 6262" d="M241.953,134.133l-132.748-.293,1.306-5.627L127.44,55.39a3.316,3.316,0,0,1,3.136-2.379l128.191.283a2.2,2.2,0,0,1,1.754.777,1.95,1.95,0,0,1,.338,1.688q-1.068,4.913-2.137,9.827t-2.138,9.828c-3.087,14.187-6.61,28.6-10.016,42.532q-1.356,5.548-2.7,11.093c-.095.378-.188.755-.278,1.133-.269,1.1-.527,2.191-.786,3.292a.869.869,0,0,1-.846.671m-132.32-.632,132.319.292a.528.528,0,0,0,.516-.407c.26-1.1.518-2.2.787-3.3.09-.377.184-.756.278-1.134q1.345-5.544,2.7-11.092c3.406-13.933,6.927-28.341,10.014-42.524q1.068-4.914,2.137-9.828t2.138-9.828a1.616,1.616,0,0,0-.273-1.4,1.843,1.843,0,0,0-1.487-.648l-128.184-.283a2.962,2.962,0,0,0-2.811,2.115l-16.929,72.824Z" transform="translate(-73.907 -35.876)" fill="#560c1b"/>
    <path id="Path_6263" data-name="Path 6263" d="M293,64.733l2.22-9.474-.941-1.108-1.2-.335L164.89,53.533l-1.153.235-1.311.981-.832,2.4L159.9,64.44Z" transform="translate(-108.215 -36.23)" fill="#560c1b"/>
    <path id="Path_6264" data-name="Path 6264" d="M535.141,65.2a1.589,1.589,0,0,0-.007,3.178,1.589,1.589,0,0,0,.007-3.178" transform="translate(-361.095 -44.125)" fill="#fff"/>
    <path id="Path_6265" data-name="Path 6265" d="M244.147,286.538c-.094.378-.188.755-.278,1.133-.269,1.1-.528,2.192-.786,3.292a.7.7,0,0,1-.682.539l-132.533-.292,1.257-5.418Z" transform="translate(-74.356 -193.416)" fill="#f0e3df"/>
    <path id="Path_6266" data-name="Path 6266" d="M241.761,133.984l-132.535-.292a.306.306,0,0,1-.3-.375l1.258-5.419,16.928-72.824a3.459,3.459,0,0,1,3.269-2.484l128.191.283a2.341,2.341,0,0,1,1.86.829,2.082,2.082,0,0,1,.364,1.8q-1.067,4.913-2.137,9.825t-2.137,9.828c-3.088,14.189-6.61,28.6-10.017,42.535q-1.356,5.548-2.7,11.092c-.095.379-.188.755-.278,1.132-.269,1.1-.528,2.192-.786,3.292a1.006,1.006,0,0,1-.979.775m-132.149-.9,132.148.291a.391.391,0,0,0,.383-.3c.26-1.105.519-2.2.787-3.3.09-.377.184-.756.278-1.135q1.344-5.542,2.7-11.091c3.405-13.932,6.927-28.339,10.013-42.52q1.068-4.914,2.137-9.828t2.137-9.828a1.484,1.484,0,0,0-.247-1.29,1.71,1.71,0,0,0-1.381-.6L130.389,53.2a2.819,2.819,0,0,0-2.678,2.01l-16.928,72.825Z" transform="translate(-73.714 -35.591)" fill="#560c1b"/>
    <path id="Path_6267" data-name="Path 6267" d="M506.357,291.515a.847.847,0,0,0,0,1.693.847.847,0,0,0,0-1.693" transform="translate(-342.116 -197.289)" fill="#fff"/>
    <path id="Path_6268" data-name="Path 6268" d="M497.665,291.5a.847.847,0,0,0,0,1.693.847.847,0,0,0,0-1.693" transform="translate(-336.233 -197.276)" fill="#fff"/>
    <path id="Path_6269" data-name="Path 6269" d="M286.091,136.328c-.516,4.062-8.5,39.119-8.52,39.249-.388,1.284-.717,1.3-1.443,1.281l-89.327-.481a.9.9,0,0,1-.842-1.041l.12-.819,8.447-38.782a.928.928,0,0,1,.9-.771l89.994.575a.679.679,0,0,1,.674.789" transform="translate(-125.845 -91.34)" fill="#f0e3df"/>
    <path id="Path_6270" data-name="Path 6270" d="M307.741,108.43c-.516,4.062-1.113,4.784-1.134,4.914-.388,1.284-.717,1.3-1.443,1.281l-89.327-.481A.9.9,0,0,1,215,113.1l.119-.818,1.061-4.448a.928.928,0,0,1,.9-.771l89.994.575a.679.679,0,0,1,.674.789" transform="translate(-145.496 -72.459)" fill="#f0e3df"/>
    <path id="Path_6271" data-name="Path 6271" d="M489.08,291.477a.847.847,0,0,0,0,1.693.847.847,0,0,0,0-1.693" transform="translate(-330.423 -197.263)" fill="#fff"/>
    <path id="Path_6272" data-name="Path 6272" d="M551.251,65.235a1.589,1.589,0,0,0-.007,3.177,1.589,1.589,0,0,0,.007-3.177" transform="translate(-371.998 -44.149)" fill="#fff"/>
    <path id="Path_6273" data-name="Path 6273" d="M35.758,301.865,1.023,306.659c-.293.081-.573.531-.573.531l140.184.849a4.746,4.746,0,0,0,2.2-.536l26.075-5.2Z" transform="translate(-0.305 -204.294)" fill="#560c1b"/>
    <path id="Path_6274" data-name="Path 6274" d="M172.105,305.955c-5.412,1.348-10.874,2.475-16.343,3.566-2.738.547-5.478,1.085-8.215,1.641a17.693,17.693,0,0,1-3.6.162l-4.185-.013q-16.124-.056-32.248-.186c-21.749-.164-43.5-.385-65.246-.544q-18.017-.131-36.034-.183a.306.306,0,0,0,0,.612c21.672.048,43.343.231,65.014.421,21.654.189,43.308.39,64.962.478q4.51.018,9.02.03c2.926.007,5.854-.867,8.717-1.436,6.126-1.217,12.252-2.449,18.314-3.959a.306.306,0,0,0-.163-.59" transform="translate(-4.023 -207.055)" fill="#931f33"/>
    <path id="Path_6275" data-name="Path 6275" d="M516.121,130.935a25.963,25.963,0,0,0-3.629-16.033,23.414,23.414,0,0,0-10.877-9.1c-.231-.1-1.18.712-1.415.621a23.59,23.59,0,0,0-9.138-1.465c-8.837-.035-17.781,3.044-23.855,10.589-5.909,7.34-8.727,17.017-6.094,25.4,4.911,15.637,23.688,21.252,38.459,13.331,8.645-4.636,15.541-13.436,16.548-23.339" transform="translate(-311.399 -71.031)" fill="#fff"/>
    <path id="Path_6276" data-name="Path 6276" d="M564.987,158.285a.34.34,0,0,1-.1-.666,26.329,26.329,0,0,0,5.26-2.2c9.149-4.906,15.422-13.748,16.37-23.074a25.618,25.618,0,0,0-3.578-15.818,21.9,21.9,0,0,0-10.3-8.786.34.34,0,1,1,.267-.626,22.553,22.553,0,0,1,10.607,9.051A26.3,26.3,0,0,1,587.2,132.41c-.972,9.548-7.381,18.592-16.726,23.6a26.933,26.933,0,0,1-5.388,2.257.334.334,0,0,1-.1.014" transform="translate(-382.137 -72.471)" fill="#f0e3df"/>
    <path id="Path_6277" data-name="Path 6277" d="M545.071,101.058a1.115,1.115,0,0,1-1.1,1c-1.386.012-2.822.246-4.236.364.109,5.439-.172,10.912-.43,16.385-.221,4.677-.228,9.324-.264,13.98,2.673-5.129,5.072-10.372,7.893-15.447,2.632-4.735,5.376-9.416,8.064-14.124a27.419,27.419,0,0,0-9.928-2.156" transform="translate(-364.808 -68.393)" fill="#f0e0cc"/>
    <path id="Path_6278" data-name="Path 6278" d="M497.338,122.761a77.42,77.42,0,0,0,9.452,13.017c1.493-6.044,2.046-12.32,3.127-18.406.967-5.446,1.924-10.893,2.664-16.352-.28-.009-.56-.026-.841-.027a31.408,31.408,0,0,0-21.055,8.131,76.54,76.54,0,0,0,6.653,13.636" transform="translate(-332.082 -68.349)" fill="#d6b9b0"/>
    <path id="Path_6279" data-name="Path 6279" d="M487.125,142.308l-.031-.05c-6.326-10.2-13.909-22.294-14.463-23.012a30.1,30.1,0,0,0-5.89,5.565c-5.909,7.34-8.384,17.422-5.752,25.8,4.283,13.637,19.11,19.648,32.631,15.711-1.173-4.1-6.527-24.067-6.5-24.017" transform="translate(-311.276 -80.702)" fill="#7380d1"/>
    <path id="Path_6280" data-name="Path 6280" d="M427.461,1.737c-.259,2.041-4.269,19.648-4.279,19.714-.195.645-.36.652-.725.644l-46.369-.242a.452.452,0,0,1-.423-.523l.06-.411,4.243-19.479a.466.466,0,0,1,.451-.387l46.7.289a.341.341,0,0,1,.338.4" transform="translate(-254.236 -0.712)" fill="#fff"/>
    <path id="Path_6281" data-name="Path 6281" d="M421.8,21.723h-.066l-46.363-.241a.758.758,0,0,1-.569-.267.809.809,0,0,1-.189-.645l.06-.411,4.247-19.5A.8.8,0,0,1,379.7,0l46.707.289a.681.681,0,0,1,.674.779c-.15,1.184-1.525,7.529-4.085,18.857-.12.531-.192.847-.2.881-.231.771-.5.918-1,.918M379.7.68a.128.128,0,0,0-.112.1l-4.247,19.5-.056.389a.129.129,0,0,0,.031.1.081.081,0,0,0,.056.032l46.37.241c.271.006.274.007.393-.389.013-.06.055-.243.2-.879C425.52,5.69,426.309,1.781,426.411.982,426.41.967,379.7.68,379.7.68Z" transform="translate(-253.523)" fill="#e5d3cf"/>
    <path id="Path_6282" data-name="Path 6282" d="M482.168,18.475H471.425a.306.306,0,0,1,0-.613h10.743a.306.306,0,1,1,0,.613" transform="translate(-318.84 -12.088)" fill="#3d0a09"/>
    <path id="Path_6283" data-name="Path 6283" d="M456.2,39.48a.3.3,0,0,1-.131-.03l-8.668-4.1a.306.306,0,1,1,.262-.553l8.668,4.1a.306.306,0,0,1-.131.583" transform="translate(-302.673 -23.53)" fill="#3d0a09"/>
    <path id="Path_6284" data-name="Path 6284" d="M447.537,23.939a.306.306,0,0,1-.182-.553l7.433-5.465a.306.306,0,0,1,.363.494l-7.433,5.465a.307.307,0,0,1-.181.059" transform="translate(-302.673 -12.089)" fill="#3d0a09"/>
    <path id="Path_6285" data-name="Path 6285" d="M425.386,26.566a.305.305,0,0,1-.131-.03l-8.866-4.211a.306.306,0,1,1,.263-.553l8.866,4.21a.306.306,0,0,1-.132.583" transform="translate(-281.682 -14.715)" fill="#3d0a09"/>
    <path id="Path_6286" data-name="Path 6286" d="M412.674,16.544a2.224,2.224,0,0,0-.058-.493,2.416,2.416,0,0,0-4.292-.84,2.352,2.352,0,0,0-.259,2.207,2.426,2.426,0,0,0,3.406,1.126,2.342,2.342,0,0,0,1.2-2" transform="translate(-276.055 -9.626)" fill="#d6b9b0"/>
    <path id="Path_6287" data-name="Path 6287" d="M468.563,13.966a2.238,2.238,0,0,0-.058-.493,2.416,2.416,0,0,0-4.292-.84,2.352,2.352,0,0,0-.259,2.207,2.426,2.426,0,0,0,3.406,1.126,2.342,2.342,0,0,0,1.2-2" transform="translate(-313.879 -7.881)" fill="#ffc070"/>
    <path id="Path_6288" data-name="Path 6288" d="M445.28,31.338a2.24,2.24,0,0,0-.058-.493,2.416,2.416,0,0,0-4.292-.84,2.352,2.352,0,0,0-.259,2.207,2.426,2.426,0,0,0,3.406,1.126,2.342,2.342,0,0,0,1.2-2" transform="translate(-298.122 -19.638)" fill="#7380d1"/>
    <path id="Path_6289" data-name="Path 6289" d="M501.426,13.966a2.219,2.219,0,0,0-.058-.493,2.416,2.416,0,0,0-4.292-.84,2.352,2.352,0,0,0-.259,2.207,2.426,2.426,0,0,0,3.406,1.126,2.342,2.342,0,0,0,1.2-2" transform="translate(-336.12 -7.881)" fill="#d6b9b0"/>
    <path id="Path_6290" data-name="Path 6290" d="M471.264,43.556a2.24,2.24,0,0,0-.058-.493,2.416,2.416,0,0,0-4.292-.84,2.352,2.352,0,0,0-.259,2.207,2.426,2.426,0,0,0,3.406,1.126,2.342,2.342,0,0,0,1.2-2" transform="translate(-315.707 -27.907)" fill="#d6b9b0"/>
    <path id="Path_6291" data-name="Path 6291" d="M571.882,56.5c.9,1.088.254,2.881.019,4.105l-.82,4.26c-.074.385.516.55.591.163.354-1.841.713-3.681,1.063-5.523.227-1.193.408-2.437-.42-3.438-.251-.3-.682.131-.433.433" transform="translate(-386.487 -37.873)" fill="#931f33"/>
    <path id="Path_6292" data-name="Path 6292" d="M71.347,202.28c-.267,2.209-4.395,21.273-4.4,21.343-.2.7-.371.706-.746.7l-43.2-.256a.483.483,0,0,1-.435-.566l.061-.445,4.367-21.09a.488.488,0,0,1,.464-.419L71,201.851a.364.364,0,0,1,.348.429" transform="translate(-15.264 -136.399)" fill="#fff"/>
    <path id="Path_6293" data-name="Path 6293" d="M65.544,223.949h-.069l-43.2-.257a.76.76,0,0,1-.568-.267.862.862,0,0,1-.2-.686l.061-.445,4.371-21.112a.821.821,0,0,1,.8-.691l43.55.307a.692.692,0,0,1,.515.237.741.741,0,0,1,.168.572c-.155,1.281-1.57,8.152-4.206,20.421-.123.571-.2.911-.2.945-.233.818-.507.974-1.019.974M26.736,201.172a.152.152,0,0,0-.124.125L22.24,222.41l-.058.422a.185.185,0,0,0,.041.146.088.088,0,0,0,.057.034l43.2.256c.279.006.285.007.413-.438.013-.06.054-.252.2-.943,3.278-15.256,4.091-19.492,4.2-20.359a.064.064,0,0,0-.007-.046l-43.553-.31Z" transform="translate(-14.551 -135.687)" fill="#e5d3cf"/>
    <path id="Path_6294" data-name="Path 6294" d="M50.365,218.4c-.177,1.374-2.927,13.233-2.934,13.277-.133.434-.247.439-.5.433l-3.506.032a.305.305,0,0,1-.29-.352l.041-.277,2.909-13.12a.318.318,0,0,1,.309-.261h3.736a.231.231,0,0,1,.232.267" transform="translate(-29.192 -147.624)" fill="#ff5656"/>
    <path id="Path_6295" data-name="Path 6295" d="M100.847,218.4c-.283,1.476-2.927,13.233-2.934,13.277-.133.434-.247.439-.5.433l-3.507.032a.305.305,0,0,1-.29-.352l.041-.277,2.909-13.12a.318.318,0,0,1,.309-.261h3.736a.227.227,0,0,1,.232.267" transform="translate(-63.357 -147.624)" fill="#ffc070"/>
    <path id="Path_6296" data-name="Path 6296" d="M82.5,240.322c-.3,1.265-1.3,6.146-1.311,6.19-.133.434-.247.439-.5.433l-3.507.032a.306.306,0,0,1-.29-.352l.041-.277,1.286-6.032a.318.318,0,0,1,.309-.261h3.736a.225.225,0,0,1,.232.267" transform="translate(-52.038 -162.462)" fill="#f0e3df"/>
    <path id="Path_6297" data-name="Path 6297" d="M66.416,231.376c-.248,1.338-1.984,9.038-1.991,9.082-.133.434-.247.439-.5.433l-3.507.032a.306.306,0,0,1-.29-.352l.041-.277,1.967-8.924a.318.318,0,0,1,.309-.261h3.736a.227.227,0,0,1,.232.267" transform="translate(-40.693 -156.408)" fill="#f0e3df"/>
    <path id="Path_6298" data-name="Path 6298" d="M117.678,231.376c-.248,1.338-1.985,9.038-1.991,9.082-.133.434-.247.439-.5.433l-3.507.032a.306.306,0,0,1-.29-.352l.041-.277,1.967-8.924a.317.317,0,0,1,.309-.261h3.736a.228.228,0,0,1,.232.267" transform="translate(-75.385 -156.408)" fill="#f0e3df"/>
    <path id="Path_6299" data-name="Path 6299" d="M135.355,231.376c-.248,1.338-1.985,9.038-1.991,9.082-.133.434-.247.439-.5.433l-3.507.032a.306.306,0,0,1-.29-.352l.041-.277,1.967-8.924a.318.318,0,0,1,.309-.261h3.736a.227.227,0,0,1,.232.267" transform="translate(-87.349 -156.408)" fill="#ff5656"/>
    <path id="Path_6346" data-name="Path 6346" d="M145.731,14.311c-.494,3.888-8.134,37.437-8.154,37.562-.371,1.228-.686,1.242-1.381,1.226L52.5,52.638a.861.861,0,0,1-.805-1l.114-.784L59.9,13.743a.888.888,0,0,1,.86-.738l84.331.551a.65.65,0,0,1,.645.755" transform="translate(-34.981 -8.801)" fill="#fff"/>
    <path id="Path_6347" data-name="Path 6347" d="M135.62,52.727l-.144,0-83.687-.46a1.136,1.136,0,0,1-.852-.4,1.234,1.234,0,0,1-.288-.984l.114-.783,8.088-37.139a1.217,1.217,0,0,1,1.19-1.006l84.334.551a.99.99,0,0,1,.98,1.137c-.286,2.251-2.906,14.345-7.788,35.947-.226,1-.359,1.587-.369,1.638,0,.01-.005.023-.008.033-.387,1.279-.789,1.469-1.571,1.469M60.041,12.632a.545.545,0,0,0-.52.445l-8.088,37.14-.11.76a.554.554,0,0,0,.13.442.45.45,0,0,0,.34.166l83.694.46c.6.015.75.018,1.05-.971.016-.078.082-.369.369-1.638,6.075-26.88,7.582-34.349,7.777-35.882a.337.337,0,0,0-.071-.265.32.32,0,0,0-.245-.106l-84.325-.551Z" transform="translate(-34.269 -8.089)" fill="#e5d3cf"/>
    <path id="Path_6348" data-name="Path 6348" d="M144.788,59.932H76.872a.949.949,0,0,1-.925-1.157l5.714-25.436a.306.306,0,0,1,.6.134L76.544,58.91a.336.336,0,0,0,.328.41h67.916a.306.306,0,0,1,0,.613" transform="translate(-51.382 -22.402)" fill="#3d0a09"/>
    <path id="Path_6349" data-name="Path 6349" d="M88.192,64.1a.34.34,0,0,1-.221-.6l9.707-8.315a1.494,1.494,0,0,1,1.951.015l5.484,4.841a.222.222,0,0,0,.3-.005l8.095-7.718a.984.984,0,0,1,1-.219L124.9,55.69a.642.642,0,0,0,.536-.052c1.5-.882,6.8-3.987,11.8-6.893,2.838-1.649,5.091-2.949,6.7-3.865,3.2-1.824,3.2-1.825,3.422-1.562a.354.354,0,0,1,0,.447.341.341,0,0,1-.228.122c-1.01.464-11.352,6.474-21.348,12.339a1.324,1.324,0,0,1-1.1.108l-10.385-3.6a.306.306,0,0,0-.313.068l-8.095,7.718a.9.9,0,0,1-1.223.024l-5.484-4.842A.81.81,0,0,0,98.12,55.7l-9.707,8.315a.338.338,0,0,1-.221.082" transform="translate(-59.455 -29.232)" fill="#e75a53"/>
    <path id="Path_6350" data-name="Path 6350" d="M125.353,38.4H112.56a.306.306,0,0,1,0-.613h12.793a.306.306,0,0,1,0,.613" transform="translate(-75.97 -25.576)" fill="#3d0a09"/>
    <path id="Path_6351" data-name="Path 6351" d="M117.674,45.956h-6.4a.306.306,0,0,1,0-.612h6.4a.306.306,0,1,1,0,.612" transform="translate(-75.103 -30.688)" fill="#3d0a09"/>
  </g>
</svg>
