<svg id="Group_2977" data-name="Group 2977" xmlns="http://www.w3.org/2000/svg" xmlns:xlink="http://www.w3.org/1999/xlink" width="185.624" height="124" viewBox="0 0 185.624 124">
  <defs>
    <clipPath id="clip-path">
      <rect id="Rectangle_1784" data-name="Rectangle 1784" width="185.624" height="124" fill="none"/>
    </clipPath>
  </defs>
  <g id="Group_2936" data-name="Group 2936" clip-path="url(#clip-path)">
    <path id="Path_6010" data-name="Path 6010" d="M272.426,42.945a1.345,1.345,0,0,0,.156-1.267c-2.393-5.529-7.6-8.272-13.492-9.986C244.5,27.45,225.643,26.546,212.013,33.9a26.953,26.953,0,0,0-11.149,10.624,1.579,1.579,0,0,0-.08,1.42,1.817,1.817,0,0,0-.031.283c-.067,2.649,2.858,4.2,5,5.426a43.2,43.2,0,0,0,7.059,3.182,57.361,57.361,0,0,0,15.7,2.993,101.319,101.319,0,0,0,18.446-.859c3.009-.372,6.007-.815,9-1.282a48.846,48.846,0,0,0,8.33-1.766,14.117,14.117,0,0,0,6.974-4.567,7.131,7.131,0,0,0,1.156-6.409" transform="translate(-160.014 -22.675)" fill="#fa8a6e"/>
    <path id="Path_6011" data-name="Path 6011" d="M157.375,224.57c18.192-9.944,22.5-29.882,22.9-38.369,1.026-21.591-17.647-32-17.264-32.744q.184-.355.364-.7c2.592-5.026.3-10.581-3.758-13.9-4.353-3.558-10.193-5.164-15.719-5.544-9.968-.686-20.058.144-30.051.031q-23.865-.269-47.674,1.8c-14.733,1.293-30.2,2.375-44,7.874-7.446,2.967-13.424,9.755-17.313,16.574A32.894,32.894,0,0,0,.993,180.637,48.337,48.337,0,0,0,2.912,187c.882,2.179-1.139,4.043-1.858,5.989-3.59,9.722,2.338,25.989,12.557,29.55,2.867,1,18.02-1.06,20.984-.259a1.127,1.127,0,0,0,.036.2c.222.775,32.881-.829,48.435-.189,15.6.642,58.931,10.685,74.31,2.278" transform="translate(0 -106.092)" fill="#fa8a6e"/>
    <path id="Path_6012" data-name="Path 6012" d="M176.172,96.1c-2.5-3.382-6.129-5.236-9.865-6.687a.407.407,0,0,1-.222-.522,11.927,11.927,0,0,0,.658-7.728c-1.14-3.577-4.227-5.233-7.415-6.349A78.8,78.8,0,0,0,137.6,70.558a76.649,76.649,0,0,0-10.763.18.371.371,0,0,1-.346-.184,9.221,9.221,0,0,0-5.14-3.508,31.476,31.476,0,0,0-9.987-1.614,18.189,18.189,0,0,0-9.164,2.505,11.777,11.777,0,0,0-3.753,3.554.372.372,0,0,1-.418.163,12.209,12.209,0,0,0-8.715.547,6.131,6.131,0,0,0-2.922,3.231.371.371,0,0,1-.466.224,39.652,39.652,0,0,0-14.649-2.2,30.072,30.072,0,0,0-8.94,1.508c-2.77,1.011-5.644,2.895-6.654,5.964a5.275,5.275,0,0,0,.25,3.841.407.407,0,0,1-.239.564,33.414,33.414,0,0,0-8.824,4.051,36.229,36.229,0,0,0-3.755,2.836c-1.284,1.1-2.685,2.312-2.784,4.19-.218,4.129,4.081,5.123,7.067,5.685a.392.392,0,0,1,.306.3,9.478,9.478,0,0,0,.477,1.467c1.243,2.964,4.06,4.668,6.922,5.49a53.272,53.272,0,0,0,10.1,1.461c.945.081,1.892.146,2.839.2a.383.383,0,0,1,.334.263c1.468,4.14,5.485,6.371,9.485,7.034a119.085,119.085,0,0,0,14.72,1.083c9.8.387,19.61.289,29.407-.082,9.925-.375,19.839-1.03,29.746-1.746a141.082,141.082,0,0,0,14.444-1.292,16.018,16.018,0,0,0,10.749-6.387c2.958-4.281,2.212-9.78-.757-13.8" transform="translate(-32.154 -52.177)" fill="#ffe8db"/>
    <path id="Path_6013" data-name="Path 6013" d="M726.97,497.483a122.21,122.21,0,0,0-1.664,17.3.426.426,0,0,0,.851,0,120.573,120.573,0,0,1,1.633-17.072c.09-.535-.729-.765-.82-.226" transform="translate(-578.409 -396.482)" fill="#63323c"/>
    <path id="Path_6014" data-name="Path 6014" d="M738.172,494.719c-.74,1.69-1.569,3.615-3.112,4.713.441-1.625.923-3.238,1.406-4.85a.851.851,0,0,0-1.64-.452c-.917,3.062-1.837,6.131-2.461,9.269-.6,3.033-.761,6.146-1.583,9.135a.851.851,0,0,0,1.64.452c.822-2.988.981-6.1,1.584-9.135.176-.883.376-1.761.592-2.635,2.5-1.084,3.7-3.424,4.75-5.811.348-.794-.824-1.488-1.175-.687" transform="translate(-582.748 -393.578)" fill="#63323c"/>
    <path id="Path_6015" data-name="Path 6015" d="M709.668,452.137c-.25-.177-.524-.358-.817-.535a.213.213,0,0,1-.1-.164A3.145,3.145,0,0,0,707,448.969a4.48,4.48,0,0,0-3.964.1.206.206,0,0,1-.256-.037,3.573,3.573,0,0,0-2.637-.991c-2.4-.037-5.767,1.206-6.324,3.845a1.033,1.033,0,0,0-.018.13.813.813,0,0,0-.476-.088,5.569,5.569,0,0,0-3.777,9.34,8.077,8.077,0,0,0,6.327,2.4,5.177,5.177,0,0,0,3.946-2.362.21.21,0,0,1,.3-.064c2.187,1.44,4.747,2.407,7.2.816a4.951,4.951,0,0,0,2.28-3.282,4.042,4.042,0,0,0,.041-.42.212.212,0,0,1,.1-.17,3.9,3.9,0,0,0,1.984-2.561c.284-1.594-.873-2.645-2.056-3.486" transform="translate(-548.726 -357.297)" fill="#1d6651"/>
    <path id="Path_6016" data-name="Path 6016" d="M601.634,409.339a2.446,2.446,0,0,0-1.379-1.075,2.8,2.8,0,0,0-.026-3.717,8,8,0,0,0-4.631-2.3,10.617,10.617,0,0,0-3.931.04,5.731,5.731,0,0,0-3.129-4.23,6.709,6.709,0,0,0-5.759-.155A7.459,7.459,0,0,0,580.17,400a9.117,9.117,0,0,0-1.036,1.471,3.713,3.713,0,0,0-3.253,4.879c.157.517.241.667-.248,1.011a5.9,5.9,0,0,1-.916.467c-.662.307-1.344.57-2.014.86a9.887,9.887,0,0,0-3.125,1.938c-1.563,1.562-2.038,4.305.023,5.7a4.461,4.461,0,0,0,1.19.563.574.574,0,0,0,.433.269,100.631,100.631,0,0,0,18.937.185c1.552-.112,3.1-.238,4.651-.392a4.656,4.656,0,0,0,3.141-1.131,2.217,2.217,0,0,0,.581-1.225c.067-.6-.3-.909-.4-1.454-.18-.97,2.091-1,2.733-1.309a1.724,1.724,0,0,0,.771-2.5" transform="translate(-453.141 -316.852)" fill="#1d6651"/>
    <path id="Path_6017" data-name="Path 6017" d="M364.444,47.454c-1.228-1.316-3.556-1.356-4.173.56-.268.832-1.016.786-1.608,1.242a2.441,2.441,0,0,0-.769,1.041,3.916,3.916,0,0,0,.23,3.038,5.331,5.331,0,0,0,4.966,3.014.335.335,0,0,0,.391.2,5.56,5.56,0,0,0,2.725-1.5.428.428,0,0,0,.028-.034.319.319,0,0,0,.182-.289c.069-2.345-.291-5.474-1.974-7.278" transform="translate(-285.241 -37.094)" fill="#9c4a2f"/>
    <path id="Path_6018" data-name="Path 6018" d="M170.687,490.624c.01-.032.021-.063.032-.1.252-.691.708-1.359,1.021-2.03a44.177,44.177,0,0,0,1.83-4.57c.223-.661-.821-.945-1.043-.288a42.314,42.314,0,0,1-1.89,4.662q.1-2.305.409-4.6c.094-.681-.948-.975-1.043-.287a50.894,50.894,0,0,0,.614,17.471c.144.681,1.186.393,1.043-.287a49.482,49.482,0,0,1-.81-5.192q-.141-1.378-.2-2.763a5.735,5.735,0,0,1,.04-2.021" transform="translate(-135.19 -385.196)" fill="#63323c"/>
    <path id="Path_6019" data-name="Path 6019" d="M132.412,447.373c-.519-1.06-1.948-1.531-3.212-1.757,1.452-1.26,3.067-3.37.967-4.538a10.275,10.275,0,0,0-7.412-.721c-2.254-.379-4.661-.378-6.6.991a4.659,4.659,0,0,0-1.962,4.934,20.1,20.1,0,0,0-4.686.328c-1.232.317-2.548,1.279-2.52,2.689.027,1.326,1.36,1.879,2.458,2.144a4.277,4.277,0,0,0,3.219-.3c.97,1.566,3.076,1.944,4.834,1.819a9.659,9.659,0,0,0,4.17-1.29c3.005.444,6.187.572,8.93-.894,1.184-.633,2.535-1.937,1.813-3.411" transform="translate(-85.319 -350.876)" fill="#1d6651"/>
    <path id="Path_6020" data-name="Path 6020" d="M358.166,104.605a40.3,40.3,0,0,0-3.237-4.645,14.741,14.741,0,0,1-1.5-2.446,16.671,16.671,0,0,1-.987-3.326,15.583,15.583,0,0,0-2.165-5.317,13.2,13.2,0,0,0-4.686-4.278,14.229,14.229,0,0,0-6.891-1.374c-3.422.028-8.056,1.193-10.617,3.556-5.635,5.2-5.909,12.1-5.63,19.306a34.767,34.767,0,0,0,.948,6.745,2.591,2.591,0,0,0,.554,1.058c.792.821,2.566,1.046,3.635,1.339a19.914,19.914,0,0,0,4.622.8,20.786,20.786,0,0,0,6.975-1.028c2.217-.709,4.372-1.609,6.666-2.1a13.106,13.106,0,0,1,3.718-.3c1.334.1,2.633.424,3.967.531a7.057,7.057,0,0,0,3.645-.578c2.267-1.12,2.435-3.7,1.819-5.874a10.486,10.486,0,0,0-.838-2.064" transform="translate(-257.092 -66.364)" fill="#9c4a2f"/>
    <path id="Path_6021" data-name="Path 6021" d="M389.208,235.1c-.157-1.411-1.3-1.674-2.214-1.83a45.977,45.977,0,0,0-5.019-.466,44.011,44.011,0,0,0-5.223,0c-1.288.078-2.569.223-3.847.387-1.006.124-2.876.188-2.876,1.493a3.827,3.827,0,0,0,1.038,1.715,15.842,15.842,0,0,0,2.844,1.626,14.291,14.291,0,0,0,5.736,1.257,15.561,15.561,0,0,0,5.791-1.027c1.635-.631,3.442-1.46,3.416-3.3.075-.05.367.253.354.143" transform="translate(-295.086 -185.59)" fill="#63323c"/>
    <path id="Path_6022" data-name="Path 6022" d="M457.84,130.98a11.514,11.514,0,0,1,2.458,3.85c.54,1.416.816,2.924,1.472,4.3.669,1.4,1.8,2.512,2.341,3.98a4.046,4.046,0,0,1-.541,4.37,4,4,0,0,1-4.383.793c-.232-.118-.437.231-.2.35a4.155,4.155,0,0,0,5.942-3.457,8.136,8.136,0,0,0-1.827-4.64,10.7,10.7,0,0,1-1.336-2.459c-.309-.846-.53-1.72-.807-2.576a12.355,12.355,0,0,0-2.829-4.793c-.181-.189-.467.1-.286.286" transform="translate(-365.067 -104.175)" fill="#662711"/>
    <path id="Path_6023" data-name="Path 6023" d="M456.286,145.868a17.135,17.135,0,0,1,1.221,2.88l1.112,3.034a7.526,7.526,0,0,1,.776,2.985c-.07.971-1,2.092-2.018,1.384-.214-.149-.417.2-.2.35a1.61,1.61,0,0,0,2.177-.423,3.205,3.205,0,0,0,.187-2.943c-.421-1.3-.933-2.57-1.4-3.851a21.58,21.58,0,0,0-1.5-3.62.2.2,0,0,0-.35.2" transform="translate(-363.85 -116.084)" fill="#662711"/>
    <path id="Path_6024" data-name="Path 6024" d="M325.965,322.708a.566.566,0,0,0-.021-.06c.382-15.034-1.825-34.74-7.979-48.582-2.013-4.529-6.345-7.181-10.721-9.115-5.217-2.306-10.81-3.532-16.362-4.73a.516.516,0,0,0-.618.4,22.579,22.579,0,0,1-6.385.337c-1.779-.162-3.739-.475-4.977-1.88a.511.511,0,0,0-.072-1.014,2.585,2.585,0,0,0-1.8.7.559.559,0,0,0-.075.084c-.112-.034.31,1.05.176,1.1-6.067,2.1-11.878,3.978-17.083,7.345-5.362,3.469-8.583,7.2-9.938,13.575-2.683,12.629.776,24.652-.193,37.535-.167,2.225-.406,6.526,2.348,6.608,10.917.325,15.9.475,26.813.929,5.415.2,46.811-1.463,46.822-1.76,0-.045,0-.09,0-.135a2.026,2.026,0,0,0,.063-1.33" transform="translate(-198.622 -205.793)" fill="#ffe8a3"/>
    <path id="Path_6025" data-name="Path 6025" d="M657.124,491.106a108.843,108.843,0,0,0-2.081,17.621c-.043,1.2,3.885.255,2.778-.218-1.474-.629-.032-11.26,1.106-16.906.237-1.176-1.566-1.679-1.8-.5" transform="translate(-522.376 -391.104)" fill="#63323c"/>
    <path id="Path_6026" data-name="Path 6026" d="M172.89,457.283a7.083,7.083,0,0,0-3.974.522,3.987,3.987,0,0,0-2.521,2.62,1.378,1.378,0,0,0,.106.792c.169.388.427.848-.237.86a7.935,7.935,0,0,0-2.064.148c-1.082.3-2.4,1.061-2.429,2.323a.2.2,0,0,0,.405,0c.031-1.489,2.143-2.075,3.326-2.1.44-.008,1,.172,1.369-.134a.76.76,0,0,0,.222-.859c-.142-.373-.374-.566-.293-1.011a2.167,2.167,0,0,1,.372-.82,4.246,4.246,0,0,1,1.492-1.248,6.592,6.592,0,0,1,4.119-.707c.255.039.365-.352.108-.39" transform="translate(-129.007 -364.602)" fill="#261422"/>
    <path id="Path_6027" data-name="Path 6027" d="M260.811,303.627c5.285-2.4,10.561-2.541,16.178-4,18.125-4.72,31.784-15.151,33.668-16.9,1.755-1.626-1.272-5.811.867-6.895a62.808,62.808,0,0,1,6.116-2.435c-2.128-4.125-6.242-6.61-10.4-8.447-5.217-2.306-10.81-3.532-16.362-4.73a.516.516,0,0,0-.618.4,22.565,22.565,0,0,1-6.385.337c-1.779-.162-3.74-.475-4.978-1.88a.511.511,0,0,0-.072-1.014,2.586,2.586,0,0,0-1.8.7.565.565,0,0,0-.075.084c-.112-.034.31,1.05.176,1.1-6.067,2.1-11.878,3.978-17.083,7.345-5.362,3.469-8.583,7.2-9.939,13.575-2.12,9.978-.407,19.577-.072,29.521a38.883,38.883,0,0,1,10.777-6.754" transform="translate(-198.62 -205.792)" fill="#63323c"/>
    <path id="Path_6028" data-name="Path 6028" d="M203.452,527.714a5.9,5.9,0,0,0-3.294,1.065,3.55,3.55,0,0,0-.564-2.556,3.311,3.311,0,0,0-4.354-.881,11.371,11.371,0,0,0-4.066,4.083,18.233,18.233,0,0,0-2.438,5.465.482.482,0,0,0,.93.246c.086-.329.184-.657.289-.983a.422.422,0,0,0,.355.456c2.564.546,5.137,1.212,7.739,1.565a9.755,9.755,0,0,0,6.392-.91,5.152,5.152,0,0,0,2.735-4.305,3.391,3.391,0,0,0-3.724-3.246" transform="translate(-150.498 -418.594)" fill="#1d6651"/>
    <path id="Path_6029" data-name="Path 6029" d="M232.911,555.8c-.25-.862-1.149-1.108-1.941-1.2a10.152,10.152,0,0,0-5.553,1.132.032.032,0,0,1-.046-.036,1.78,1.78,0,0,0-.08-.912c-.426-1.208-1.648-1.408-2.767-1.2a9.322,9.322,0,0,0-4.837,2.814.033.033,0,0,1-.055-.031,2.945,2.945,0,0,0-.072-1.666,2.132,2.132,0,0,0-2.587-1.5,7.36,7.36,0,0,0-3.291,2.575,8.848,8.848,0,0,0-.652.969.034.034,0,0,1-.031.016c-.51-.027-.9-.041-1.106-.048-4.837-.156-9.7-.089-14.538-.012-10.1.162-20.189.553-30.293.493-20.107-.12-40.1-1.827-60.168-2.491-5.577-.184-11.164-.3-16.747-.253h-.01a68.44,68.44,0,0,0-9.648.627c-2.886.436-6.257.751-8.88,2.014-2.051.988-3.7,3.247-1,4.57,3.11,1.525,8.059,1.312,11.528,1.567,7.258.534,14.556.477,21.831.551q8.94.091,17.88.122c11.864.042,59.291,1.427,71.2,1.154q8.935-.205,17.867-.469,4.424-.131,8.848-.276a7.027,7.027,0,0,0,3.4-1.164l.01,0c3.924-.885,8.211-2.085,10.924-5.1a2.549,2.549,0,0,0,.81-2.237" transform="translate(-53.591 -441.082)" fill="#1d6651"/>
    <path id="Path_6030" data-name="Path 6030" d="M379.132,206.859a13.658,13.658,0,0,0,4.218-.814,22.417,22.417,0,0,0,2.321-1.121c-.552-2.725-.966-5.48-1.281-8.241a.243.243,0,0,0,0-.351l-.05-.049a.271.271,0,0,0-.244-.238,19.634,19.634,0,0,0-7.139-4.15,8.448,8.448,0,0,0-3.925-.431c-.669.1-3.461-2.413-3.424-2.169,0,0,2.155,11,2.533,15.849a12.061,12.061,0,0,0,6.988,1.715" transform="translate(-294.753 -150.944)" fill="#ffab6e"/>
    <path id="Path_6031" data-name="Path 6031" d="M374.137,109.392c-.132-3.27.08-6.862-1.237-9.931a7.816,7.816,0,0,0-3.876-4.01c-5.282-2.5-12.152-1.252-15.242,3.973a12.016,12.016,0,0,0-1.616,6.977c.214,2.227,1.535,3.823,3.071,5.292l1.088,4.549c.6,2.5.711,5.214,3.465,6.262a17.513,17.513,0,0,0,6.59.629c2.719-.108,6.271-.47,7.591-3.273.7-1.5.241-8.6.166-10.469" transform="translate(-280.805 -75.129)" fill="#ffab6e"/>
    <path id="Path_6032" data-name="Path 6032" d="M389.69,247.08q-.266-3.272-.816-6.515c-.117-.684-.129-1.714-.825-2.162s-1.438.085-2.038.4a15.96,15.96,0,0,1-2.253.946,17.276,17.276,0,0,1-5.074.889,17.564,17.564,0,0,1-4.516-.438,10.974,10.974,0,0,1-2.144-.738c-.718-.341-2.177-1.795-2.542-.237a11.634,11.634,0,0,0,0,2.7q.025,1.4.072,2.8a.209.209,0,0,0-.063.153c-.006.984-.292,2.379.189,3.3a1.943,1.943,0,0,0,.81.764c2.633,2.293,6.941,2.376,10.323,2a24.4,24.4,0,0,0,5.549-1.267,6.04,6.04,0,0,0,3.373-2.309.21.21,0,0,0-.045-.277" transform="translate(-294.579 -189.983)" fill="#63323c"/>
    <path id="Path_6033" data-name="Path 6033" d="M384.293,192.484c-.358,0-.042,1.666-.956,2.438a2.634,2.634,0,0,1-2.626.267,2.214,2.214,0,0,1-1.047-.769,5.718,5.718,0,0,1-.3-.675,1.943,1.943,0,0,0-.686-.76c-.37-.2-2.341.2-2.948.1a.35.35,0,0,0-.272.052c-.941.088-.977,1.235-1.544,1.875-2.585,2.917-7.509-.815-8.511-1.35a.44.44,0,0,0-.589.122,1.307,1.307,0,0,0-.2,1.063,14.945,14.945,0,0,0,.579,2.434c.325,1.062.667,2.387,1.651,3.038,1.07.707,4.095,3.445,13.916,1.623a6.975,6.975,0,0,0,3.378-1.349c.883-.8.736-8.107.159-8.108" transform="translate(-290.743 -153.5)" fill="#9c4a2f"/>
    <path id="Path_6034" data-name="Path 6034" d="M420.131,272.926c.336,1.241-1.338,1.773-2.2,2.1a21.444,21.444,0,0,1-9.677,1.265c-.259-.025-.258.38,0,.405a22.026,22.026,0,0,0,7.58-.584,18.405,18.405,0,0,0,3.39-1.185,1.894,1.894,0,0,0,1.3-2.105.2.2,0,0,0-.391.108" transform="translate(-325.414 -217.45)" fill="#261422"/>
    <path id="Path_6035" data-name="Path 6035" d="M262.647,428.771q-.585-5.265-.907-10.556a37.667,37.667,0,0,1-4.3-2.629c-1.421-.9-2.942-1.7-4.426-2.5a12.572,12.572,0,0,0-7.481-1.826c-.255,4.658-.3,9.725-.3,13.267,0,4.783-.709,22.112,8.542,22.664a10.115,10.115,0,0,0,9.091-5.361,8.384,8.384,0,0,0,.748-5.6c-.342-2.486-.687-4.97-.964-7.465" transform="translate(-195.554 -327.918)" fill="#ffe8a3"/>
    <path id="Path_6036" data-name="Path 6036" d="M245.864,339.452c1.847-.691,3.691-1.367,5.586-1.921a41.1,41.1,0,0,1,5.806-1.375c1.506-.209,3.046.047,4.543-.145q-.054-1.032-.1-2.065c-.221-5.171.067-10.432-.686-15.564-.3-2.051-.671-4.526-2.122-6.122-1.137-1.251-3.471-2.118-3.751-1.931a19.361,19.361,0,0,0-8.095,10.164c-1.2,3.508-1.545,12.3-1.632,19.139.149-.062.3-.123.451-.179" transform="translate(-195.709 -247.457)" fill="#63323c"/>
    <path id="Path_6037" data-name="Path 6037" d="M270.651,364.421a7.828,7.828,0,0,1,2.442,1.665,22.476,22.476,0,0,1,2.538,2.861,37.179,37.179,0,0,1,4.087,6.742,16.236,16.236,0,0,1,1.179,3.2c.058.254.449.146.391-.108a23.134,23.134,0,0,0-2.849-6.366,30.011,30.011,0,0,0-4.9-6.461,8.615,8.615,0,0,0-2.784-1.924c-.244-.093-.349.3-.108.391" transform="translate(-215.727 -290.292)" fill="#261422"/>
    <path id="Path_6038" data-name="Path 6038" d="M448.209,237.01c.056.017-.386.289-.4.3a4.367,4.367,0,0,1-.473.2,5.238,5.238,0,0,1-.97.241c-.257.04-.148.431.108.39a4.313,4.313,0,0,0,1.909-.7c.31-.239.364-.687-.068-.821-.25-.077-.356.314-.108.391" transform="translate(-355.847 -188.688)" fill="#261422"/>
    <path id="Path_6039" data-name="Path 6039" d="M425.7,145.508c.448.563,1.2,1.239,1.194,2.013a2.036,2.036,0,0,1-.932,1.651.3.3,0,0,0,.307.525,2.672,2.672,0,0,0,1.226-2.049c.08-1.033-.773-1.825-1.366-2.57-.243-.306-.671.126-.43.43" transform="translate(-339.427 -115.612)" fill="#cf694c"/>
    <path id="Path_6040" data-name="Path 6040" d="M414.055,159.085a2.459,2.459,0,0,0-1.867.869c-.25.3.177.729.43.43a1.869,1.869,0,0,1,1.438-.691.3.3,0,0,0,0-.608" transform="translate(-328.646 -126.865)" fill="#cf694c"/>
    <path id="Path_6041" data-name="Path 6041" d="M363.661,98.548a16.47,16.47,0,0,0-1.35-3.7.371.371,0,0,0-.252-.2.628.628,0,0,1-.356-.232c-1.975-2.505-5.513-3.753-8.791-3.885a13.063,13.063,0,0,0-8.363,2.451.461.461,0,0,0-.074.013c-2.13.6-3.454,2.567-4.587,4.336-1.447,2.259-1.458,5.023-1.79,7.615,0,.01,0,.017,0,.027-.426.234-.205.978.285.79,2.154-.826,1.186.63,3.1-.663,1.936-1.306,3.262-5.622,3.629-6.748a3.5,3.5,0,0,1,2.872-2.4,15.626,15.626,0,0,1,4.211.117,21.1,21.1,0,0,0,5.114-.257c1.942-.318,3.328,1.073,4.527,2.388a.851.851,0,0,1,.146.193,30.327,30.327,0,0,1,1.182,3.256c.109.308.613.463.777.1.454-1-.034-2.2-.284-3.2" transform="translate(-269.442 -72.187)" fill="#9c4a2f"/>
    <path id="Path_6042" data-name="Path 6042" d="M420.828,90.314a4.032,4.032,0,0,0-.339-4.389,5.744,5.744,0,0,0-2.847-1.88.2.2,0,0,0-.108.391,5.424,5.424,0,0,1,2.476,1.548,3.61,3.61,0,0,1,.469,4.126c-.109.235.24.441.35.2" transform="translate(-332.856 -67.017)" fill="#662711"/>
    <path id="Path_6043" data-name="Path 6043" d="M386.661,89.9a5.266,5.266,0,0,0-1.874-4.453,7.258,7.258,0,0,0-5.837-1.146c-.253.061-.146.452.108.391a6.9,6.9,0,0,1,5.428,1.035,4.847,4.847,0,0,1,1.77,4.174c-.024.259.382.258.405,0" transform="translate(-302.086 -67.076)" fill="#662711"/>
    <path id="Path_6044" data-name="Path 6044" d="M334.084,126.9c-2.073,2.445-2.611,5.718-2.482,8.835a22.207,22.207,0,0,0,2.351,9.854c.126.228.476.024.35-.2a21.632,21.632,0,0,1-2.288-9.483c-.144-3.055.315-6.309,2.355-8.715.168-.2-.117-.485-.286-.286" transform="translate(-264.428 -101.147)" fill="#662711"/>
    <path id="Path_6045" data-name="Path 6045" d="M359.561,95.413c-.682,1.961.706,3.74,2.484,4.421.244.093.349-.3.108-.391a3.2,3.2,0,0,1-2.2-3.922c.086-.247-.305-.353-.391-.108" transform="translate(-286.598 -75.978)" fill="#662711"/>
    <path id="Path_6046" data-name="Path 6046" d="M344.328,120.62a13.978,13.978,0,0,0-1.59,12.616c.089.243.481.138.39-.108a13.6,13.6,0,0,1,1.549-12.3c.148-.215-.2-.418-.35-.2" transform="translate(-272.658 -96.118)" fill="#662711"/>
    <path id="Path_6047" data-name="Path 6047" d="M426.1,50.308a11.02,11.02,0,0,0-8.9-2.441.344.344,0,0,1-.385-.477,2.371,2.371,0,0,0,.094-2.193c-.677-1.377-2.642-1.894-4.1-2.215a23.925,23.925,0,0,0-9.479.169.348.348,0,0,1-.419-.443,6.776,6.776,0,0,0-.218-5.237,8.563,8.563,0,0,0-5.23-4.446c-5.391-1.81-11.025.683-14.673,4.347a32.656,32.656,0,0,0-5.382,7.689.381.381,0,0,1-.444.171c-3.412-1.014-6.972-1.994-10.59-1.719a12.024,12.024,0,0,0-7.718,3.219.392.392,0,0,1-.4.093,22.222,22.222,0,0,0-8.767-1.105c-2.723.207-6.146.791-8.212,2.573a3.437,3.437,0,0,0-1.081,3.993c2.505,5.505,11.344,3.36,15.975,3.068l.548-.033.261-.014a.367.367,0,0,1,.321.175c.895,1.391,5.071,1.531,6.228,1.552a38.733,38.733,0,0,0,6.351-.412A.358.358,0,0,1,370.3,57a1.336,1.336,0,0,0,.323,1c.65.817,2.065,1.095,3.083,1.255a25.154,25.154,0,0,0,4.5.239,59.019,59.019,0,0,0,9.14-1.1q2.018-.369,4.021-.8a.393.393,0,0,1,.2.009,24.774,24.774,0,0,0,9.066,1.075,29.311,29.311,0,0,0,5.7-1.058,13.863,13.863,0,0,1,3.263-.583,23.228,23.228,0,0,1,3.291.241,36.392,36.392,0,0,0,12.488-.437c1.448-.352,2.749-1.186,2.812-2.675a5.262,5.262,0,0,0-2.08-3.844" transform="translate(-271.076 -25.853)" fill="#ffe8db"/>
    <path id="Path_6048" data-name="Path 6048" d="M709.413,225.677c-.282-.8-1.311-.926-1.972-1.056q-.277-.054-.555-.094a.559.559,0,0,1-.456-.535,1.734,1.734,0,0,0-.3-.834c-.947-1.452-3.205-1.234-4.578-.932a11.71,11.71,0,0,0-2.453.87c-.464.218-.964.551-1.455.779-.68.316-.886.073-1.546-.12a9.366,9.366,0,0,0-5.475.237c-.993.319-3.6,1.141-2.692,2.86a2.755,2.755,0,0,0,1.92,1.08,26.977,26.977,0,0,0,2.96.385,45.1,45.1,0,0,0,12.67-.191c.969-.175,4.635-.457,3.936-2.45" transform="translate(-548.452 -177.042)" fill="#fff"/>
    <path id="Path_6049" data-name="Path 6049" d="M257.305,325.664a8.481,8.481,0,0,0-3.859-.565,14.562,14.562,0,0,0-2.4.241.242.242,0,0,1-.286-.331,1,1,0,0,0-.168-1.267,2.342,2.342,0,0,0-1.382-.495,14.313,14.313,0,0,0-2.225-.134c-2.237.037-5.445-.063-6.738,1.908a.263.263,0,0,1-.143.1,1.212,1.212,0,0,0-.876.957c-.154.9.658,1.587,1.477,1.92a12.814,12.814,0,0,0,6.83.921,6.225,6.225,0,0,0,1.5-.518,3.345,3.345,0,0,1,2.267-.269,17.242,17.242,0,0,0,4.146.075c.837-.084,2.027-.167,2.5-.907.407-.637,0-1.295-.636-1.639" transform="translate(-190.759 -257.671)" fill="#fff"/>
    <path id="Path_6050" data-name="Path 6050" d="M204.317,64.563a15.351,15.351,0,0,0-7.5-.441c-1.34.2-3.928.59-4.274,1.9-.443,1.676,2.58,1.925,3.942,2.048a18.028,18.028,0,0,0,4.083-.055,4.483,4.483,0,0,0,1.492-.37.463.463,0,0,0,.1-.076,5.816,5.816,0,0,0,2.445-.6,2.02,2.02,0,0,0,.448-.343,1.114,1.114,0,0,0,.478-.624c.191-.692-.452-1.15-1.209-1.44" transform="translate(-153.511 -50.932)" fill="#ffe8db"/>
    <path id="Path_6051" data-name="Path 6051" d="M31.017,348.888a2.634,2.634,0,0,0-1.332-.788,18.443,18.443,0,0,0-5.365-.668c-2.994.055-6.217.028-9.042,1.168-.9.365-1.638,1.1-1.3,2.149.374,1.148,1.769,1.6,2.82,1.848,1.836.43,4.68.682,6.276-.642a.614.614,0,0,1,.593-.119,8.667,8.667,0,0,0,6.184-.1,2.47,2.47,0,0,0,1.43-1.748,1.338,1.338,0,0,0-.268-1.1" transform="translate(-11.082 -277.063)" fill="#ffe8db"/>
    <path id="Path_6052" data-name="Path 6052" d="M414.405,176.759c-.057.018-.108.1-.191.091a13.439,13.439,0,0,0-5.153.266c-.25.062-.408.341-.27.513,1.226,1.533,4.995,1.6,5.86-.443,0-.006,0-.011.005-.017.121-.339,0-.488-.252-.41" transform="translate(-325.958 -140.93)" fill="#fff"/>
    <path id="Path_6053" data-name="Path 6053" d="M408.091,171.185a2.216,2.216,0,0,0-2.283-1.741c-1.385-.05-2.77-.11-4.158-.082-1.43.029-3.124.667-3.4,2.507-.14.937,1.053.817,1.5.5.347-.246.474-.761.923-.86a12.476,12.476,0,0,1,3.478-.372,7.21,7.21,0,0,1,1.747.321,13.5,13.5,0,0,1,1.368.747c.659.3.931-.341.819-1.017" transform="translate(-317.585 -135.055)" fill="#9c4a2f"/>
    <path id="Path_6054" data-name="Path 6054" d="M375.747,82.318a12.013,12.013,0,0,0-5.615,1.207c-.235.114-.029.463.2.35a11.566,11.566,0,0,1,5.41-1.151c.261.008.26-.4,0-.405" transform="translate(-295.086 -65.642)" fill="#662711"/>
    <path id="Path_6055" data-name="Path 6055" d="M368.281,63.788c.635-1.014,1.849-.214,2.258.547a5.59,5.59,0,0,1,.466,2.917c-.012.261.393.26.405,0a4.96,4.96,0,0,0-.991-3.767,1.585,1.585,0,0,0-2.488.1c-.139.222.212.425.35.2" transform="translate(-293.388 -50.186)" fill="#662711"/>
    <path id="Path_6056" data-name="Path 6056" d="M372.216,76.026a3.971,3.971,0,0,1,1.078.949c.162.2.447-.084.286-.287a4.277,4.277,0,0,0-1.16-1.012.2.2,0,0,0-.2.35" transform="translate(-296.753 -60.326)" fill="#662711"/>
    <path id="Path_6057" data-name="Path 6057" d="M461.828,192.548a9.6,9.6,0,0,1,.347,3.3,20.433,20.433,0,0,1-.3,3.45c-.043.255.347.365.391.108a21.063,21.063,0,0,0,.311-3.557,9.9,9.9,0,0,0-.361-3.408c-.093-.241-.485-.136-.391.108" transform="translate(-368.282 -153.357)" fill="#662711"/>
    <path id="Path_6058" data-name="Path 6058" d="M352.373,182.517c-.64-1.891-2.179-3.374-3.452-4.954a10.109,10.109,0,0,1-2.433-5.535c-.065-.973-.009-2.025-.165-2.98-.084-.511-.147-1-.774-1.077-1.6-.2-1.9,2.341-1.935,3.245a9.231,9.231,0,0,0,.566,3.338,9.562,9.562,0,0,1-.786-6.424c.213-.9.978-2.394-.34-2.955a1.25,1.25,0,0,0-1.35.25c.123-.7.029-1.4-.839-1.644-.948-.27-1.582.559-1.942,1.392a.9.9,0,0,0-1.274-.368,1.561,1.561,0,0,0-.583.779,15.334,15.334,0,0,0-.651,1.822,13.962,13.962,0,0,0-.67,3.833,8.78,8.78,0,0,0,1.993,5.871,24.47,24.47,0,0,1,1.968,3.149c.615,1.029,1.2,2.075,1.7,3.15a12.576,12.576,0,0,1,1.512,5.664,26.23,26.23,0,0,1-1.093,5.745.276.276,0,0,0,.17.328.346.346,0,0,0,.255.121c1.467.087,2.939.211,4.409.249a42.348,42.348,0,0,0,4.369-.253.348.348,0,0,0,.266-.141.247.247,0,0,0,.166-.195,25.95,25.95,0,0,0,.414-6.86,6.783,6.783,0,0,0,.5-5.548" transform="translate(-267.744 -130.567)" fill="#ffab6e"/>
    <path id="Path_6059" data-name="Path 6059" d="M297.766,302.365c-.424-2.267-3.762-4.01-5.573-4.828a24.966,24.966,0,0,0-6.736-1.9,1.072,1.072,0,0,0-1.145.569c-.563,1.238-11.413,17.407-20.128,37.029a12.358,12.358,0,0,0,1.3,5.844c2.179,4.218,6.8,6.147,11.386,5.666a13.351,13.351,0,0,0,4.689-1.392c.916-1.675,3.654-2.4,4.3-3.759,5.278-11.052,11.764-35.608,11.892-36.227a2.565,2.565,0,0,0,.009-1" transform="translate(-210.679 -235.749)" fill="#ffe8a3"/>
    <path id="Path_6060" data-name="Path 6060" d="M282.705,430.459a.2.2,0,0,1-.159-.328c6.241-7.966,6.289-8.113,8.778-15.817.435-1.347.929-2.875,1.545-4.724a.2.2,0,1,1,.384.128c-.615,1.848-1.109,3.374-1.544,4.72-2.511,7.771-2.559,7.92-8.845,15.942a.2.2,0,0,1-.16.078m-14.287-17.6a.2.2,0,0,1-.2-.24c.684-3.616,2.9-8.14,4.167-10.515.8-1.506,1.645-2.96,2.377-4.093,1.127-1.744,1.314-1.719,1.452-1.7a.2.2,0,0,1,.009.4c-.637.448-6.435,9.786-7.607,15.982a.2.2,0,0,1-.2.165" transform="translate(-213.893 -316.046)" fill="#261422"/>
    <path id="Path_6061" data-name="Path 6061" d="M359.181,326.4a16.1,16.1,0,0,1,9.434,4.36c.189.18.476-.106.286-.287a16.553,16.553,0,0,0-9.72-4.479c-.259-.027-.257.379,0,.405" transform="translate(-286.281 -259.971)" fill="#261422"/>
    <path id="Path_6062" data-name="Path 6062" d="M375.088,190.862c-.941-1.755-1.415-4.3-.4-6.138.174-.316.57-.886.923-.981a.666.666,0,0,1,.706.266,1.337,1.337,0,0,1,.143.362,3.071,3.071,0,0,1,.075.75,19.119,19.119,0,0,0,.17,3.439c.047.256.437.148.391-.108a11.817,11.817,0,0,1-.178-2.677,4.6,4.6,0,0,0-.1-1.636c-.14-.43-.483-.9-.982-.878s-.967.525-1.257.9a4.922,4.922,0,0,0-.825,2.881,8.133,8.133,0,0,0,.989,4.029c.123.23.473.026.35-.2" transform="translate(-298.052 -146.144)" fill="#cf694c"/>
    <path id="Path_6063" data-name="Path 6063" d="M360.943,180.482a8.912,8.912,0,0,1-1.586-5.563,17.327,17.327,0,0,1,.409-3.21c.173-.815.5-2.451,1.665-2.3.421.053.447.6.457.973.044,1.681-.565,3.291-.465,4.978.015.259.42.261.405,0-.1-1.641.467-3.211.467-4.847,0-.456-.017-1.121-.461-1.393-.695-.427-1.581.237-1.926.82a7.526,7.526,0,0,0-.7,2.523,16.063,16.063,0,0,0-.26,2.75,9.146,9.146,0,0,0,1.645,5.477c.153.207.5.006.35-.2" transform="translate(-286.25 -134.757)" fill="#cf694c"/>
    <path id="Path_6064" data-name="Path 6064" d="M357.834,165.066a1.487,1.487,0,0,0-.409-1.474,1.645,1.645,0,0,0-1.659-.12c-.235.114-.029.463.2.35a1.17,1.17,0,0,1,1.323.2,1.372,1.372,0,0,1,.135,1.042c-.03.258.375.256.405,0" transform="translate(-283.63 -130.229)" fill="#cf694c"/>
    <path id="Path_6065" data-name="Path 6065" d="M345.86,172.533c-1.238,3.769-1.368,8.09,1.023,11.448.15.211.5.009.35-.2-2.333-3.278-2.189-7.46-.982-11.136.081-.248-.309-.355-.391-.108" transform="translate(-275.118 -137.478)" fill="#cf694c"/>
    <path id="Path_6066" data-name="Path 6066" d="M86.964,381.819a3.776,3.776,0,0,0-1.571-2.193,7.522,7.522,0,0,0-2.2-1.236.8.8,0,0,1-.4-1.039,5.488,5.488,0,0,0-2.142-6.6c-1.968-1.25-4.374-1.107-6.53-1.01a40.46,40.46,0,0,0-7.131.97,41.139,41.139,0,0,0-7.044,2.3.582.582,0,0,1-.749-.334c-2.016-4.1-6.343-5.5-10.179-5.658-4.067-.168-8.543,1.241-10.913,5.432a.578.578,0,0,1-.7.3c-5.268-1.914-11.286-.158-15.268,4.42-1.158,1.328-4.661.85-6.351,1.4-1.749.572-4.863,2.018-4.955,4.2-.1,2.315,1.518,3.49,3.621,3.88a62.637,62.637,0,0,0,13.315,1.05c2.912-.088,5.82-.342,8.72-.663,1.382-.153,2.763-.322,4.144-.495,1.189-.149,2.685-.584,3.82.056.588.332,1.007.98,1.6,1.319a3.567,3.567,0,0,0,1.871.41,44,44,0,0,0,4.747-.41,72.367,72.367,0,0,0,8.017-1.447.529.529,0,0,1,.4.063,18.745,18.745,0,0,0,7.526,2.874c2.085.211,4.861-.168,6.07-2.432a.6.6,0,0,1,.549-.35,23.087,23.087,0,0,0,6.383-.544c.684-.155,1.361-.352,2.034-.571a6.22,6.22,0,0,0,2.449-1.195,2.83,2.83,0,0,0,.872-2.5" transform="translate(-8.635 -292.677)" fill="#fff"/>
    <path id="Path_6067" data-name="Path 6067" d="M340.349,525.18c-4.9.379-12.482,1.656-17.378,2.1A10.433,10.433,0,0,1,318.7,525.8a16.053,16.053,0,0,0-4.981-2.743,3.4,3.4,0,0,0-2.458.289c-1.71-.8-3.661.082-5.081,1.271q-.231.194-.463.393A1.955,1.955,0,0,0,304.14,525a8.345,8.345,0,0,0-2.082,2.173c-1.15,1.358-2.816,2.969-3.064,4.82a3.989,3.989,0,0,0,.156,1.641c-1.2.523-2.887,1.385-2.049,2.824a2.091,2.091,0,0,0,1.625.936,11.153,11.153,0,0,0,2.132-.019c.894.736,2.062.418,3.053-.121a2.308,2.308,0,0,0,1.8.868,3.317,3.317,0,0,0,1.775-.594,3.729,3.729,0,0,0,1.857.863,2.494,2.494,0,0,0,.945-.148,1.274,1.274,0,0,0,.433.165,4.53,4.53,0,0,0,2.2-.452,6.3,6.3,0,0,0,.873-.392,17.778,17.778,0,0,0,7.538-.032c-.012.134,18.149.6,17.787.333,1.753-3.941,3.648-8.991,1.239-12.681" transform="translate(-236.749 -417.031)" fill="#ffab6e"/>
    <path id="Path_6068" data-name="Path 6068" d="M308.286,577a6.493,6.493,0,0,0,1.521,2.66c.269.285.7-.145.43-.43a5.818,5.818,0,0,1-1.365-2.391.3.3,0,0,0-.586.162" transform="translate(-245.837 -459.841)" fill="#cf694c"/>
    <path id="Path_6069" data-name="Path 6069" d="M324.538,544.264a14.218,14.218,0,0,0-2.446,4.277c-.4,1.532.429,3.343,1.225,4.615.207.331.733.026.525-.307-.732-1.169-1.574-2.908-1.115-4.31a12.179,12.179,0,0,1,.944-1.971,9.619,9.619,0,0,1,1.3-1.874c.262-.289-.166-.72-.43-.43" transform="translate(-256.775 -433.957)" fill="#cf694c"/>
    <path id="Path_6070" data-name="Path 6070" d="M344.869,541.017a13.469,13.469,0,0,0-3.185,4.839,6.592,6.592,0,0,0,.956,5.437.3.3,0,0,0,.525-.307,5.969,5.969,0,0,1-.84-5.141,13.17,13.17,0,0,1,2.974-4.4c.259-.291-.169-.722-.43-.43" transform="translate(-272.287 -431.366)" fill="#cf694c"/>
    <path id="Path_6071" data-name="Path 6071" d="M362.647,549.013a16.684,16.684,0,0,0-3.273,4.318c-.733,1.768-.159,3.526.513,5.213.143.359.731.2.586-.162-.646-1.622-1.24-3.317-.459-5.006a17.481,17.481,0,0,1,3.063-3.933c.258-.292-.17-.723-.43-.43" transform="translate(-286.317 -437.742)" fill="#cf694c"/>
    <path id="Path_6072" data-name="Path 6072" d="M376.738,581.4c.454-.223,2.976-.942,2.807.134-.141.894-1.6,1.23-2.3,1.385-.382.084-.22.669.162.586a4.869,4.869,0,0,0,2.038-.845c.422-.337.9-.942.7-1.521-.484-1.351-2.817-.7-3.706-.263-.351.172-.044.7.307.525" transform="translate(-300.069 -462.796)" fill="#cf694c"/>
    <path id="Path_6073" data-name="Path 6073" d="M650.8,554.757a3.479,3.479,0,0,0-3.714-.157c.044-1.3-.262-2.6-1.925-2.418a4.094,4.094,0,0,0-3.211,2.719c-.609.814-1.034,1.881.132,2.049a13.386,13.386,0,0,0,1.893-.031q1,0,2,.032c1.271.046,2.528.189,3.794.285.689.052,1.437-.076,1.672-.828a1.54,1.54,0,0,0-.645-1.651" transform="translate(-511.454 -440.334)" fill="#1d6651"/>
    <path id="Path_6074" data-name="Path 6074" d="M383.676,573.593a3.875,3.875,0,0,1-.81,1.2.3.3,0,0,0,.43.43,4.316,4.316,0,0,0,.905-1.319c.156-.355-.368-.664-.525-.307" transform="translate(-305.252 -457.295)" fill="#cf694c"/>
    <path id="Path_6075" data-name="Path 6075" d="M553.46,358.017c-.834-5.265-1.356-8.827-2.583-13.693a133.613,133.613,0,0,0-4.167-14.543c-1.84-4.945-4.111-11.028-7.98-14.616-.015-.014-.515-.43-.53-.441a.288.288,0,0,0-.365-.138,5.488,5.488,0,0,0-3.03,3.015,39.517,39.517,0,0,0-2.07,5.533,66.065,66.065,0,0,0-2.487,11.194.347.347,0,0,0-.09.205c-.032.328-.051.655-.059.982-.009.075-.018.15-.027.225s-.783.473-.763.518c.016,4.114,1.832,8.123,3.284,11.893q2.21,5.74,4.685,11.372c-3.256,3.2-4.394,7.258-4.5,11.846a.342.342,0,0,0,.615.2c4.824.186,11.885.768,16.665-.553,4.309-1.191,4.086-8.7,3.406-13" transform="translate(-422.106 -250.858)" fill="#ffe8a3"/>
    <path id="Path_6076" data-name="Path 6076" d="M483.708,508.948c-7.471-.239-15.012.918-22.321,2.361q-3.167.625-6.308,1.374-1.38.33-2.754.686a6.285,6.285,0,0,0-1.624.491c-.155.09-1.272,1.221-.728,1.319,1.941.349,2.387,3.178,2.571,5.286a18.8,18.8,0,0,1-.546,6.453.491.491,0,0,0,.436.623c4.518.215,9.05.206,13.563.127,3.688-.065,16.914-.856,17.459-1.111,2.79-1.31.374-17.664.25-17.607" transform="translate(-358.722 -405.845)" fill="#ffe8a3"/>
    <path id="Path_6077" data-name="Path 6077" d="M449.028,517.728a.2.2,0,0,1-.2-.25,2.49,2.49,0,0,1,1.934-1.917c3.415-1.029,15.775-3.584,20.949-3.893.046,0,4.671-.257,7.516,1.475a.2.2,0,0,1-.21.346c-2.273-1.384-6.026-1.491-7.282-1.417-5.149.308-17.455,2.852-20.857,3.876a2.073,2.073,0,0,0-1.657,1.625.2.2,0,0,1-.2.155" transform="translate(-357.924 -408.027)" fill="#261422"/>
    <path id="Path_6078" data-name="Path 6078" d="M717.022,452.866c1.534,1.018,1.914,3.213,1.652,4.919a4.317,4.317,0,0,1-4.27,3.65.2.2,0,0,0,0,.405,4.72,4.72,0,0,0,4.661-3.948c.3-1.894-.141-4.25-1.838-5.376-.218-.145-.421.206-.2.35" transform="translate(-569.559 -360.84)" fill="#261422"/>
    <path id="Path_6079" data-name="Path 6079" d="M535.462,396.945a13.851,13.851,0,0,0-.115,3.218c.08,1.5.263,2.991.483,4.474a104.72,104.72,0,0,0,2.223,10.755c.486,1.889,1.019,3.766,1.62,5.622.08.247.471.141.391-.108a104.536,104.536,0,0,1-2.7-10.185,72.518,72.518,0,0,1-1.568-9.885,15.021,15.021,0,0,1,.057-3.784c.047-.255-.344-.364-.391-.108" transform="translate(-426.89 -316.435)" fill="#261422"/>
    <path id="Path_6080" data-name="Path 6080" d="M491.841,531.614c2.545,3.309,2.583,7.686,1.554,11.566a.2.2,0,0,0,.39.108c1.055-3.974,1.013-8.489-1.594-11.878-.157-.2-.509,0-.35.2" transform="translate(-392.196 -423.715)" fill="#261422"/>
    <path id="Path_6081" data-name="Path 6081" d="M556.139,275.7a8.306,8.306,0,0,0-1.262-.563.868.868,0,0,1-.311-1.38l.012-.014a2.62,2.62,0,0,0,.4-2.576c-.706-2.05-2.821-2.979-4.615-3.491a38.184,38.184,0,0,0-7.156-1.261,40.041,40.041,0,0,0-5.041-.115.792.792,0,0,1-.786-.827c0-3.371-3.728-6.656-6.044-8.157a20.719,20.719,0,0,0-6.821-2.585,38.715,38.715,0,0,0-7.592-.935,38.282,38.282,0,0,0-6.4.4.707.707,0,0,1-.606-.232.682.682,0,0,0-.119-.1,26.2,26.2,0,0,0-15.683-4.188c-4.773.287-10.527,1.855-13,6.81a9.8,9.8,0,0,0-1.029,5.095.817.817,0,0,1-.7.909,18.384,18.384,0,0,0-9.675,3.536,7.333,7.333,0,0,0-3.249,5.239,3.99,3.99,0,0,0,3.085,4.315,18.03,18.03,0,0,0,5.834.221.733.733,0,0,1,.671.3,10.131,10.131,0,0,0,6.92,3.972,15.531,15.531,0,0,0,5.688-.59,2.376,2.376,0,0,1,2.579.623,21.442,21.442,0,0,0,1.779,1.928c2.65,2.194,6.5,2.336,9.713,2.426a44.113,44.113,0,0,0,12.472-1.419A21.575,21.575,0,0,0,523,279.622a.689.689,0,0,1,.791-.067.583.583,0,0,0,.2.078,88.661,88.661,0,0,0,20.255,1.593,59.7,59.7,0,0,0,9.722-.94,5.371,5.371,0,0,0,3.221-1.714c1.01-1.281.038-2.271-1.049-2.872" transform="translate(-371.989 -199.077)" fill="#ffe8db"/>
    <path id="Path_6082" data-name="Path 6082" d="M584.613,473.446a5.222,5.222,0,0,0-2.721-1.775,16.736,16.736,0,0,0-5.011-.457,19.894,19.894,0,0,0-4.029.436.451.451,0,0,1-.536-.378c-.292-1.742-2.33-2.605-4.025-2.865a9.8,9.8,0,0,0-5.907.694.445.445,0,0,1-.26.044c-2.692-.351-5.511,1.06-6.1,3.711a.447.447,0,0,1-.388.348,12.939,12.939,0,0,0-4.272,1.069c-1.183.584-3.035,2.372-1.348,3.476,1.879,1.23,4.389,1.364,6.561,1.448a26.331,26.331,0,0,0,6.678-.374.441.441,0,0,1,.289.034,16.831,16.831,0,0,0,6.413,1.363,29.1,29.1,0,0,0,7.5-.57c2.488-.515,5.3-1.3,6.971-3.4a2.08,2.08,0,0,0,.191-2.806" transform="translate(-438.08 -373.413)" fill="#fff"/>
    <path id="Path_6083" data-name="Path 6083" d="M571.447,251.833a6.888,6.888,0,0,0-3.208.741c-.321.143-.894.578-1.257.412a5.6,5.6,0,0,1-.87-.7,15.675,15.675,0,0,0-1.605-1.08,24.845,24.845,0,0,0-7.528-2.691c-5.224-1.1-11.074-1.516-15.832,1.354a12.037,12.037,0,0,0-4.961,5.734c-.1.241.293.346.391.108,1.954-4.753,6.782-7.208,11.708-7.573a31.032,31.032,0,0,1,8.752.8,24.29,24.29,0,0,1,7.266,2.615,15.005,15.005,0,0,1,1.93,1.34c.405.333.751.725,1.307.485a8.338,8.338,0,0,1,3.908-1.14c.26.02.259-.385,0-.405" transform="translate(-427.578 -197.518)" fill="#261422"/>
    <path id="Path_6084" data-name="Path 6084" d="M162.383,543.257a1.389,1.389,0,0,0-.448-1.15,1.571,1.571,0,0,0-1.809-.054,5.082,5.082,0,0,0-2.175,4.481.34.34,0,0,0,.678.03,44.588,44.588,0,0,0,4.452.6,2.517,2.517,0,0,0,2.671-1.409c.61-1.769-1.841-3.14-3.37-2.5" transform="translate(-125.96 -432.063)" fill="#1d6651"/>
    <path id="Path_6085" data-name="Path 6085" d="M524.549,153.155a23.572,23.572,0,0,1-7.469,1.067,13.312,13.312,0,0,1-3.634-.65c-1.01-.337-2.043-.965-3.147-.8a4.19,4.19,0,0,0-1.434.613,10.059,10.059,0,0,1-1.764.8,15.934,15.934,0,0,1-3.63.714c-2.491.235-5.009.271-7.507.378-2.482.106-5.917.03-6.97-2.752-.091-.242-.483-.137-.39.108.772,2.042,2.92,2.9,4.954,3.053a34.01,34.01,0,0,0,4.053-.076c1.365-.06,2.732-.113,4.1-.183a16.5,16.5,0,0,0,7.063-1.523,4.445,4.445,0,0,1,1.754-.75,4.674,4.674,0,0,1,1.975.5,13.746,13.746,0,0,0,3.6.9,22.51,22.51,0,0,0,8.559-1.006.2.2,0,0,0-.108-.391" transform="translate(-389.635 -121.524)" fill="#261422"/>
    <path id="Path_6086" data-name="Path 6086" d="M564.692,97.92a11.586,11.586,0,0,0-12.937-.173,21.462,21.462,0,0,0-2.911,2.6c-.56.551-1.124,1.146-1.982.876a16.253,16.253,0,0,1-2.207-1.139,14.832,14.832,0,0,0-7.9-1.859c-3.1.283-5.908,1.779-8.55,3.316a.2.2,0,0,0,.2.35,22.368,22.368,0,0,1,7.7-3.182,13.952,13.952,0,0,1,8.264,1.684c.57.283,1.122.6,1.682.9a2.285,2.285,0,0,0,1.661.37,3.142,3.142,0,0,0,1.288-.9c.525-.511,1.032-1.04,1.57-1.538a10.929,10.929,0,0,1,6.493-2.912,11.051,11.051,0,0,1,7.426,1.96c.212.152.415-.2.2-.35" transform="translate(-421.148 -76.444)" fill="#261422"/>
    <path id="Path_6087" data-name="Path 6087" d="M466.991,83.876l-.645,1.034a5.04,5.04,0,0,1-.6.955c-.421.392-1.814-.354-2.3-.537a19.762,19.762,0,0,0-4.233-1.014,14.628,14.628,0,0,0-8.159.931c-.237.109-.031.458.2.35a15.007,15.007,0,0,1,9.088-.687,19.442,19.442,0,0,1,2.207.536c.737.232,1.442.554,2.18.78.469.144.979.378,1.315-.076.477-.646.864-1.386,1.29-2.068.138-.222-.212-.426-.35-.2" transform="translate(-359.62 -66.813)" fill="#261422"/>
    <path id="Path_6088" data-name="Path 6088" d="M191.656,198.769c-1.755-2.112-4.916-2.131-7.346-1.4a12.076,12.076,0,0,0-6.36,4.653,11.362,11.362,0,0,0-1.814,4.19l.3-.121a13.961,13.961,0,0,0-16.316,1.187c-.2.172.091.457.286.286a13.549,13.549,0,0,1,15.825-1.124.2.2,0,0,0,.3-.121c1.021-4.917,5.712-9.135,10.862-8.975a5.256,5.256,0,0,1,3.982,1.715c.167.2.452-.087.286-.286" transform="translate(-127.635 -157.047)" fill="#261422"/>
    <path id="Path_6089" data-name="Path 6089" d="M650.867,486.663a4.819,4.819,0,0,0-2.34,1.181c-.193.176.094.461.286.286a4.425,4.425,0,0,1,2.162-1.077c.256-.05.147-.44-.108-.391" transform="translate(-517.128 -388.095)" fill="#261422"/>
    <path id="Path_6090" data-name="Path 6090" d="M69.627,418.927a5.076,5.076,0,0,1,4.014,2.094c.274.362.408.887.768,1.176.417.335,1.045-.132,1.447-.29a16.869,16.869,0,0,1,8.917-1.1,15.282,15.282,0,0,1,4.963,1.781.2.2,0,0,0,.2-.35,15.515,15.515,0,0,0-8.615-2,17.975,17.975,0,0,0-4.4.859q-.51.166-1.01.358c-.278.107-.981.528-1.288.395-.166-.072-.315-.509-.4-.662a4.15,4.15,0,0,0-.494-.691,5.424,5.424,0,0,0-4.107-1.971.2.2,0,0,0,0,.405" transform="translate(-55.369 -333.758)" fill="#261422"/>
    <path id="Path_6091" data-name="Path 6091" d="M112.79,240.816a6.525,6.525,0,0,1,9.518-.174,2.04,2.04,0,0,0,.705.6,2.216,2.216,0,0,0,1.066-.034,16.012,16.012,0,0,1,2.891-.145,11.3,11.3,0,0,1,5.408,1.542,8.4,8.4,0,0,1,3.6,4.285c.087.244.478.139.39-.108-1.226-3.441-4.566-5.518-8.071-6a14.8,14.8,0,0,0-2.969-.1c-.474.03-.947.082-1.418.149-.366.052-.7.143-1.006-.134-.17-.154-.312-.341-.476-.5a6.845,6.845,0,0,0-9.922.345c-.175.193.111.48.286.286" transform="translate(-89.675 -189.975)" fill="#261422"/>
    <path id="Path_6092" data-name="Path 6092" d="M132.2,149.316a10.141,10.141,0,0,1,5.731-2.667,21.3,21.3,0,0,1,6.271.738c.254.056.363-.334.108-.39a20.545,20.545,0,0,0-6.735-.718,10.7,10.7,0,0,0-5.661,2.75c-.2.167.088.453.286.286" transform="translate(-105.143 -116.595)" fill="#261422"/>
    <path id="Path_6093" data-name="Path 6093" d="M608.689,570.544a1.185,1.185,0,0,0-1.261-.31.137.137,0,0,1-.176-.138c0-.016,0-.032,0-.048a1.98,1.98,0,0,0-1.587-1.938,2.745,2.745,0,0,0-2.361.633.138.138,0,0,1-.226-.12,2.144,2.144,0,0,0-.164-1.31c-.589-.969-1.994-.307-2.731.074a8.524,8.524,0,0,0-4.453,6.289c-.073.508.661.742.8.3l.129-.1c1.98-.039,3.982-.153,5.957-.043,1.794.1,3.589.738,5.178-.438.764-.565,1.764-1.95.893-2.857" transform="translate(-475.072 -452.013)" fill="#1d6651"/>
    <path id="Path_6094" data-name="Path 6094" d="M382.723,578.365c-.172-1-1.167-1.09-2.019-.968a.194.194,0,0,1-.2-.288,1.951,1.951,0,0,0,.307-1.172,1.082,1.082,0,0,0-.9-1.018,3.179,3.179,0,0,0-2.267.759.2.2,0,0,1-.311-.191,2.026,2.026,0,0,0-.074-1.264c-.384-.836-1.357-.321-1.884.052a6.762,6.762,0,0,0-1.88,2.033.193.193,0,0,1-.354-.065,5.216,5.216,0,0,0-.429-1.278,3.194,3.194,0,0,0-1.631-1.756.938.938,0,0,0-1.185.83,3.069,3.069,0,0,0,.135,1.492.193.193,0,0,1-.263.236,1.264,1.264,0,0,0-1.548.243,1.678,1.678,0,0,0-.032,2.205,3.047,3.047,0,0,0,2.811.9,5.979,5.979,0,0,0,1.592-.354c0,.015-.006.029-.008.044-.017.107.147.153.164.045.01-.061.023-.122.034-.182.021-.011.041-.023.061-.035.084.287.4.415.665.5a22.2,22.2,0,0,0,3.792.816,9.732,9.732,0,0,0,3.573,0c.706-.171,2.009-.644,1.846-1.587" transform="translate(-293.305 -457.084)" fill="#1d6651"/>
    <path id="Path_6095" data-name="Path 6095" d="M62.174,541.186a3.627,3.627,0,0,0-4.248-1.719,3.969,3.969,0,0,0-2.144,1.815.218.218,0,0,1-.379.01,8.752,8.752,0,0,0-2.075-2.384c-1.067-.845-2.782-1.477-3.885-.342s-.844,3.339-.4,4.717q.058.181.124.359a.218.218,0,0,1-.187.291,2.546,2.546,0,0,0-1.637.845c-1.462,1.562-.3,3.341,1.4,3.962a32.965,32.965,0,0,0,6.433,1.663c1.329.185.675-.414,2.013-.6,1.957-.268,3.951-1.662,3.94-3.777a.218.218,0,0,1,.086-.176,3.485,3.485,0,0,0,.959-4.668" transform="translate(-37.221 -429)" fill="#1d6651"/>
    <path id="Path_6096" data-name="Path 6096" d="M736.3,186.214a.27.27,0,0,0-.309.04.518.518,0,0,0-.066.7.734.734,0,0,0,.041.09.26.26,0,0,0,.349.092.534.534,0,0,0-.015-.919" transform="translate(-586.794 -148.475)" fill="#ffe8db"/>
    <path id="Path_6097" data-name="Path 6097" d="M741.9,182.666h-.085a.17.17,0,0,0,0,.34h.085a.17.17,0,0,0,0-.34" transform="translate(-591.445 -145.67)" fill="#ffe8db"/>
    <path id="Path_6098" data-name="Path 6098" d="M781.29,182.246a.17.17,0,0,0,0,.34.17.17,0,0,0,0-.34" transform="translate(-622.923 -145.335)" fill="#ffe8db"/>
    <path id="Path_6099" data-name="Path 6099" d="M750.023,214.353v.085a.17.17,0,0,0,.34,0v-.085a.17.17,0,0,0-.34,0" transform="translate(-598.12 -170.809)" fill="#ffe8db"/>
    <path id="Path_6100" data-name="Path 6100" d="M677.2,174.3l-.17.085c-.2.1-.024.391.172.294l.17-.085c.2-.1.024-.391-.172-.294" transform="translate(-539.844 -138.987)" fill="#ffe8db"/>
    <path id="Path_6101" data-name="Path 6101" d="M776.391,418.241a.17.17,0,0,0,0,.34.17.17,0,0,0,0-.34" transform="translate(-619.016 -333.534)" fill="#ffe8db"/>
    <path id="Path_6102" data-name="Path 6102" d="M175.27,334.117h-.113a.425.425,0,0,0,0,.85h.113a.425.425,0,1,0,0-.85" transform="translate(-139.343 -266.448)" fill="#ffe8db"/>
    <path id="Path_6103" data-name="Path 6103" d="M167.542,324.879h-.113a.255.255,0,0,0,0,.51h.113a.255.255,0,1,0,0-.51" transform="translate(-133.315 -259.081)" fill="#ffe8db"/>
    <path id="Path_6104" data-name="Path 6104" d="M97.183,304.8a.259.259,0,0,0-.361,0l-.113.113a.255.255,0,1,0,.361.361l.113-.113a.259.259,0,0,0,0-.361" transform="translate(-77.064 -243.012)" fill="#ffe8db"/>
    <path id="Path_6105" data-name="Path 6105" d="M89.639,369.111a.255.255,0,0,0,0,.51.255.255,0,0,0,0-.51" transform="translate(-71.287 -294.354)" fill="#ffe8db"/>
    <path id="Path_6106" data-name="Path 6106" d="M87.367,303.323h-.113a.425.425,0,0,0,0,.85h.113a.425.425,0,1,0,0-.85" transform="translate(-69.243 -241.891)" fill="#ffe8db"/>
    <path id="Path_6107" data-name="Path 6107" d="M41.231,309.342h-.113a.34.34,0,1,0,0,.68h.113a.34.34,0,0,0,0-.68" transform="translate(-32.518 -246.69)" fill="#ffe8db"/>
    <path id="Path_6108" data-name="Path 6108" d="M57.429,261.806l-.113-.113a.255.255,0,1,0-.361.361l.113.113a.255.255,0,1,0,.361-.361" transform="translate(-45.361 -208.633)" fill="#ffe8db"/>
    <path id="Path_6109" data-name="Path 6109" d="M103.076,495.646a.255.255,0,0,0,0,.511.255.255,0,0,0,0-.511" transform="translate(-82.003 -395.262)" fill="#ffe8db"/>
    <path id="Path_6110" data-name="Path 6110" d="M152.906,539.318a.255.255,0,0,0,0,.51.255.255,0,0,0,0-.51" transform="translate(-121.741 -430.089)" fill="#ffe8db"/>
    <path id="Path_6111" data-name="Path 6111" d="M226.891,504.045h-.113a.255.255,0,0,0,0,.51h.113a.255.255,0,0,0,0-.51" transform="translate(-180.644 -401.96)" fill="#ffe8db"/>
    <path id="Path_6112" data-name="Path 6112" d="M227.9,496.765a.26.26,0,0,0-.255.255v.113a.255.255,0,0,0,.51,0v-.113a.258.258,0,0,0-.255-.255" transform="translate(-181.537 -396.154)" fill="#ffe8db"/>
    <path id="Path_6113" data-name="Path 6113" d="M479.934,59.208a.346.346,0,0,0-.34.34v.085a.34.34,0,0,0,.68,0v-.085a.344.344,0,0,0-.34-.34" transform="translate(-382.461 -47.216)" fill="#ffe8db"/>
    <path id="Path_6114" data-name="Path 6114" d="M487.431,56.69h-.085a.17.17,0,0,0,0,.34h.085a.17.17,0,0,0,0-.34" transform="translate(-388.512 -45.208)" fill="#ffe8db"/>
    <path id="Path_6115" data-name="Path 6115" d="M314,59.209h-.085a.17.17,0,0,0,0,.34H314a.17.17,0,0,0,0-.34" transform="translate(-250.209 -47.217)" fill="#ffe8db"/>
    <path id="Path_6116" data-name="Path 6116" d="M326.937,47.452a.17.17,0,0,0,0,.34.17.17,0,0,0,0-.34" transform="translate(-260.591 -37.841)" fill="#ffe8db"/>
    <path id="Path_6117" data-name="Path 6117" d="M292.563,71.5a.346.346,0,0,0-.481,0l-.085.085a.34.34,0,1,0,.481.481l.085-.085a.344.344,0,0,0,0-.481" transform="translate(-232.78 -56.939)" fill="#ffe8db"/>
    <path id="Path_6118" data-name="Path 6118" d="M411.822,0a.26.26,0,0,0-.255.255V.34a.255.255,0,0,0,.51,0V.255A.258.258,0,0,0,411.822,0" transform="translate(-328.212 0)" fill="#ffe8db"/>
    <path id="Path_6119" data-name="Path 6119" d="M415.75,41.79l-.085-.085a.425.425,0,0,0-.6.6l.085.085a.425.425,0,1,0,.6-.6" transform="translate(-330.903 -33.161)" fill="#ffe8db"/>
    <path id="Path_6120" data-name="Path 6120" d="M424.42,41.572a.26.26,0,0,0-.255.255v.085a.255.255,0,0,0,.51,0v-.085a.258.258,0,0,0-.255-.255" transform="translate(-338.258 -33.152)" fill="#ffe8db"/>
    <path id="Path_6121" data-name="Path 6121" d="M246.959,96.355v.085a.17.17,0,0,0,.34,0v-.085a.17.17,0,0,0-.34,0" transform="translate(-196.942 -76.709)" fill="#ffe8db"/>
    <path id="Path_6122" data-name="Path 6122" d="M254.795,94.9h-.085a.17.17,0,0,0,0,.34h.085a.17.17,0,0,0,0-.34" transform="translate(-202.992 -75.682)" fill="#ffe8db"/>
    <path id="Path_6123" data-name="Path 6123" d="M251.856,87.344h-.085a.17.17,0,0,0,0,.34h.085a.17.17,0,0,0,0-.34" transform="translate(-200.648 -69.654)" fill="#ffe8db"/>
    <path id="Path_6124" data-name="Path 6124" d="M476.369,77.735l-.085.085a.17.17,0,0,0,.241.241l.085-.085a.17.17,0,0,0-.241-.241" transform="translate(-379.782 -61.951)" fill="#ffe8db"/>
    <path id="Path_6125" data-name="Path 6125" d="M515.061,75.166a.17.17,0,0,0,0,.34.17.17,0,0,0,0-.34" transform="translate(-410.614 -59.943)" fill="#ffe8db"/>
    <path id="Path_6126" data-name="Path 6126" d="M364.671,35.743l-.085.085a.17.17,0,0,0,.24.241l.085-.085a.17.17,0,0,0-.241-.241" transform="translate(-290.706 -28.464)" fill="#ffe8db"/>
    <path id="Path_6127" data-name="Path 6127" d="M531.256,198.051a3.57,3.57,0,0,0-1.11-.34.692.692,0,0,1-.6-.591,2.008,2.008,0,0,0-.885-1.423,3.11,3.11,0,0,0-3.345.159.705.705,0,0,1-.7-.009,4.412,4.412,0,0,0-2.956-.757,2.68,2.68,0,0,0-1.515.817.7.7,0,0,1-.77.172,6.087,6.087,0,0,0-5.641,1.184c-.634.481-1.145,1.358-.551,2.086a2.494,2.494,0,0,0,1.935.647.732.732,0,0,1,.561.269,4.294,4.294,0,0,0,4.913.879,2.453,2.453,0,0,1,1.839-.231c.524.184,1.021.424,1.557.58a11.026,11.026,0,0,0,6.788-.227c.94-.348,2.307-1.083,1.558-2.3a2.616,2.616,0,0,0-1.077-.92" transform="translate(-409.037 -155.541)" fill="#fff"/>
    <path id="Path_6128" data-name="Path 6128" d="M221.8,160.249a2.608,2.608,0,0,0-1.775-.615,14.426,14.426,0,0,0-4.784.288,1.166,1.166,0,0,0,0-1.3,2.47,2.47,0,0,0-2.088-.8,8.967,8.967,0,0,0-4.592,1.129c-.925-.032-1.85-.059-2.773-.047a4,4,0,0,0-3.241,1.218,1.944,1.944,0,0,0-.035,2.563c.864.936,2.229.886,3.384.73a18.208,18.208,0,0,1,4.923.009c1.5.2,3,.487,4.513.591a11.437,11.437,0,0,0,4.117-.362c1.019-.311,2.311-.868,2.613-2a1.548,1.548,0,0,0-.261-1.4" transform="translate(-161.121 -125.852)" fill="#fff"/>
    <path id="Path_6129" data-name="Path 6129" d="M751.084,572.182a9.176,9.176,0,0,0-1.4,2.9l.339-.089c-.829-.948-2.312-.776-3.358-.327a3.969,3.969,0,0,0-2.389,2.779c-.052.254.338.363.391.108a3.536,3.536,0,0,1,1.944-2.417c.925-.465,2.359-.734,3.126.144a.2.2,0,0,0,.338-.089,8.86,8.86,0,0,1,1.361-2.8c.153-.211-.2-.414-.35-.2" transform="translate(-593.53 -456.227)" fill="#261422"/>
    <path id="Path_6130" data-name="Path 6130" d="M648.853,577.406c.917,1.117.4,2.612-.037,3.813-.09.245.3.351.391.108.5-1.371.959-2.955-.068-4.207-.165-.2-.45.086-.286.286" transform="translate(-517.4 -460.18)" fill="#261422"/>
    <path id="Path_6131" data-name="Path 6131" d="M669.359,445.617a4.371,4.371,0,0,0-7.453,2.5l.3-.121a5.03,5.03,0,0,0-4.15-.567,3.053,3.053,0,0,0-2.424,2.668.2.2,0,0,0,.405,0c-.013-1.3,1.308-2.095,2.429-2.359a4.628,4.628,0,0,1,3.535.609.2.2,0,0,0,.3-.121,3.968,3.968,0,0,1,6.776-2.322c.186.183.473-.1.286-.286" transform="translate(-522.844 -354.329)" fill="#261422"/>
    <path id="Path_6132" data-name="Path 6132" d="M637.529,432.18c3.492-1.043,9,.669,8.631,5.116-.022.26.383.258.405,0,.395-4.714-5.41-6.622-9.144-5.507a.2.2,0,0,0,.108.391" transform="translate(-508.21 -344.091)" fill="#261422"/>
    <path id="Path_6133" data-name="Path 6133" d="M236.893,547.075a3.373,3.373,0,0,1-.734,2.605c-.163.2.122.489.286.286a3.826,3.826,0,0,0,.838-3c-.035-.257-.426-.148-.39.108" transform="translate(-188.291 -436.072)" fill="#261422"/>
    <path id="Path_6134" data-name="Path 6134" d="M215.807,563.537c.653-1.01,1.85-2.339,3.192-2.082,1.364.261,1.991,1.632,2.23,2.861.05.256.44.147.39-.108-.276-1.422-1.079-2.943-2.659-3.168-1.487-.212-2.773,1.163-3.5,2.292-.142.22.209.423.35.2" transform="translate(-171.794 -447.395)" fill="#261422"/>
    <path id="Path_6135" data-name="Path 6135" d="M89.281,557.1a6.861,6.861,0,0,1,1.413,3.8c.015.259.42.261.405,0a7.228,7.228,0,0,0-1.468-4c-.156-.2-.508,0-.35.2" transform="translate(-71.167 -444.039)" fill="#261422"/>
    <path id="Path_6136" data-name="Path 6136" d="M89.777,577.082a4.105,4.105,0,0,1,1.968-2.867c1.477-.712,2.392.933,2.894,2.036a.2.2,0,0,0,.277.073,7.2,7.2,0,0,1,4.879-1.435,4.282,4.282,0,0,1,3.471,2.539c.094.24.485.136.39-.108a4.653,4.653,0,0,0-3.566-2.794,7.447,7.447,0,0,0-5.379,1.447l.277.073c-.547-1.2-1.518-2.808-3.1-2.321a4.27,4.27,0,0,0-2.5,3.249c-.053.254.337.363.391.108" transform="translate(-71.279 -457.457)" fill="#261422"/>
    <path id="Path_6137" data-name="Path 6137" d="M653.639,581.6a1.438,1.438,0,0,1,1.624-.879,1.731,1.731,0,0,1,1.262,1.385.2.2,0,0,0,.3.121,7.8,7.8,0,0,1,2.942-1.49,3.974,3.974,0,0,1,1.693-.046c.674.15,1.343.7,1.048,1.455-.1.243.3.348.391.108.542-1.387-1.111-2.047-2.2-2.034a7.1,7.1,0,0,0-4.08,1.657l.3.121a2.1,2.1,0,0,0-1.773-1.705,1.85,1.85,0,0,0-1.894,1.2c-.092.244.3.35.391.108" transform="translate(-520.933 -462.704)" fill="#261422"/>
    <path id="Path_6138" data-name="Path 6138" d="M192.252,557.016a10.506,10.506,0,0,0-.694,2.091c-.055.254.335.362.39.108a10.028,10.028,0,0,1,.654-1.994c.106-.236-.243-.442-.35-.2" transform="translate(-152.757 -444.119)" fill="#261422"/>
    <path id="Path_6139" data-name="Path 6139" d="M146.785,469.368c1.9-.069,4.456.125,5.167,2.268.082.246.473.141.39-.108-.774-2.336-3.45-2.642-5.557-2.565-.26.009-.261.415,0,.405" transform="translate(-116.9 -373.975)" fill="#261422"/>
    <path id="Path_6140" data-name="Path 6140" d="M751.3,457.97a2.821,2.821,0,0,1,1.555,3.893.2.2,0,0,0,.175.3,6.12,6.12,0,0,1,3.558.656,2.982,2.982,0,0,1,1.511,2.847c-.031.258.374.256.405,0a3.329,3.329,0,0,0-1.464-3.032,6.189,6.189,0,0,0-4.011-.876l.175.3a3.235,3.235,0,0,0-1.8-4.488c-.244-.092-.35.3-.108.39" transform="translate(-599.031 -364.894)" fill="#261422"/>
    <path id="Path_6141" data-name="Path 6141" d="M741.2,331.468a7.465,7.465,0,0,0-4.048,1.228c-.639.427-1.2,1.146-2.016,1.162a14.013,14.013,0,0,1-2.527-.513,16.424,16.424,0,0,0-9.132,1.029c-.237.1-.133.491.107.391a16.036,16.036,0,0,1,9.443-.928,8.87,8.87,0,0,0,2.2.422,2.683,2.683,0,0,0,1.572-.8,7.082,7.082,0,0,1,4.4-1.589.2.2,0,0,0,0-.405" transform="translate(-576.839 -264.335)" fill="#261422"/>
  </g>
</svg>
