<svg xmlns="http://www.w3.org/2000/svg" width="25" height="25" viewBox="0 0 25 25">
  <g id="Group_2839" data-name="Group 2839" transform="translate(494 -2719)">
    <path id="badge-check-solid" d="M11.5,0a4.313,4.313,0,0,1,3.814,2.3A4.314,4.314,0,0,1,20.7,7.686a4.316,4.316,0,0,1,0,7.628A4.314,4.314,0,0,1,15.314,20.7a4.316,4.316,0,0,1-7.628,0A4.314,4.314,0,0,1,2.3,15.314a4.316,4.316,0,0,1,0-7.628A4.314,4.314,0,0,1,7.686,2.3,4.313,4.313,0,0,1,11.5,0Zm4.357,10.107a1.077,1.077,0,0,0-1.523-1.523l-4.268,4.268L8.315,11.1a1.077,1.077,0,0,0-1.523,1.523l2.516,2.516a1.074,1.074,0,0,0,1.523,0Z" transform="translate(-493 2720)" fill="#fff"/>
    <rect id="Rectangle_1729" data-name="Rectangle 1729" width="25" height="25" transform="translate(-494 2719)" fill="none"/>
  </g>
</svg>
