<svg xmlns="http://www.w3.org/2000/svg" width="48" height="48" viewBox="0 0 48 48">
  <g id="Group_2842" data-name="Group 2842" transform="translate(494 -2719)">
    <path id="badge-check-solid" d="M22.08,0A8.28,8.28,0,0,1,29.4,4.407a8.284,8.284,0,0,1,10.35,10.35,8.287,8.287,0,0,1,0,14.645A8.284,8.284,0,0,1,29.4,39.753a8.287,8.287,0,0,1-14.645,0A8.284,8.284,0,0,1,4.407,29.4a8.287,8.287,0,0,1,0-14.645,8.284,8.284,0,0,1,10.35-10.35A8.28,8.28,0,0,1,22.08,0Zm8.366,19.406a2.067,2.067,0,1,0-2.924-2.924l-8.194,8.194-3.364-3.364a2.067,2.067,0,0,0-2.924,2.924l4.83,4.83a2.061,2.061,0,0,0,2.924,0Z" transform="translate(-492.08 2720.92)" fill="#4fb096"/>
    <rect id="Rectangle_1729" data-name="Rectangle 1729" width="48" height="48" transform="translate(-494 2719)" fill="none"/>
  </g>
</svg>
