<svg id="Group_4634" data-name="Group 4634" xmlns="http://www.w3.org/2000/svg" xmlns:xlink="http://www.w3.org/1999/xlink" width="155" height="60" viewBox="0 0 155 60">
  <defs>
    <clipPath id="clip-path">
      <rect id="Rectangle_2530" data-name="Rectangle 2530" width="155" height="60" fill="none"/>
    </clipPath>
  </defs>
  <g id="Group_4633" data-name="Group 4633" clip-path="url(#clip-path)">
    <g id="Group_4632" data-name="Group 4632">
      <g id="Group_4631" data-name="Group 4631" clip-path="url(#clip-path)">
        <g id="Group_4630" data-name="Group 4630" opacity="0">
          <g id="Group_4629" data-name="Group 4629">
            <g id="Group_4628" data-name="Group 4628" clip-path="url(#clip-path)">
              <rect id="Rectangle_2525" data-name="Rectangle 2525" width="155" height="60" fill="#fff"/>
            </g>
          </g>
        </g>
        <path id="Path_8057" data-name="Path 8057" d="M140,50H15a5.015,5.015,0,0,1-5-5V15a5.015,5.015,0,0,1,5-5H140a5.015,5.015,0,0,1,5,5V45a5.015,5.015,0,0,1-5,5" fill="#040504"/>
        <path id="Path_8058" data-name="Path 8058" d="M140,10.8a4.2,4.2,0,0,1,4.2,4.2V45a4.2,4.2,0,0,1-4.2,4.2H15A4.2,4.2,0,0,1,10.8,45V15A4.2,4.2,0,0,1,15,10.8Zm0-.8H15a5.015,5.015,0,0,0-5,5V45a5.015,5.015,0,0,0,5,5H140a5.015,5.015,0,0,0,5-5V15a5.015,5.015,0,0,0-5-5" fill="#969595"/>
        <path id="Path_8059" data-name="Path 8059" d="M30.717,29.424,20.07,40.724l0,.007a2.878,2.878,0,0,0,4.236,1.734l.034-.02L36.326,35.53Z" fill="#cc3d23"/>
        <path id="Path_8060" data-name="Path 8060" d="M41.488,27.5l-.01-.007-5.174-3-5.829,5.187,5.85,5.848,5.146-2.969a2.878,2.878,0,0,0,.017-5.06" fill="#ffbe1a"/>
        <path id="Path_8061" data-name="Path 8061" d="M20.07,19.277a2.823,2.823,0,0,0-.1.74V39.985a2.769,2.769,0,0,0,.1.739L31.083,29.713Z" fill="#0063b0"/>
        <path id="Path_8062" data-name="Path 8062" d="M30.8,30l5.51-5.509-11.97-6.94a2.881,2.881,0,0,0-4.265,1.722v0Z" fill="#0c9262"/>
        <path id="Path_8063" data-name="Path 8063" d="M57.418,20.243a2.709,2.709,0,0,1-.745,2,2.909,2.909,0,0,1-2.2.888,3.153,3.153,0,0,1-2.208-5.368,3.019,3.019,0,0,1,2.208-.9,3.085,3.085,0,0,1,1.231.252,2.481,2.481,0,0,1,.939.67l-.528.528a2.027,2.027,0,0,0-1.642-.712,2.319,2.319,0,0,0-2.33,2.4,2.359,2.359,0,0,0,4.006,1.726,1.886,1.886,0,0,0,.5-1.215H54.469V19.79h2.907a2.58,2.58,0,0,1,.042.453" fill="#fff"/>
        <path id="Path_8064" data-name="Path 8064" d="M57.418,20.243a2.709,2.709,0,0,1-.745,2,2.909,2.909,0,0,1-2.2.888,3.153,3.153,0,0,1-2.208-5.368,3.019,3.019,0,0,1,2.208-.9,3.085,3.085,0,0,1,1.231.252,2.481,2.481,0,0,1,.939.67l-.528.528a2.027,2.027,0,0,0-1.642-.712,2.319,2.319,0,0,0-2.33,2.4,2.359,2.359,0,0,0,4.006,1.726,1.886,1.886,0,0,0,.5-1.215H54.469V19.79h2.907A2.58,2.58,0,0,1,57.418,20.243Z" fill="none" stroke="#fff" stroke-width="0.2"/>
        <path id="Path_8065" data-name="Path 8065" d="M62.028,17.737H59.3v1.9H61.76v.721H59.3v1.9h2.732V23h-3.5V17h3.5Z" fill="#fff"/>
        <path id="Path_8066" data-name="Path 8066" d="M62.028,17.737H59.3v1.9H61.76v.721H59.3v1.9h2.732V23h-3.5V17h3.5Z" fill="none" stroke="#fff" stroke-width="0.2"/>
        <path id="Path_8067" data-name="Path 8067" d="M65.279,23h-.771V17.737H62.832V17h4.123v.737H65.279Z" fill="#fff"/>
        <path id="Path_8068" data-name="Path 8068" d="M65.279,23h-.771V17.737H62.832V17h4.123v.737H65.279Z" fill="none" stroke="#fff" stroke-width="0.2"/>
        <rect id="Rectangle_2527" data-name="Rectangle 2527" width="0.771" height="6" transform="translate(69.938 17)" fill="#fff"/>
        <rect id="Rectangle_2528" data-name="Rectangle 2528" width="0.771" height="6" transform="translate(69.938 17)" fill="none" stroke="#fff" stroke-width="0.2"/>
        <path id="Path_8069" data-name="Path 8069" d="M74.128,23h-.771V17.737H71.681V17H75.8v.737H74.128Z" fill="#fff"/>
        <path id="Path_8070" data-name="Path 8070" d="M74.128,23h-.771V17.737H71.681V17H75.8v.737H74.128Z" fill="none" stroke="#fff" stroke-width="0.2"/>
        <path id="Path_8071" data-name="Path 8071" d="M83.609,22.224a3.113,3.113,0,0,1-4.4,0,3.241,3.241,0,0,1,0-4.449,3.1,3.1,0,0,1,4.4,0,3.231,3.231,0,0,1,0,4.445m-3.83-.5a2.308,2.308,0,0,0,3.26,0,2.556,2.556,0,0,0,0-3.444,2.306,2.306,0,0,0-3.26,0,2.559,2.559,0,0,0,0,3.444" fill="#fff"/>
        <path id="Path_8072" data-name="Path 8072" d="M83.609,22.224a3.113,3.113,0,0,1-4.4,0,3.241,3.241,0,0,1,0-4.449,3.1,3.1,0,0,1,4.4,0,3.231,3.231,0,0,1,0,4.445Zm-3.83-.5a2.308,2.308,0,0,0,3.26,0,2.556,2.556,0,0,0,0-3.444,2.306,2.306,0,0,0-3.26,0,2.559,2.559,0,0,0,0,3.444Z" fill="none" stroke="#fff" stroke-width="0.2"/>
        <path id="Path_8073" data-name="Path 8073" d="M85.575,23V17h.938l2.916,4.667h.034l-.034-1.156V17H90.2v6H89.4l-3.051-4.894h-.033l.033,1.157V23Z" fill="#fff"/>
        <path id="Path_8074" data-name="Path 8074" d="M85.575,23V17h.938l2.916,4.667h.034l-.034-1.156V17H90.2v6H89.4l-3.051-4.894h-.033l.033,1.157V23Z" fill="none" stroke="#fff" stroke-width="0.2"/>
        <path id="Path_8075" data-name="Path 8075" d="M78.136,31.752A4.253,4.253,0,1,0,82.4,36.005a4.192,4.192,0,0,0-4.269-4.253m0,6.83a2.584,2.584,0,1,1,2.4-2.577,2.46,2.46,0,0,1-2.4,2.577m-9.313-6.83a4.253,4.253,0,1,0,4.269,4.253,4.192,4.192,0,0,0-4.269-4.253m0,6.83a2.584,2.584,0,1,1,2.4-2.577,2.46,2.46,0,0,1-2.4,2.577M57.744,33.057v1.8h4.317a3.765,3.765,0,0,1-.982,2.271,4.421,4.421,0,0,1-3.335,1.322,4.8,4.8,0,0,1,0-9.6A4.6,4.6,0,0,1,61,30.141l1.273-1.273a6.3,6.3,0,0,0-4.527-1.821,6.606,6.606,0,1,0,0,13.211A6.04,6.04,0,0,0,62.351,38.4a5.958,5.958,0,0,0,1.563-4.221,5.829,5.829,0,0,0-.1-1.127Zm45.308,1.4a3.953,3.953,0,0,0-3.641-2.706A4.041,4.041,0,0,0,95.4,36.005a4.162,4.162,0,0,0,4.22,4.253,4.23,4.23,0,0,0,3.545-1.885l-1.45-.967a2.429,2.429,0,0,1-2.095,1.176,2.164,2.164,0,0,1-2.062-1.288l5.687-2.353Zm-5.8,1.418A2.333,2.333,0,0,1,99.475,33.4a1.645,1.645,0,0,1,1.579.9ZM92.629,40H94.5V27.5H92.629Zm-3.061-7.3H89.5a2.948,2.948,0,0,0-2.239-.95,4.257,4.257,0,0,0,0,8.506,2.9,2.9,0,0,0,2.239-.967h.065V39.9c0,1.627-.87,2.5-2.272,2.5a2.354,2.354,0,0,1-2.143-1.515l-1.627.677a4.053,4.053,0,0,0,3.77,2.513c2.191,0,4.044-1.289,4.044-4.43V32.009H89.568Zm-2.143,5.88a2.587,2.587,0,0,1,0-5.155A2.4,2.4,0,0,1,89.7,36.021a2.376,2.376,0,0,1-2.271,2.561M111.806,27.5h-4.471V40H109.2V35.264h2.606a3.888,3.888,0,1,0,0-7.765m.048,6.025H109.2V29.239h2.654a2.143,2.143,0,1,1,0,4.285m11.532-1.795a3.5,3.5,0,0,0-3.329,1.914l1.656.691a1.769,1.769,0,0,1,1.705-.917,1.8,1.8,0,0,1,1.962,1.609v.128a4.127,4.127,0,0,0-1.946-.482c-1.785,0-3.6.981-3.6,2.814a2.889,2.889,0,0,0,3.1,2.751,2.632,2.632,0,0,0,2.381-1.223h.064v.965h1.8V35.186c0-2.219-1.656-3.457-3.795-3.457m-.225,6.851c-.612,0-1.464-.305-1.464-1.062,0-.964,1.061-1.334,1.978-1.334a3.326,3.326,0,0,1,1.7.418,2.262,2.262,0,0,1-2.219,1.978M133.743,32l-2.139,5.42h-.064L129.32,32h-2.01l3.329,7.575-1.9,4.214h1.945L135.818,32Zm-16.807,8H118.8V27.5h-1.866Z" fill="#fff"/>
      </g>
    </g>
  </g>
</svg>
