<svg xmlns="http://www.w3.org/2000/svg" xmlns:xlink="http://www.w3.org/1999/xlink" width="440" height="363.475" viewBox="0 0 440 363.475">
  <defs>
    <clipPath id="clip-path">
      <rect id="Rectangle_1775" data-name="Rectangle 1775" width="440" height="363.475" fill="none"/>
    </clipPath>
  </defs>
  <g id="Group_2922" data-name="Group 2922" transform="translate(0 0.001)">
    <g id="Group_2922-2" data-name="Group 2922" transform="translate(0 -0.001)" clip-path="url(#clip-path)">
      <path id="Path_4989" data-name="Path 4989" d="M400.695,456.412s120.4-46.945,107.4-188.733C491.92,91.195,125.657,76.9,160.616,327.16c12.9,92.379,105.59,125.342,105.59,125.342Z" transform="translate(-121.271 -104.93)" fill="#faf3e8"/>
      <path id="Path_4990" data-name="Path 4990" d="M1423.663,61.175c-.566-9.553-1.555-20.912-5.134-30.5a41.193,41.193,0,0,0-3.953-8.01c-9.567-14.762-29.054-17.5-45.2-18.076-18.712-.663-40.5-1.769-58.054,5.276-20.689,8.3-26.972,31.322-27.255,51.678-.351,25.215,2.387,59.108,31.718,65.854,12.6,2.9,25.565,1.88,38.365,1.636,12.223-.233,24.246,1.67,36.346-.834,29.52-6.109,34.651-42.035,33.17-67.028" transform="translate(-983.891 -3.142)" fill="#f783b1"/>
      <path id="Path_4991" data-name="Path 4991" d="M137.623,46.107A63.944,63.944,0,0,0,132.41,28.2C120.1,2.158,91.19-2.035,59.329.735,24.462,3.766,1.618,16.944.176,55.211c-.738,19.59.072,51.683,18.076,64.412,20.448,14.458,64.055,10.292,87.522,5.435,33.6-6.961,35.9-51.975,31.848-78.951" transform="translate(0 0.001)" fill="#fdbd65"/>
      <path id="Path_4992" data-name="Path 4992" d="M476.568,558.906c-7.96-3.278-47.459-8.958-76.025-12.366s-71-6.835-83.8,1.127-33.556,26.951-58.529,50.259c0,0,39.911,48.476,53.127,38.525,8.844-6.659,22.934-20.8,22.934-20.8s17.062,52.975,25.49,60c21.437,17.875,80.138,14.019,97.994,10.219,8.931-1.9,10.832-3.669,10.832-3.669,2.185-20.475.95-59.1.95-59.1S489.105,638.921,512,648.494s8.324-79.5,8.324-79.5Z" transform="translate(-197.858 -415.917)" fill="#6083df"/>
      <path id="Path_4993" data-name="Path 4993" d="M1084.359,1114.656c5.476,1.642,11.085,3.146,16.325,5.459.5.219.931-.514.43-.736a140.939,140.939,0,0,0-16.529-5.545.426.426,0,0,0-.227.822" transform="translate(-830.659 -853.458)" fill="#3f2524"/>
      <path id="Path_4994" data-name="Path 4994" d="M455.406,918.7a58.905,58.905,0,0,0-6.129-7.8c-.382-.395-.984.208-.6.6a57.564,57.564,0,0,1,6,7.623c.307.45,1.046.024.736-.43" transform="translate(-343.703 -697.88)" fill="#3f2524"/>
      <path id="Path_4995" data-name="Path 4995" d="M128.3,778.639s-19.549,17.753-32.363,34.336c-14.151,18.313-10.334,47.38,35.794,49.945,52.381,2.912,78.853,4.055,78.853,4.055s3.348,8.223,15,20.685c9.883,10.568,26.177-10.574,24.556-21.41s-19.562-24.348-28.926-28.094-59.1-17.794-59.1-17.794l12.237-10.091c-18.027-23.2-46.05-31.631-46.05-31.631" transform="translate(-67.945 -596.63)" fill="#ffa47b"/>
      <path id="Path_4996" data-name="Path 4996" d="M675.84,1155.326a62.754,62.754,0,0,0,9.981,15.444c.362.413.963-.192.6-.6a62.023,62.023,0,0,1-9.848-15.272c-.226-.5-.961-.066-.735.43" transform="translate(-517.829 -884.767)" fill="#3f2524"/>
      <path id="Path_4997" data-name="Path 4997" d="M650.344,1170.085a101.528,101.528,0,0,0,11.534,17.327c.349.423.949-.182.6-.6a100.494,100.494,0,0,1-11.4-17.154c-.255-.485-.991-.055-.735.43" transform="translate(-498.284 -896.083)" fill="#3f2524"/>
      <path id="Path_4998" data-name="Path 4998" d="M1348.17,880.025q.693,13.406,2.032,26.768c.054.54.907.546.852,0q-1.339-13.357-2.032-26.768c-.028-.546-.88-.549-.852,0" transform="translate(-1033.032 -674.002)" fill="#3f2524"/>
      <path id="Path_4999" data-name="Path 4999" d="M1307.916,747.982a152.868,152.868,0,0,0,.4,43.113q.917,6.066,2.323,12.043c.125.534.947.308.821-.226a152.219,152.219,0,0,1-3.818-42.819q.319-6.075,1.123-12.111c.072-.542-.781-.536-.852,0" transform="translate(-1001.167 -572.83)" fill="#3f2524"/>
      <path id="Path_5000" data-name="Path 5000" d="M625.282,1070.706l-.649,16.27s-21.777,41.33-27.915,78.372c0,0,26.6,18.352,81.44,18.118,48.541-.208,67.455-16.174,67.455-16.174s-12.631-46.634-27.977-72.666l-1.354-12.714s-38.087-14.814-91-11.2" transform="translate(-457.234 -819.992)" fill="#ced8f0"/>
      <path id="Path_5001" data-name="Path 5001" d="M820.851,259.2a11.474,11.474,0,1,0,9.51-13.147,11.473,11.473,0,0,0-9.51,13.147" transform="translate(-628.863 -188.426)" fill="#a95a3d"/>
      <path id="Path_5002" data-name="Path 5002" d="M762.312,468.232l-4.441,18.762s13.091,12.89,32.651,3.451l3.9-18.762Z" transform="translate(-580.717 -358.782)" fill="#ffa47b"/>
      <path id="Path_5003" data-name="Path 5003" d="M712.317,276.052c-.287-11.236,3.46-20.846,14.927-23.815a34.484,34.484,0,0,1,9.124-1.125c8.374.123,15.507,4.351,20.428,11.019,3.537,4.793,5.058,9.384,6.742,13.093,3.288,7.246,4.839,10.832,7.285,17.622,2.8,7.771,2.831,16.164-6.888,20.143-9.9,4.052-21,2.087-30.193-2.865C721.43,303.5,712.7,291.03,712.317,276.052" transform="translate(-545.8 -192.411)" fill="#ffa47b"/>
      <path id="Path_5004" data-name="Path 5004" d="M725.031,208.93c-5.845-1.284-11.272,1.957-15.245,6.7-3.324-3.23-8.068-2.505-11.186,1.12-5.009,5.825-8.88,15.512-7.715,23.772a18.3,18.3,0,0,0-.455,20.536,24.694,24.694,0,0,0,14.026,10.222h-.013l3.141,1.458-1.654,6.988s9.659.062,12.905-9.628c1.709-5.143.731-10.483-.921-15.5-1.552-4.712-5.742-12.314-3.277-17.3,1.08-2.182,3.684-2.188,5.8-2.679,7.433-1.724,12.637-9.1,12.548-16.612-.058-4.852-3.339-8.069-7.951-9.082" transform="translate(-526.798 -159.875)" fill="#a95a3d"/>
      <path id="Path_5005" data-name="Path 5005" d="M839.592,349.548c-2.555-1.486-3.086,1.826-6.164,3.448-2.83,1.491-4.2,3.135-3.149,4.385,1.27,1.511,4.982,1.248,8.275-1.77,3.084-2.826,2.9-4.978,1.038-6.062" transform="translate(-635.93 -267.554)" fill="#a95a3d"/>
      <path id="Path_5006" data-name="Path 5006" d="M877.41,316.99c1.363,2.623,3.584.109,7.052.386,3.188.255,5.225-.4,5.007-2.019-.264-1.956-3.54-3.72-7.938-2.933-4.118.737-5.115,2.653-4.121,4.566" transform="translate(-672.041 -239.247)" fill="#a95a3d"/>
      <path id="Path_5007" data-name="Path 5007" d="M912.511,354.991c1.9-1.359,3.628,1.535,4.081,2.875.295.872.444,2.043-.425,2.645-1.267.878-2.578-.758-3.19-1.7-.682-1.049-1.711-2.932-.467-3.822" transform="translate(-698.763 -271.739)" fill="#261515"/>
      <path id="Path_5008" data-name="Path 5008" d="M861.712,377.409c1.9-1.359,3.628,1.535,4.081,2.875.3.872.444,2.043-.425,2.645-1.267.878-2.578-.758-3.19-1.7-.682-1.049-1.711-2.932-.467-3.822" transform="translate(-659.838 -288.917)" fill="#261515"/>
      <path id="Path_5009" data-name="Path 5009" d="M896.427,365.354c1.6,2.963,4.128,5.249,6.3,7.78.357.417.958-.188.6-.6-2.124-2.477-4.6-4.709-6.166-7.607-.261-.482-1-.053-.736.43" transform="translate(-686.844 -279.46)" fill="#3f2524"/>
      <path id="Path_5010" data-name="Path 5010" d="M906.906,400.885a10.675,10.675,0,0,0,2.339-1,4.372,4.372,0,0,0,1.819-1.605.436.436,0,0,0-.153-.583.43.43,0,0,0-.583.153,3.7,3.7,0,0,1-1.573,1.334,9.7,9.7,0,0,1-2.076.882.426.426,0,0,0,.227.821" transform="translate(-694.512 -304.69)" fill="#3f2524"/>
      <path id="Path_5011" data-name="Path 5011" d="M798.8,397.426a7.808,7.808,0,1,1-10.944-1.47,7.808,7.808,0,0,1,10.944,1.47" transform="translate(-601.339 -302.173)" fill="#ffa47b"/>
      <path id="Path_5012" data-name="Path 5012" d="M800.947,418.341A5.079,5.079,0,0,1,798.414,415a3.937,3.937,0,0,1,1.822-4.066c.448-.31.022-1.049-.43-.735a4.832,4.832,0,0,0-2.248,4.848,5.882,5.882,0,0,0,2.959,4.034c.481.263.911-.472.43-.736" transform="translate(-611.074 -314.253)" fill="#3f2524"/>
      <path id="Path_5013" data-name="Path 5013" d="M871.813,513.607a18.342,18.342,0,0,1-9.311-2.658.426.426,0,0,0-.43.736,19.215,19.215,0,0,0,9.742,2.774.426.426,0,0,0,0-.852" transform="translate(-660.406 -391.464)" fill="#3f2524"/>
      <path id="Path_5014" data-name="Path 5014" d="M911.519,422.33a5.454,5.454,0,0,1,4.765-.943.426.426,0,0,0,.227-.821,6.348,6.348,0,0,0-5.594,1.162.429.429,0,0,0,0,.6.437.437,0,0,0,.6,0" transform="translate(-697.893 -322.089)" fill="#3f2524"/>
      <path id="Path_5015" data-name="Path 5015" d="M944.236,354.368c-5.68,5.268-21.555,18.618-21.906,24.081s3.845,6.215,6.507,5.215,8.645-4.954,8.645-4.954.468,4.214,7.283,4.11c0,0,2.81,6.3,9.573,5.827a19.224,19.224,0,0,0,13.11-5.983l51.845,66.875,43.389-27.782s-64-62.314-86.361-72.614c-13.891-6.4-25.522-.862-32.086,5.225" transform="translate(-706.718 -265.346)" fill="#ffa47b"/>
      <path id="Path_5016" data-name="Path 5016" d="M1016.159,453.16a11.172,11.172,0,0,1,1.663-8.2,19.4,19.4,0,0,1,6.173-5.548.426.426,0,0,0-.43-.735,20.2,20.2,0,0,0-6.574,5.994,12.066,12.066,0,0,0-1.654,8.714c.082.54.9.311.821-.227" transform="translate(-777.861 -336.088)" fill="#3f2524"/>
      <path id="Path_5017" data-name="Path 5017" d="M984.383,435.738a11.172,11.172,0,0,1,1.663-8.2,19.392,19.392,0,0,1,6.173-5.548.426.426,0,0,0-.43-.736,20.2,20.2,0,0,0-6.573,5.994,12.066,12.066,0,0,0-1.654,8.714c.082.54.9.311.821-.227" transform="translate(-753.512 -322.738)" fill="#3f2524"/>
      <path id="Path_5018" data-name="Path 5018" d="M1062.833,474.052a44.179,44.179,0,0,1,4.814-2.476,9.4,9.4,0,0,1,4.466-.885,3.838,3.838,0,0,1,3.421,2.239,3.781,3.781,0,0,1-1.159,3.77.426.426,0,0,0,.6.6c1.733-1.728,2.26-4.682.138-6.342-2.242-1.756-5.265-1.207-7.7-.206a45.267,45.267,0,0,0-5.018,2.562.426.426,0,0,0,.43.735" transform="translate(-813.905 -359.999)" fill="#3f2524"/>
      <path id="Path_5019" data-name="Path 5019" d="M929.108,427.834l-3.981,4.568a47.267,47.267,0,0,0-3.549,4.285c-1.776,2.6-2.609,6.448.094,8.762a5.368,5.368,0,0,0,4.41,1.241c.539-.093.31-.914-.227-.822a4.458,4.458,0,0,1-3.581-1.021,4.409,4.409,0,0,1-1.508-3.721c.2-3.3,2.994-5.862,5.031-8.2l3.912-4.489c.359-.412-.241-1.017-.6-.6" transform="translate(-704.898 -327.72)" fill="#3f2524"/>
      <path id="Path_5020" data-name="Path 5020" d="M610.23,1017.99s43.033,7.91,43.9,12.19-18.727,6.493-18.727,6.493Z" transform="translate(-467.588 -780.033)" fill="#ffa47b"/>
      <path id="Path_5021" data-name="Path 5021" d="M1337.212,696.913l3.433,35.881s48.7,1.082,53.921-32.916c2.663-17.329-13.965-30.747-13.965-30.747Z" transform="translate(-1024.636 -512.72)" fill="#ffa47b"/>
      <path id="Path_5022" data-name="Path 5022" d="M541.626,780.377s-6.28,6.281-12.808,12.218c3.46-14.027,4.789-30.515,5.083-34.681a.154.154,0,0,1,.3-.02,169.836,169.836,0,0,0,7.421,22.483" transform="translate(-405.206 -580.64)" fill="#3f2524"/>
      <path id="Path_5023" data-name="Path 5023" d="M1180.448,835.714a206.313,206.313,0,0,1-25.2-16.839c-.8-6.723-1.353-13.716-2.145-20.456a.113.113,0,0,1,.213-.068c1.805,3.556,11.912,22.731,27.129,37.363" transform="translate(-883.565 -611.686)" fill="#3f2524"/>
      <path id="Path_5024" data-name="Path 5024" d="M294.889,745.624a148.18,148.18,0,0,1,22.368,12.784,144.212,144.212,0,0,1,19.1,15.941q4.991,4.945,9.521,10.327c.354.419.954-.186.6-.6a153.693,153.693,0,0,0-17.557-17.724,144.015,144.015,0,0,0-20.52-14.619q-6.369-3.744-13.088-6.842c-.494-.229-.927.505-.43.736" transform="translate(-225.789 -570.736)" fill="#3f2524"/>
      <path id="Path_5025" data-name="Path 5025" d="M716.46,1139.456c11.7-.38,23.4-.565,35.1-.179a266.039,266.039,0,0,1,36.768,3.539,181.16,181.16,0,0,1,20.307,4.7.426.426,0,0,0,.226-.821,200.657,200.657,0,0,0-36.463-6.9,345.405,345.405,0,0,0-36.532-1.576c-6.471.027-12.94.179-19.407.39-.547.018-.549.87,0,.852" transform="translate(-548.671 -872.151)" fill="#3f2524"/>
      <path id="Path_5026" data-name="Path 5026" d="M975.319,1094.88a189.6,189.6,0,0,1,1.286,20.775c.059,7.018-.236,14.037-.814,21.03-.582,7.042-1.452,14.058-2.552,21.037s-2.429,13.929-3.934,20.835q-2.234,10.249-4.947,20.386-.328,1.235-.662,2.469a.426.426,0,0,0,.821.226c1.83-6.768,3.535-13.57,5.069-20.411,1.545-6.893,2.92-13.825,4.072-20.794s2.091-14,2.747-21.051c.651-7,1.026-14.019,1.057-21.046a193.31,193.31,0,0,0-1.007-20.919q-.132-1.27-.284-2.538c-.064-.538-.916-.544-.852,0" transform="translate(-738.418 -838.639)" fill="#3f2524"/>
      <path id="Path_5027" data-name="Path 5027" d="M1007.847,1205.834a8.155,8.155,0,0,0,6.672-2.481c2.021-2.014,2.514-5.084,2.776-7.8.66-6.86.935-13.786,1.149-20.673q.184-5.911.185-11.826a.426.426,0,0,0-.852,0c0,6.586-.178,13.171-.506,19.749q-.248,4.977-.607,9.948c-.209,2.911-.289,6.077-1.742,8.693a7.323,7.323,0,0,1-6.848,3.573c-.536-.081-.767.74-.227.821" transform="translate(-772.025 -890.87)" fill="#3f2524"/>
      <path id="Path_5028" data-name="Path 5028" d="M770.193,1170.493c5.324-.709,9.676-4.062,13.295-7.836a65.114,65.114,0,0,0,10.024-13.377,47.7,47.7,0,0,0,3.788-8.835c.164-.524-.658-.749-.821-.226a50.208,50.208,0,0,1-7.5,14.546,74.394,74.394,0,0,1-5.158,6.288,37.045,37.045,0,0,1-5.754,5.269,17.729,17.729,0,0,1-7.875,3.319c-.535.071-.543.924,0,.852" transform="translate(-589.849 -873.462)" fill="#3f2524"/>
      <path id="Path_5029" data-name="Path 5029" d="M735.372,1138.6l-6.748,35.233-6.71,35.034q-1.9,9.9-3.793,19.8c-.1.536.718.765.821.226l6.748-35.233,6.71-35.034,3.793-19.8c.1-.536-.718-.765-.821-.226" transform="translate(-550.253 -872.215)" fill="#3f2524"/>
      <path id="Path_5030" data-name="Path 5030" d="M913.434,1077.752c-.061,5-.286,10-.521,14.995-.026.548.826.547.852,0,.235-5,.46-9.992.521-14.995a.426.426,0,0,0-.852,0" transform="translate(-699.518 -825.51)" fill="#3f2524"/>
      <path id="Path_5031" data-name="Path 5031" d="M935.392,1080.536c-.06,4.89-.279,9.774-.509,14.659-.026.548.826.547.852,0,.23-4.885.449-9.769.509-14.659a.426.426,0,0,0-.852,0" transform="translate(-716.352 -827.643)" fill="#3f2524"/>
      <path id="Path_5032" data-name="Path 5032" d="M726.4,546.654q5.924,7.55,12.133,14.869,5.9,6.912,12.08,13.573,3.8,4.123,7.663,8.192c.377.4.979-.2.6-.6-4.4-4.65-8.763-9.327-13.033-14.094q-6.061-6.768-11.829-13.789-3.558-4.334-7.014-8.751c-.338-.431-.937.176-.6.6" transform="translate(-556.53 -418.298)" fill="#3f2524"/>
      <path id="Path_5033" data-name="Path 5033" d="M863.335,598.2l9.906-24,3.339-8.088c.209-.506-.615-.727-.821-.226l-9.906,23.995-3.339,8.088c-.209.506.615.727.821.227" transform="translate(-660.874 -433.394)" fill="#3f2524"/>
      <path id="Path_5034" data-name="Path 5034" d="M757.871,548.5l23.047,25.077,9.6-21.626Z" transform="translate(-580.717 -420.286)" fill="#ffa47b"/>
      <path id="Path_5035" data-name="Path 5035" d="M319.407,935.591q9.244,1.912,18.339,4.465a.426.426,0,0,0,.226-.821q-9.088-2.552-18.339-4.465c-.535-.111-.764.71-.227.821" transform="translate(-244.51 -716.257)" fill="#3f2524"/>
      <path id="Path_5036" data-name="Path 5036" d="M702.868,327.234a12.832,12.832,0,0,1,4.253-2.259,11.188,11.188,0,0,1,4.746-.823,6.337,6.337,0,0,1,2.424.731,12.339,12.339,0,0,1,1.895,1.6c1.476,1.229,3.038-.233,4.136-1.226a15.125,15.125,0,0,1,5.628-3.193c.522-.163.3-.986-.226-.821a16.128,16.128,0,0,0-5.022,2.6c-.746.573-1.385,1.294-2.161,1.825a1.9,1.9,0,0,1-1.219.438c-.51-.054-.816-.5-1.146-.843a6.845,6.845,0,0,0-4.389-1.97,11.706,11.706,0,0,0-4.741.809,14.075,14.075,0,0,0-4.781,2.53c-.412.363.192.964.6.6" transform="translate(-538.004 -246.138)" fill="#3f2524"/>
      <path id="Path_5037" data-name="Path 5037" d="M730.983,371.322a14.474,14.474,0,0,0,4.432,11.85c.4.376,1-.225.6-.6a13.666,13.666,0,0,1-4.183-11.247c.055-.545-.8-.541-.852,0" transform="translate(-560.061 -284.212)" fill="#3f2524"/>
      <path id="Path_5038" data-name="Path 5038" d="M751.256,364.189a19,19,0,0,0,2.244,8.14c.26.483,1,.053.736-.43a18.01,18.01,0,0,1-2.128-7.71c-.025-.546-.877-.549-.852,0" transform="translate(-575.648 -278.744)" fill="#3f2524"/>
      <path id="Path_5039" data-name="Path 5039" d="M783.928,267.089a16.931,16.931,0,0,0,5.575-12c.018-.548-.834-.548-.852,0a16.077,16.077,0,0,1-5.326,11.4c-.409.367.195.967.6.6" transform="translate(-600.117 -195.146)" fill="#3f2524"/>
      <path id="Path_5040" data-name="Path 5040" d="M767.916,247.781a19.913,19.913,0,0,0,3.707-9.6c.06-.544-.792-.54-.852,0a19.081,19.081,0,0,1-3.591,9.171c-.324.442.414.868.736.43" transform="translate(-587.789 -182.193)" fill="#3f2524"/>
      <path id="Path_5041" data-name="Path 5041" d="M1336.673,787.81l8.733,10.28c.356.418.956-.187.6-.6l-8.733-10.28c-.356-.418-.956.187-.6.6" transform="translate(-1024.141 -603.088)" fill="#3f2524"/>
      <path id="Path_5042" data-name="Path 5042" d="M257,174.008c-.242,7.018-9.143,14.721-11.577,19.887a1.636,1.636,0,0,1-1.483.932c-4.151-.006-6.464-.04-7.729-.072a1.639,1.639,0,0,1-1.6-1.555,15.019,15.019,0,0,1,3.239-9.811c3.818-4.86,6.94-8.483,5.912-11.311-1.258-3.459-5.912-.256-8.483,2.313-.811.812-2.26.312-2.985-.579l-3.733-4.588c-.726-.892-.405-1.987.045-3.047,1.532-3.61,5.715-8.286,16-7.259,10.525,1.052,12.653,7.633,12.4,15.088m-10.475,29.008a7.119,7.119,0,0,1-3.659,9.462c-4.416,2.144-9.2-1.406-9.589-4.289-.379-2.777-.346-6.47,3.877-8.551a7.563,7.563,0,0,1,9.37,3.378" transform="translate(-174.804 -121.661)" fill="#fff"/>
      <path id="Path_5043" data-name="Path 5043" d="M1553.482,164.614c-.242,7.018-9.143,14.721-11.578,19.887a1.636,1.636,0,0,1-1.483.932c-4.151-.006-6.464-.04-7.729-.072a1.639,1.639,0,0,1-1.6-1.555,15.019,15.019,0,0,1,3.239-9.811c3.818-4.86,6.94-8.483,5.912-11.311-1.258-3.459-5.912-.256-8.483,2.313-.811.812-2.26.312-2.985-.579l-3.733-4.588c-.726-.892-.405-1.987.045-3.047,1.532-3.61,5.715-8.287,16-7.259,10.525,1.052,12.653,7.633,12.4,15.088m-10.475,29.007a7.119,7.119,0,0,1-3.659,9.462c-4.416,2.145-9.2-1.405-9.589-4.289-.379-2.776-.346-6.47,3.877-8.551a7.563,7.563,0,0,1,9.37,3.378" transform="translate(-1168.234 -114.463)" fill="#fff"/>
    </g>
  </g>
</svg>
