<svg xmlns="http://www.w3.org/2000/svg" xmlns:xlink="http://www.w3.org/1999/xlink" width="1280" height="757.308" viewBox="0 0 1280 757.308">
  <defs>
    <linearGradient id="linear-gradient" x1="0.5" x2="0.5" y2="1" gradientUnits="objectBoundingBox">
      <stop offset="0" stop-color="#4878e4"/>
      <stop offset="1" stop-color="#69c2f4"/>
    </linearGradient>
  </defs>
  <g id="Group_2886" data-name="Group 2886" transform="translate(0 40.853)">
    <path id="Subtraction_2" data-name="Subtraction 2" d="M547.251,410.308l-656.852,0v-.69H511.76c-26.6-1.041-53.155-3.295-78.926-6.7-24.658-3.254-49.26-7.646-73.122-13.054-22.753-5.156-45.435-11.372-67.417-18.475-20.881-6.747-41.676-14.472-61.809-22.959A763.5,763.5,0,0,1,37.358,230.489a774.542,774.542,0,0,1-65.473-61.517c-16.367-17.286-31.775-35.192-45.794-53.22-12.473-16.04-21.512-29.207-26.9-37.429-5.864-8.949-8.764-14.092-8.792-14.142V-347h1280V223.658a609.219,609.219,0,0,1-80.108,55.981c-17.5,10.327-36.057,20.233-55.167,29.44-21.047,10.141-43.277,19.685-66.075,28.368C857.814,379.815,728,404.1,583.2,409.616h587.2v.689H547.573c11.7,0,23.685-.234,35.627-.69H511.76c11.651.456,23.592.689,35.492.69Z" transform="translate(109.6 306.147)" fill="url(#linear-gradient)"/>
  </g>
</svg>
